%TF.GenerationSoftware,KiCad,Pcbnew,10.0.4-10.0.4~ubuntu26.04.1*%
%TF.CreationDate,2026-09-06T01:11:31+09:00*%
%TF.ProjectId,rbphat,72627068-6174-42e6-9b69-6361645f7063,B3*%
%TF.SameCoordinates,Original*%
%TF.FileFunction,Copper,L1,Top*%
%TF.FilePolarity,Positive*%
%FSLAX46Y46*%
G04 Gerber Fmt 4.6, Leading zero omitted, Abs format (unit mm)*
G04 Created by KiCad (PCBNEW 10.0.4-10.0.4~ubuntu26.04.1) date 2026-09-06 01:11:31*
%MOMM*%
%LPD*%
G01*
G04 APERTURE LIST*
G04 Aperture macros list*
%AMRoundRect*
0 Rectangle with rounded corners*
0 $1 Rounding radius*
0 $2 $3 $4 $5 $6 $7 $8 $9 X,Y pos of 4 corners*
0 Add a 4 corners polygon primitive as box body*
4,1,4,$2,$3,$4,$5,$6,$7,$8,$9,$2,$3,0*
0 Add four circle primitives for the rounded corners*
1,1,$1+$1,$2,$3*
1,1,$1+$1,$4,$5*
1,1,$1+$1,$6,$7*
1,1,$1+$1,$8,$9*
0 Add four rect primitives between the rounded corners*
20,1,$1+$1,$2,$3,$4,$5,0*
20,1,$1+$1,$4,$5,$6,$7,0*
20,1,$1+$1,$6,$7,$8,$9,0*
20,1,$1+$1,$8,$9,$2,$3,0*%
G04 Aperture macros list end*
%TA.AperFunction,SMDPad,CuDef*%
%ADD10RoundRect,0.050000X-0.650000X-0.175000X0.650000X-0.175000X0.650000X0.175000X-0.650000X0.175000X0*%
%TD*%
%TA.AperFunction,SMDPad,CuDef*%
%ADD11RoundRect,0.200000X0.275000X-0.200000X0.275000X0.200000X-0.275000X0.200000X-0.275000X-0.200000X0*%
%TD*%
%TA.AperFunction,SMDPad,CuDef*%
%ADD12RoundRect,0.212500X0.212500X0.212500X-0.212500X0.212500X-0.212500X-0.212500X0.212500X-0.212500X0*%
%TD*%
%TA.AperFunction,SMDPad,CuDef*%
%ADD13RoundRect,0.050000X-0.700000X-0.175000X0.700000X-0.175000X0.700000X0.175000X-0.700000X0.175000X0*%
%TD*%
%TA.AperFunction,SMDPad,CuDef*%
%ADD14RoundRect,0.225000X0.250000X-0.225000X0.250000X0.225000X-0.250000X0.225000X-0.250000X-0.225000X0*%
%TD*%
%TA.AperFunction,SMDPad,CuDef*%
%ADD15RoundRect,0.200000X-0.200000X-0.275000X0.200000X-0.275000X0.200000X0.275000X-0.200000X0.275000X0*%
%TD*%
%TA.AperFunction,SMDPad,CuDef*%
%ADD16C,1.500000*%
%TD*%
%TA.AperFunction,SMDPad,CuDef*%
%ADD17RoundRect,0.050000X-0.725000X-0.250000X0.725000X-0.250000X0.725000X0.250000X-0.725000X0.250000X0*%
%TD*%
%TA.AperFunction,SMDPad,CuDef*%
%ADD18RoundRect,0.150000X0.700000X-0.150000X0.700000X0.150000X-0.700000X0.150000X-0.700000X-0.150000X0*%
%TD*%
%TA.AperFunction,SMDPad,CuDef*%
%ADD19RoundRect,0.250000X1.150000X-0.250000X1.150000X0.250000X-1.150000X0.250000X-1.150000X-0.250000X0*%
%TD*%
%TA.AperFunction,SMDPad,CuDef*%
%ADD20RoundRect,0.225000X-0.225000X-0.250000X0.225000X-0.250000X0.225000X0.250000X-0.225000X0.250000X0*%
%TD*%
%TA.AperFunction,SMDPad,CuDef*%
%ADD21RoundRect,0.050000X-0.500000X-0.250000X0.500000X-0.250000X0.500000X0.250000X-0.500000X0.250000X0*%
%TD*%
%TA.AperFunction,SMDPad,CuDef*%
%ADD22RoundRect,0.050000X-0.400000X-0.150000X0.400000X-0.150000X0.400000X0.150000X-0.400000X0.150000X0*%
%TD*%
%TA.AperFunction,SMDPad,CuDef*%
%ADD23RoundRect,0.050000X-0.600000X-0.250000X0.600000X-0.250000X0.600000X0.250000X-0.600000X0.250000X0*%
%TD*%
%TA.AperFunction,SMDPad,CuDef*%
%ADD24RoundRect,0.250000X0.550000X-1.350000X0.550000X1.350000X-0.550000X1.350000X-0.550000X-1.350000X0*%
%TD*%
%TA.AperFunction,SMDPad,CuDef*%
%ADD25RoundRect,0.050000X0.675000X0.100000X-0.675000X0.100000X-0.675000X-0.100000X0.675000X-0.100000X0*%
%TD*%
%TA.AperFunction,ComponentPad*%
%ADD26R,1.700000X1.700000*%
%TD*%
%TA.AperFunction,ComponentPad*%
%ADD27C,1.700000*%
%TD*%
%TA.AperFunction,ViaPad*%
%ADD28C,0.600000*%
%TD*%
%TA.AperFunction,Conductor*%
%ADD29C,0.500000*%
%TD*%
%TA.AperFunction,Conductor*%
%ADD30C,0.200000*%
%TD*%
%TA.AperFunction,Conductor*%
%ADD31C,0.375000*%
%TD*%
%TA.AperFunction,Conductor*%
%ADD32C,0.400200*%
%TD*%
%TA.AperFunction,Conductor*%
%ADD33C,0.300000*%
%TD*%
%TA.AperFunction,Conductor*%
%ADD34C,0.250000*%
%TD*%
%TA.AperFunction,Conductor*%
%ADD35C,0.450200*%
%TD*%
G04 APERTURE END LIST*
D10*
%TO.P,U302,1*%
%TO.N,+3V3_PI*%
X16800000Y-23025000D03*
%TO.P,U302,2*%
%TO.N,PI_SCL*%
X16800000Y-23675000D03*
%TO.P,U302,3*%
%TO.N,PI_SDA*%
X16800000Y-24325000D03*
%TO.P,U302,4*%
%TO.N,GND*%
X16800000Y-24975000D03*
%TO.P,U302,5*%
%TO.N,POWER_GOOD*%
X21200000Y-24975000D03*
%TO.P,U302,6*%
%TO.N,/Battery sensing and I2C isolation/ADC_SDA*%
X21200000Y-24325000D03*
%TO.P,U302,7*%
%TO.N,/Battery sensing and I2C isolation/ADC_SCL*%
X21200000Y-23675000D03*
%TO.P,U302,8*%
%TO.N,+3V3_ANA*%
X21200000Y-23025000D03*
%TD*%
D11*
%TO.P,R2,1*%
%TO.N,+3V3_RS*%
X34000000Y-10825000D03*
%TO.P,R2,2*%
%TO.N,GND*%
X34000000Y-9175000D03*
%TD*%
%TO.P,R3,1*%
%TO.N,+3V3_ANA*%
X18000000Y-19825000D03*
%TO.P,R3,2*%
%TO.N,GND*%
X18000000Y-18175000D03*
%TD*%
D12*
%TO.P,D201,1*%
%TO.N,/PAY full-duplex RS-422/PAY_RX+*%
X55300000Y-36450000D03*
%TO.P,D201,2*%
%TO.N,/PAY full-duplex RS-422/PAY_RX-*%
X55300000Y-34550000D03*
%TO.P,D201,3*%
%TO.N,GND*%
X53300000Y-35500000D03*
%TD*%
D11*
%TO.P,R107,1*%
%TO.N,/CTRL full-duplex RS-422/CTRL_RX+*%
X54300000Y-20625000D03*
%TO.P,R107,2*%
%TO.N,/CTRL full-duplex RS-422/CTRL_RX-*%
X54300000Y-18975000D03*
%TD*%
D13*
%TO.P,U300,1*%
%TO.N,POWER_GOOD*%
X20100000Y-39050000D03*
%TO.P,U300,2*%
%TO.N,/Battery sensing and I2C isolation/BAT_DIV*%
X20100000Y-39700000D03*
%TO.P,U300,3*%
%TO.N,/Battery sensing and I2C isolation/BAT_ADC*%
X20100000Y-40350000D03*
%TO.P,U300,4*%
%TO.N,GND*%
X20100000Y-41000000D03*
%TO.P,U300,5*%
%TO.N,unconnected-(U300-S2-Pad5)*%
X20100000Y-41650000D03*
%TO.P,U300,6*%
%TO.N,unconnected-(U300-D2-Pad6)*%
X20100000Y-42300000D03*
%TO.P,U300,7*%
%TO.N,GND*%
X20100000Y-42950000D03*
%TO.P,U300,8*%
%TO.N,unconnected-(U300-D3-Pad8)*%
X25900000Y-42950000D03*
%TO.P,U300,9*%
%TO.N,unconnected-(U300-S3-Pad9)*%
X25900000Y-42300000D03*
%TO.P,U300,10*%
%TO.N,GND*%
X25900000Y-41650000D03*
%TO.P,U300,11*%
%TO.N,unconnected-(U300-D4-Pad11)*%
X25900000Y-41000000D03*
%TO.P,U300,12*%
%TO.N,unconnected-(U300-S4-Pad12)*%
X25900000Y-40350000D03*
%TO.P,U300,13*%
%TO.N,GND*%
X25900000Y-39700000D03*
%TO.P,U300,14*%
%TO.N,+3V3_ANA*%
X25900000Y-39050000D03*
%TD*%
D14*
%TO.P,C5,1*%
%TO.N,/ANA_FEED*%
X20000000Y-14775000D03*
%TO.P,C5,2*%
%TO.N,GND*%
X20000000Y-13225000D03*
%TD*%
D15*
%TO.P,R301,1*%
%TO.N,/Battery sensing and I2C isolation/BAT_MID*%
X13175000Y-40000000D03*
%TO.P,R301,2*%
%TO.N,/Battery sensing and I2C isolation/BAT_DIV*%
X14825000Y-40000000D03*
%TD*%
D14*
%TO.P,C201,1*%
%TO.N,/PAY full-duplex RS-422/PAY_VCC*%
X41200000Y-38775000D03*
%TO.P,C201,2*%
%TO.N,GND*%
X41200000Y-37225000D03*
%TD*%
D16*
%TO.P,TP200,1*%
%TO.N,/PAY full-duplex RS-422/PAY_VCC*%
X46000000Y-35000000D03*
%TD*%
D11*
%TO.P,R207,1*%
%TO.N,/PAY full-duplex RS-422/PAY_RX+*%
X54300000Y-40625000D03*
%TO.P,R207,2*%
%TO.N,/PAY full-duplex RS-422/PAY_RX-*%
X54300000Y-38975000D03*
%TD*%
D17*
%TO.P,U201,1*%
%TO.N,/PAY full-duplex RS-422/PAY_VCC*%
X43300000Y-38095000D03*
%TO.P,U201,2*%
%TO.N,/PAY full-duplex RS-422/PAY_RO*%
X43300000Y-39365000D03*
%TO.P,U201,3*%
%TO.N,/PAY full-duplex RS-422/PAY_DI*%
X43300000Y-40635000D03*
%TO.P,U201,4*%
%TO.N,GND*%
X43300000Y-41905000D03*
%TO.P,U201,5*%
%TO.N,/PAY full-duplex RS-422/PAY_Y*%
X48700000Y-41905000D03*
%TO.P,U201,6*%
%TO.N,/PAY full-duplex RS-422/PAY_Z*%
X48700000Y-40635000D03*
%TO.P,U201,7*%
%TO.N,/PAY full-duplex RS-422/PAY_B*%
X48700000Y-39365000D03*
%TO.P,U201,8*%
%TO.N,/PAY full-duplex RS-422/PAY_A*%
X48700000Y-38095000D03*
%TD*%
D15*
%TO.P,R202,1*%
%TO.N,/PAY full-duplex RS-422/PAY_RX_BUF*%
X31175000Y-43000000D03*
%TO.P,R202,2*%
%TO.N,PAY_RX*%
X32825000Y-43000000D03*
%TD*%
D14*
%TO.P,C300,1*%
%TO.N,/Battery sensing and I2C isolation/BAT_DIV*%
X18000000Y-40775000D03*
%TO.P,C300,2*%
%TO.N,GND*%
X18000000Y-39225000D03*
%TD*%
D15*
%TO.P,R206,1*%
%TO.N,/PAY full-duplex RS-422/PAY_B*%
X50575000Y-39200000D03*
%TO.P,R206,2*%
%TO.N,/PAY full-duplex RS-422/PAY_RX-*%
X52225000Y-39200000D03*
%TD*%
%TO.P,R105,1*%
%TO.N,/CTRL full-duplex RS-422/CTRL_A*%
X50575000Y-17500000D03*
%TO.P,R105,2*%
%TO.N,/CTRL full-duplex RS-422/CTRL_RX+*%
X52225000Y-17500000D03*
%TD*%
D18*
%TO.P,J2,1*%
%TO.N,/CTRL full-duplex RS-422/CTRL_TX+*%
X61950000Y-22500000D03*
%TO.P,J2,2*%
%TO.N,/CTRL full-duplex RS-422/CTRL_TX-*%
X61950000Y-21250000D03*
%TO.P,J2,3*%
%TO.N,/CTRL full-duplex RS-422/CTRL_RX+*%
X61950000Y-20000000D03*
%TO.P,J2,4*%
%TO.N,/CTRL full-duplex RS-422/CTRL_RX-*%
X61950000Y-18750000D03*
%TO.P,J2,5*%
%TO.N,GND*%
X61950000Y-17500000D03*
D19*
%TO.P,J2,MP*%
%TO.N,N/C*%
X58600000Y-24350000D03*
X58600000Y-15650000D03*
%TD*%
D15*
%TO.P,R304,1*%
%TO.N,+3V3_ANA*%
X23675000Y-20800000D03*
%TO.P,R304,2*%
%TO.N,/Battery sensing and I2C isolation/ADC_SCL*%
X25325000Y-20800000D03*
%TD*%
%TO.P,R106,1*%
%TO.N,/CTRL full-duplex RS-422/CTRL_B*%
X50575000Y-19200000D03*
%TO.P,R106,2*%
%TO.N,/CTRL full-duplex RS-422/CTRL_RX-*%
X52225000Y-19200000D03*
%TD*%
%TO.P,R104,1*%
%TO.N,/CTRL full-duplex RS-422/CTRL_Z*%
X50575000Y-20900000D03*
%TO.P,R104,2*%
%TO.N,/CTRL full-duplex RS-422/CTRL_TX-*%
X52225000Y-20900000D03*
%TD*%
D16*
%TO.P,TP300,1*%
%TO.N,/Battery sensing and I2C isolation/BAT_DIV*%
X12000000Y-45000000D03*
%TD*%
D15*
%TO.P,R108,1*%
%TO.N,+3V3_RS*%
X40175000Y-15000000D03*
%TO.P,R108,2*%
%TO.N,/CTRL full-duplex RS-422/CTRL_VCC*%
X41825000Y-15000000D03*
%TD*%
D17*
%TO.P,U101,1*%
%TO.N,/CTRL full-duplex RS-422/CTRL_VCC*%
X43300000Y-18095000D03*
%TO.P,U101,2*%
%TO.N,/CTRL full-duplex RS-422/CTRL_RO*%
X43300000Y-19365000D03*
%TO.P,U101,3*%
%TO.N,/CTRL full-duplex RS-422/CTRL_DI*%
X43300000Y-20635000D03*
%TO.P,U101,4*%
%TO.N,GND*%
X43300000Y-21905000D03*
%TO.P,U101,5*%
%TO.N,/CTRL full-duplex RS-422/CTRL_Y*%
X48700000Y-21905000D03*
%TO.P,U101,6*%
%TO.N,/CTRL full-duplex RS-422/CTRL_Z*%
X48700000Y-20635000D03*
%TO.P,U101,7*%
%TO.N,/CTRL full-duplex RS-422/CTRL_B*%
X48700000Y-19365000D03*
%TO.P,U101,8*%
%TO.N,/CTRL full-duplex RS-422/CTRL_A*%
X48700000Y-18095000D03*
%TD*%
D15*
%TO.P,R101,1*%
%TO.N,/CTRL full-duplex RS-422/CTRL_TX_BUF*%
X39175000Y-21000000D03*
%TO.P,R101,2*%
%TO.N,/CTRL full-duplex RS-422/CTRL_DI*%
X40825000Y-21000000D03*
%TD*%
D20*
%TO.P,C301,1*%
%TO.N,/Battery sensing and I2C isolation/BAT_ADC*%
X18225000Y-36000000D03*
%TO.P,C301,2*%
%TO.N,GND*%
X19775000Y-36000000D03*
%TD*%
D21*
%TO.P,U100,1*%
%TO.N,CTRL_TX*%
X34700000Y-19050000D03*
%TO.P,U100,2*%
%TO.N,GND*%
X34700000Y-20000000D03*
%TO.P,U100,3*%
%TO.N,/CTRL full-duplex RS-422/CTRL_RO*%
X34700000Y-20950000D03*
%TO.P,U100,4*%
%TO.N,/CTRL full-duplex RS-422/CTRL_RX_BUF*%
X37300000Y-20950000D03*
%TO.P,U100,5*%
%TO.N,+3V3_PI*%
X37300000Y-20000000D03*
%TO.P,U100,6*%
%TO.N,/CTRL full-duplex RS-422/CTRL_TX_BUF*%
X37300000Y-19050000D03*
%TD*%
D15*
%TO.P,R4,1*%
%TO.N,+3V3_PI*%
X7175000Y-22500000D03*
%TO.P,R4,2*%
%TO.N,POWER_GOOD*%
X8825000Y-22500000D03*
%TD*%
%TO.P,R204,1*%
%TO.N,/PAY full-duplex RS-422/PAY_Z*%
X50575000Y-40900000D03*
%TO.P,R204,2*%
%TO.N,/PAY full-duplex RS-422/PAY_TX-*%
X52225000Y-40900000D03*
%TD*%
D16*
%TO.P,TP302,1*%
%TO.N,POWER_GOOD*%
X8000000Y-31000000D03*
%TD*%
D11*
%TO.P,R302,1*%
%TO.N,/Battery sensing and I2C isolation/BAT_DIV*%
X15000000Y-43825000D03*
%TO.P,R302,2*%
%TO.N,GND*%
X15000000Y-42175000D03*
%TD*%
D15*
%TO.P,R205,1*%
%TO.N,/PAY full-duplex RS-422/PAY_A*%
X50575000Y-37500000D03*
%TO.P,R205,2*%
%TO.N,/PAY full-duplex RS-422/PAY_RX+*%
X52225000Y-37500000D03*
%TD*%
D11*
%TO.P,R7,1*%
%TO.N,/RS_STATUS_UNUSED*%
X30000000Y-13825000D03*
%TO.P,R7,2*%
%TO.N,GND*%
X30000000Y-12175000D03*
%TD*%
D15*
%TO.P,R102,1*%
%TO.N,/CTRL full-duplex RS-422/CTRL_RX_BUF*%
X31175000Y-23000000D03*
%TO.P,R102,2*%
%TO.N,CTRL_RX*%
X32825000Y-23000000D03*
%TD*%
D20*
%TO.P,C2,1*%
%TO.N,+3V3_RS*%
X30225000Y-9500000D03*
%TO.P,C2,2*%
%TO.N,GND*%
X31775000Y-9500000D03*
%TD*%
D15*
%TO.P,R201,1*%
%TO.N,/PAY full-duplex RS-422/PAY_TX_BUF*%
X39175000Y-41000000D03*
%TO.P,R201,2*%
%TO.N,/PAY full-duplex RS-422/PAY_DI*%
X40825000Y-41000000D03*
%TD*%
D12*
%TO.P,D100,1*%
%TO.N,/CTRL full-duplex RS-422/CTRL_TX+*%
X55300000Y-24950000D03*
%TO.P,D100,2*%
%TO.N,/CTRL full-duplex RS-422/CTRL_TX-*%
X55300000Y-23050000D03*
%TO.P,D100,3*%
%TO.N,GND*%
X53300000Y-24000000D03*
%TD*%
D15*
%TO.P,R300,1*%
%TO.N,/Battery sensing and I2C isolation/BAT_RAW*%
X9175000Y-40000000D03*
%TO.P,R300,2*%
%TO.N,/Battery sensing and I2C isolation/BAT_MID*%
X10825000Y-40000000D03*
%TD*%
D20*
%TO.P,C100,1*%
%TO.N,+3V3_PI*%
X36225000Y-16400000D03*
%TO.P,C100,2*%
%TO.N,GND*%
X37775000Y-16400000D03*
%TD*%
%TO.P,C200,1*%
%TO.N,+3V3_PI*%
X36225000Y-36400000D03*
%TO.P,C200,2*%
%TO.N,GND*%
X37775000Y-36400000D03*
%TD*%
D18*
%TO.P,J4,1*%
%TO.N,/Battery sensing and I2C isolation/BAT_RAW*%
X6950000Y-42625000D03*
%TO.P,J4,2*%
%TO.N,GND*%
X6950000Y-41375000D03*
D19*
%TO.P,J4,MP*%
%TO.N,N/C*%
X3600000Y-44475000D03*
X3600000Y-39525000D03*
%TD*%
D22*
%TO.P,U2,1*%
%TO.N,/ANA_FEED*%
X21900000Y-14350000D03*
%TO.P,U2,2*%
%TO.N,GND*%
X21900000Y-15000000D03*
%TO.P,U2,3*%
%TO.N,+3V3_ANA*%
X21900000Y-15650000D03*
%TO.P,U2,4*%
%TO.N,unconnected-(U2-NC-Pad4)*%
X24100000Y-15650000D03*
%TO.P,U2,5*%
%TO.N,/ANA_STATUS_UNUSED*%
X24100000Y-15000000D03*
%TO.P,U2,6*%
%TO.N,+3V3_ANA*%
X24100000Y-14350000D03*
%TD*%
D14*
%TO.P,C101,1*%
%TO.N,/CTRL full-duplex RS-422/CTRL_VCC*%
X41200000Y-18775000D03*
%TO.P,C101,2*%
%TO.N,GND*%
X41200000Y-17225000D03*
%TD*%
D15*
%TO.P,R1,1*%
%TO.N,+3V3_PI*%
X17175000Y-11000000D03*
%TO.P,R1,2*%
%TO.N,/ANA_FEED*%
X18825000Y-11000000D03*
%TD*%
D16*
%TO.P,TP1,1*%
%TO.N,+3V3_ANA*%
X8000000Y-13000000D03*
%TD*%
D15*
%TO.P,R203,1*%
%TO.N,/PAY full-duplex RS-422/PAY_Y*%
X50575000Y-42600000D03*
%TO.P,R203,2*%
%TO.N,/PAY full-duplex RS-422/PAY_TX+*%
X52225000Y-42600000D03*
%TD*%
D11*
%TO.P,R8,1*%
%TO.N,/ANA_STATUS_UNUSED*%
X26000000Y-17825000D03*
%TO.P,R8,2*%
%TO.N,GND*%
X26000000Y-16175000D03*
%TD*%
D15*
%TO.P,R208,1*%
%TO.N,+3V3_RS*%
X40175000Y-35000000D03*
%TO.P,R208,2*%
%TO.N,/PAY full-duplex RS-422/PAY_VCC*%
X41825000Y-35000000D03*
%TD*%
D23*
%TO.P,U3,1*%
%TO.N,GND*%
X6950000Y-25050000D03*
%TO.P,U3,2*%
%TO.N,POWER_GOOD*%
X6950000Y-26950000D03*
%TO.P,U3,3*%
%TO.N,+3V3_PI*%
X9050000Y-26000000D03*
%TD*%
D20*
%TO.P,C305,1*%
%TO.N,+3V3_ANA*%
X23225000Y-27000000D03*
%TO.P,C305,2*%
%TO.N,GND*%
X24775000Y-27000000D03*
%TD*%
D11*
%TO.P,R6,1*%
%TO.N,+3V3_PI*%
X5000000Y-18825000D03*
%TO.P,R6,2*%
%TO.N,GND*%
X5000000Y-17175000D03*
%TD*%
D12*
%TO.P,D200,1*%
%TO.N,/PAY full-duplex RS-422/PAY_TX+*%
X55300000Y-44950000D03*
%TO.P,D200,2*%
%TO.N,/PAY full-duplex RS-422/PAY_TX-*%
X55300000Y-43050000D03*
%TO.P,D200,3*%
%TO.N,GND*%
X53300000Y-44000000D03*
%TD*%
D22*
%TO.P,U1,1*%
%TO.N,+3V3_PI*%
X25900000Y-10350000D03*
%TO.P,U1,2*%
%TO.N,GND*%
X25900000Y-11000000D03*
%TO.P,U1,3*%
%TO.N,+3V3_RS*%
X25900000Y-11650000D03*
%TO.P,U1,4*%
%TO.N,unconnected-(U1-NC-Pad4)*%
X28100000Y-11650000D03*
%TO.P,U1,5*%
%TO.N,/RS_STATUS_UNUSED*%
X28100000Y-11000000D03*
%TO.P,U1,6*%
%TO.N,+3V3_RS*%
X28100000Y-10350000D03*
%TD*%
D15*
%TO.P,R303,1*%
%TO.N,/Battery sensing and I2C isolation/BAT_ADC*%
X18175000Y-34000000D03*
%TO.P,R303,2*%
%TO.N,GND*%
X19825000Y-34000000D03*
%TD*%
D24*
%TO.P,C3,1*%
%TO.N,+3V3_ANA*%
X13000000Y-20500000D03*
%TO.P,C3,2*%
%TO.N,GND*%
X13000000Y-15500000D03*
%TD*%
D14*
%TO.P,C4,1*%
%TO.N,+3V3_PI*%
X12000000Y-25775000D03*
%TO.P,C4,2*%
%TO.N,GND*%
X12000000Y-24225000D03*
%TD*%
D16*
%TO.P,TP303,1*%
%TO.N,GND*%
X8000000Y-47000000D03*
%TD*%
D25*
%TO.P,U301,1*%
%TO.N,GND*%
X25200000Y-32000000D03*
%TO.P,U301,2*%
%TO.N,unconnected-(U301-ALERT{slash}RDY-Pad2)*%
X25200000Y-31500000D03*
%TO.P,U301,3*%
%TO.N,GND*%
X25200000Y-31000000D03*
%TO.P,U301,4*%
%TO.N,/Battery sensing and I2C isolation/BAT_ADC*%
X25200000Y-30500000D03*
%TO.P,U301,5*%
%TO.N,GND*%
X25200000Y-30000000D03*
%TO.P,U301,6*%
X20800000Y-30000000D03*
%TO.P,U301,7*%
X20800000Y-30500000D03*
%TO.P,U301,8*%
%TO.N,+3V3_ANA*%
X20800000Y-31000000D03*
%TO.P,U301,9*%
%TO.N,/Battery sensing and I2C isolation/ADC_SDA*%
X20800000Y-31500000D03*
%TO.P,U301,10*%
%TO.N,/Battery sensing and I2C isolation/ADC_SCL*%
X20800000Y-32000000D03*
%TD*%
D11*
%TO.P,R200,1*%
%TO.N,+3V3_PI*%
X32000000Y-37825000D03*
%TO.P,R200,2*%
%TO.N,PAY_TX*%
X32000000Y-36175000D03*
%TD*%
%TO.P,R100,1*%
%TO.N,+3V3_PI*%
X32000000Y-17825000D03*
%TO.P,R100,2*%
%TO.N,CTRL_TX*%
X32000000Y-16175000D03*
%TD*%
D15*
%TO.P,R5,1*%
%TO.N,POWER_GOOD*%
X11175000Y-29000000D03*
%TO.P,R5,2*%
%TO.N,GND*%
X12825000Y-29000000D03*
%TD*%
D21*
%TO.P,U200,1*%
%TO.N,PAY_TX*%
X34700000Y-39050000D03*
%TO.P,U200,2*%
%TO.N,GND*%
X34700000Y-40000000D03*
%TO.P,U200,3*%
%TO.N,/PAY full-duplex RS-422/PAY_RO*%
X34700000Y-40950000D03*
%TO.P,U200,4*%
%TO.N,/PAY full-duplex RS-422/PAY_RX_BUF*%
X37300000Y-40950000D03*
%TO.P,U200,5*%
%TO.N,+3V3_PI*%
X37300000Y-40000000D03*
%TO.P,U200,6*%
%TO.N,/PAY full-duplex RS-422/PAY_TX_BUF*%
X37300000Y-39050000D03*
%TD*%
D15*
%TO.P,R103,1*%
%TO.N,/CTRL full-duplex RS-422/CTRL_Y*%
X50575000Y-22600000D03*
%TO.P,R103,2*%
%TO.N,/CTRL full-duplex RS-422/CTRL_TX+*%
X52225000Y-22600000D03*
%TD*%
D16*
%TO.P,TP301,1*%
%TO.N,/Battery sensing and I2C isolation/BAT_ADC*%
X15000000Y-36000000D03*
%TD*%
D18*
%TO.P,J3,1*%
%TO.N,/PAY full-duplex RS-422/PAY_TX+*%
X61950000Y-42500000D03*
%TO.P,J3,2*%
%TO.N,/PAY full-duplex RS-422/PAY_TX-*%
X61950000Y-41250000D03*
%TO.P,J3,3*%
%TO.N,/PAY full-duplex RS-422/PAY_RX+*%
X61950000Y-40000000D03*
%TO.P,J3,4*%
%TO.N,/PAY full-duplex RS-422/PAY_RX-*%
X61950000Y-38750000D03*
%TO.P,J3,5*%
%TO.N,GND*%
X61950000Y-37500000D03*
D19*
%TO.P,J3,MP*%
%TO.N,N/C*%
X58600000Y-44350000D03*
X58600000Y-35650000D03*
%TD*%
D14*
%TO.P,C304,1*%
%TO.N,+3V3_PI*%
X15000000Y-25775000D03*
%TO.P,C304,2*%
%TO.N,GND*%
X15000000Y-24225000D03*
%TD*%
%TO.P,C303,1*%
%TO.N,+3V3_ANA*%
X27000000Y-32775000D03*
%TO.P,C303,2*%
%TO.N,GND*%
X27000000Y-31225000D03*
%TD*%
D16*
%TO.P,TP100,1*%
%TO.N,/CTRL full-duplex RS-422/CTRL_VCC*%
X46000000Y-15000000D03*
%TD*%
D12*
%TO.P,D101,1*%
%TO.N,/CTRL full-duplex RS-422/CTRL_RX+*%
X55300000Y-16450000D03*
%TO.P,D101,2*%
%TO.N,/CTRL full-duplex RS-422/CTRL_RX-*%
X55300000Y-14550000D03*
%TO.P,D101,3*%
%TO.N,GND*%
X53300000Y-15500000D03*
%TD*%
D20*
%TO.P,C1,1*%
%TO.N,+3V3_PI*%
X22225000Y-9500000D03*
%TO.P,C1,2*%
%TO.N,GND*%
X23775000Y-9500000D03*
%TD*%
D14*
%TO.P,C302,1*%
%TO.N,+3V3_ANA*%
X29000000Y-38775000D03*
%TO.P,C302,2*%
%TO.N,GND*%
X29000000Y-37225000D03*
%TD*%
D15*
%TO.P,R305,1*%
%TO.N,+3V3_ANA*%
X23675000Y-23000000D03*
%TO.P,R305,2*%
%TO.N,/Battery sensing and I2C isolation/ADC_SDA*%
X25325000Y-23000000D03*
%TD*%
D26*
%TO.P,J1,1*%
%TO.N,+3V3_PI*%
X8370000Y-4770000D03*
D27*
%TO.P,J1,2*%
%TO.N,unconnected-(J1-Pad2)*%
X8370000Y-2230000D03*
%TO.P,J1,3*%
%TO.N,PI_SDA*%
X10910000Y-4770000D03*
%TO.P,J1,4*%
%TO.N,unconnected-(J1-Pad4)*%
X10910000Y-2230000D03*
%TO.P,J1,5*%
%TO.N,PI_SCL*%
X13450000Y-4770000D03*
%TO.P,J1,6*%
%TO.N,GND*%
X13450000Y-2230000D03*
%TO.P,J1,7*%
%TO.N,CTRL_TX*%
X15990000Y-4770000D03*
%TO.P,J1,8*%
%TO.N,unconnected-(J1-Pad8)*%
X15990000Y-2230000D03*
%TO.P,J1,9*%
%TO.N,GND*%
X18530000Y-4770000D03*
%TO.P,J1,10*%
%TO.N,unconnected-(J1-Pad10)*%
X18530000Y-2230000D03*
%TO.P,J1,11*%
%TO.N,unconnected-(J1-Pad11)*%
X21070000Y-4770000D03*
%TO.P,J1,12*%
%TO.N,unconnected-(J1-Pad12)*%
X21070000Y-2230000D03*
%TO.P,J1,13*%
%TO.N,unconnected-(J1-Pad13)*%
X23610000Y-4770000D03*
%TO.P,J1,14*%
%TO.N,GND*%
X23610000Y-2230000D03*
%TO.P,J1,15*%
%TO.N,unconnected-(J1-Pad15)*%
X26150000Y-4770000D03*
%TO.P,J1,16*%
%TO.N,unconnected-(J1-Pad16)*%
X26150000Y-2230000D03*
%TO.P,J1,17*%
%TO.N,+3V3_PI*%
X28690000Y-4770000D03*
%TO.P,J1,18*%
%TO.N,unconnected-(J1-Pad18)*%
X28690000Y-2230000D03*
%TO.P,J1,19*%
%TO.N,unconnected-(J1-Pad19)*%
X31230000Y-4770000D03*
%TO.P,J1,20*%
%TO.N,GND*%
X31230000Y-2230000D03*
%TO.P,J1,21*%
%TO.N,unconnected-(J1-Pad21)*%
X33770000Y-4770000D03*
%TO.P,J1,22*%
%TO.N,unconnected-(J1-Pad22)*%
X33770000Y-2230000D03*
%TO.P,J1,23*%
%TO.N,unconnected-(J1-Pad23)*%
X36310000Y-4770000D03*
%TO.P,J1,24*%
%TO.N,unconnected-(J1-Pad24)*%
X36310000Y-2230000D03*
%TO.P,J1,25*%
%TO.N,GND*%
X38850000Y-4770000D03*
%TO.P,J1,26*%
%TO.N,unconnected-(J1-Pad26)*%
X38850000Y-2230000D03*
%TO.P,J1,27*%
%TO.N,unconnected-(J1-Pad27)*%
X41390000Y-4770000D03*
%TO.P,J1,28*%
%TO.N,unconnected-(J1-Pad28)*%
X41390000Y-2230000D03*
%TO.P,J1,29*%
%TO.N,CTRL_RX*%
X43930000Y-4770000D03*
%TO.P,J1,30*%
%TO.N,GND*%
X43930000Y-2230000D03*
%TO.P,J1,31*%
%TO.N,unconnected-(J1-Pad31)*%
X46470000Y-4770000D03*
%TO.P,J1,32*%
%TO.N,PAY_TX*%
X46470000Y-2230000D03*
%TO.P,J1,33*%
%TO.N,PAY_RX*%
X49010000Y-4770000D03*
%TO.P,J1,34*%
%TO.N,GND*%
X49010000Y-2230000D03*
%TO.P,J1,35*%
%TO.N,unconnected-(J1-Pad35)*%
X51550000Y-4770000D03*
%TO.P,J1,36*%
%TO.N,unconnected-(J1-Pad36)*%
X51550000Y-2230000D03*
%TO.P,J1,37*%
%TO.N,unconnected-(J1-Pad37)*%
X54090000Y-4770000D03*
%TO.P,J1,38*%
%TO.N,unconnected-(J1-Pad38)*%
X54090000Y-2230000D03*
%TO.P,J1,39*%
%TO.N,GND*%
X56630000Y-4770000D03*
%TO.P,J1,40*%
%TO.N,unconnected-(J1-Pad40)*%
X56630000Y-2230000D03*
%TD*%
D28*
%TO.N,+3V3_PI*%
X35400000Y-29100000D03*
X31934200Y-15199600D03*
X35150000Y-35300000D03*
%TO.N,PI_SCL*%
X13236700Y-22882000D03*
%TO.N,PI_SDA*%
X18011600Y-23879300D03*
%TO.N,GND*%
X38775000Y-36400000D03*
X44300000Y-41905000D03*
X25775000Y-27000000D03*
X35000000Y-9175000D03*
X19000000Y-18175000D03*
X24775000Y-9500000D03*
X42200000Y-17225000D03*
X21800000Y-30000000D03*
X44300000Y-21905000D03*
X35700000Y-40000000D03*
X27000000Y-16175000D03*
X35700000Y-20000000D03*
X25200000Y-33000000D03*
X7950000Y-25050000D03*
X32775000Y-9500000D03*
X38775000Y-16400000D03*
X26900000Y-11000000D03*
X16000000Y-42175000D03*
X20100000Y-43950000D03*
X6000000Y-17175000D03*
X17000000Y-39225000D03*
X54300000Y-35500000D03*
X22900000Y-15000000D03*
X62950000Y-17500000D03*
X14000000Y-15500000D03*
X62950000Y-37500000D03*
X20825000Y-34000000D03*
X14000000Y-24225000D03*
X54300000Y-44000000D03*
X20775000Y-36000000D03*
X54300000Y-24000000D03*
X27100000Y-39700000D03*
X7950000Y-41375000D03*
X17800000Y-24975000D03*
X9000000Y-47000000D03*
X42200000Y-37225000D03*
X26400000Y-31000000D03*
X13825000Y-29000000D03*
X13000000Y-24225000D03*
X27100000Y-41650000D03*
X54300000Y-15500000D03*
X31000000Y-12175000D03*
X21000000Y-13225000D03*
X30000000Y-37225000D03*
X25200000Y-29000000D03*
X21300000Y-41000000D03*
%TO.N,POWER_GOOD*%
X21561100Y-25714700D03*
X18551500Y-38051900D03*
%TO.N,/Battery sensing and I2C isolation/ADC_SDA*%
X22853800Y-31948000D03*
X25157600Y-24392800D03*
%TO.N,/Battery sensing and I2C isolation/ADC_SCL*%
X22036900Y-31854600D03*
X22669000Y-23774600D03*
%TO.N,+3V3_ANA*%
X24050000Y-14250000D03*
X22000000Y-15750000D03*
%TO.N,/PAY full-duplex RS-422/PAY_RO*%
X34376700Y-37551300D03*
X33618600Y-40233100D03*
%TO.N,PAY_RX*%
X40628500Y-43000000D03*
%TO.N,/CTRL full-duplex RS-422/CTRL_RO*%
X35984800Y-20950000D03*
X38524600Y-18410200D03*
%TO.N,CTRL_TX*%
X31000700Y-18109700D03*
%TO.N,CTRL_RX*%
X32825000Y-22011700D03*
%TO.N,PAY_TX*%
X36057100Y-38976300D03*
%TD*%
%TO.N,+3V3_PI*%
D29*
X35106500Y-15281500D02*
X31934200Y-15281500D01*
D30*
X16800000Y-23025000D02*
X16800000Y-23050000D01*
X18550000Y-23500000D02*
X18600000Y-23550000D01*
D29*
X4041900Y-15234500D02*
X4041900Y-17866900D01*
D30*
X37450000Y-20300000D02*
X38000000Y-20300000D01*
X38150000Y-20400000D02*
X38150000Y-20450000D01*
D29*
X33916100Y-41714300D02*
X32000100Y-39798300D01*
D30*
X15000000Y-25800000D02*
X15000000Y-25775000D01*
X10800000Y-24800000D02*
X10800000Y-23200000D01*
D31*
X36370800Y-40421500D02*
X36370800Y-40405800D01*
D29*
X31046800Y-16871800D02*
X32000000Y-17825000D01*
D30*
X37150000Y-20000000D02*
X37450000Y-20300000D01*
D29*
X31046800Y-15661800D02*
X31046800Y-16871800D01*
D30*
X7150000Y-22500000D02*
X7175000Y-22500000D01*
D29*
X37300000Y-20000000D02*
X36776600Y-20000000D01*
D30*
X11775000Y-26000000D02*
X11800000Y-26000000D01*
D29*
X7175000Y-22500000D02*
X5000000Y-20325000D01*
D30*
X9550000Y-21950000D02*
X9550000Y-21900000D01*
D29*
X5000000Y-20325000D02*
X5000000Y-18825000D01*
X36225000Y-16400000D02*
X35106500Y-15281500D01*
X17175000Y-11000000D02*
X18675000Y-9500000D01*
D30*
X18150000Y-23050000D02*
X18550000Y-23450000D01*
D29*
X36225000Y-36400000D02*
X35126700Y-35301700D01*
X8370000Y-4770000D02*
X8370000Y-6071700D01*
D31*
X36450200Y-40199600D02*
X37100400Y-40199600D01*
D29*
X4041900Y-17866900D02*
X5000000Y-18825000D01*
X14600000Y-11000000D02*
X12089000Y-8489000D01*
D31*
X35752400Y-41039900D02*
X36370800Y-40421500D01*
D32*
X25828400Y-10278400D02*
X25900000Y-10350000D01*
D30*
X9550000Y-21900000D02*
X9500000Y-21850000D01*
X8250000Y-21750000D02*
X8200000Y-21750000D01*
D29*
X32000100Y-39798300D02*
X32000000Y-39798300D01*
X18675000Y-9500000D02*
X22225000Y-9500000D01*
D30*
X18350000Y-25350000D02*
X17900000Y-25800000D01*
X36200000Y-23900000D02*
X35850000Y-24250000D01*
X18650000Y-23650000D02*
X18650000Y-24650000D01*
X38150000Y-21450000D02*
X38150000Y-21850000D01*
D29*
X36776600Y-20000000D02*
X36225000Y-19448400D01*
D30*
X9500000Y-21800000D02*
X9450000Y-21750000D01*
D29*
X28690000Y-4770000D02*
X28690000Y-7213600D01*
D30*
X8200000Y-21750000D02*
X7550000Y-22400000D01*
X35850000Y-28650000D02*
X35400000Y-29100000D01*
X38150000Y-20450000D02*
X38200000Y-20500000D01*
X10850000Y-24850000D02*
X10800000Y-24800000D01*
X38150000Y-21850000D02*
X36200000Y-23800000D01*
D29*
X8370000Y-6071700D02*
X10787400Y-8489000D01*
X31070700Y-36895700D02*
X32000000Y-37825000D01*
D30*
X18550000Y-23450000D02*
X18550000Y-23500000D01*
X7250000Y-22400000D02*
X7150000Y-22500000D01*
X7550000Y-22400000D02*
X7250000Y-22400000D01*
X38100000Y-20350000D02*
X38150000Y-20400000D01*
X17900000Y-25800000D02*
X15000000Y-25800000D01*
X38200000Y-21400000D02*
X38150000Y-21450000D01*
D29*
X25696700Y-10278400D02*
X25828400Y-10278400D01*
X31934200Y-15281500D02*
X31934200Y-15199600D01*
X36225000Y-19448400D02*
X36225000Y-16400000D01*
X17175000Y-11000000D02*
X14600000Y-11000000D01*
D30*
X38200000Y-20500000D02*
X38200000Y-21400000D01*
X38000000Y-20300000D02*
X38050000Y-20350000D01*
X18400000Y-25250000D02*
X18350000Y-25300000D01*
D29*
X35404500Y-41714300D02*
X33916100Y-41714300D01*
D30*
X9500000Y-21850000D02*
X9500000Y-21800000D01*
X9350000Y-21700000D02*
X8300000Y-21700000D01*
D33*
X36370800Y-40279000D02*
X36450200Y-40199600D01*
D34*
X12000000Y-25775000D02*
X11775000Y-26000000D01*
D29*
X31070700Y-35695500D02*
X31070700Y-36895700D01*
D31*
X37100400Y-40199600D02*
X37300000Y-40000000D01*
D30*
X8300000Y-21700000D02*
X8250000Y-21750000D01*
X18600000Y-23550000D02*
X18600000Y-23600000D01*
X35850000Y-24250000D02*
X35850000Y-28650000D01*
D29*
X35126700Y-35301700D02*
X31464500Y-35301700D01*
D33*
X36370800Y-40405800D02*
X36370800Y-40279000D01*
D29*
X35752400Y-41039900D02*
X35752400Y-41366400D01*
X12089000Y-8489000D02*
X10787400Y-8489000D01*
D30*
X11800000Y-26000000D02*
X10850000Y-25050000D01*
X16800000Y-23050000D02*
X18150000Y-23050000D01*
X36200000Y-23800000D02*
X36200000Y-23900000D01*
D31*
X25696700Y-10206900D02*
X25696700Y-10278400D01*
D34*
X22225000Y-9500000D02*
X23075000Y-10350000D01*
D30*
X9450000Y-21750000D02*
X9400000Y-21750000D01*
X10850000Y-25050000D02*
X10850000Y-24850000D01*
X36800000Y-20000000D02*
X37150000Y-20000000D01*
D34*
X23075000Y-10350000D02*
X25900000Y-10350000D01*
X11775000Y-26000000D02*
X9050000Y-26000000D01*
D29*
X31934200Y-15281500D02*
X31427100Y-15281500D01*
D30*
X36776600Y-20000000D02*
X36800000Y-20000000D01*
X18650000Y-24650000D02*
X18400000Y-24900000D01*
X35150000Y-35300000D02*
X35126700Y-35301700D01*
D29*
X32000000Y-39798300D02*
X32000000Y-37825000D01*
D30*
X38050000Y-20350000D02*
X38100000Y-20350000D01*
D29*
X15000000Y-25775000D02*
X12000000Y-25775000D01*
D30*
X18600000Y-23600000D02*
X18650000Y-23650000D01*
D29*
X35752400Y-41366400D02*
X35404500Y-41714300D01*
D30*
X18350000Y-25300000D02*
X18350000Y-25350000D01*
X10800000Y-23200000D02*
X9550000Y-21950000D01*
D29*
X31427100Y-15281500D02*
X31046800Y-15661800D01*
X10787400Y-8489000D02*
X4041900Y-15234500D01*
X28690000Y-7213600D02*
X25696700Y-10206900D01*
D30*
X18400000Y-24900000D02*
X18400000Y-25250000D01*
X9400000Y-21750000D02*
X9350000Y-21700000D01*
D29*
X31464500Y-35301700D02*
X31070700Y-35695500D01*
%TO.N,PI_SCL*%
D34*
X16091900Y-23675000D02*
X16800000Y-23675000D01*
X15298900Y-22882000D02*
X16091900Y-23675000D01*
X13236700Y-22882000D02*
X15298900Y-22882000D01*
%TO.N,PI_SDA*%
X17565900Y-24325000D02*
X16800000Y-24325000D01*
X18011600Y-23879300D02*
X17565900Y-24325000D01*
%TO.N,GND*%
X43300000Y-41905000D02*
X44300000Y-41905000D01*
X19825000Y-34000000D02*
X20825000Y-34000000D01*
X20800000Y-30000000D02*
X21800000Y-30000000D01*
D29*
X53300000Y-35500000D02*
X54300000Y-35500000D01*
D34*
X31775000Y-9500000D02*
X32775000Y-9500000D01*
X43300000Y-21905000D02*
X44300000Y-21905000D01*
X24775000Y-27000000D02*
X25775000Y-27000000D01*
X13000000Y-15500000D02*
X14000000Y-15500000D01*
X27000000Y-31225000D02*
X26400000Y-31000000D01*
X5000000Y-17175000D02*
X6000000Y-17175000D01*
X25200000Y-32000000D02*
X25200000Y-33000000D01*
X30000000Y-12175000D02*
X31000000Y-12175000D01*
X20100000Y-41000000D02*
X21300000Y-41000000D01*
X8000000Y-47000000D02*
X9000000Y-47000000D01*
X41200000Y-37225000D02*
X42200000Y-37225000D01*
X21900000Y-15000000D02*
X22900000Y-15000000D01*
X23775000Y-9500000D02*
X24775000Y-9500000D01*
X41200000Y-17225000D02*
X42200000Y-17225000D01*
X34700000Y-20000000D02*
X35700000Y-20000000D01*
X25900000Y-39700000D02*
X27100000Y-39700000D01*
X34000000Y-9175000D02*
X35000000Y-9175000D01*
D29*
X53300000Y-24000000D02*
X54300000Y-24000000D01*
D34*
X34700000Y-40000000D02*
X35700000Y-40000000D01*
X6950000Y-41375000D02*
X7950000Y-41375000D01*
X61950000Y-37500000D02*
X62950000Y-37500000D01*
X37775000Y-36400000D02*
X38775000Y-36400000D01*
X61950000Y-17500000D02*
X62950000Y-17500000D01*
X20800000Y-30500000D02*
X21800000Y-30000000D01*
X12000000Y-24225000D02*
X13000000Y-24225000D01*
X6950000Y-25050000D02*
X7950000Y-25050000D01*
D29*
X53300000Y-15500000D02*
X54300000Y-15500000D01*
D34*
X15000000Y-24225000D02*
X14000000Y-24225000D01*
X25900000Y-11000000D02*
X26900000Y-11000000D01*
X25200000Y-31000000D02*
X26400000Y-31000000D01*
X37775000Y-16400000D02*
X38775000Y-16400000D01*
X18000000Y-18175000D02*
X19000000Y-18175000D01*
D29*
X53300000Y-44000000D02*
X54300000Y-44000000D01*
D34*
X18000000Y-39225000D02*
X17000000Y-39225000D01*
X25200000Y-30000000D02*
X25200000Y-29000000D01*
X20100000Y-42950000D02*
X20100000Y-43950000D01*
X29000000Y-37225000D02*
X30000000Y-37225000D01*
X26000000Y-16175000D02*
X27000000Y-16175000D01*
X15000000Y-42175000D02*
X16000000Y-42175000D01*
X12825000Y-29000000D02*
X13825000Y-29000000D01*
X16800000Y-24975000D02*
X17800000Y-24975000D01*
X25900000Y-41650000D02*
X27100000Y-41650000D01*
X19775000Y-36000000D02*
X20775000Y-36000000D01*
X20000000Y-13225000D02*
X21000000Y-13225000D01*
%TO.N,POWER_GOOD*%
X7979000Y-23346000D02*
X8825000Y-22500000D01*
X6950000Y-26950000D02*
X5924100Y-25924100D01*
X21561100Y-25336100D02*
X21561100Y-25714700D01*
X9175000Y-31776000D02*
X15450900Y-38051900D01*
X7224800Y-23346000D02*
X7979000Y-23346000D01*
X5924100Y-24646700D02*
X7224800Y-23346000D01*
X9125000Y-26950000D02*
X11175000Y-29000000D01*
X9175000Y-31000000D02*
X9175000Y-31776000D01*
X5924100Y-25924100D02*
X5924100Y-24646700D01*
X8000000Y-31000000D02*
X9175000Y-31000000D01*
X21200000Y-24975000D02*
X21561100Y-25336100D01*
X9175000Y-31000000D02*
X11175000Y-29000000D01*
X6950000Y-26950000D02*
X9125000Y-26950000D01*
X18551500Y-38051900D02*
X19101900Y-38051900D01*
X15450900Y-38051900D02*
X18551500Y-38051900D01*
X19101900Y-38051900D02*
X20100000Y-39050000D01*
%TO.N,/Battery sensing and I2C isolation/ADC_SDA*%
X19988500Y-31500000D02*
X19732800Y-31755700D01*
D30*
X21200000Y-24325000D02*
X21267800Y-24392800D01*
D34*
X22295600Y-32506200D02*
X22853800Y-31948000D01*
X19732800Y-31755700D02*
X19732800Y-32296300D01*
X25325000Y-23000000D02*
X25325000Y-24225400D01*
D30*
X25157600Y-24392800D02*
X25325000Y-24225400D01*
D34*
X19942700Y-32506200D02*
X22295600Y-32506200D01*
X20800000Y-31500000D02*
X19988500Y-31500000D01*
X19732800Y-32296300D02*
X19942700Y-32506200D01*
D30*
X21267800Y-24392800D02*
X25157600Y-24392800D01*
%TO.N,/Battery sensing and I2C isolation/ADC_SCL*%
D34*
X22978100Y-23803700D02*
X22949000Y-23774600D01*
D30*
X24500000Y-23801000D02*
X23581100Y-23801000D01*
X23581100Y-23801000D02*
X23578400Y-23803700D01*
D34*
X23578400Y-23803700D02*
X22978100Y-23803700D01*
X20800000Y-32000000D02*
X21891500Y-32000000D01*
X21891500Y-32000000D02*
X22036900Y-31854600D01*
D30*
X22669000Y-23774600D02*
X21299600Y-23774600D01*
D34*
X25325000Y-20800000D02*
X24500000Y-21625000D01*
D30*
X21299600Y-23774600D02*
X21200000Y-23675000D01*
X22949000Y-23774600D02*
X22669000Y-23774600D01*
D34*
X24500000Y-21625000D02*
X24500000Y-23801000D01*
%TO.N,+3V3_ANA*%
D30*
X22000000Y-15750000D02*
X21900000Y-15650000D01*
X20800000Y-31000000D02*
X22250000Y-31000000D01*
X28050000Y-36850000D02*
X28050000Y-37550000D01*
D29*
X23225000Y-27000000D02*
X21683500Y-27000000D01*
D30*
X22200000Y-30550000D02*
X22350000Y-30400000D01*
X28050000Y-37550000D02*
X28100000Y-37600000D01*
X24100000Y-14350000D02*
X24050000Y-14300000D01*
X27100000Y-35900000D02*
X28050000Y-36850000D01*
X25550000Y-28450000D02*
X25600000Y-28450000D01*
X27000000Y-32775000D02*
X27000000Y-32800000D01*
D35*
X22324100Y-22999600D02*
X21225400Y-22999600D01*
D29*
X8000000Y-13000000D02*
X8000000Y-15500000D01*
D30*
X27800000Y-31800000D02*
X27750000Y-31850000D01*
X21750000Y-27050000D02*
X21700000Y-27000000D01*
D29*
X21683500Y-27000000D02*
X19993700Y-25310200D01*
X23674800Y-22999600D02*
X22324100Y-22999600D01*
D30*
X27100000Y-32700000D02*
X27000000Y-32800000D01*
X22350000Y-30400000D02*
X22350000Y-30350000D01*
D29*
X23675000Y-17427100D02*
X23675000Y-20800000D01*
D31*
X20985900Y-22810900D02*
X21200000Y-23025000D01*
D30*
X27750000Y-31900000D02*
X27100000Y-32550000D01*
X21650000Y-31000000D02*
X21700000Y-30950000D01*
X24800000Y-28450000D02*
X24850000Y-28450000D01*
X22400000Y-30300000D02*
X22400000Y-30200000D01*
X24850000Y-28450000D02*
X24900000Y-28400000D01*
D29*
X19993600Y-22810900D02*
X19993600Y-22225700D01*
D30*
X21700000Y-27000000D02*
X21683500Y-27000000D01*
X20800000Y-31000000D02*
X21650000Y-31000000D01*
X21750000Y-30950000D02*
X22150000Y-30550000D01*
D29*
X19993700Y-22810900D02*
X19993600Y-22810900D01*
X23675000Y-23000000D02*
X23674800Y-22999800D01*
D30*
X28100000Y-37750000D02*
X28800000Y-38450000D01*
X29000000Y-38800000D02*
X29000000Y-38775000D01*
X28900000Y-38700000D02*
X29000000Y-38800000D01*
X27650000Y-30500000D02*
X27700000Y-30500000D01*
X27750000Y-30550000D02*
X27750000Y-30600000D01*
D29*
X23674800Y-20800200D02*
X23675000Y-20800000D01*
D30*
X22450000Y-30150000D02*
X22450000Y-29250000D01*
X21900000Y-15650000D02*
X21900000Y-15652100D01*
D29*
X19993700Y-25310200D02*
X19993700Y-22810900D01*
X13267900Y-20232100D02*
X13000000Y-20500000D01*
D30*
X25500000Y-28400000D02*
X25550000Y-28450000D01*
X28100000Y-37600000D02*
X28100000Y-37750000D01*
D29*
X19993600Y-22225700D02*
X18000000Y-20232100D01*
D30*
X22250000Y-31000000D02*
X24800000Y-28450000D01*
X25600000Y-28450000D02*
X27650000Y-30500000D01*
X27000000Y-32800000D02*
X27000000Y-32775000D01*
X22400000Y-30200000D02*
X22450000Y-30150000D01*
D29*
X8000000Y-15500000D02*
X13000000Y-20500000D01*
D30*
X27050000Y-33200000D02*
X27100000Y-33250000D01*
X27100000Y-33250000D02*
X27100000Y-35900000D01*
D29*
X23674800Y-22999600D02*
X23674800Y-20800200D01*
D30*
X27050000Y-32850000D02*
X27050000Y-33200000D01*
D29*
X23674800Y-22999800D02*
X23674800Y-22999600D01*
D30*
X22150000Y-30550000D02*
X22200000Y-30550000D01*
X24900000Y-28400000D02*
X25500000Y-28400000D01*
D32*
X21900000Y-15652100D02*
X21900000Y-15650000D01*
D30*
X27000000Y-32800000D02*
X27050000Y-32850000D01*
X27800000Y-30650000D02*
X27800000Y-31800000D01*
D29*
X19993700Y-22810900D02*
X20985900Y-22810900D01*
X21900000Y-15652100D02*
X23675000Y-17427100D01*
D30*
X28800000Y-38450000D02*
X28800000Y-38500000D01*
D29*
X18000000Y-20232100D02*
X13267900Y-20232100D01*
D30*
X27750000Y-30600000D02*
X27800000Y-30650000D01*
D34*
X29000000Y-38775000D02*
X28725000Y-39050000D01*
D30*
X22450000Y-29250000D02*
X21750000Y-28550000D01*
X28900000Y-38600000D02*
X28900000Y-38700000D01*
X28800000Y-38500000D02*
X28900000Y-38600000D01*
X24050000Y-14300000D02*
X24050000Y-14250000D01*
D29*
X18000000Y-20232100D02*
X18000000Y-19825000D01*
D30*
X21700000Y-30950000D02*
X21750000Y-30950000D01*
X27700000Y-30500000D02*
X27750000Y-30550000D01*
D34*
X28725000Y-39050000D02*
X25900000Y-39050000D01*
D30*
X22350000Y-30350000D02*
X22400000Y-30300000D01*
X21750000Y-28550000D02*
X21750000Y-27050000D01*
D31*
X21225400Y-22999600D02*
X21200000Y-23025000D01*
D30*
X27750000Y-31850000D02*
X27750000Y-31900000D01*
X27100000Y-32550000D02*
X27100000Y-32700000D01*
%TO.N,+3V3_RS*%
D31*
X30873900Y-11324000D02*
X30349000Y-11324000D01*
D29*
X38175000Y-15000000D02*
X34000000Y-10825000D01*
X34000000Y-10825000D02*
X33501000Y-11324000D01*
D32*
X26089100Y-11839100D02*
X25900000Y-11650000D01*
D29*
X30217700Y-14706200D02*
X30217700Y-25042700D01*
X40175000Y-15000000D02*
X38175000Y-15000000D01*
D34*
X29375000Y-10350000D02*
X28100000Y-10350000D01*
X30225000Y-9500000D02*
X29375000Y-10350000D01*
D29*
X30217700Y-14706200D02*
X28956200Y-14706200D01*
X33501000Y-11324000D02*
X31759800Y-11324000D01*
X28956200Y-14706200D02*
X26089100Y-11839100D01*
D31*
X30349000Y-11324000D02*
X29375000Y-10350000D01*
D29*
X30217700Y-25042700D02*
X40175000Y-35000000D01*
X30525800Y-14706200D02*
X30217700Y-14706200D01*
X31759800Y-11324000D02*
X30873900Y-11324000D01*
X31759800Y-11324000D02*
X31759800Y-13472200D01*
X31759800Y-13472200D02*
X30525800Y-14706200D01*
%TO.N,/PAY full-duplex RS-422/PAY_RX+*%
D34*
X51476000Y-39735800D02*
X51476000Y-38249000D01*
X54300000Y-40625000D02*
X55100200Y-40625000D01*
D30*
X53499000Y-40099000D02*
X52324400Y-40099000D01*
D34*
X54300000Y-40625000D02*
X54025000Y-40625000D01*
X54025000Y-40625000D02*
X53499000Y-40099000D01*
X54250000Y-37500000D02*
X55300000Y-36450000D01*
X52275400Y-40050000D02*
X51790200Y-40050000D01*
X51476000Y-38249000D02*
X52225000Y-37500000D01*
X51790200Y-40050000D02*
X51476000Y-39735800D01*
X55100200Y-40625000D02*
X55101000Y-40624200D01*
D30*
X55101000Y-40624200D02*
X61325800Y-40624200D01*
X61325800Y-40624200D02*
X61950000Y-40000000D01*
X52324400Y-40099000D02*
X52275400Y-40050000D01*
D34*
X52225000Y-37500000D02*
X54250000Y-37500000D01*
%TO.N,/PAY full-duplex RS-422/PAY_RX-*%
X56449000Y-35699000D02*
X55300000Y-34550000D01*
X52450000Y-38975000D02*
X54300000Y-38975000D01*
X56437700Y-36837300D02*
X56449000Y-36837300D01*
X54300000Y-38975000D02*
X61725000Y-38975000D01*
X61725000Y-38975000D02*
X61950000Y-38750000D01*
D30*
X56449000Y-36837300D02*
X56449000Y-35699000D01*
D34*
X54300000Y-38975000D02*
X56437700Y-36837300D01*
X52225000Y-39200000D02*
X52450000Y-38975000D01*
%TO.N,/CTRL full-duplex RS-422/CTRL_RX+*%
X52225000Y-17500000D02*
X54250000Y-17500000D01*
X54300000Y-20624200D02*
X54300000Y-20193900D01*
D30*
X55636300Y-20624200D02*
X61325800Y-20624200D01*
X61325800Y-20624200D02*
X61950000Y-20000000D01*
D34*
X54250000Y-17500000D02*
X55300000Y-16450000D01*
D30*
X54205100Y-20099000D02*
X52324400Y-20099000D01*
D34*
X51476000Y-18249000D02*
X52225000Y-17500000D01*
X51790200Y-20050000D02*
X51476000Y-19735800D01*
X51476000Y-19735800D02*
X51476000Y-18249000D01*
X52275400Y-20050000D02*
X51790200Y-20050000D01*
X54300000Y-20193900D02*
X54205100Y-20099000D01*
D30*
X52324400Y-20099000D02*
X52275400Y-20050000D01*
D34*
X54300000Y-20625000D02*
X54300000Y-20624200D01*
X54300000Y-20624200D02*
X55636300Y-20624200D01*
%TO.N,/CTRL full-duplex RS-422/CTRL_RX-*%
X52225000Y-19200000D02*
X54075000Y-19200000D01*
X56873800Y-18750000D02*
X61950000Y-18750000D01*
D30*
X56873800Y-16123800D02*
X56449000Y-15699000D01*
D34*
X56873800Y-18750000D02*
X56873800Y-16837300D01*
D30*
X56873800Y-16837300D02*
X56873800Y-16123800D01*
D34*
X56449000Y-15699000D02*
X55300000Y-14550000D01*
X56648800Y-18975000D02*
X56873800Y-18750000D01*
X54300000Y-18975000D02*
X56648800Y-18975000D01*
X54075000Y-19200000D02*
X54300000Y-18975000D01*
%TO.N,/Battery sensing and I2C isolation/BAT_DIV*%
X15600000Y-40775000D02*
X18000000Y-40775000D01*
X18000000Y-40775000D02*
X18901800Y-39873200D01*
X14147000Y-43825000D02*
X14147000Y-41733300D01*
D30*
X20000400Y-39799600D02*
X20100000Y-39700000D01*
D34*
X14825000Y-40000000D02*
X15352700Y-40527600D01*
X13175000Y-43825000D02*
X12000000Y-45000000D01*
X18901800Y-39873200D02*
X18901800Y-39799600D01*
X15000000Y-43825000D02*
X14147000Y-43825000D01*
X14147000Y-43825000D02*
X13175000Y-43825000D01*
X14147000Y-41733300D02*
X15352700Y-40527600D01*
X15352700Y-40527600D02*
X15600000Y-40775000D01*
D30*
X18901800Y-39799600D02*
X20000400Y-39799600D01*
%TO.N,/Battery sensing and I2C isolation/BAT_ADC*%
D34*
X18175000Y-35950000D02*
X18225000Y-36000000D01*
X18125000Y-36000000D02*
X18175000Y-35950000D01*
D30*
X20855900Y-40350000D02*
X20100000Y-40350000D01*
X23545900Y-30524600D02*
X25175400Y-30524600D01*
D34*
X20061900Y-37601700D02*
X21833100Y-39372800D01*
X23545900Y-34117700D02*
X23545900Y-30524600D01*
X18175000Y-35950000D02*
X18175000Y-34000000D01*
X20061900Y-37601700D02*
X23545900Y-34117700D01*
D30*
X21833100Y-39372800D02*
X20855900Y-40350000D01*
D34*
X19826700Y-37601700D02*
X20061900Y-37601700D01*
D30*
X25175400Y-30524600D02*
X25200000Y-30500000D01*
D34*
X15000000Y-36000000D02*
X18125000Y-36000000D01*
X18225000Y-36000000D02*
X19826700Y-37601700D01*
%TO.N,/ANA_FEED*%
D29*
X18825000Y-13600000D02*
X20000000Y-14775000D01*
D34*
X20425000Y-14350000D02*
X21900000Y-14350000D01*
D29*
X18825000Y-11000000D02*
X18825000Y-13600000D01*
D34*
X20000000Y-14775000D02*
X20425000Y-14350000D01*
%TO.N,/Battery sensing and I2C isolation/BAT_MID*%
X10825000Y-40000000D02*
X13175000Y-40000000D01*
%TO.N,/PAY full-duplex RS-422/PAY_VCC*%
D29*
X40244100Y-37819100D02*
X41200000Y-38775000D01*
D34*
X41200000Y-38775000D02*
X41880000Y-38095000D01*
D29*
X41825000Y-35000000D02*
X40244100Y-36580900D01*
D34*
X41880000Y-38095000D02*
X43300000Y-38095000D01*
D29*
X40244100Y-36580900D02*
X40244100Y-37819100D01*
X43300000Y-37700000D02*
X43300000Y-38095000D01*
X46000000Y-35000000D02*
X43300000Y-37700000D01*
%TO.N,/PAY full-duplex RS-422/PAY_RO*%
D34*
X34547000Y-40797000D02*
X34547000Y-40796900D01*
X43300000Y-39365000D02*
X43075700Y-39589300D01*
X34547000Y-40796900D02*
X34182400Y-40796900D01*
X38595200Y-37551300D02*
X34376700Y-37551300D01*
X40633200Y-39589300D02*
X38595200Y-37551300D01*
X34182400Y-40796900D02*
X33618600Y-40233100D01*
X43075700Y-39589300D02*
X40633200Y-39589300D01*
X34700000Y-40950000D02*
X34547000Y-40797000D01*
%TO.N,/PAY full-duplex RS-422/PAY_DI*%
X42935000Y-41000000D02*
X43300000Y-40635000D01*
X40825000Y-41000000D02*
X42935000Y-41000000D01*
%TO.N,/PAY full-duplex RS-422/PAY_Y*%
X50575000Y-42600000D02*
X49395000Y-42600000D01*
X49395000Y-42600000D02*
X48700000Y-41905000D01*
%TO.N,/PAY full-duplex RS-422/PAY_Z*%
X48965000Y-40900000D02*
X48700000Y-40635000D01*
X50575000Y-40900000D02*
X48965000Y-40900000D01*
%TO.N,/PAY full-duplex RS-422/PAY_B*%
X50575000Y-39200000D02*
X48865000Y-39200000D01*
X48865000Y-39200000D02*
X48700000Y-39365000D01*
%TO.N,/PAY full-duplex RS-422/PAY_A*%
X49295000Y-37500000D02*
X48700000Y-38095000D01*
X50575000Y-37500000D02*
X49295000Y-37500000D01*
%TO.N,/PAY full-duplex RS-422/PAY_RX_BUF*%
X37300000Y-40950000D02*
X35915700Y-42334300D01*
X35915700Y-42334300D02*
X33720400Y-42334300D01*
X32021800Y-42153200D02*
X31175000Y-43000000D01*
X33720400Y-42334300D02*
X33539300Y-42153200D01*
X33539300Y-42153200D02*
X32021800Y-42153200D01*
%TO.N,PAY_RX*%
X32825000Y-43000000D02*
X40628500Y-43000000D01*
%TO.N,/CTRL full-duplex RS-422/CTRL_A*%
X50575000Y-17500000D02*
X49295000Y-17500000D01*
X49295000Y-17500000D02*
X48700000Y-18095000D01*
%TO.N,/CTRL full-duplex RS-422/CTRL_TX+*%
X57750000Y-22500000D02*
X55300000Y-24950000D01*
X53002000Y-24950000D02*
X52225000Y-24173000D01*
X61950000Y-22500000D02*
X57750000Y-22500000D01*
X52225000Y-24173000D02*
X52225000Y-22600000D01*
X55300000Y-24950000D02*
X53002000Y-24950000D01*
%TO.N,/CTRL full-duplex RS-422/CTRL_TX-*%
X52225000Y-20900000D02*
X52225000Y-21351000D01*
X55300000Y-23050000D02*
X55300000Y-21874200D01*
D30*
X55300000Y-21874200D02*
X61325800Y-21874200D01*
X52225000Y-21351000D02*
X54776800Y-21351000D01*
X54776800Y-21351000D02*
X55300000Y-21874200D01*
X61325800Y-21874200D02*
X61950000Y-21250000D01*
%TO.N,/CTRL full-duplex RS-422/CTRL_B*%
D34*
X48865000Y-19200000D02*
X48700000Y-19365000D01*
X50575000Y-19200000D02*
X48865000Y-19200000D01*
%TO.N,/CTRL full-duplex RS-422/CTRL_Z*%
X48965000Y-20900000D02*
X48700000Y-20635000D01*
X50575000Y-20900000D02*
X48965000Y-20900000D01*
%TO.N,/CTRL full-duplex RS-422/CTRL_VCC*%
D29*
X40244100Y-16580900D02*
X40244100Y-17819100D01*
D34*
X41200000Y-18775000D02*
X41880000Y-18095000D01*
D29*
X43300000Y-17700000D02*
X43300000Y-18095000D01*
X41825000Y-15000000D02*
X40244100Y-16580900D01*
X40244100Y-17819100D02*
X41200000Y-18775000D01*
D34*
X41880000Y-18095000D02*
X43300000Y-18095000D01*
D29*
X46000000Y-15000000D02*
X43300000Y-17700000D01*
%TO.N,/CTRL full-duplex RS-422/CTRL_RO*%
D34*
X39506600Y-18410200D02*
X38524600Y-18410200D01*
X40702600Y-19606200D02*
X39506600Y-18410200D01*
X43058800Y-19606200D02*
X40702600Y-19606200D01*
X34700000Y-20950000D02*
X35984800Y-20950000D01*
X43300000Y-19365000D02*
X43058800Y-19606200D01*
%TO.N,/CTRL full-duplex RS-422/CTRL_DI*%
X40825000Y-21000000D02*
X42935000Y-21000000D01*
X42935000Y-21000000D02*
X43300000Y-20635000D01*
%TO.N,/CTRL full-duplex RS-422/CTRL_Y*%
X49395000Y-22600000D02*
X48700000Y-21905000D01*
X50575000Y-22600000D02*
X49395000Y-22600000D01*
%TO.N,/CTRL full-duplex RS-422/CTRL_TX_BUF*%
D30*
X39175000Y-19374600D02*
X37624600Y-19374600D01*
X37624600Y-19374600D02*
X37300000Y-19050000D01*
D34*
X39175000Y-21000000D02*
X39175000Y-19374600D01*
%TO.N,CTRL_TX*%
X33784800Y-18390800D02*
X34040800Y-18390800D01*
X33595900Y-18579700D02*
X31470700Y-18579700D01*
X33784800Y-18390800D02*
X33595900Y-18579700D01*
X33784800Y-17959800D02*
X33784800Y-18390800D01*
X32000000Y-16175000D02*
X33784800Y-17959800D01*
X31470700Y-18579700D02*
X31000700Y-18109700D01*
X34040800Y-18390800D02*
X34700000Y-19050000D01*
%TO.N,/CTRL full-duplex RS-422/CTRL_RX_BUF*%
X32593700Y-21332700D02*
X33510200Y-21332700D01*
X31175000Y-23000000D02*
X31175000Y-22751400D01*
X33510200Y-21332700D02*
X33793000Y-21615500D01*
X36634500Y-21615500D02*
X37300000Y-20950000D01*
X33793000Y-21615500D02*
X36634500Y-21615500D01*
X31175000Y-22751400D02*
X32593700Y-21332700D01*
%TO.N,/PAY full-duplex RS-422/PAY_TX-*%
X52225000Y-40900000D02*
X52225000Y-41351000D01*
D30*
X55300000Y-41874200D02*
X61325800Y-41874200D01*
X54776800Y-41351000D02*
X55300000Y-41874200D01*
X61325800Y-41874200D02*
X61950000Y-41250000D01*
X52225000Y-41351000D02*
X54776800Y-41351000D01*
D34*
X55300000Y-43050000D02*
X55300000Y-41874200D01*
%TO.N,/RS_STATUS_UNUSED*%
D30*
X28224600Y-11124600D02*
X28100000Y-11000000D01*
X29125300Y-11124600D02*
X28224600Y-11124600D01*
D34*
X29125300Y-12950300D02*
X29125300Y-11124600D01*
X30000000Y-13825000D02*
X29125300Y-12950300D01*
%TO.N,CTRL_RX*%
X32825000Y-22011700D02*
X32825000Y-23000000D01*
%TO.N,/PAY full-duplex RS-422/PAY_TX_BUF*%
D30*
X39175000Y-39374600D02*
X37624600Y-39374600D01*
D34*
X39175000Y-41000000D02*
X39175000Y-39374600D01*
D30*
X37624600Y-39374600D02*
X37300000Y-39050000D01*
%TO.N,/Battery sensing and I2C isolation/BAT_RAW*%
D34*
X9175000Y-41057800D02*
X9175000Y-40000000D01*
X7607800Y-42625000D02*
X9175000Y-41057800D01*
X6950000Y-42625000D02*
X7607800Y-42625000D01*
%TO.N,/ANA_STATUS_UNUSED*%
X27654300Y-16444700D02*
X26274000Y-17825000D01*
X26725700Y-15000000D02*
X27654300Y-15928600D01*
X24100000Y-15000000D02*
X26725700Y-15000000D01*
X27654300Y-15928600D02*
X27654300Y-16444700D01*
X26274000Y-17825000D02*
X26000000Y-17825000D01*
%TO.N,/PAY full-duplex RS-422/PAY_TX+*%
X52225000Y-42600000D02*
X52225000Y-44129800D01*
X53045200Y-44950000D02*
X55300000Y-44950000D01*
X57750000Y-42500000D02*
X55300000Y-44950000D01*
X52225000Y-44129800D02*
X53045200Y-44950000D01*
X61950000Y-42500000D02*
X57750000Y-42500000D01*
%TO.N,PAY_TX*%
X34700000Y-38875000D02*
X34700000Y-38976300D01*
X36057100Y-38976300D02*
X34700000Y-38976300D01*
X32000000Y-36175000D02*
X34700000Y-38875000D01*
X34700000Y-38976300D02*
X34700000Y-39050000D01*
%TD*%
M02*
