%TF.GenerationSoftware,KiCad,Pcbnew,10.0.4-10.0.4~ubuntu26.04.1*%
%TF.CreationDate,2026-09-06T01:11:31+09:00*%
%TF.ProjectId,rbphat,72627068-6174-42e6-9b69-6361645f7063,B3*%
%TF.SameCoordinates,Original*%
%TF.FileFunction,Soldermask,Bot*%
%TF.FilePolarity,Negative*%
%FSLAX46Y46*%
G04 Gerber Fmt 4.6, Leading zero omitted, Abs format (unit mm)*
G04 Created by KiCad (PCBNEW 10.0.4-10.0.4~ubuntu26.04.1) date 2026-09-06 01:11:31*
%MOMM*%
%LPD*%
G01*
G04 APERTURE LIST*
%ADD10C,2.750000*%
%ADD11R,1.700000X1.700000*%
%ADD12C,1.700000*%
G04 APERTURE END LIST*
D10*
%TO.C,H1*%
X3500000Y-3500000D03*
%TD*%
%TO.C,H3*%
X3500000Y-52500000D03*
%TD*%
%TO.C,H4*%
X61500000Y-52500000D03*
%TD*%
%TO.C,H2*%
X61500000Y-3500000D03*
%TD*%
D11*
%TO.C,J1*%
X8370000Y-4770000D03*
D12*
X8370000Y-2230000D03*
X10910000Y-4770000D03*
X10910000Y-2230000D03*
X13450000Y-4770000D03*
X13450000Y-2230000D03*
X15990000Y-4770000D03*
X15990000Y-2230000D03*
X18530000Y-4770000D03*
X18530000Y-2230000D03*
X21070000Y-4770000D03*
X21070000Y-2230000D03*
X23610000Y-4770000D03*
X23610000Y-2230000D03*
X26150000Y-4770000D03*
X26150000Y-2230000D03*
X28690000Y-4770000D03*
X28690000Y-2230000D03*
X31230000Y-4770000D03*
X31230000Y-2230000D03*
X33770000Y-4770000D03*
X33770000Y-2230000D03*
X36310000Y-4770000D03*
X36310000Y-2230000D03*
X38850000Y-4770000D03*
X38850000Y-2230000D03*
X41390000Y-4770000D03*
X41390000Y-2230000D03*
X43930000Y-4770000D03*
X43930000Y-2230000D03*
X46470000Y-4770000D03*
X46470000Y-2230000D03*
X49010000Y-4770000D03*
X49010000Y-2230000D03*
X51550000Y-4770000D03*
X51550000Y-2230000D03*
X54090000Y-4770000D03*
X54090000Y-2230000D03*
X56630000Y-4770000D03*
X56630000Y-2230000D03*
%TD*%
M02*
