M48
; DRILL file KiCad 10.0.4-10.0.4~ubuntu26.04.1 date 2026-09-06T01:11:32
; FORMAT={-:-/ absolute / metric / decimal}
; #@! TF.CreationDate,2026-09-06T01:11:32+09:00
; #@! TF.GenerationSoftware,Kicad,Pcbnew,10.0.4-10.0.4~ubuntu26.04.1
; #@! TF.FileFunction,Plated,1,4,PTH
FMAT,2
METRIC
; #@! TA.AperFunction,Plated,PTH,ViaDrill
T1C0.300
; #@! TA.AperFunction,Plated,PTH,ComponentDrill
T2C1.020
%
G90
G05
T1
X6.0Y-17.175
X7.95Y-25.05
X7.95Y-41.375
X9.0Y-47.0
X13.0Y-24.225
X13.237Y-22.882
X13.825Y-29.0
X14.0Y-15.5
X14.0Y-24.225
X16.0Y-42.175
X17.0Y-39.225
X17.8Y-24.975
X18.012Y-23.879
X18.552Y-38.052
X19.0Y-18.175
X20.1Y-43.95
X20.775Y-36.0
X20.825Y-34.0
X21.0Y-13.225
X21.3Y-41.0
X21.561Y-25.715
X21.8Y-30.0
X22.0Y-15.75
X22.037Y-31.855
X22.669Y-23.775
X22.854Y-31.948
X22.9Y-15.0
X24.05Y-14.25
X24.775Y-9.5
X25.158Y-24.393
X25.2Y-29.0
X25.2Y-33.0
X25.775Y-27.0
X26.4Y-31.0
X26.9Y-11.0
X27.0Y-16.175
X27.1Y-39.7
X27.1Y-41.65
X30.0Y-37.225
X31.0Y-12.175
X31.001Y-18.11
X31.934Y-15.2
X32.775Y-9.5
X32.825Y-22.012
X33.619Y-40.233
X34.377Y-37.551
X35.0Y-9.175
X35.15Y-35.3
X35.4Y-29.1
X35.7Y-20.0
X35.7Y-40.0
X35.985Y-20.95
X36.057Y-38.976
X38.525Y-18.41
X38.775Y-16.4
X38.775Y-36.4
X40.628Y-43.0
X42.2Y-17.225
X42.2Y-37.225
X44.3Y-21.905
X44.3Y-41.905
X54.3Y-15.5
X54.3Y-24.0
X54.3Y-35.5
X54.3Y-44.0
X62.95Y-17.5
X62.95Y-37.5
T2
X8.37Y-2.23
X8.37Y-4.77
X10.91Y-2.23
X10.91Y-4.77
X13.45Y-2.23
X13.45Y-4.77
X15.99Y-2.23
X15.99Y-4.77
X18.53Y-2.23
X18.53Y-4.77
X21.07Y-2.23
X21.07Y-4.77
X23.61Y-2.23
X23.61Y-4.77
X26.15Y-2.23
X26.15Y-4.77
X28.69Y-2.23
X28.69Y-4.77
X31.23Y-2.23
X31.23Y-4.77
X33.77Y-2.23
X33.77Y-4.77
X36.31Y-2.23
X36.31Y-4.77
X38.85Y-2.23
X38.85Y-4.77
X41.39Y-2.23
X41.39Y-4.77
X43.93Y-2.23
X43.93Y-4.77
X46.47Y-2.23
X46.47Y-4.77
X49.01Y-2.23
X49.01Y-4.77
X51.55Y-2.23
X51.55Y-4.77
X54.09Y-2.23
X54.09Y-4.77
X56.63Y-2.23
X56.63Y-4.77
M30
