%TF.GenerationSoftware,KiCad,Pcbnew,10.0.4-10.0.4~ubuntu26.04.1*%
%TF.CreationDate,2026-09-06T01:11:31+09:00*%
%TF.ProjectId,rbphat,72627068-6174-42e6-9b69-6361645f7063,B3*%
%TF.SameCoordinates,Original*%
%TF.FileFunction,Legend,Bot*%
%TF.FilePolarity,Positive*%
%FSLAX46Y46*%
G04 Gerber Fmt 4.6, Leading zero omitted, Abs format (unit mm)*
G04 Created by KiCad (PCBNEW 10.0.4-10.0.4~ubuntu26.04.1) date 2026-09-06 01:11:31*
%MOMM*%
%LPD*%
G01*
G04 APERTURE LIST*
%ADD10C,0.150000*%
%ADD11C,0.120000*%
G04 APERTURE END LIST*
D10*
X40714286Y-19454819D02*
X41047619Y-18978628D01*
X41285714Y-19454819D02*
X41285714Y-18454819D01*
X41285714Y-18454819D02*
X40904762Y-18454819D01*
X40904762Y-18454819D02*
X40809524Y-18502438D01*
X40809524Y-18502438D02*
X40761905Y-18550057D01*
X40761905Y-18550057D02*
X40714286Y-18645295D01*
X40714286Y-18645295D02*
X40714286Y-18788152D01*
X40714286Y-18788152D02*
X40761905Y-18883390D01*
X40761905Y-18883390D02*
X40809524Y-18931009D01*
X40809524Y-18931009D02*
X40904762Y-18978628D01*
X40904762Y-18978628D02*
X41285714Y-18978628D01*
X39952381Y-18931009D02*
X39809524Y-18978628D01*
X39809524Y-18978628D02*
X39761905Y-19026247D01*
X39761905Y-19026247D02*
X39714286Y-19121485D01*
X39714286Y-19121485D02*
X39714286Y-19264342D01*
X39714286Y-19264342D02*
X39761905Y-19359580D01*
X39761905Y-19359580D02*
X39809524Y-19407200D01*
X39809524Y-19407200D02*
X39904762Y-19454819D01*
X39904762Y-19454819D02*
X40285714Y-19454819D01*
X40285714Y-19454819D02*
X40285714Y-18454819D01*
X40285714Y-18454819D02*
X39952381Y-18454819D01*
X39952381Y-18454819D02*
X39857143Y-18502438D01*
X39857143Y-18502438D02*
X39809524Y-18550057D01*
X39809524Y-18550057D02*
X39761905Y-18645295D01*
X39761905Y-18645295D02*
X39761905Y-18740533D01*
X39761905Y-18740533D02*
X39809524Y-18835771D01*
X39809524Y-18835771D02*
X39857143Y-18883390D01*
X39857143Y-18883390D02*
X39952381Y-18931009D01*
X39952381Y-18931009D02*
X40285714Y-18931009D01*
X39285714Y-19454819D02*
X39285714Y-18454819D01*
X39285714Y-18454819D02*
X38904762Y-18454819D01*
X38904762Y-18454819D02*
X38809524Y-18502438D01*
X38809524Y-18502438D02*
X38761905Y-18550057D01*
X38761905Y-18550057D02*
X38714286Y-18645295D01*
X38714286Y-18645295D02*
X38714286Y-18788152D01*
X38714286Y-18788152D02*
X38761905Y-18883390D01*
X38761905Y-18883390D02*
X38809524Y-18931009D01*
X38809524Y-18931009D02*
X38904762Y-18978628D01*
X38904762Y-18978628D02*
X39285714Y-18978628D01*
X38285714Y-19454819D02*
X38285714Y-18454819D01*
X38285714Y-18931009D02*
X37714286Y-18931009D01*
X37714286Y-19454819D02*
X37714286Y-18454819D01*
X37285714Y-19169104D02*
X36809524Y-19169104D01*
X37380952Y-19454819D02*
X37047619Y-18454819D01*
X37047619Y-18454819D02*
X36714286Y-19454819D01*
X36523809Y-18454819D02*
X35952381Y-18454819D01*
X36238095Y-19454819D02*
X36238095Y-18454819D01*
X34523809Y-18931009D02*
X34380952Y-18978628D01*
X34380952Y-18978628D02*
X34333333Y-19026247D01*
X34333333Y-19026247D02*
X34285714Y-19121485D01*
X34285714Y-19121485D02*
X34285714Y-19264342D01*
X34285714Y-19264342D02*
X34333333Y-19359580D01*
X34333333Y-19359580D02*
X34380952Y-19407200D01*
X34380952Y-19407200D02*
X34476190Y-19454819D01*
X34476190Y-19454819D02*
X34857142Y-19454819D01*
X34857142Y-19454819D02*
X34857142Y-18454819D01*
X34857142Y-18454819D02*
X34523809Y-18454819D01*
X34523809Y-18454819D02*
X34428571Y-18502438D01*
X34428571Y-18502438D02*
X34380952Y-18550057D01*
X34380952Y-18550057D02*
X34333333Y-18645295D01*
X34333333Y-18645295D02*
X34333333Y-18740533D01*
X34333333Y-18740533D02*
X34380952Y-18835771D01*
X34380952Y-18835771D02*
X34428571Y-18883390D01*
X34428571Y-18883390D02*
X34523809Y-18931009D01*
X34523809Y-18931009D02*
X34857142Y-18931009D01*
X33952380Y-18454819D02*
X33333333Y-18454819D01*
X33333333Y-18454819D02*
X33666666Y-18835771D01*
X33666666Y-18835771D02*
X33523809Y-18835771D01*
X33523809Y-18835771D02*
X33428571Y-18883390D01*
X33428571Y-18883390D02*
X33380952Y-18931009D01*
X33380952Y-18931009D02*
X33333333Y-19026247D01*
X33333333Y-19026247D02*
X33333333Y-19264342D01*
X33333333Y-19264342D02*
X33380952Y-19359580D01*
X33380952Y-19359580D02*
X33428571Y-19407200D01*
X33428571Y-19407200D02*
X33523809Y-19454819D01*
X33523809Y-19454819D02*
X33809523Y-19454819D01*
X33809523Y-19454819D02*
X33904761Y-19407200D01*
X33904761Y-19407200D02*
X33952380Y-19359580D01*
X31428571Y-18407200D02*
X32285713Y-19692914D01*
X29904761Y-18788152D02*
X29904761Y-19454819D01*
X30142856Y-18407200D02*
X30380951Y-19121485D01*
X30380951Y-19121485D02*
X29761904Y-19121485D01*
X28142856Y-19454819D02*
X28619046Y-19454819D01*
X28619046Y-19454819D02*
X28619046Y-18454819D01*
X27857141Y-19169104D02*
X27380951Y-19169104D01*
X27952379Y-19454819D02*
X27619046Y-18454819D01*
X27619046Y-18454819D02*
X27285713Y-19454819D01*
X26761903Y-18978628D02*
X26761903Y-19454819D01*
X27095236Y-18454819D02*
X26761903Y-18978628D01*
X26761903Y-18978628D02*
X26428570Y-18454819D01*
X26095236Y-18931009D02*
X25761903Y-18931009D01*
X25619046Y-19454819D02*
X26095236Y-19454819D01*
X26095236Y-19454819D02*
X26095236Y-18454819D01*
X26095236Y-18454819D02*
X25619046Y-18454819D01*
X24619046Y-19454819D02*
X24952379Y-18978628D01*
X25190474Y-19454819D02*
X25190474Y-18454819D01*
X25190474Y-18454819D02*
X24809522Y-18454819D01*
X24809522Y-18454819D02*
X24714284Y-18502438D01*
X24714284Y-18502438D02*
X24666665Y-18550057D01*
X24666665Y-18550057D02*
X24619046Y-18645295D01*
X24619046Y-18645295D02*
X24619046Y-18788152D01*
X24619046Y-18788152D02*
X24666665Y-18883390D01*
X24666665Y-18883390D02*
X24714284Y-18931009D01*
X24714284Y-18931009D02*
X24809522Y-18978628D01*
X24809522Y-18978628D02*
X25190474Y-18978628D01*
X24238093Y-19407200D02*
X24095236Y-19454819D01*
X24095236Y-19454819D02*
X23857141Y-19454819D01*
X23857141Y-19454819D02*
X23761903Y-19407200D01*
X23761903Y-19407200D02*
X23714284Y-19359580D01*
X23714284Y-19359580D02*
X23666665Y-19264342D01*
X23666665Y-19264342D02*
X23666665Y-19169104D01*
X23666665Y-19169104D02*
X23714284Y-19073866D01*
X23714284Y-19073866D02*
X23761903Y-19026247D01*
X23761903Y-19026247D02*
X23857141Y-18978628D01*
X23857141Y-18978628D02*
X24047617Y-18931009D01*
X24047617Y-18931009D02*
X24142855Y-18883390D01*
X24142855Y-18883390D02*
X24190474Y-18835771D01*
X24190474Y-18835771D02*
X24238093Y-18740533D01*
X24238093Y-18740533D02*
X24238093Y-18645295D01*
X24238093Y-18645295D02*
X24190474Y-18550057D01*
X24190474Y-18550057D02*
X24142855Y-18502438D01*
X24142855Y-18502438D02*
X24047617Y-18454819D01*
X24047617Y-18454819D02*
X23809522Y-18454819D01*
X23809522Y-18454819D02*
X23666665Y-18502438D01*
X40595239Y-20954819D02*
X40595239Y-21669104D01*
X40595239Y-21669104D02*
X40642858Y-21811961D01*
X40642858Y-21811961D02*
X40738096Y-21907200D01*
X40738096Y-21907200D02*
X40880953Y-21954819D01*
X40880953Y-21954819D02*
X40976191Y-21954819D01*
X40166667Y-21050057D02*
X40119048Y-21002438D01*
X40119048Y-21002438D02*
X40023810Y-20954819D01*
X40023810Y-20954819D02*
X39785715Y-20954819D01*
X39785715Y-20954819D02*
X39690477Y-21002438D01*
X39690477Y-21002438D02*
X39642858Y-21050057D01*
X39642858Y-21050057D02*
X39595239Y-21145295D01*
X39595239Y-21145295D02*
X39595239Y-21240533D01*
X39595239Y-21240533D02*
X39642858Y-21383390D01*
X39642858Y-21383390D02*
X40214286Y-21954819D01*
X40214286Y-21954819D02*
X39595239Y-21954819D01*
X37833334Y-21859580D02*
X37880953Y-21907200D01*
X37880953Y-21907200D02*
X38023810Y-21954819D01*
X38023810Y-21954819D02*
X38119048Y-21954819D01*
X38119048Y-21954819D02*
X38261905Y-21907200D01*
X38261905Y-21907200D02*
X38357143Y-21811961D01*
X38357143Y-21811961D02*
X38404762Y-21716723D01*
X38404762Y-21716723D02*
X38452381Y-21526247D01*
X38452381Y-21526247D02*
X38452381Y-21383390D01*
X38452381Y-21383390D02*
X38404762Y-21192914D01*
X38404762Y-21192914D02*
X38357143Y-21097676D01*
X38357143Y-21097676D02*
X38261905Y-21002438D01*
X38261905Y-21002438D02*
X38119048Y-20954819D01*
X38119048Y-20954819D02*
X38023810Y-20954819D01*
X38023810Y-20954819D02*
X37880953Y-21002438D01*
X37880953Y-21002438D02*
X37833334Y-21050057D01*
X37547619Y-20954819D02*
X36976191Y-20954819D01*
X37261905Y-21954819D02*
X37261905Y-20954819D01*
X36071429Y-21954819D02*
X36404762Y-21478628D01*
X36642857Y-21954819D02*
X36642857Y-20954819D01*
X36642857Y-20954819D02*
X36261905Y-20954819D01*
X36261905Y-20954819D02*
X36166667Y-21002438D01*
X36166667Y-21002438D02*
X36119048Y-21050057D01*
X36119048Y-21050057D02*
X36071429Y-21145295D01*
X36071429Y-21145295D02*
X36071429Y-21288152D01*
X36071429Y-21288152D02*
X36119048Y-21383390D01*
X36119048Y-21383390D02*
X36166667Y-21431009D01*
X36166667Y-21431009D02*
X36261905Y-21478628D01*
X36261905Y-21478628D02*
X36642857Y-21478628D01*
X35166667Y-21954819D02*
X35642857Y-21954819D01*
X35642857Y-21954819D02*
X35642857Y-20954819D01*
X32261904Y-20954819D02*
X32261904Y-21669104D01*
X32261904Y-21669104D02*
X32309523Y-21811961D01*
X32309523Y-21811961D02*
X32404761Y-21907200D01*
X32404761Y-21907200D02*
X32547618Y-21954819D01*
X32547618Y-21954819D02*
X32642856Y-21954819D01*
X31880951Y-20954819D02*
X31261904Y-20954819D01*
X31261904Y-20954819D02*
X31595237Y-21335771D01*
X31595237Y-21335771D02*
X31452380Y-21335771D01*
X31452380Y-21335771D02*
X31357142Y-21383390D01*
X31357142Y-21383390D02*
X31309523Y-21431009D01*
X31309523Y-21431009D02*
X31261904Y-21526247D01*
X31261904Y-21526247D02*
X31261904Y-21764342D01*
X31261904Y-21764342D02*
X31309523Y-21859580D01*
X31309523Y-21859580D02*
X31357142Y-21907200D01*
X31357142Y-21907200D02*
X31452380Y-21954819D01*
X31452380Y-21954819D02*
X31738094Y-21954819D01*
X31738094Y-21954819D02*
X31833332Y-21907200D01*
X31833332Y-21907200D02*
X31880951Y-21859580D01*
X30071427Y-21954819D02*
X30071427Y-20954819D01*
X30071427Y-20954819D02*
X29690475Y-20954819D01*
X29690475Y-20954819D02*
X29595237Y-21002438D01*
X29595237Y-21002438D02*
X29547618Y-21050057D01*
X29547618Y-21050057D02*
X29499999Y-21145295D01*
X29499999Y-21145295D02*
X29499999Y-21288152D01*
X29499999Y-21288152D02*
X29547618Y-21383390D01*
X29547618Y-21383390D02*
X29595237Y-21431009D01*
X29595237Y-21431009D02*
X29690475Y-21478628D01*
X29690475Y-21478628D02*
X30071427Y-21478628D01*
X29119046Y-21669104D02*
X28642856Y-21669104D01*
X29214284Y-21954819D02*
X28880951Y-20954819D01*
X28880951Y-20954819D02*
X28547618Y-21954819D01*
X28023808Y-21478628D02*
X28023808Y-21954819D01*
X28357141Y-20954819D02*
X28023808Y-21478628D01*
X28023808Y-21478628D02*
X27690475Y-20954819D01*
X26880951Y-21954819D02*
X27357141Y-21954819D01*
X27357141Y-21954819D02*
X27357141Y-20954819D01*
X26357141Y-20954819D02*
X26166665Y-20954819D01*
X26166665Y-20954819D02*
X26071427Y-21002438D01*
X26071427Y-21002438D02*
X25976189Y-21097676D01*
X25976189Y-21097676D02*
X25928570Y-21288152D01*
X25928570Y-21288152D02*
X25928570Y-21621485D01*
X25928570Y-21621485D02*
X25976189Y-21811961D01*
X25976189Y-21811961D02*
X26071427Y-21907200D01*
X26071427Y-21907200D02*
X26166665Y-21954819D01*
X26166665Y-21954819D02*
X26357141Y-21954819D01*
X26357141Y-21954819D02*
X26452379Y-21907200D01*
X26452379Y-21907200D02*
X26547617Y-21811961D01*
X26547617Y-21811961D02*
X26595236Y-21621485D01*
X26595236Y-21621485D02*
X26595236Y-21288152D01*
X26595236Y-21288152D02*
X26547617Y-21097676D01*
X26547617Y-21097676D02*
X26452379Y-21002438D01*
X26452379Y-21002438D02*
X26357141Y-20954819D01*
X25547617Y-21669104D02*
X25071427Y-21669104D01*
X25642855Y-21954819D02*
X25309522Y-20954819D01*
X25309522Y-20954819D02*
X24976189Y-21954819D01*
X24642855Y-21954819D02*
X24642855Y-20954819D01*
X24642855Y-20954819D02*
X24404760Y-20954819D01*
X24404760Y-20954819D02*
X24261903Y-21002438D01*
X24261903Y-21002438D02*
X24166665Y-21097676D01*
X24166665Y-21097676D02*
X24119046Y-21192914D01*
X24119046Y-21192914D02*
X24071427Y-21383390D01*
X24071427Y-21383390D02*
X24071427Y-21526247D01*
X24071427Y-21526247D02*
X24119046Y-21716723D01*
X24119046Y-21716723D02*
X24166665Y-21811961D01*
X24166665Y-21811961D02*
X24261903Y-21907200D01*
X24261903Y-21907200D02*
X24404760Y-21954819D01*
X24404760Y-21954819D02*
X24642855Y-21954819D01*
X41142858Y-24454819D02*
X41714286Y-24454819D01*
X41428572Y-24454819D02*
X41428572Y-23454819D01*
X41428572Y-23454819D02*
X41523810Y-23597676D01*
X41523810Y-23597676D02*
X41619048Y-23692914D01*
X41619048Y-23692914D02*
X41714286Y-23740533D01*
X40095238Y-23454819D02*
X39523810Y-23454819D01*
X39809524Y-24454819D02*
X39809524Y-23454819D01*
X39285714Y-23454819D02*
X38619048Y-24454819D01*
X38619048Y-23454819D02*
X39285714Y-24454819D01*
X38238095Y-24073866D02*
X37476191Y-24073866D01*
X37857143Y-24454819D02*
X37857143Y-23692914D01*
X34761904Y-23550057D02*
X34714285Y-23502438D01*
X34714285Y-23502438D02*
X34619047Y-23454819D01*
X34619047Y-23454819D02*
X34380952Y-23454819D01*
X34380952Y-23454819D02*
X34285714Y-23502438D01*
X34285714Y-23502438D02*
X34238095Y-23550057D01*
X34238095Y-23550057D02*
X34190476Y-23645295D01*
X34190476Y-23645295D02*
X34190476Y-23740533D01*
X34190476Y-23740533D02*
X34238095Y-23883390D01*
X34238095Y-23883390D02*
X34809523Y-24454819D01*
X34809523Y-24454819D02*
X34190476Y-24454819D01*
X33142856Y-23454819D02*
X32571428Y-23454819D01*
X32857142Y-24454819D02*
X32857142Y-23454819D01*
X32333332Y-23454819D02*
X31666666Y-24454819D01*
X31666666Y-23454819D02*
X32333332Y-24454819D01*
X31285713Y-24073866D02*
X30523809Y-24073866D01*
X27857141Y-23454819D02*
X27238094Y-23454819D01*
X27238094Y-23454819D02*
X27571427Y-23835771D01*
X27571427Y-23835771D02*
X27428570Y-23835771D01*
X27428570Y-23835771D02*
X27333332Y-23883390D01*
X27333332Y-23883390D02*
X27285713Y-23931009D01*
X27285713Y-23931009D02*
X27238094Y-24026247D01*
X27238094Y-24026247D02*
X27238094Y-24264342D01*
X27238094Y-24264342D02*
X27285713Y-24359580D01*
X27285713Y-24359580D02*
X27333332Y-24407200D01*
X27333332Y-24407200D02*
X27428570Y-24454819D01*
X27428570Y-24454819D02*
X27714284Y-24454819D01*
X27714284Y-24454819D02*
X27809522Y-24407200D01*
X27809522Y-24407200D02*
X27857141Y-24359580D01*
X25476189Y-24454819D02*
X25809522Y-23978628D01*
X26047617Y-24454819D02*
X26047617Y-23454819D01*
X26047617Y-23454819D02*
X25666665Y-23454819D01*
X25666665Y-23454819D02*
X25571427Y-23502438D01*
X25571427Y-23502438D02*
X25523808Y-23550057D01*
X25523808Y-23550057D02*
X25476189Y-23645295D01*
X25476189Y-23645295D02*
X25476189Y-23788152D01*
X25476189Y-23788152D02*
X25523808Y-23883390D01*
X25523808Y-23883390D02*
X25571427Y-23931009D01*
X25571427Y-23931009D02*
X25666665Y-23978628D01*
X25666665Y-23978628D02*
X26047617Y-23978628D01*
X25142855Y-23454819D02*
X24476189Y-24454819D01*
X24476189Y-23454819D02*
X25142855Y-24454819D01*
X24095236Y-24073866D02*
X23333332Y-24073866D01*
X23714284Y-24454819D02*
X23714284Y-23692914D01*
X37809524Y-26288152D02*
X37809524Y-26954819D01*
X38047619Y-25907200D02*
X38285714Y-26621485D01*
X38285714Y-26621485D02*
X37666667Y-26621485D01*
X35952381Y-26954819D02*
X36285714Y-26478628D01*
X36523809Y-26954819D02*
X36523809Y-25954819D01*
X36523809Y-25954819D02*
X36142857Y-25954819D01*
X36142857Y-25954819D02*
X36047619Y-26002438D01*
X36047619Y-26002438D02*
X36000000Y-26050057D01*
X36000000Y-26050057D02*
X35952381Y-26145295D01*
X35952381Y-26145295D02*
X35952381Y-26288152D01*
X35952381Y-26288152D02*
X36000000Y-26383390D01*
X36000000Y-26383390D02*
X36047619Y-26431009D01*
X36047619Y-26431009D02*
X36142857Y-26478628D01*
X36142857Y-26478628D02*
X36523809Y-26478628D01*
X35619047Y-25954819D02*
X34952381Y-26954819D01*
X34952381Y-25954819D02*
X35619047Y-26954819D01*
X34571428Y-26573866D02*
X33809524Y-26573866D01*
X30571428Y-25954819D02*
X31047618Y-25954819D01*
X31047618Y-25954819D02*
X31095237Y-26431009D01*
X31095237Y-26431009D02*
X31047618Y-26383390D01*
X31047618Y-26383390D02*
X30952380Y-26335771D01*
X30952380Y-26335771D02*
X30714285Y-26335771D01*
X30714285Y-26335771D02*
X30619047Y-26383390D01*
X30619047Y-26383390D02*
X30571428Y-26431009D01*
X30571428Y-26431009D02*
X30523809Y-26526247D01*
X30523809Y-26526247D02*
X30523809Y-26764342D01*
X30523809Y-26764342D02*
X30571428Y-26859580D01*
X30571428Y-26859580D02*
X30619047Y-26907200D01*
X30619047Y-26907200D02*
X30714285Y-26954819D01*
X30714285Y-26954819D02*
X30952380Y-26954819D01*
X30952380Y-26954819D02*
X31047618Y-26907200D01*
X31047618Y-26907200D02*
X31095237Y-26859580D01*
X28809523Y-26002438D02*
X28904761Y-25954819D01*
X28904761Y-25954819D02*
X29047618Y-25954819D01*
X29047618Y-25954819D02*
X29190475Y-26002438D01*
X29190475Y-26002438D02*
X29285713Y-26097676D01*
X29285713Y-26097676D02*
X29333332Y-26192914D01*
X29333332Y-26192914D02*
X29380951Y-26383390D01*
X29380951Y-26383390D02*
X29380951Y-26526247D01*
X29380951Y-26526247D02*
X29333332Y-26716723D01*
X29333332Y-26716723D02*
X29285713Y-26811961D01*
X29285713Y-26811961D02*
X29190475Y-26907200D01*
X29190475Y-26907200D02*
X29047618Y-26954819D01*
X29047618Y-26954819D02*
X28952380Y-26954819D01*
X28952380Y-26954819D02*
X28809523Y-26907200D01*
X28809523Y-26907200D02*
X28761904Y-26859580D01*
X28761904Y-26859580D02*
X28761904Y-26526247D01*
X28761904Y-26526247D02*
X28952380Y-26526247D01*
X28333332Y-26954819D02*
X28333332Y-25954819D01*
X28333332Y-25954819D02*
X27761904Y-26954819D01*
X27761904Y-26954819D02*
X27761904Y-25954819D01*
X27285713Y-26954819D02*
X27285713Y-25954819D01*
X27285713Y-25954819D02*
X27047618Y-25954819D01*
X27047618Y-25954819D02*
X26904761Y-26002438D01*
X26904761Y-26002438D02*
X26809523Y-26097676D01*
X26809523Y-26097676D02*
X26761904Y-26192914D01*
X26761904Y-26192914D02*
X26714285Y-26383390D01*
X26714285Y-26383390D02*
X26714285Y-26526247D01*
X26714285Y-26526247D02*
X26761904Y-26716723D01*
X26761904Y-26716723D02*
X26809523Y-26811961D01*
X26809523Y-26811961D02*
X26904761Y-26907200D01*
X26904761Y-26907200D02*
X27047618Y-26954819D01*
X27047618Y-26954819D02*
X27285713Y-26954819D01*
X39761905Y-28454819D02*
X39761905Y-29169104D01*
X39761905Y-29169104D02*
X39809524Y-29311961D01*
X39809524Y-29311961D02*
X39904762Y-29407200D01*
X39904762Y-29407200D02*
X40047619Y-29454819D01*
X40047619Y-29454819D02*
X40142857Y-29454819D01*
X38857143Y-28788152D02*
X38857143Y-29454819D01*
X39095238Y-28407200D02*
X39333333Y-29121485D01*
X39333333Y-29121485D02*
X38714286Y-29121485D01*
X38333333Y-29359580D02*
X38285714Y-29407200D01*
X38285714Y-29407200D02*
X38333333Y-29454819D01*
X38333333Y-29454819D02*
X38380952Y-29407200D01*
X38380952Y-29407200D02*
X38333333Y-29359580D01*
X38333333Y-29359580D02*
X38333333Y-29454819D01*
X38333333Y-28835771D02*
X38285714Y-28883390D01*
X38285714Y-28883390D02*
X38333333Y-28931009D01*
X38333333Y-28931009D02*
X38380952Y-28883390D01*
X38380952Y-28883390D02*
X38333333Y-28835771D01*
X38333333Y-28835771D02*
X38333333Y-28931009D01*
X36571429Y-29454819D02*
X37142857Y-29454819D01*
X36857143Y-29454819D02*
X36857143Y-28454819D01*
X36857143Y-28454819D02*
X36952381Y-28597676D01*
X36952381Y-28597676D02*
X37047619Y-28692914D01*
X37047619Y-28692914D02*
X37142857Y-28740533D01*
X35047619Y-28931009D02*
X34904762Y-28978628D01*
X34904762Y-28978628D02*
X34857143Y-29026247D01*
X34857143Y-29026247D02*
X34809524Y-29121485D01*
X34809524Y-29121485D02*
X34809524Y-29264342D01*
X34809524Y-29264342D02*
X34857143Y-29359580D01*
X34857143Y-29359580D02*
X34904762Y-29407200D01*
X34904762Y-29407200D02*
X35000000Y-29454819D01*
X35000000Y-29454819D02*
X35380952Y-29454819D01*
X35380952Y-29454819D02*
X35380952Y-28454819D01*
X35380952Y-28454819D02*
X35047619Y-28454819D01*
X35047619Y-28454819D02*
X34952381Y-28502438D01*
X34952381Y-28502438D02*
X34904762Y-28550057D01*
X34904762Y-28550057D02*
X34857143Y-28645295D01*
X34857143Y-28645295D02*
X34857143Y-28740533D01*
X34857143Y-28740533D02*
X34904762Y-28835771D01*
X34904762Y-28835771D02*
X34952381Y-28883390D01*
X34952381Y-28883390D02*
X35047619Y-28931009D01*
X35047619Y-28931009D02*
X35380952Y-28931009D01*
X34428571Y-29169104D02*
X33952381Y-29169104D01*
X34523809Y-29454819D02*
X34190476Y-28454819D01*
X34190476Y-28454819D02*
X33857143Y-29454819D01*
X33666666Y-28454819D02*
X33095238Y-28454819D01*
X33380952Y-29454819D02*
X33380952Y-28454819D01*
X32761904Y-29073866D02*
X32000000Y-29073866D01*
X32380952Y-29454819D02*
X32380952Y-28692914D01*
X29285713Y-28550057D02*
X29238094Y-28502438D01*
X29238094Y-28502438D02*
X29142856Y-28454819D01*
X29142856Y-28454819D02*
X28904761Y-28454819D01*
X28904761Y-28454819D02*
X28809523Y-28502438D01*
X28809523Y-28502438D02*
X28761904Y-28550057D01*
X28761904Y-28550057D02*
X28714285Y-28645295D01*
X28714285Y-28645295D02*
X28714285Y-28740533D01*
X28714285Y-28740533D02*
X28761904Y-28883390D01*
X28761904Y-28883390D02*
X29333332Y-29454819D01*
X29333332Y-29454819D02*
X28714285Y-29454819D01*
X26999999Y-28502438D02*
X27095237Y-28454819D01*
X27095237Y-28454819D02*
X27238094Y-28454819D01*
X27238094Y-28454819D02*
X27380951Y-28502438D01*
X27380951Y-28502438D02*
X27476189Y-28597676D01*
X27476189Y-28597676D02*
X27523808Y-28692914D01*
X27523808Y-28692914D02*
X27571427Y-28883390D01*
X27571427Y-28883390D02*
X27571427Y-29026247D01*
X27571427Y-29026247D02*
X27523808Y-29216723D01*
X27523808Y-29216723D02*
X27476189Y-29311961D01*
X27476189Y-29311961D02*
X27380951Y-29407200D01*
X27380951Y-29407200D02*
X27238094Y-29454819D01*
X27238094Y-29454819D02*
X27142856Y-29454819D01*
X27142856Y-29454819D02*
X26999999Y-29407200D01*
X26999999Y-29407200D02*
X26952380Y-29359580D01*
X26952380Y-29359580D02*
X26952380Y-29026247D01*
X26952380Y-29026247D02*
X27142856Y-29026247D01*
X26523808Y-29454819D02*
X26523808Y-28454819D01*
X26523808Y-28454819D02*
X25952380Y-29454819D01*
X25952380Y-29454819D02*
X25952380Y-28454819D01*
X25476189Y-29454819D02*
X25476189Y-28454819D01*
X25476189Y-28454819D02*
X25238094Y-28454819D01*
X25238094Y-28454819D02*
X25095237Y-28502438D01*
X25095237Y-28502438D02*
X24999999Y-28597676D01*
X24999999Y-28597676D02*
X24952380Y-28692914D01*
X24952380Y-28692914D02*
X24904761Y-28883390D01*
X24904761Y-28883390D02*
X24904761Y-29026247D01*
X24904761Y-29026247D02*
X24952380Y-29216723D01*
X24952380Y-29216723D02*
X24999999Y-29311961D01*
X24999999Y-29311961D02*
X25095237Y-29407200D01*
X25095237Y-29407200D02*
X25238094Y-29454819D01*
X25238094Y-29454819D02*
X25476189Y-29454819D01*
X41428571Y-31907200D02*
X41285714Y-31954819D01*
X41285714Y-31954819D02*
X41047619Y-31954819D01*
X41047619Y-31954819D02*
X40952381Y-31907200D01*
X40952381Y-31907200D02*
X40904762Y-31859580D01*
X40904762Y-31859580D02*
X40857143Y-31764342D01*
X40857143Y-31764342D02*
X40857143Y-31669104D01*
X40857143Y-31669104D02*
X40904762Y-31573866D01*
X40904762Y-31573866D02*
X40952381Y-31526247D01*
X40952381Y-31526247D02*
X41047619Y-31478628D01*
X41047619Y-31478628D02*
X41238095Y-31431009D01*
X41238095Y-31431009D02*
X41333333Y-31383390D01*
X41333333Y-31383390D02*
X41380952Y-31335771D01*
X41380952Y-31335771D02*
X41428571Y-31240533D01*
X41428571Y-31240533D02*
X41428571Y-31145295D01*
X41428571Y-31145295D02*
X41380952Y-31050057D01*
X41380952Y-31050057D02*
X41333333Y-31002438D01*
X41333333Y-31002438D02*
X41238095Y-30954819D01*
X41238095Y-30954819D02*
X41000000Y-30954819D01*
X41000000Y-30954819D02*
X40857143Y-31002438D01*
X40428571Y-31431009D02*
X40095238Y-31431009D01*
X39952381Y-31954819D02*
X40428571Y-31954819D01*
X40428571Y-31954819D02*
X40428571Y-30954819D01*
X40428571Y-30954819D02*
X39952381Y-30954819D01*
X39523809Y-31954819D02*
X39523809Y-30954819D01*
X39523809Y-30954819D02*
X38952381Y-31954819D01*
X38952381Y-31954819D02*
X38952381Y-30954819D01*
X38523809Y-31907200D02*
X38380952Y-31954819D01*
X38380952Y-31954819D02*
X38142857Y-31954819D01*
X38142857Y-31954819D02*
X38047619Y-31907200D01*
X38047619Y-31907200D02*
X38000000Y-31859580D01*
X38000000Y-31859580D02*
X37952381Y-31764342D01*
X37952381Y-31764342D02*
X37952381Y-31669104D01*
X37952381Y-31669104D02*
X38000000Y-31573866D01*
X38000000Y-31573866D02*
X38047619Y-31526247D01*
X38047619Y-31526247D02*
X38142857Y-31478628D01*
X38142857Y-31478628D02*
X38333333Y-31431009D01*
X38333333Y-31431009D02*
X38428571Y-31383390D01*
X38428571Y-31383390D02*
X38476190Y-31335771D01*
X38476190Y-31335771D02*
X38523809Y-31240533D01*
X38523809Y-31240533D02*
X38523809Y-31145295D01*
X38523809Y-31145295D02*
X38476190Y-31050057D01*
X38476190Y-31050057D02*
X38428571Y-31002438D01*
X38428571Y-31002438D02*
X38333333Y-30954819D01*
X38333333Y-30954819D02*
X38095238Y-30954819D01*
X38095238Y-30954819D02*
X37952381Y-31002438D01*
X37523809Y-31431009D02*
X37190476Y-31431009D01*
X37047619Y-31954819D02*
X37523809Y-31954819D01*
X37523809Y-31954819D02*
X37523809Y-30954819D01*
X37523809Y-30954819D02*
X37047619Y-30954819D01*
X35666666Y-30954819D02*
X35476190Y-30954819D01*
X35476190Y-30954819D02*
X35380952Y-31002438D01*
X35380952Y-31002438D02*
X35285714Y-31097676D01*
X35285714Y-31097676D02*
X35238095Y-31288152D01*
X35238095Y-31288152D02*
X35238095Y-31621485D01*
X35238095Y-31621485D02*
X35285714Y-31811961D01*
X35285714Y-31811961D02*
X35380952Y-31907200D01*
X35380952Y-31907200D02*
X35476190Y-31954819D01*
X35476190Y-31954819D02*
X35666666Y-31954819D01*
X35666666Y-31954819D02*
X35761904Y-31907200D01*
X35761904Y-31907200D02*
X35857142Y-31811961D01*
X35857142Y-31811961D02*
X35904761Y-31621485D01*
X35904761Y-31621485D02*
X35904761Y-31288152D01*
X35904761Y-31288152D02*
X35857142Y-31097676D01*
X35857142Y-31097676D02*
X35761904Y-31002438D01*
X35761904Y-31002438D02*
X35666666Y-30954819D01*
X34809523Y-31954819D02*
X34809523Y-30954819D01*
X34809523Y-30954819D02*
X34238095Y-31954819D01*
X34238095Y-31954819D02*
X34238095Y-30954819D01*
X33285714Y-31954819D02*
X33761904Y-31954819D01*
X33761904Y-31954819D02*
X33761904Y-30954819D01*
X32761904Y-31478628D02*
X32761904Y-31954819D01*
X33095237Y-30954819D02*
X32761904Y-31478628D01*
X32761904Y-31478628D02*
X32428571Y-30954819D01*
X30619047Y-30907200D02*
X31476189Y-32192914D01*
X29333332Y-30954819D02*
X29238094Y-30954819D01*
X29238094Y-30954819D02*
X29142856Y-31002438D01*
X29142856Y-31002438D02*
X29095237Y-31050057D01*
X29095237Y-31050057D02*
X29047618Y-31145295D01*
X29047618Y-31145295D02*
X28999999Y-31335771D01*
X28999999Y-31335771D02*
X28999999Y-31573866D01*
X28999999Y-31573866D02*
X29047618Y-31764342D01*
X29047618Y-31764342D02*
X29095237Y-31859580D01*
X29095237Y-31859580D02*
X29142856Y-31907200D01*
X29142856Y-31907200D02*
X29238094Y-31954819D01*
X29238094Y-31954819D02*
X29333332Y-31954819D01*
X29333332Y-31954819D02*
X29428570Y-31907200D01*
X29428570Y-31907200D02*
X29476189Y-31859580D01*
X29476189Y-31859580D02*
X29523808Y-31764342D01*
X29523808Y-31764342D02*
X29571427Y-31573866D01*
X29571427Y-31573866D02*
X29571427Y-31335771D01*
X29571427Y-31335771D02*
X29523808Y-31145295D01*
X29523808Y-31145295D02*
X29476189Y-31050057D01*
X29476189Y-31050057D02*
X29428570Y-31002438D01*
X29428570Y-31002438D02*
X29333332Y-30954819D01*
X28571427Y-31573866D02*
X27809523Y-31573866D01*
X26809523Y-31954819D02*
X27380951Y-31954819D01*
X27095237Y-31954819D02*
X27095237Y-30954819D01*
X27095237Y-30954819D02*
X27190475Y-31097676D01*
X27190475Y-31097676D02*
X27285713Y-31192914D01*
X27285713Y-31192914D02*
X27380951Y-31240533D01*
X26428570Y-31050057D02*
X26380951Y-31002438D01*
X26380951Y-31002438D02*
X26285713Y-30954819D01*
X26285713Y-30954819D02*
X26047618Y-30954819D01*
X26047618Y-30954819D02*
X25952380Y-31002438D01*
X25952380Y-31002438D02*
X25904761Y-31050057D01*
X25904761Y-31050057D02*
X25857142Y-31145295D01*
X25857142Y-31145295D02*
X25857142Y-31240533D01*
X25857142Y-31240533D02*
X25904761Y-31383390D01*
X25904761Y-31383390D02*
X26476189Y-31954819D01*
X26476189Y-31954819D02*
X25857142Y-31954819D01*
X25428570Y-31859580D02*
X25380951Y-31907200D01*
X25380951Y-31907200D02*
X25428570Y-31954819D01*
X25428570Y-31954819D02*
X25476189Y-31907200D01*
X25476189Y-31907200D02*
X25428570Y-31859580D01*
X25428570Y-31859580D02*
X25428570Y-31954819D01*
X24523809Y-30954819D02*
X24714285Y-30954819D01*
X24714285Y-30954819D02*
X24809523Y-31002438D01*
X24809523Y-31002438D02*
X24857142Y-31050057D01*
X24857142Y-31050057D02*
X24952380Y-31192914D01*
X24952380Y-31192914D02*
X24999999Y-31383390D01*
X24999999Y-31383390D02*
X24999999Y-31764342D01*
X24999999Y-31764342D02*
X24952380Y-31859580D01*
X24952380Y-31859580D02*
X24904761Y-31907200D01*
X24904761Y-31907200D02*
X24809523Y-31954819D01*
X24809523Y-31954819D02*
X24619047Y-31954819D01*
X24619047Y-31954819D02*
X24523809Y-31907200D01*
X24523809Y-31907200D02*
X24476190Y-31859580D01*
X24476190Y-31859580D02*
X24428571Y-31764342D01*
X24428571Y-31764342D02*
X24428571Y-31526247D01*
X24428571Y-31526247D02*
X24476190Y-31431009D01*
X24476190Y-31431009D02*
X24523809Y-31383390D01*
X24523809Y-31383390D02*
X24619047Y-31335771D01*
X24619047Y-31335771D02*
X24809523Y-31335771D01*
X24809523Y-31335771D02*
X24904761Y-31383390D01*
X24904761Y-31383390D02*
X24952380Y-31431009D01*
X24952380Y-31431009D02*
X24999999Y-31526247D01*
X24142856Y-30954819D02*
X23809523Y-31954819D01*
X23809523Y-31954819D02*
X23476190Y-30954819D01*
X41285714Y-34454819D02*
X41619047Y-33978628D01*
X41857142Y-34454819D02*
X41857142Y-33454819D01*
X41857142Y-33454819D02*
X41476190Y-33454819D01*
X41476190Y-33454819D02*
X41380952Y-33502438D01*
X41380952Y-33502438D02*
X41333333Y-33550057D01*
X41333333Y-33550057D02*
X41285714Y-33645295D01*
X41285714Y-33645295D02*
X41285714Y-33788152D01*
X41285714Y-33788152D02*
X41333333Y-33883390D01*
X41333333Y-33883390D02*
X41380952Y-33931009D01*
X41380952Y-33931009D02*
X41476190Y-33978628D01*
X41476190Y-33978628D02*
X41857142Y-33978628D01*
X40333333Y-34454819D02*
X40904761Y-34454819D01*
X40619047Y-34454819D02*
X40619047Y-33454819D01*
X40619047Y-33454819D02*
X40714285Y-33597676D01*
X40714285Y-33597676D02*
X40809523Y-33692914D01*
X40809523Y-33692914D02*
X40904761Y-33740533D01*
X39714285Y-33454819D02*
X39619047Y-33454819D01*
X39619047Y-33454819D02*
X39523809Y-33502438D01*
X39523809Y-33502438D02*
X39476190Y-33550057D01*
X39476190Y-33550057D02*
X39428571Y-33645295D01*
X39428571Y-33645295D02*
X39380952Y-33835771D01*
X39380952Y-33835771D02*
X39380952Y-34073866D01*
X39380952Y-34073866D02*
X39428571Y-34264342D01*
X39428571Y-34264342D02*
X39476190Y-34359580D01*
X39476190Y-34359580D02*
X39523809Y-34407200D01*
X39523809Y-34407200D02*
X39619047Y-34454819D01*
X39619047Y-34454819D02*
X39714285Y-34454819D01*
X39714285Y-34454819D02*
X39809523Y-34407200D01*
X39809523Y-34407200D02*
X39857142Y-34359580D01*
X39857142Y-34359580D02*
X39904761Y-34264342D01*
X39904761Y-34264342D02*
X39952380Y-34073866D01*
X39952380Y-34073866D02*
X39952380Y-33835771D01*
X39952380Y-33835771D02*
X39904761Y-33645295D01*
X39904761Y-33645295D02*
X39857142Y-33550057D01*
X39857142Y-33550057D02*
X39809523Y-33502438D01*
X39809523Y-33502438D02*
X39714285Y-33454819D01*
X39047618Y-33454819D02*
X38380952Y-33454819D01*
X38380952Y-33454819D02*
X38809523Y-34454819D01*
X36523809Y-33407200D02*
X37380951Y-34692914D01*
X34857142Y-34454819D02*
X35190475Y-33978628D01*
X35428570Y-34454819D02*
X35428570Y-33454819D01*
X35428570Y-33454819D02*
X35047618Y-33454819D01*
X35047618Y-33454819D02*
X34952380Y-33502438D01*
X34952380Y-33502438D02*
X34904761Y-33550057D01*
X34904761Y-33550057D02*
X34857142Y-33645295D01*
X34857142Y-33645295D02*
X34857142Y-33788152D01*
X34857142Y-33788152D02*
X34904761Y-33883390D01*
X34904761Y-33883390D02*
X34952380Y-33931009D01*
X34952380Y-33931009D02*
X35047618Y-33978628D01*
X35047618Y-33978628D02*
X35428570Y-33978628D01*
X34476189Y-33550057D02*
X34428570Y-33502438D01*
X34428570Y-33502438D02*
X34333332Y-33454819D01*
X34333332Y-33454819D02*
X34095237Y-33454819D01*
X34095237Y-33454819D02*
X33999999Y-33502438D01*
X33999999Y-33502438D02*
X33952380Y-33550057D01*
X33952380Y-33550057D02*
X33904761Y-33645295D01*
X33904761Y-33645295D02*
X33904761Y-33740533D01*
X33904761Y-33740533D02*
X33952380Y-33883390D01*
X33952380Y-33883390D02*
X34523808Y-34454819D01*
X34523808Y-34454819D02*
X33904761Y-34454819D01*
X33285713Y-33454819D02*
X33190475Y-33454819D01*
X33190475Y-33454819D02*
X33095237Y-33502438D01*
X33095237Y-33502438D02*
X33047618Y-33550057D01*
X33047618Y-33550057D02*
X32999999Y-33645295D01*
X32999999Y-33645295D02*
X32952380Y-33835771D01*
X32952380Y-33835771D02*
X32952380Y-34073866D01*
X32952380Y-34073866D02*
X32999999Y-34264342D01*
X32999999Y-34264342D02*
X33047618Y-34359580D01*
X33047618Y-34359580D02*
X33095237Y-34407200D01*
X33095237Y-34407200D02*
X33190475Y-34454819D01*
X33190475Y-34454819D02*
X33285713Y-34454819D01*
X33285713Y-34454819D02*
X33380951Y-34407200D01*
X33380951Y-34407200D02*
X33428570Y-34359580D01*
X33428570Y-34359580D02*
X33476189Y-34264342D01*
X33476189Y-34264342D02*
X33523808Y-34073866D01*
X33523808Y-34073866D02*
X33523808Y-33835771D01*
X33523808Y-33835771D02*
X33476189Y-33645295D01*
X33476189Y-33645295D02*
X33428570Y-33550057D01*
X33428570Y-33550057D02*
X33380951Y-33502438D01*
X33380951Y-33502438D02*
X33285713Y-33454819D01*
X32619046Y-33454819D02*
X31952380Y-33454819D01*
X31952380Y-33454819D02*
X32380951Y-34454819D01*
X31571427Y-34359580D02*
X31523808Y-34407200D01*
X31523808Y-34407200D02*
X31571427Y-34454819D01*
X31571427Y-34454819D02*
X31619046Y-34407200D01*
X31619046Y-34407200D02*
X31571427Y-34359580D01*
X31571427Y-34359580D02*
X31571427Y-34454819D01*
X31571427Y-33835771D02*
X31523808Y-33883390D01*
X31523808Y-33883390D02*
X31571427Y-33931009D01*
X31571427Y-33931009D02*
X31619046Y-33883390D01*
X31619046Y-33883390D02*
X31571427Y-33835771D01*
X31571427Y-33835771D02*
X31571427Y-33931009D01*
X29809523Y-34454819D02*
X30380951Y-34454819D01*
X30095237Y-34454819D02*
X30095237Y-33454819D01*
X30095237Y-33454819D02*
X30190475Y-33597676D01*
X30190475Y-33597676D02*
X30285713Y-33692914D01*
X30285713Y-33692914D02*
X30380951Y-33740533D01*
X29428570Y-33550057D02*
X29380951Y-33502438D01*
X29380951Y-33502438D02*
X29285713Y-33454819D01*
X29285713Y-33454819D02*
X29047618Y-33454819D01*
X29047618Y-33454819D02*
X28952380Y-33502438D01*
X28952380Y-33502438D02*
X28904761Y-33550057D01*
X28904761Y-33550057D02*
X28857142Y-33645295D01*
X28857142Y-33645295D02*
X28857142Y-33740533D01*
X28857142Y-33740533D02*
X28904761Y-33883390D01*
X28904761Y-33883390D02*
X29476189Y-34454819D01*
X29476189Y-34454819D02*
X28857142Y-34454819D01*
X28238094Y-33454819D02*
X28142856Y-33454819D01*
X28142856Y-33454819D02*
X28047618Y-33502438D01*
X28047618Y-33502438D02*
X27999999Y-33550057D01*
X27999999Y-33550057D02*
X27952380Y-33645295D01*
X27952380Y-33645295D02*
X27904761Y-33835771D01*
X27904761Y-33835771D02*
X27904761Y-34073866D01*
X27904761Y-34073866D02*
X27952380Y-34264342D01*
X27952380Y-34264342D02*
X27999999Y-34359580D01*
X27999999Y-34359580D02*
X28047618Y-34407200D01*
X28047618Y-34407200D02*
X28142856Y-34454819D01*
X28142856Y-34454819D02*
X28238094Y-34454819D01*
X28238094Y-34454819D02*
X28333332Y-34407200D01*
X28333332Y-34407200D02*
X28380951Y-34359580D01*
X28380951Y-34359580D02*
X28428570Y-34264342D01*
X28428570Y-34264342D02*
X28476189Y-34073866D01*
X28476189Y-34073866D02*
X28476189Y-33835771D01*
X28476189Y-33835771D02*
X28428570Y-33645295D01*
X28428570Y-33645295D02*
X28380951Y-33550057D01*
X28380951Y-33550057D02*
X28333332Y-33502438D01*
X28333332Y-33502438D02*
X28238094Y-33454819D01*
X26904761Y-34454819D02*
X27238094Y-33978628D01*
X27476189Y-34454819D02*
X27476189Y-33454819D01*
X27476189Y-33454819D02*
X27095237Y-33454819D01*
X27095237Y-33454819D02*
X26999999Y-33502438D01*
X26999999Y-33502438D02*
X26952380Y-33550057D01*
X26952380Y-33550057D02*
X26904761Y-33645295D01*
X26904761Y-33645295D02*
X26904761Y-33788152D01*
X26904761Y-33788152D02*
X26952380Y-33883390D01*
X26952380Y-33883390D02*
X26999999Y-33931009D01*
X26999999Y-33931009D02*
X27095237Y-33978628D01*
X27095237Y-33978628D02*
X27476189Y-33978628D01*
X25714284Y-34454819D02*
X25714284Y-33454819D01*
X25714284Y-33454819D02*
X25476189Y-33454819D01*
X25476189Y-33454819D02*
X25333332Y-33502438D01*
X25333332Y-33502438D02*
X25238094Y-33597676D01*
X25238094Y-33597676D02*
X25190475Y-33692914D01*
X25190475Y-33692914D02*
X25142856Y-33883390D01*
X25142856Y-33883390D02*
X25142856Y-34026247D01*
X25142856Y-34026247D02*
X25190475Y-34216723D01*
X25190475Y-34216723D02*
X25238094Y-34311961D01*
X25238094Y-34311961D02*
X25333332Y-34407200D01*
X25333332Y-34407200D02*
X25476189Y-34454819D01*
X25476189Y-34454819D02*
X25714284Y-34454819D01*
X24714284Y-34454819D02*
X24714284Y-33454819D01*
X24714284Y-33454819D02*
X24142856Y-34454819D01*
X24142856Y-34454819D02*
X24142856Y-33454819D01*
X23666665Y-34454819D02*
X23666665Y-33454819D01*
X23666665Y-33454819D02*
X23285713Y-33454819D01*
X23285713Y-33454819D02*
X23190475Y-33502438D01*
X23190475Y-33502438D02*
X23142856Y-33550057D01*
X23142856Y-33550057D02*
X23095237Y-33645295D01*
X23095237Y-33645295D02*
X23095237Y-33788152D01*
X23095237Y-33788152D02*
X23142856Y-33883390D01*
X23142856Y-33883390D02*
X23190475Y-33931009D01*
X23190475Y-33931009D02*
X23285713Y-33978628D01*
X23285713Y-33978628D02*
X23666665Y-33978628D01*
X44238095Y-36954819D02*
X44238095Y-35954819D01*
X44238095Y-36431009D02*
X43666667Y-36431009D01*
X43666667Y-36954819D02*
X43666667Y-35954819D01*
X42666667Y-36954819D02*
X43238095Y-36954819D01*
X42952381Y-36954819D02*
X42952381Y-35954819D01*
X42952381Y-35954819D02*
X43047619Y-36097676D01*
X43047619Y-36097676D02*
X43142857Y-36192914D01*
X43142857Y-36192914D02*
X43238095Y-36240533D01*
X41809524Y-35954819D02*
X42000000Y-35954819D01*
X42000000Y-35954819D02*
X42095238Y-36002438D01*
X42095238Y-36002438D02*
X42142857Y-36050057D01*
X42142857Y-36050057D02*
X42238095Y-36192914D01*
X42238095Y-36192914D02*
X42285714Y-36383390D01*
X42285714Y-36383390D02*
X42285714Y-36764342D01*
X42285714Y-36764342D02*
X42238095Y-36859580D01*
X42238095Y-36859580D02*
X42190476Y-36907200D01*
X42190476Y-36907200D02*
X42095238Y-36954819D01*
X42095238Y-36954819D02*
X41904762Y-36954819D01*
X41904762Y-36954819D02*
X41809524Y-36907200D01*
X41809524Y-36907200D02*
X41761905Y-36859580D01*
X41761905Y-36859580D02*
X41714286Y-36764342D01*
X41714286Y-36764342D02*
X41714286Y-36526247D01*
X41714286Y-36526247D02*
X41761905Y-36431009D01*
X41761905Y-36431009D02*
X41809524Y-36383390D01*
X41809524Y-36383390D02*
X41904762Y-36335771D01*
X41904762Y-36335771D02*
X42095238Y-36335771D01*
X42095238Y-36335771D02*
X42190476Y-36383390D01*
X42190476Y-36383390D02*
X42238095Y-36431009D01*
X42238095Y-36431009D02*
X42285714Y-36526247D01*
X40571428Y-36907200D02*
X40428571Y-36954819D01*
X40428571Y-36954819D02*
X40190476Y-36954819D01*
X40190476Y-36954819D02*
X40095238Y-36907200D01*
X40095238Y-36907200D02*
X40047619Y-36859580D01*
X40047619Y-36859580D02*
X40000000Y-36764342D01*
X40000000Y-36764342D02*
X40000000Y-36669104D01*
X40000000Y-36669104D02*
X40047619Y-36573866D01*
X40047619Y-36573866D02*
X40095238Y-36526247D01*
X40095238Y-36526247D02*
X40190476Y-36478628D01*
X40190476Y-36478628D02*
X40380952Y-36431009D01*
X40380952Y-36431009D02*
X40476190Y-36383390D01*
X40476190Y-36383390D02*
X40523809Y-36335771D01*
X40523809Y-36335771D02*
X40571428Y-36240533D01*
X40571428Y-36240533D02*
X40571428Y-36145295D01*
X40571428Y-36145295D02*
X40523809Y-36050057D01*
X40523809Y-36050057D02*
X40476190Y-36002438D01*
X40476190Y-36002438D02*
X40380952Y-35954819D01*
X40380952Y-35954819D02*
X40142857Y-35954819D01*
X40142857Y-35954819D02*
X40000000Y-36002438D01*
X39380952Y-35954819D02*
X39190476Y-35954819D01*
X39190476Y-35954819D02*
X39095238Y-36002438D01*
X39095238Y-36002438D02*
X39000000Y-36097676D01*
X39000000Y-36097676D02*
X38952381Y-36288152D01*
X38952381Y-36288152D02*
X38952381Y-36621485D01*
X38952381Y-36621485D02*
X39000000Y-36811961D01*
X39000000Y-36811961D02*
X39095238Y-36907200D01*
X39095238Y-36907200D02*
X39190476Y-36954819D01*
X39190476Y-36954819D02*
X39380952Y-36954819D01*
X39380952Y-36954819D02*
X39476190Y-36907200D01*
X39476190Y-36907200D02*
X39571428Y-36811961D01*
X39571428Y-36811961D02*
X39619047Y-36621485D01*
X39619047Y-36621485D02*
X39619047Y-36288152D01*
X39619047Y-36288152D02*
X39571428Y-36097676D01*
X39571428Y-36097676D02*
X39476190Y-36002438D01*
X39476190Y-36002438D02*
X39380952Y-35954819D01*
X37952381Y-36859580D02*
X38000000Y-36907200D01*
X38000000Y-36907200D02*
X38142857Y-36954819D01*
X38142857Y-36954819D02*
X38238095Y-36954819D01*
X38238095Y-36954819D02*
X38380952Y-36907200D01*
X38380952Y-36907200D02*
X38476190Y-36811961D01*
X38476190Y-36811961D02*
X38523809Y-36716723D01*
X38523809Y-36716723D02*
X38571428Y-36526247D01*
X38571428Y-36526247D02*
X38571428Y-36383390D01*
X38571428Y-36383390D02*
X38523809Y-36192914D01*
X38523809Y-36192914D02*
X38476190Y-36097676D01*
X38476190Y-36097676D02*
X38380952Y-36002438D01*
X38380952Y-36002438D02*
X38238095Y-35954819D01*
X38238095Y-35954819D02*
X38142857Y-35954819D01*
X38142857Y-35954819D02*
X38000000Y-36002438D01*
X38000000Y-36002438D02*
X37952381Y-36050057D01*
X37523809Y-36954819D02*
X37523809Y-35954819D01*
X36952381Y-36954819D02*
X37380952Y-36383390D01*
X36952381Y-35954819D02*
X37523809Y-36526247D01*
X36523809Y-36431009D02*
X36190476Y-36431009D01*
X36047619Y-36954819D02*
X36523809Y-36954819D01*
X36523809Y-36954819D02*
X36523809Y-35954819D01*
X36523809Y-35954819D02*
X36047619Y-35954819D01*
X35761904Y-35954819D02*
X35190476Y-35954819D01*
X35476190Y-36954819D02*
X35476190Y-35954819D01*
X33380952Y-35907200D02*
X34238094Y-37192914D01*
X31761904Y-36954819D02*
X32333332Y-36954819D01*
X32047618Y-36954819D02*
X32047618Y-35954819D01*
X32047618Y-35954819D02*
X32142856Y-36097676D01*
X32142856Y-36097676D02*
X32238094Y-36192914D01*
X32238094Y-36192914D02*
X32333332Y-36240533D01*
X31285713Y-36954819D02*
X31095237Y-36954819D01*
X31095237Y-36954819D02*
X30999999Y-36907200D01*
X30999999Y-36907200D02*
X30952380Y-36859580D01*
X30952380Y-36859580D02*
X30857142Y-36716723D01*
X30857142Y-36716723D02*
X30809523Y-36526247D01*
X30809523Y-36526247D02*
X30809523Y-36145295D01*
X30809523Y-36145295D02*
X30857142Y-36050057D01*
X30857142Y-36050057D02*
X30904761Y-36002438D01*
X30904761Y-36002438D02*
X30999999Y-35954819D01*
X30999999Y-35954819D02*
X31190475Y-35954819D01*
X31190475Y-35954819D02*
X31285713Y-36002438D01*
X31285713Y-36002438D02*
X31333332Y-36050057D01*
X31333332Y-36050057D02*
X31380951Y-36145295D01*
X31380951Y-36145295D02*
X31380951Y-36383390D01*
X31380951Y-36383390D02*
X31333332Y-36478628D01*
X31333332Y-36478628D02*
X31285713Y-36526247D01*
X31285713Y-36526247D02*
X31190475Y-36573866D01*
X31190475Y-36573866D02*
X30999999Y-36573866D01*
X30999999Y-36573866D02*
X30904761Y-36526247D01*
X30904761Y-36526247D02*
X30857142Y-36478628D01*
X30857142Y-36478628D02*
X30809523Y-36383390D01*
X30380951Y-36954819D02*
X30380951Y-36288152D01*
X30380951Y-36383390D02*
X30333332Y-36335771D01*
X30333332Y-36335771D02*
X30238094Y-36288152D01*
X30238094Y-36288152D02*
X30095237Y-36288152D01*
X30095237Y-36288152D02*
X29999999Y-36335771D01*
X29999999Y-36335771D02*
X29952380Y-36431009D01*
X29952380Y-36431009D02*
X29952380Y-36954819D01*
X29952380Y-36431009D02*
X29904761Y-36335771D01*
X29904761Y-36335771D02*
X29809523Y-36288152D01*
X29809523Y-36288152D02*
X29666666Y-36288152D01*
X29666666Y-36288152D02*
X29571427Y-36335771D01*
X29571427Y-36335771D02*
X29523808Y-36431009D01*
X29523808Y-36431009D02*
X29523808Y-36954819D01*
X29047618Y-36954819D02*
X29047618Y-36288152D01*
X29047618Y-36383390D02*
X28999999Y-36335771D01*
X28999999Y-36335771D02*
X28904761Y-36288152D01*
X28904761Y-36288152D02*
X28761904Y-36288152D01*
X28761904Y-36288152D02*
X28666666Y-36335771D01*
X28666666Y-36335771D02*
X28619047Y-36431009D01*
X28619047Y-36431009D02*
X28619047Y-36954819D01*
X28619047Y-36431009D02*
X28571428Y-36335771D01*
X28571428Y-36335771D02*
X28476190Y-36288152D01*
X28476190Y-36288152D02*
X28333333Y-36288152D01*
X28333333Y-36288152D02*
X28238094Y-36335771D01*
X28238094Y-36335771D02*
X28190475Y-36431009D01*
X28190475Y-36431009D02*
X28190475Y-36954819D01*
X26999999Y-36907200D02*
X26857142Y-36954819D01*
X26857142Y-36954819D02*
X26619047Y-36954819D01*
X26619047Y-36954819D02*
X26523809Y-36907200D01*
X26523809Y-36907200D02*
X26476190Y-36859580D01*
X26476190Y-36859580D02*
X26428571Y-36764342D01*
X26428571Y-36764342D02*
X26428571Y-36669104D01*
X26428571Y-36669104D02*
X26476190Y-36573866D01*
X26476190Y-36573866D02*
X26523809Y-36526247D01*
X26523809Y-36526247D02*
X26619047Y-36478628D01*
X26619047Y-36478628D02*
X26809523Y-36431009D01*
X26809523Y-36431009D02*
X26904761Y-36383390D01*
X26904761Y-36383390D02*
X26952380Y-36335771D01*
X26952380Y-36335771D02*
X26999999Y-36240533D01*
X26999999Y-36240533D02*
X26999999Y-36145295D01*
X26999999Y-36145295D02*
X26952380Y-36050057D01*
X26952380Y-36050057D02*
X26904761Y-36002438D01*
X26904761Y-36002438D02*
X26809523Y-35954819D01*
X26809523Y-35954819D02*
X26571428Y-35954819D01*
X26571428Y-35954819D02*
X26428571Y-36002438D01*
X25999999Y-36954819D02*
X25999999Y-35954819D01*
X25999999Y-35954819D02*
X25619047Y-35954819D01*
X25619047Y-35954819D02*
X25523809Y-36002438D01*
X25523809Y-36002438D02*
X25476190Y-36050057D01*
X25476190Y-36050057D02*
X25428571Y-36145295D01*
X25428571Y-36145295D02*
X25428571Y-36288152D01*
X25428571Y-36288152D02*
X25476190Y-36383390D01*
X25476190Y-36383390D02*
X25523809Y-36431009D01*
X25523809Y-36431009D02*
X25619047Y-36478628D01*
X25619047Y-36478628D02*
X25999999Y-36478628D01*
X25047618Y-36669104D02*
X24571428Y-36669104D01*
X25142856Y-36954819D02*
X24809523Y-35954819D01*
X24809523Y-35954819D02*
X24476190Y-36954819D01*
X23571428Y-36859580D02*
X23619047Y-36907200D01*
X23619047Y-36907200D02*
X23761904Y-36954819D01*
X23761904Y-36954819D02*
X23857142Y-36954819D01*
X23857142Y-36954819D02*
X23999999Y-36907200D01*
X23999999Y-36907200D02*
X24095237Y-36811961D01*
X24095237Y-36811961D02*
X24142856Y-36716723D01*
X24142856Y-36716723D02*
X24190475Y-36526247D01*
X24190475Y-36526247D02*
X24190475Y-36383390D01*
X24190475Y-36383390D02*
X24142856Y-36192914D01*
X24142856Y-36192914D02*
X24095237Y-36097676D01*
X24095237Y-36097676D02*
X23999999Y-36002438D01*
X23999999Y-36002438D02*
X23857142Y-35954819D01*
X23857142Y-35954819D02*
X23761904Y-35954819D01*
X23761904Y-35954819D02*
X23619047Y-36002438D01*
X23619047Y-36002438D02*
X23571428Y-36050057D01*
X23142856Y-36431009D02*
X22809523Y-36431009D01*
X22666666Y-36954819D02*
X23142856Y-36954819D01*
X23142856Y-36954819D02*
X23142856Y-35954819D01*
X23142856Y-35954819D02*
X22666666Y-35954819D01*
X21666666Y-36954819D02*
X21999999Y-36478628D01*
X22238094Y-36954819D02*
X22238094Y-35954819D01*
X22238094Y-35954819D02*
X21857142Y-35954819D01*
X21857142Y-35954819D02*
X21761904Y-36002438D01*
X21761904Y-36002438D02*
X21714285Y-36050057D01*
X21714285Y-36050057D02*
X21666666Y-36145295D01*
X21666666Y-36145295D02*
X21666666Y-36288152D01*
X21666666Y-36288152D02*
X21714285Y-36383390D01*
X21714285Y-36383390D02*
X21761904Y-36431009D01*
X21761904Y-36431009D02*
X21857142Y-36478628D01*
X21857142Y-36478628D02*
X22238094Y-36478628D01*
X21285713Y-36907200D02*
X21142856Y-36954819D01*
X21142856Y-36954819D02*
X20904761Y-36954819D01*
X20904761Y-36954819D02*
X20809523Y-36907200D01*
X20809523Y-36907200D02*
X20761904Y-36859580D01*
X20761904Y-36859580D02*
X20714285Y-36764342D01*
X20714285Y-36764342D02*
X20714285Y-36669104D01*
X20714285Y-36669104D02*
X20761904Y-36573866D01*
X20761904Y-36573866D02*
X20809523Y-36526247D01*
X20809523Y-36526247D02*
X20904761Y-36478628D01*
X20904761Y-36478628D02*
X21095237Y-36431009D01*
X21095237Y-36431009D02*
X21190475Y-36383390D01*
X21190475Y-36383390D02*
X21238094Y-36335771D01*
X21238094Y-36335771D02*
X21285713Y-36240533D01*
X21285713Y-36240533D02*
X21285713Y-36145295D01*
X21285713Y-36145295D02*
X21238094Y-36050057D01*
X21238094Y-36050057D02*
X21190475Y-36002438D01*
X21190475Y-36002438D02*
X21095237Y-35954819D01*
X21095237Y-35954819D02*
X20857142Y-35954819D01*
X20857142Y-35954819D02*
X20714285Y-36002438D01*
%TO.C,J1*%
D11*
X7040000Y-900000D02*
X7040000Y-3500000D01*
X7040000Y-900000D02*
X57960000Y-900000D01*
X7040000Y-3500000D02*
X9640000Y-3500000D01*
X7040000Y-4770000D02*
X7040000Y-6100000D01*
X7040000Y-6100000D02*
X8370000Y-6100000D01*
X9640000Y-3500000D02*
X9640000Y-6100000D01*
X9640000Y-6100000D02*
X57960000Y-6100000D01*
X57960000Y-900000D02*
X57960000Y-6100000D01*
%TD*%
M02*
