%TF.GenerationSoftware,KiCad,Pcbnew,10.0.4-10.0.4~ubuntu26.04.1*%
%TF.CreationDate,2026-09-11T16:46:02+09:00*%
%TF.ProjectId,rbphat,72627068-6174-42e6-9b69-6361645f7063,rev?*%
%TF.SameCoordinates,Original*%
%TF.FileFunction,Copper,L1,Top*%
%TF.FilePolarity,Positive*%
%FSLAX46Y46*%
G04 Gerber Fmt 4.6, Leading zero omitted, Abs format (unit mm)*
G04 Created by KiCad (PCBNEW 10.0.4-10.0.4~ubuntu26.04.1) date 2026-09-11 16:46:02*
%MOMM*%
%LPD*%
G01*
G04 APERTURE LIST*
G04 Aperture macros list*
%AMRoundRect*
0 Rectangle with rounded corners*
0 $1 Rounding radius*
0 $2 $3 $4 $5 $6 $7 $8 $9 X,Y pos of 4 corners*
0 Add a 4 corners polygon primitive as box body*
4,1,4,$2,$3,$4,$5,$6,$7,$8,$9,$2,$3,0*
0 Add four circle primitives for the rounded corners*
1,1,$1+$1,$2,$3*
1,1,$1+$1,$4,$5*
1,1,$1+$1,$6,$7*
1,1,$1+$1,$8,$9*
0 Add four rect primitives between the rounded corners*
20,1,$1+$1,$2,$3,$4,$5,0*
20,1,$1+$1,$4,$5,$6,$7,0*
20,1,$1+$1,$6,$7,$8,$9,0*
20,1,$1+$1,$8,$9,$2,$3,0*%
G04 Aperture macros list end*
%TA.AperFunction,SMDPad,CuDef*%
%ADD10RoundRect,0.200000X0.275000X-0.200000X0.275000X0.200000X-0.275000X0.200000X-0.275000X-0.200000X0*%
%TD*%
%TA.AperFunction,SMDPad,CuDef*%
%ADD11RoundRect,0.212500X0.212500X0.212500X-0.212500X0.212500X-0.212500X-0.212500X0.212500X-0.212500X0*%
%TD*%
%TA.AperFunction,SMDPad,CuDef*%
%ADD12C,1.500000*%
%TD*%
%TA.AperFunction,SMDPad,CuDef*%
%ADD13RoundRect,0.200000X-0.200000X-0.275000X0.200000X-0.275000X0.200000X0.275000X-0.200000X0.275000X0*%
%TD*%
%TA.AperFunction,SMDPad,CuDef*%
%ADD14RoundRect,0.225000X-0.225000X-0.250000X0.225000X-0.250000X0.225000X0.250000X-0.225000X0.250000X0*%
%TD*%
%TA.AperFunction,SMDPad,CuDef*%
%ADD15RoundRect,0.225000X0.250000X-0.225000X0.250000X0.225000X-0.250000X0.225000X-0.250000X-0.225000X0*%
%TD*%
%TA.AperFunction,SMDPad,CuDef*%
%ADD16RoundRect,0.050000X-0.725000X-0.250000X0.725000X-0.250000X0.725000X0.250000X-0.725000X0.250000X0*%
%TD*%
%TA.AperFunction,SMDPad,CuDef*%
%ADD17RoundRect,0.050000X-0.600000X-0.250000X0.600000X-0.250000X0.600000X0.250000X-0.600000X0.250000X0*%
%TD*%
%TA.AperFunction,SMDPad,CuDef*%
%ADD18RoundRect,0.050000X-0.400000X-0.150000X0.400000X-0.150000X0.400000X0.150000X-0.400000X0.150000X0*%
%TD*%
%TA.AperFunction,ComponentPad*%
%ADD19RoundRect,0.250000X0.725000X-0.600000X0.725000X0.600000X-0.725000X0.600000X-0.725000X-0.600000X0*%
%TD*%
%TA.AperFunction,ComponentPad*%
%ADD20O,1.950000X1.700000*%
%TD*%
%TA.AperFunction,ComponentPad*%
%ADD21C,6.400000*%
%TD*%
%TA.AperFunction,SMDPad,CuDef*%
%ADD22RoundRect,0.050000X-0.650000X-0.175000X0.650000X-0.175000X0.650000X0.175000X-0.650000X0.175000X0*%
%TD*%
%TA.AperFunction,SMDPad,CuDef*%
%ADD23RoundRect,0.250000X0.550000X-1.350000X0.550000X1.350000X-0.550000X1.350000X-0.550000X-1.350000X0*%
%TD*%
%TA.AperFunction,SMDPad,CuDef*%
%ADD24RoundRect,0.050000X-0.500000X-0.250000X0.500000X-0.250000X0.500000X0.250000X-0.500000X0.250000X0*%
%TD*%
%TA.AperFunction,ComponentPad*%
%ADD25RoundRect,0.250000X-0.725000X0.600000X-0.725000X-0.600000X0.725000X-0.600000X0.725000X0.600000X0*%
%TD*%
%TA.AperFunction,SMDPad,CuDef*%
%ADD26RoundRect,0.050000X-0.700000X-0.175000X0.700000X-0.175000X0.700000X0.175000X-0.700000X0.175000X0*%
%TD*%
%TA.AperFunction,SMDPad,CuDef*%
%ADD27RoundRect,0.050000X0.675000X0.100000X-0.675000X0.100000X-0.675000X-0.100000X0.675000X-0.100000X0*%
%TD*%
%TA.AperFunction,ComponentPad*%
%ADD28R,1.700000X1.700000*%
%TD*%
%TA.AperFunction,ComponentPad*%
%ADD29C,1.700000*%
%TD*%
%TA.AperFunction,ViaPad*%
%ADD30C,0.600000*%
%TD*%
%TA.AperFunction,Conductor*%
%ADD31C,0.250000*%
%TD*%
%TA.AperFunction,Conductor*%
%ADD32C,0.200000*%
%TD*%
%TA.AperFunction,Conductor*%
%ADD33C,0.500000*%
%TD*%
%TA.AperFunction,Conductor*%
%ADD34C,0.375000*%
%TD*%
G04 APERTURE END LIST*
D10*
%TO.P,R207,1*%
%TO.N,/PAY full-duplex RS-422/PAY_RX+*%
X49300000Y-40625000D03*
%TO.P,R207,2*%
%TO.N,/PAY full-duplex RS-422/PAY_RX-*%
X49300000Y-38975000D03*
%TD*%
D11*
%TO.P,D200,1*%
%TO.N,/PAY full-duplex RS-422/PAY_TX+*%
X50300000Y-44950000D03*
%TO.P,D200,2*%
%TO.N,/PAY full-duplex RS-422/PAY_TX-*%
X50300000Y-43050000D03*
%TO.P,D200,3*%
%TO.N,GND*%
X48300000Y-44000000D03*
%TD*%
D12*
%TO.P,TP301,1*%
%TO.N,/Battery sensing and I2C isolation/BAT_ADC*%
X15000000Y-36000000D03*
%TD*%
D13*
%TO.P,R104,1*%
%TO.N,/CTRL full-duplex RS-422/CTRL_Z*%
X45575000Y-20900000D03*
%TO.P,R104,2*%
%TO.N,/CTRL full-duplex RS-422/CTRL_TX-*%
X47225000Y-20900000D03*
%TD*%
D10*
%TO.P,R3,1*%
%TO.N,+3V3_ANA*%
X18000000Y-19825000D03*
%TO.P,R3,2*%
%TO.N,GND*%
X18000000Y-18175000D03*
%TD*%
D13*
%TO.P,R304,1*%
%TO.N,+3V3_ANA*%
X23675000Y-20800000D03*
%TO.P,R304,2*%
%TO.N,/Battery sensing and I2C isolation/ADC_SCL*%
X25325000Y-20800000D03*
%TD*%
D14*
%TO.P,C200,1*%
%TO.N,+3V3_PI*%
X31225000Y-36400000D03*
%TO.P,C200,2*%
%TO.N,GND*%
X32775000Y-36400000D03*
%TD*%
D13*
%TO.P,R5,1*%
%TO.N,POWER_GOOD*%
X11175000Y-29000000D03*
%TO.P,R5,2*%
%TO.N,GND*%
X12825000Y-29000000D03*
%TD*%
%TO.P,R202,1*%
%TO.N,/PAY full-duplex RS-422/PAY_RX_BUF*%
X31175000Y-45000000D03*
%TO.P,R202,2*%
%TO.N,PAY_RX*%
X32825000Y-45000000D03*
%TD*%
D11*
%TO.P,D100,1*%
%TO.N,/CTRL full-duplex RS-422/CTRL_TX+*%
X50300000Y-24950000D03*
%TO.P,D100,2*%
%TO.N,/CTRL full-duplex RS-422/CTRL_TX-*%
X50300000Y-23050000D03*
%TO.P,D100,3*%
%TO.N,GND*%
X48300000Y-24000000D03*
%TD*%
D15*
%TO.P,C300,1*%
%TO.N,/Battery sensing and I2C isolation/BAT_DIV*%
X18000000Y-40775000D03*
%TO.P,C300,2*%
%TO.N,GND*%
X18000000Y-39225000D03*
%TD*%
D13*
%TO.P,R303,1*%
%TO.N,/Battery sensing and I2C isolation/BAT_ADC*%
X18175000Y-34000000D03*
%TO.P,R303,2*%
%TO.N,GND*%
X19825000Y-34000000D03*
%TD*%
%TO.P,R305,1*%
%TO.N,+3V3_ANA*%
X23675000Y-23000000D03*
%TO.P,R305,2*%
%TO.N,/Battery sensing and I2C isolation/ADC_SDA*%
X25325000Y-23000000D03*
%TD*%
D11*
%TO.P,D201,1*%
%TO.N,/PAY full-duplex RS-422/PAY_RX+*%
X50300000Y-36450000D03*
%TO.P,D201,2*%
%TO.N,/PAY full-duplex RS-422/PAY_RX-*%
X50300000Y-34550000D03*
%TO.P,D201,3*%
%TO.N,GND*%
X48300000Y-35500000D03*
%TD*%
D10*
%TO.P,R8,1*%
%TO.N,/ANA_STATUS_UNUSED*%
X20000000Y-20425000D03*
%TO.P,R8,2*%
%TO.N,GND*%
X20000000Y-18775000D03*
%TD*%
D16*
%TO.P,U101,1*%
%TO.N,/CTRL full-duplex RS-422/CTRL_VCC*%
X38300000Y-18095000D03*
%TO.P,U101,2*%
%TO.N,/CTRL full-duplex RS-422/CTRL_RO*%
X38300000Y-19365000D03*
%TO.P,U101,3*%
%TO.N,/CTRL full-duplex RS-422/CTRL_DI*%
X38300000Y-20635000D03*
%TO.P,U101,4*%
%TO.N,GND*%
X38300000Y-21905000D03*
%TO.P,U101,5*%
%TO.N,/CTRL full-duplex RS-422/CTRL_Y*%
X43700000Y-21905000D03*
%TO.P,U101,6*%
%TO.N,/CTRL full-duplex RS-422/CTRL_Z*%
X43700000Y-20635000D03*
%TO.P,U101,7*%
%TO.N,/CTRL full-duplex RS-422/CTRL_B*%
X43700000Y-19365000D03*
%TO.P,U101,8*%
%TO.N,/CTRL full-duplex RS-422/CTRL_A*%
X43700000Y-18095000D03*
%TD*%
D13*
%TO.P,R206,1*%
%TO.N,/PAY full-duplex RS-422/PAY_B*%
X45575000Y-39200000D03*
%TO.P,R206,2*%
%TO.N,/PAY full-duplex RS-422/PAY_RX-*%
X47225000Y-39200000D03*
%TD*%
D17*
%TO.P,U3,1*%
%TO.N,GND*%
X6950000Y-25050000D03*
%TO.P,U3,2*%
%TO.N,POWER_GOOD*%
X6950000Y-26950000D03*
%TO.P,U3,3*%
%TO.N,+3V3_PI*%
X9050000Y-26000000D03*
%TD*%
D18*
%TO.P,U1,1*%
%TO.N,+3V3_PI*%
X25900000Y-10350000D03*
%TO.P,U1,2*%
%TO.N,GND*%
X25900000Y-11000000D03*
%TO.P,U1,3*%
%TO.N,+3V3_RS*%
X25900000Y-11650000D03*
%TO.P,U1,4*%
%TO.N,unconnected-(U1-NC-Pad4)*%
X28100000Y-11650000D03*
%TO.P,U1,5*%
%TO.N,/RS_STATUS_UNUSED*%
X28100000Y-11000000D03*
%TO.P,U1,6*%
%TO.N,+3V3_RS*%
X28100000Y-10350000D03*
%TD*%
D19*
%TO.P,J3,1*%
%TO.N,/PAY full-duplex RS-422/PAY_TX+*%
X55800000Y-45000000D03*
D20*
%TO.P,J3,2*%
%TO.N,/PAY full-duplex RS-422/PAY_TX-*%
X55800000Y-42500000D03*
%TO.P,J3,3*%
%TO.N,/PAY full-duplex RS-422/PAY_RX+*%
X55800000Y-40000000D03*
%TO.P,J3,4*%
%TO.N,/PAY full-duplex RS-422/PAY_RX-*%
X55800000Y-37500000D03*
%TO.P,J3,5*%
%TO.N,GND*%
X55800000Y-35000000D03*
%TO.P,J3,6*%
%TO.N,CHASSIS*%
X55800000Y-32500000D03*
%TD*%
D12*
%TO.P,TP200,1*%
%TO.N,/PAY full-duplex RS-422/PAY_VCC*%
X41000000Y-35000000D03*
%TD*%
D11*
%TO.P,D101,1*%
%TO.N,/CTRL full-duplex RS-422/CTRL_RX+*%
X50300000Y-16450000D03*
%TO.P,D101,2*%
%TO.N,/CTRL full-duplex RS-422/CTRL_RX-*%
X50300000Y-14550000D03*
%TO.P,D101,3*%
%TO.N,GND*%
X48300000Y-15500000D03*
%TD*%
D10*
%TO.P,R2,1*%
%TO.N,+3V3_RS*%
X34000000Y-10825000D03*
%TO.P,R2,2*%
%TO.N,GND*%
X34000000Y-9175000D03*
%TD*%
D21*
%TO.P,SH1,1*%
%TO.N,CHASSIS*%
X32000000Y-51000000D03*
%TD*%
D12*
%TO.P,TP100,1*%
%TO.N,/CTRL full-duplex RS-422/CTRL_VCC*%
X41000000Y-15000000D03*
%TD*%
D14*
%TO.P,C2,1*%
%TO.N,+3V3_RS*%
X30225000Y-9500000D03*
%TO.P,C2,2*%
%TO.N,GND*%
X31775000Y-9500000D03*
%TD*%
D10*
%TO.P,R100,1*%
%TO.N,+3V3_PI*%
X27000000Y-17825000D03*
%TO.P,R100,2*%
%TO.N,CTRL_TX*%
X27000000Y-16175000D03*
%TD*%
D13*
%TO.P,R205,1*%
%TO.N,/PAY full-duplex RS-422/PAY_A*%
X45575000Y-37500000D03*
%TO.P,R205,2*%
%TO.N,/PAY full-duplex RS-422/PAY_RX+*%
X47225000Y-37500000D03*
%TD*%
D22*
%TO.P,U302,1*%
%TO.N,+3V3_PI*%
X16800000Y-23025000D03*
%TO.P,U302,2*%
%TO.N,PI_SCL*%
X16800000Y-23675000D03*
%TO.P,U302,3*%
%TO.N,PI_SDA*%
X16800000Y-24325000D03*
%TO.P,U302,4*%
%TO.N,GND*%
X16800000Y-24975000D03*
%TO.P,U302,5*%
%TO.N,POWER_GOOD*%
X21200000Y-24975000D03*
%TO.P,U302,6*%
%TO.N,/Battery sensing and I2C isolation/ADC_SDA*%
X21200000Y-24325000D03*
%TO.P,U302,7*%
%TO.N,/Battery sensing and I2C isolation/ADC_SCL*%
X21200000Y-23675000D03*
%TO.P,U302,8*%
%TO.N,+3V3_ANA*%
X21200000Y-23025000D03*
%TD*%
D13*
%TO.P,R201,1*%
%TO.N,/PAY full-duplex RS-422/PAY_TX_BUF*%
X34175000Y-41000000D03*
%TO.P,R201,2*%
%TO.N,/PAY full-duplex RS-422/PAY_DI*%
X35825000Y-41000000D03*
%TD*%
D23*
%TO.P,C3,1*%
%TO.N,+3V3_ANA*%
X13000000Y-20500000D03*
%TO.P,C3,2*%
%TO.N,GND*%
X13000000Y-15500000D03*
%TD*%
D16*
%TO.P,U201,1*%
%TO.N,/PAY full-duplex RS-422/PAY_VCC*%
X38300000Y-38095000D03*
%TO.P,U201,2*%
%TO.N,/PAY full-duplex RS-422/PAY_RO*%
X38300000Y-39365000D03*
%TO.P,U201,3*%
%TO.N,/PAY full-duplex RS-422/PAY_DI*%
X38300000Y-40635000D03*
%TO.P,U201,4*%
%TO.N,GND*%
X38300000Y-41905000D03*
%TO.P,U201,5*%
%TO.N,/PAY full-duplex RS-422/PAY_Y*%
X43700000Y-41905000D03*
%TO.P,U201,6*%
%TO.N,/PAY full-duplex RS-422/PAY_Z*%
X43700000Y-40635000D03*
%TO.P,U201,7*%
%TO.N,/PAY full-duplex RS-422/PAY_B*%
X43700000Y-39365000D03*
%TO.P,U201,8*%
%TO.N,/PAY full-duplex RS-422/PAY_A*%
X43700000Y-38095000D03*
%TD*%
D24*
%TO.P,U100,1*%
%TO.N,CTRL_TX*%
X29700000Y-19050000D03*
%TO.P,U100,2*%
%TO.N,GND*%
X29700000Y-20000000D03*
%TO.P,U100,3*%
%TO.N,/CTRL full-duplex RS-422/CTRL_RO*%
X29700000Y-20950000D03*
%TO.P,U100,4*%
%TO.N,/CTRL full-duplex RS-422/CTRL_RX_BUF*%
X32300000Y-20950000D03*
%TO.P,U100,5*%
%TO.N,+3V3_PI*%
X32300000Y-20000000D03*
%TO.P,U100,6*%
%TO.N,/CTRL full-duplex RS-422/CTRL_TX_BUF*%
X32300000Y-19050000D03*
%TD*%
D15*
%TO.P,C304,1*%
%TO.N,+3V3_PI*%
X15000000Y-25775000D03*
%TO.P,C304,2*%
%TO.N,GND*%
X15000000Y-24225000D03*
%TD*%
D14*
%TO.P,C305,1*%
%TO.N,+3V3_ANA*%
X23225000Y-27000000D03*
%TO.P,C305,2*%
%TO.N,GND*%
X24775000Y-27000000D03*
%TD*%
D13*
%TO.P,R208,1*%
%TO.N,+3V3_RS*%
X35175000Y-35000000D03*
%TO.P,R208,2*%
%TO.N,/PAY full-duplex RS-422/PAY_VCC*%
X36825000Y-35000000D03*
%TD*%
D10*
%TO.P,R7,1*%
%TO.N,/RS_STATUS_UNUSED*%
X30000000Y-13825000D03*
%TO.P,R7,2*%
%TO.N,GND*%
X30000000Y-12175000D03*
%TD*%
D13*
%TO.P,R108,1*%
%TO.N,+3V3_RS*%
X35175000Y-15000000D03*
%TO.P,R108,2*%
%TO.N,/CTRL full-duplex RS-422/CTRL_VCC*%
X36825000Y-15000000D03*
%TD*%
%TO.P,R300,1*%
%TO.N,/Battery sensing and I2C isolation/BAT_RAW*%
X14175000Y-48800000D03*
%TO.P,R300,2*%
%TO.N,/Battery sensing and I2C isolation/BAT_MID*%
X15825000Y-48800000D03*
%TD*%
D25*
%TO.P,J4,1*%
%TO.N,/Battery sensing and I2C isolation/BAT_RAW*%
X9200000Y-41000000D03*
D20*
%TO.P,J4,2*%
%TO.N,GND*%
X9200000Y-43500000D03*
%TD*%
D10*
%TO.P,R200,1*%
%TO.N,+3V3_PI*%
X29000000Y-35325000D03*
%TO.P,R200,2*%
%TO.N,PAY_TX*%
X29000000Y-33675000D03*
%TD*%
D15*
%TO.P,C303,1*%
%TO.N,+3V3_ANA*%
X27000000Y-32775000D03*
%TO.P,C303,2*%
%TO.N,GND*%
X27000000Y-31225000D03*
%TD*%
D13*
%TO.P,R204,1*%
%TO.N,/PAY full-duplex RS-422/PAY_Z*%
X45575000Y-40900000D03*
%TO.P,R204,2*%
%TO.N,/PAY full-duplex RS-422/PAY_TX-*%
X47225000Y-40900000D03*
%TD*%
%TO.P,R1,1*%
%TO.N,+3V3_PI*%
X17175000Y-11000000D03*
%TO.P,R1,2*%
%TO.N,/ANA_FEED*%
X18825000Y-11000000D03*
%TD*%
D10*
%TO.P,R302,1*%
%TO.N,/Battery sensing and I2C isolation/BAT_DIV*%
X15000000Y-43825000D03*
%TO.P,R302,2*%
%TO.N,GND*%
X15000000Y-42175000D03*
%TD*%
D12*
%TO.P,TP303,1*%
%TO.N,GND*%
X8000000Y-49000000D03*
%TD*%
D18*
%TO.P,U2,1*%
%TO.N,/ANA_FEED*%
X21900000Y-14350000D03*
%TO.P,U2,2*%
%TO.N,GND*%
X21900000Y-15000000D03*
%TO.P,U2,3*%
%TO.N,+3V3_ANA*%
X21900000Y-15650000D03*
%TO.P,U2,4*%
%TO.N,unconnected-(U2-NC-Pad4)*%
X24100000Y-15650000D03*
%TO.P,U2,5*%
%TO.N,/ANA_STATUS_UNUSED*%
X24100000Y-15000000D03*
%TO.P,U2,6*%
%TO.N,+3V3_ANA*%
X24100000Y-14350000D03*
%TD*%
D13*
%TO.P,R102,1*%
%TO.N,/CTRL full-duplex RS-422/CTRL_RX_BUF*%
X29175000Y-24500000D03*
%TO.P,R102,2*%
%TO.N,CTRL_RX*%
X30825000Y-24500000D03*
%TD*%
D15*
%TO.P,C5,1*%
%TO.N,/ANA_FEED*%
X20000000Y-14775000D03*
%TO.P,C5,2*%
%TO.N,GND*%
X20000000Y-13225000D03*
%TD*%
D13*
%TO.P,R105,1*%
%TO.N,/CTRL full-duplex RS-422/CTRL_A*%
X45575000Y-17500000D03*
%TO.P,R105,2*%
%TO.N,/CTRL full-duplex RS-422/CTRL_RX+*%
X47225000Y-17500000D03*
%TD*%
%TO.P,R103,1*%
%TO.N,/CTRL full-duplex RS-422/CTRL_Y*%
X45575000Y-22600000D03*
%TO.P,R103,2*%
%TO.N,/CTRL full-duplex RS-422/CTRL_TX+*%
X47225000Y-22600000D03*
%TD*%
%TO.P,R106,1*%
%TO.N,/CTRL full-duplex RS-422/CTRL_B*%
X45575000Y-19200000D03*
%TO.P,R106,2*%
%TO.N,/CTRL full-duplex RS-422/CTRL_RX-*%
X47225000Y-19200000D03*
%TD*%
D15*
%TO.P,C201,1*%
%TO.N,/PAY full-duplex RS-422/PAY_VCC*%
X36200000Y-38775000D03*
%TO.P,C201,2*%
%TO.N,GND*%
X36200000Y-37225000D03*
%TD*%
D26*
%TO.P,U300,1*%
%TO.N,POWER_GOOD*%
X20100000Y-39050000D03*
%TO.P,U300,2*%
%TO.N,/Battery sensing and I2C isolation/BAT_DIV*%
X20100000Y-39700000D03*
%TO.P,U300,3*%
%TO.N,/Battery sensing and I2C isolation/BAT_ADC*%
X20100000Y-40350000D03*
%TO.P,U300,4*%
%TO.N,GND*%
X20100000Y-41000000D03*
%TO.P,U300,5*%
%TO.N,unconnected-(U300-S2-Pad5)*%
X20100000Y-41650000D03*
%TO.P,U300,6*%
%TO.N,unconnected-(U300-D2-Pad6)*%
X20100000Y-42300000D03*
%TO.P,U300,7*%
%TO.N,GND*%
X20100000Y-42950000D03*
%TO.P,U300,8*%
%TO.N,unconnected-(U300-D3-Pad8)*%
X25900000Y-42950000D03*
%TO.P,U300,9*%
%TO.N,unconnected-(U300-S3-Pad9)*%
X25900000Y-42300000D03*
%TO.P,U300,10*%
%TO.N,GND*%
X25900000Y-41650000D03*
%TO.P,U300,11*%
%TO.N,unconnected-(U300-D4-Pad11)*%
X25900000Y-41000000D03*
%TO.P,U300,12*%
%TO.N,unconnected-(U300-S4-Pad12)*%
X25900000Y-40350000D03*
%TO.P,U300,13*%
%TO.N,GND*%
X25900000Y-39700000D03*
%TO.P,U300,14*%
%TO.N,+3V3_ANA*%
X25900000Y-39050000D03*
%TD*%
D12*
%TO.P,TP302,1*%
%TO.N,POWER_GOOD*%
X8000000Y-31000000D03*
%TD*%
D13*
%TO.P,R301,1*%
%TO.N,/Battery sensing and I2C isolation/BAT_MID*%
X14175000Y-40000000D03*
%TO.P,R301,2*%
%TO.N,/Battery sensing and I2C isolation/BAT_DIV*%
X15825000Y-40000000D03*
%TD*%
D27*
%TO.P,U301,1*%
%TO.N,GND*%
X25200000Y-32000000D03*
%TO.P,U301,2*%
%TO.N,unconnected-(U301-ALERT{slash}RDY-Pad2)*%
X25200000Y-31500000D03*
%TO.P,U301,3*%
%TO.N,GND*%
X25200000Y-31000000D03*
%TO.P,U301,4*%
%TO.N,/Battery sensing and I2C isolation/BAT_ADC*%
X25200000Y-30500000D03*
%TO.P,U301,5*%
%TO.N,GND*%
X25200000Y-30000000D03*
%TO.P,U301,6*%
X20800000Y-30000000D03*
%TO.P,U301,7*%
X20800000Y-30500000D03*
%TO.P,U301,8*%
%TO.N,+3V3_ANA*%
X20800000Y-31000000D03*
%TO.P,U301,9*%
%TO.N,/Battery sensing and I2C isolation/ADC_SDA*%
X20800000Y-31500000D03*
%TO.P,U301,10*%
%TO.N,/Battery sensing and I2C isolation/ADC_SCL*%
X20800000Y-32000000D03*
%TD*%
D24*
%TO.P,U200,1*%
%TO.N,PAY_TX*%
X29700000Y-39050000D03*
%TO.P,U200,2*%
%TO.N,GND*%
X29700000Y-40000000D03*
%TO.P,U200,3*%
%TO.N,/PAY full-duplex RS-422/PAY_RO*%
X29700000Y-40950000D03*
%TO.P,U200,4*%
%TO.N,/PAY full-duplex RS-422/PAY_RX_BUF*%
X32300000Y-40950000D03*
%TO.P,U200,5*%
%TO.N,+3V3_PI*%
X32300000Y-40000000D03*
%TO.P,U200,6*%
%TO.N,/PAY full-duplex RS-422/PAY_TX_BUF*%
X32300000Y-39050000D03*
%TD*%
D15*
%TO.P,C101,1*%
%TO.N,/CTRL full-duplex RS-422/CTRL_VCC*%
X36200000Y-18775000D03*
%TO.P,C101,2*%
%TO.N,GND*%
X36200000Y-17225000D03*
%TD*%
D12*
%TO.P,TP300,1*%
%TO.N,/Battery sensing and I2C isolation/BAT_DIV*%
X16000000Y-51000000D03*
%TD*%
D13*
%TO.P,R4,1*%
%TO.N,+3V3_PI*%
X7175000Y-22500000D03*
%TO.P,R4,2*%
%TO.N,POWER_GOOD*%
X8825000Y-22500000D03*
%TD*%
D10*
%TO.P,R107,1*%
%TO.N,/CTRL full-duplex RS-422/CTRL_RX+*%
X49300000Y-20625000D03*
%TO.P,R107,2*%
%TO.N,/CTRL full-duplex RS-422/CTRL_RX-*%
X49300000Y-18975000D03*
%TD*%
D19*
%TO.P,J2,1*%
%TO.N,/CTRL full-duplex RS-422/CTRL_TX+*%
X55800000Y-24000000D03*
D20*
%TO.P,J2,2*%
%TO.N,/CTRL full-duplex RS-422/CTRL_TX-*%
X55800000Y-21500000D03*
%TO.P,J2,3*%
%TO.N,/CTRL full-duplex RS-422/CTRL_RX+*%
X55800000Y-19000000D03*
%TO.P,J2,4*%
%TO.N,/CTRL full-duplex RS-422/CTRL_RX-*%
X55800000Y-16500000D03*
%TO.P,J2,5*%
%TO.N,GND*%
X55800000Y-14000000D03*
%TO.P,J2,6*%
%TO.N,CHASSIS*%
X55800000Y-11500000D03*
%TD*%
D15*
%TO.P,C4,1*%
%TO.N,+3V3_PI*%
X12000000Y-25775000D03*
%TO.P,C4,2*%
%TO.N,GND*%
X12000000Y-24225000D03*
%TD*%
%TO.P,C302,1*%
%TO.N,+3V3_ANA*%
X27000000Y-46475000D03*
%TO.P,C302,2*%
%TO.N,GND*%
X27000000Y-44925000D03*
%TD*%
D12*
%TO.P,TP1,1*%
%TO.N,+3V3_ANA*%
X8000000Y-13000000D03*
%TD*%
D14*
%TO.P,C301,1*%
%TO.N,/Battery sensing and I2C isolation/BAT_ADC*%
X18225000Y-36000000D03*
%TO.P,C301,2*%
%TO.N,GND*%
X19775000Y-36000000D03*
%TD*%
%TO.P,C100,1*%
%TO.N,+3V3_PI*%
X31225000Y-16400000D03*
%TO.P,C100,2*%
%TO.N,GND*%
X32775000Y-16400000D03*
%TD*%
%TO.P,C1,1*%
%TO.N,+3V3_PI*%
X22225000Y-9500000D03*
%TO.P,C1,2*%
%TO.N,GND*%
X23775000Y-9500000D03*
%TD*%
D13*
%TO.P,R203,1*%
%TO.N,/PAY full-duplex RS-422/PAY_Y*%
X45575000Y-42600000D03*
%TO.P,R203,2*%
%TO.N,/PAY full-duplex RS-422/PAY_TX+*%
X47225000Y-42600000D03*
%TD*%
D10*
%TO.P,R6,1*%
%TO.N,+3V3_PI*%
X5000000Y-18825000D03*
%TO.P,R6,2*%
%TO.N,GND*%
X5000000Y-17175000D03*
%TD*%
D13*
%TO.P,R101,1*%
%TO.N,/CTRL full-duplex RS-422/CTRL_TX_BUF*%
X34175000Y-21000000D03*
%TO.P,R101,2*%
%TO.N,/CTRL full-duplex RS-422/CTRL_DI*%
X35825000Y-21000000D03*
%TD*%
D28*
%TO.P,J1,1*%
%TO.N,+3V3_PI*%
X8370000Y-4770000D03*
D29*
%TO.P,J1,2*%
%TO.N,unconnected-(J1-Pad2)*%
X8370000Y-2230000D03*
%TO.P,J1,3*%
%TO.N,PI_SDA*%
X10910000Y-4770000D03*
%TO.P,J1,4*%
%TO.N,unconnected-(J1-Pad4)*%
X10910000Y-2230000D03*
%TO.P,J1,5*%
%TO.N,PI_SCL*%
X13450000Y-4770000D03*
%TO.P,J1,6*%
%TO.N,GND*%
X13450000Y-2230000D03*
%TO.P,J1,7*%
%TO.N,CTRL_TX*%
X15990000Y-4770000D03*
%TO.P,J1,8*%
%TO.N,unconnected-(J1-Pad8)*%
X15990000Y-2230000D03*
%TO.P,J1,9*%
%TO.N,GND*%
X18530000Y-4770000D03*
%TO.P,J1,10*%
%TO.N,unconnected-(J1-Pad10)*%
X18530000Y-2230000D03*
%TO.P,J1,11*%
%TO.N,unconnected-(J1-Pad11)*%
X21070000Y-4770000D03*
%TO.P,J1,12*%
%TO.N,unconnected-(J1-Pad12)*%
X21070000Y-2230000D03*
%TO.P,J1,13*%
%TO.N,unconnected-(J1-Pad13)*%
X23610000Y-4770000D03*
%TO.P,J1,14*%
%TO.N,GND*%
X23610000Y-2230000D03*
%TO.P,J1,15*%
%TO.N,unconnected-(J1-Pad15)*%
X26150000Y-4770000D03*
%TO.P,J1,16*%
%TO.N,unconnected-(J1-Pad16)*%
X26150000Y-2230000D03*
%TO.P,J1,17*%
%TO.N,+3V3_PI*%
X28690000Y-4770000D03*
%TO.P,J1,18*%
%TO.N,unconnected-(J1-Pad18)*%
X28690000Y-2230000D03*
%TO.P,J1,19*%
%TO.N,unconnected-(J1-Pad19)*%
X31230000Y-4770000D03*
%TO.P,J1,20*%
%TO.N,GND*%
X31230000Y-2230000D03*
%TO.P,J1,21*%
%TO.N,unconnected-(J1-Pad21)*%
X33770000Y-4770000D03*
%TO.P,J1,22*%
%TO.N,unconnected-(J1-Pad22)*%
X33770000Y-2230000D03*
%TO.P,J1,23*%
%TO.N,unconnected-(J1-Pad23)*%
X36310000Y-4770000D03*
%TO.P,J1,24*%
%TO.N,unconnected-(J1-Pad24)*%
X36310000Y-2230000D03*
%TO.P,J1,25*%
%TO.N,GND*%
X38850000Y-4770000D03*
%TO.P,J1,26*%
%TO.N,unconnected-(J1-Pad26)*%
X38850000Y-2230000D03*
%TO.P,J1,27*%
%TO.N,unconnected-(J1-Pad27)*%
X41390000Y-4770000D03*
%TO.P,J1,28*%
%TO.N,unconnected-(J1-Pad28)*%
X41390000Y-2230000D03*
%TO.P,J1,29*%
%TO.N,CTRL_RX*%
X43930000Y-4770000D03*
%TO.P,J1,30*%
%TO.N,GND*%
X43930000Y-2230000D03*
%TO.P,J1,31*%
%TO.N,unconnected-(J1-Pad31)*%
X46470000Y-4770000D03*
%TO.P,J1,32*%
%TO.N,PAY_TX*%
X46470000Y-2230000D03*
%TO.P,J1,33*%
%TO.N,PAY_RX*%
X49010000Y-4770000D03*
%TO.P,J1,34*%
%TO.N,GND*%
X49010000Y-2230000D03*
%TO.P,J1,35*%
%TO.N,unconnected-(J1-Pad35)*%
X51550000Y-4770000D03*
%TO.P,J1,36*%
%TO.N,unconnected-(J1-Pad36)*%
X51550000Y-2230000D03*
%TO.P,J1,37*%
%TO.N,unconnected-(J1-Pad37)*%
X54090000Y-4770000D03*
%TO.P,J1,38*%
%TO.N,unconnected-(J1-Pad38)*%
X54090000Y-2230000D03*
%TO.P,J1,39*%
%TO.N,GND*%
X56630000Y-4770000D03*
%TO.P,J1,40*%
%TO.N,unconnected-(J1-Pad40)*%
X56630000Y-2230000D03*
%TD*%
D30*
%TO.N,GND*%
X49300000Y-15500000D03*
X17800000Y-24975000D03*
X7950000Y-25050000D03*
X30700000Y-40000000D03*
X56800000Y-14000000D03*
X49300000Y-24000000D03*
X20100000Y-43950000D03*
X21000000Y-13225000D03*
X25200000Y-29000000D03*
X33775000Y-16400000D03*
X24775000Y-9500000D03*
X28000000Y-44925000D03*
X49300000Y-44000000D03*
X26400000Y-31000000D03*
X25200000Y-33000000D03*
X17000000Y-39225000D03*
X27100000Y-39700000D03*
X26900000Y-11000000D03*
X10200000Y-43500000D03*
X32775000Y-9500000D03*
X14000000Y-24225000D03*
X39300000Y-41905000D03*
X37200000Y-37225000D03*
X56800000Y-35000000D03*
X33775000Y-36400000D03*
X9000000Y-49000000D03*
X19000000Y-18175000D03*
X35000000Y-9175000D03*
X49300000Y-35500000D03*
X21300000Y-41000000D03*
X30700000Y-20000000D03*
X16000000Y-42175000D03*
X25775000Y-27000000D03*
X20825000Y-34000000D03*
X27100000Y-41650000D03*
X6000000Y-17175000D03*
X37200000Y-17225000D03*
X13825000Y-29000000D03*
X31000000Y-12175000D03*
X14000000Y-15500000D03*
X13000000Y-24225000D03*
X28000000Y-31225000D03*
X20775000Y-36000000D03*
X39300000Y-21905000D03*
X22900000Y-15000000D03*
X21800000Y-30000000D03*
%TO.N,/CTRL full-duplex RS-422/CTRL_TX-*%
X49359600Y-22987500D03*
X51458100Y-21500000D03*
%TO.N,+3V3_ANA*%
X21750000Y-28350000D03*
X22500000Y-15950000D03*
X24000000Y-14250000D03*
X22587200Y-23115600D03*
X24292700Y-28175800D03*
%TO.N,+3V3_PI*%
X32037100Y-35587900D03*
X33312200Y-22399000D03*
%TO.N,POWER_GOOD*%
X20755400Y-25722300D03*
X20100000Y-38323100D03*
%TO.N,PAY_RX*%
X44262000Y-45000000D03*
%TO.N,/ANA_STATUS_UNUSED*%
X25076100Y-15200400D03*
X20994600Y-20425000D03*
%TO.N,/CTRL full-duplex RS-422/CTRL_RO*%
X36284200Y-19867900D03*
X30585000Y-21734700D03*
%TO.N,+3V3_RS*%
X35098500Y-33965700D03*
X34402800Y-15809700D03*
%TO.N,CTRL_TX*%
X28535600Y-16636500D03*
%TO.N,PI_SCL*%
X13236700Y-22882000D03*
%TO.N,PI_SDA*%
X18005900Y-24155000D03*
%TO.N,/PAY full-duplex RS-422/PAY_RO*%
X31235700Y-40950000D03*
X34988600Y-39567900D03*
%TO.N,/Battery sensing and I2C isolation/BAT_MID*%
X15825000Y-47815200D03*
X15233800Y-40996000D03*
%TD*%
%TO.N,/PAY full-duplex RS-422/PAY_RX+*%
D31*
X49025000Y-40625000D02*
X48499000Y-40099000D01*
X54498300Y-40000000D02*
X53873300Y-40625000D01*
X47275400Y-40050000D02*
X46790200Y-40050000D01*
X49300000Y-40625000D02*
X49025000Y-40625000D01*
X53873300Y-40625000D02*
X49300000Y-40625000D01*
X55800000Y-40000000D02*
X54498300Y-40000000D01*
X47225000Y-37500000D02*
X49250000Y-37500000D01*
X46476000Y-39735800D02*
X46476000Y-38249000D01*
D32*
X48499000Y-40099000D02*
X47324400Y-40099000D01*
D31*
X46790200Y-40050000D02*
X46476000Y-39735800D01*
X49250000Y-37500000D02*
X50300000Y-36450000D01*
D32*
X47324400Y-40099000D02*
X47275400Y-40050000D01*
D31*
X46476000Y-38249000D02*
X47225000Y-37500000D01*
%TO.N,/PAY full-duplex RS-422/PAY_RX-*%
X49300000Y-38975000D02*
X51089900Y-37185100D01*
X51404800Y-37500000D02*
X51089900Y-37185100D01*
X55800000Y-37500000D02*
X51404800Y-37500000D01*
X47450000Y-38975000D02*
X49300000Y-38975000D01*
X51089900Y-35339900D02*
X50300000Y-34550000D01*
X51089900Y-37185100D02*
X51089900Y-35339900D01*
X47225000Y-39200000D02*
X47450000Y-38975000D01*
%TO.N,/PAY full-duplex RS-422/PAY_TX+*%
X47225000Y-42600000D02*
X47225000Y-44129800D01*
X50350000Y-45000000D02*
X50300000Y-44950000D01*
X47225000Y-44129800D02*
X48045200Y-44950000D01*
X55800000Y-45000000D02*
X50350000Y-45000000D01*
X48045200Y-44950000D02*
X50300000Y-44950000D01*
%TO.N,/PAY full-duplex RS-422/PAY_TX-*%
X49375000Y-43050000D02*
X50300000Y-43050000D01*
X47225000Y-40900000D02*
X49375000Y-43050000D01*
X50850000Y-42500000D02*
X50300000Y-43050000D01*
X55800000Y-42500000D02*
X50850000Y-42500000D01*
%TO.N,GND*%
X20100000Y-42950000D02*
X20100000Y-43950000D01*
X20800000Y-30000000D02*
X21800000Y-30000000D01*
X36200000Y-17225000D02*
X37200000Y-17225000D01*
X29700000Y-40000000D02*
X30700000Y-40000000D01*
X38300000Y-21905000D02*
X39300000Y-21905000D01*
X5000000Y-17175000D02*
X6000000Y-17175000D01*
X48300000Y-44000000D02*
X49300000Y-44000000D01*
X48300000Y-24000000D02*
X49300000Y-24000000D01*
X18000000Y-39225000D02*
X17000000Y-39225000D01*
X55800000Y-35000000D02*
X56800000Y-35000000D01*
X24775000Y-27000000D02*
X25775000Y-27000000D01*
X25200000Y-32000000D02*
X25200000Y-33000000D01*
X16800000Y-24975000D02*
X17800000Y-24975000D01*
X48300000Y-35500000D02*
X49300000Y-35500000D01*
X15000000Y-24225000D02*
X14000000Y-24225000D01*
X25900000Y-39700000D02*
X27100000Y-39700000D01*
X25200000Y-30000000D02*
X25200000Y-29000000D01*
X30000000Y-12175000D02*
X31000000Y-12175000D01*
X8000000Y-49000000D02*
X9000000Y-49000000D01*
X15000000Y-42175000D02*
X16000000Y-42175000D01*
X23775000Y-9500000D02*
X24775000Y-9500000D01*
X20000000Y-18775000D02*
X19000000Y-18175000D01*
X25900000Y-41650000D02*
X27100000Y-41650000D01*
X29700000Y-20000000D02*
X30700000Y-20000000D01*
X20000000Y-13225000D02*
X21000000Y-13225000D01*
X9200000Y-43500000D02*
X10200000Y-43500000D01*
X55800000Y-14000000D02*
X56800000Y-14000000D01*
X13000000Y-15500000D02*
X14000000Y-15500000D01*
X48300000Y-15500000D02*
X49300000Y-15500000D01*
X32775000Y-36400000D02*
X33775000Y-36400000D01*
X25900000Y-11000000D02*
X26900000Y-11000000D01*
X6950000Y-25050000D02*
X7950000Y-25050000D01*
X32775000Y-16400000D02*
X33775000Y-16400000D01*
X38300000Y-41905000D02*
X39300000Y-41905000D01*
X20100000Y-41000000D02*
X21300000Y-41000000D01*
X21900000Y-15000000D02*
X22900000Y-15000000D01*
X36200000Y-37225000D02*
X37200000Y-37225000D01*
X19775000Y-36000000D02*
X20775000Y-36000000D01*
X25200000Y-31000000D02*
X26400000Y-31000000D01*
X19825000Y-34000000D02*
X20825000Y-34000000D01*
X27000000Y-31225000D02*
X28000000Y-31225000D01*
X27000000Y-44925000D02*
X28000000Y-44925000D01*
X12825000Y-29000000D02*
X13825000Y-29000000D01*
X31775000Y-9500000D02*
X32775000Y-9500000D01*
X12000000Y-24225000D02*
X13000000Y-24225000D01*
X18000000Y-18175000D02*
X19000000Y-18175000D01*
X34000000Y-9175000D02*
X35000000Y-9175000D01*
X20800000Y-30500000D02*
X21800000Y-30000000D01*
%TO.N,/Battery sensing and I2C isolation/BAT_ADC*%
X19641400Y-37416400D02*
X18225000Y-36000000D01*
D32*
X20855900Y-40350000D02*
X20100000Y-40350000D01*
D31*
X18175000Y-35950000D02*
X18175000Y-34000000D01*
X18125000Y-36000000D02*
X18175000Y-35950000D01*
D32*
X25175400Y-30524600D02*
X25200000Y-30500000D01*
D31*
X20247200Y-37416400D02*
X19641400Y-37416400D01*
X22018400Y-39187500D02*
X20247200Y-37416400D01*
X23039300Y-34624300D02*
X23039300Y-30524600D01*
D32*
X23039300Y-30524600D02*
X25175400Y-30524600D01*
X22018400Y-39187500D02*
X20855900Y-40350000D01*
D31*
X15000000Y-36000000D02*
X18125000Y-36000000D01*
X18175000Y-35950000D02*
X18225000Y-36000000D01*
X20247200Y-37416400D02*
X23039300Y-34624300D01*
%TO.N,/CTRL full-duplex RS-422/CTRL_Z*%
X43965000Y-20900000D02*
X43700000Y-20635000D01*
X45575000Y-20900000D02*
X43965000Y-20900000D01*
%TO.N,/CTRL full-duplex RS-422/CTRL_TX-*%
X47825000Y-21500000D02*
X51458100Y-21500000D01*
X47225000Y-20900000D02*
X47825000Y-21500000D01*
X50300000Y-23050000D02*
X50237500Y-22987500D01*
X50237500Y-22987500D02*
X49359600Y-22987500D01*
X51458100Y-21500000D02*
X55800000Y-21500000D01*
%TO.N,+3V3_ANA*%
D33*
X27551000Y-32775000D02*
X27000000Y-32775000D01*
D32*
X19850000Y-29550000D02*
X19800000Y-29600000D01*
D33*
X24292700Y-28175800D02*
X26048100Y-28175800D01*
D32*
X19750000Y-30800000D02*
X19800000Y-30850000D01*
X19750000Y-29700000D02*
X19750000Y-30800000D01*
D33*
X23225000Y-27000000D02*
X23225000Y-27108100D01*
D34*
X19451000Y-21276000D02*
X21200000Y-23025000D01*
D33*
X17325000Y-20500000D02*
X18000000Y-19825000D01*
X13000000Y-20500000D02*
X17325000Y-20500000D01*
D34*
X22587200Y-23025000D02*
X21200000Y-23025000D01*
D33*
X27000000Y-32775000D02*
X27000000Y-37849800D01*
X24683500Y-39313400D02*
X24683500Y-44158500D01*
D34*
X21900000Y-15999900D02*
X21900000Y-15650000D01*
D33*
X23225000Y-27108100D02*
X24292700Y-28175800D01*
X8000000Y-15500000D02*
X13000000Y-20500000D01*
D32*
X19800000Y-29600000D02*
X19800000Y-29650000D01*
X19950000Y-29500000D02*
X19900000Y-29550000D01*
D33*
X24683500Y-44158500D02*
X27000000Y-46475000D01*
X18000000Y-19825000D02*
X19451000Y-21276000D01*
X28753800Y-31572200D02*
X27551000Y-32775000D01*
D32*
X21900000Y-15999900D02*
X21900000Y-16000000D01*
X21900000Y-16000000D02*
X22450000Y-16000000D01*
X19850000Y-30950000D02*
X19900000Y-30950000D01*
D33*
X8000000Y-13000000D02*
X8000000Y-15500000D01*
X21900000Y-19025000D02*
X23675000Y-20800000D01*
D34*
X25900000Y-38999900D02*
X25900000Y-38949800D01*
D32*
X21750000Y-28350000D02*
X20600000Y-29500000D01*
X24000000Y-14250000D02*
X24100000Y-14350000D01*
D34*
X23675000Y-23000000D02*
X23675000Y-21340500D01*
D32*
X19900000Y-29550000D02*
X19850000Y-29550000D01*
X19800000Y-30850000D02*
X19800000Y-30900000D01*
X22450000Y-16000000D02*
X22500000Y-15950000D01*
D33*
X21900000Y-15999900D02*
X21900000Y-19025000D01*
D34*
X25900000Y-39050000D02*
X25900000Y-38999900D01*
D32*
X19900000Y-30950000D02*
X19950000Y-31000000D01*
X20600000Y-29500000D02*
X19950000Y-29500000D01*
D33*
X27000000Y-37849800D02*
X25900000Y-38949800D01*
X26048100Y-28175800D02*
X28753800Y-30881500D01*
D32*
X19950000Y-31000000D02*
X20800000Y-31000000D01*
X19800000Y-29650000D02*
X19750000Y-29700000D01*
D33*
X22587200Y-23000000D02*
X22587200Y-23025000D01*
X23675000Y-21340500D02*
X23675000Y-20800000D01*
X25900000Y-38999900D02*
X24997000Y-38999900D01*
D32*
X19800000Y-30900000D02*
X19850000Y-30950000D01*
D33*
X28753800Y-30881500D02*
X28753800Y-31572200D01*
X24997000Y-38999900D02*
X24683500Y-39313400D01*
X22587200Y-23025000D02*
X22587200Y-23115600D01*
D34*
X23675000Y-23000000D02*
X22587200Y-23000000D01*
%TO.N,/Battery sensing and I2C isolation/ADC_SCL*%
D31*
X24809300Y-22197500D02*
X24500000Y-22506800D01*
D32*
X21299600Y-23774600D02*
X21200000Y-23675000D01*
X23581100Y-23801000D02*
X23578400Y-23803700D01*
D31*
X20800000Y-32000000D02*
X21608300Y-32000000D01*
X26064500Y-22449500D02*
X25812500Y-22197500D01*
X26064500Y-24105800D02*
X26064500Y-22449500D01*
X22940600Y-26002000D02*
X24168300Y-26002000D01*
X25812500Y-22197500D02*
X25325000Y-22197500D01*
X22488000Y-31120300D02*
X22488000Y-29350500D01*
X22488000Y-29350500D02*
X22422300Y-29284800D01*
X23578400Y-23803700D02*
X22978100Y-23803700D01*
X24500000Y-22506800D02*
X24500000Y-23801000D01*
X24168300Y-26002000D02*
X26064500Y-24105800D01*
D32*
X24500000Y-23801000D02*
X23581100Y-23801000D01*
D31*
X22978100Y-23803700D02*
X22949000Y-23774600D01*
X22422300Y-26520300D02*
X22940600Y-26002000D01*
X25325000Y-20800000D02*
X25325000Y-22197500D01*
X25325000Y-22197500D02*
X24809300Y-22197500D01*
D32*
X22949000Y-23774600D02*
X21299600Y-23774600D01*
D31*
X22422300Y-29284800D02*
X22422300Y-26520300D01*
X21608300Y-32000000D02*
X22488000Y-31120300D01*
%TO.N,+3V3_PI*%
D33*
X28690000Y-4770000D02*
X28690000Y-7273800D01*
X32300000Y-20000000D02*
X32847200Y-20000000D01*
D32*
X11700000Y-25350000D02*
X11700000Y-25900000D01*
X26400000Y-15300000D02*
X26412800Y-15296700D01*
D33*
X32300000Y-20000000D02*
X31776600Y-20000000D01*
D34*
X25756900Y-10206900D02*
X25900000Y-10350000D01*
D32*
X23750000Y-12650000D02*
X26400000Y-15300000D01*
D31*
X12000000Y-25775000D02*
X11775000Y-26000000D01*
D32*
X7150000Y-22500000D02*
X7750000Y-21900000D01*
D33*
X30121700Y-15296700D02*
X31225000Y-16400000D01*
X15000000Y-25775000D02*
X18135300Y-25775000D01*
X16300300Y-10125300D02*
X16300300Y-9936400D01*
D32*
X11700000Y-25900000D02*
X11800000Y-26000000D01*
X7175000Y-22500000D02*
X7150000Y-22500000D01*
D33*
X8370000Y-6071700D02*
X12234700Y-9936400D01*
D34*
X31782800Y-40006200D02*
X31287500Y-39510900D01*
D33*
X30075000Y-36400000D02*
X29000000Y-35325000D01*
D32*
X9400000Y-21750000D02*
X9450000Y-21750000D01*
D33*
X32300000Y-40000000D02*
X32293800Y-40006200D01*
D32*
X9450000Y-21750000D02*
X9500000Y-21800000D01*
D33*
X31287500Y-36462500D02*
X31225000Y-36400000D01*
D32*
X9500000Y-21850000D02*
X9550000Y-21900000D01*
D33*
X31225000Y-19448400D02*
X31225000Y-16400000D01*
D32*
X8050000Y-21900000D02*
X8200000Y-21750000D01*
D33*
X17175000Y-11000000D02*
X16300300Y-10125300D01*
X31287500Y-39510900D02*
X31287500Y-36462500D01*
D32*
X11200000Y-24850000D02*
X11700000Y-25350000D01*
X11800000Y-26000000D02*
X11775000Y-26000000D01*
D33*
X26051600Y-15657900D02*
X26412800Y-15296700D01*
X27000000Y-17825000D02*
X26051600Y-16876600D01*
D32*
X9550000Y-21900000D02*
X9550000Y-22300000D01*
X8300000Y-21700000D02*
X9350000Y-21700000D01*
D33*
X4038300Y-17863300D02*
X4038300Y-10403400D01*
X18135300Y-25775000D02*
X19284000Y-24626300D01*
D32*
X8250000Y-21750000D02*
X8300000Y-21700000D01*
X9500000Y-21800000D02*
X9500000Y-21850000D01*
X23700000Y-11700000D02*
X23750000Y-11750000D01*
D33*
X16300300Y-9936400D02*
X16736700Y-9500000D01*
X26051600Y-16876600D02*
X26051600Y-15657900D01*
D34*
X19284000Y-24626300D02*
X19284000Y-24458400D01*
D32*
X23075000Y-10350000D02*
X23100000Y-10350000D01*
X23750000Y-11750000D02*
X23750000Y-12650000D01*
D34*
X32293800Y-40006200D02*
X31782800Y-40006200D01*
D32*
X9350000Y-21700000D02*
X9400000Y-21750000D01*
D33*
X31225000Y-36400000D02*
X30075000Y-36400000D01*
D31*
X22225000Y-9500000D02*
X23075000Y-10350000D01*
D33*
X31225000Y-36400000D02*
X32037100Y-35587900D01*
X32847200Y-20000000D02*
X33312200Y-20465000D01*
D31*
X23075000Y-10350000D02*
X25900000Y-10350000D01*
D34*
X17850600Y-23025000D02*
X16800000Y-23025000D01*
X19284000Y-24458400D02*
X17850600Y-23025000D01*
D33*
X28690000Y-7273800D02*
X25756900Y-10206900D01*
X26412800Y-15296700D02*
X30121700Y-15296700D01*
D32*
X7750000Y-21900000D02*
X8050000Y-21900000D01*
X23100000Y-10350000D02*
X23700000Y-10950000D01*
D33*
X8370000Y-4770000D02*
X8370000Y-6071700D01*
D32*
X11200000Y-23950000D02*
X11200000Y-24850000D01*
D33*
X5000000Y-20325000D02*
X5000000Y-18825000D01*
D32*
X9550000Y-22300000D02*
X11200000Y-23950000D01*
D33*
X16736700Y-9500000D02*
X22225000Y-9500000D01*
X12234700Y-9936400D02*
X16300300Y-9936400D01*
X7175000Y-22500000D02*
X5000000Y-20325000D01*
X33312200Y-20465000D02*
X33312200Y-22399000D01*
X5000000Y-18825000D02*
X4038300Y-17863300D01*
X4038300Y-10403400D02*
X8370000Y-6071700D01*
D32*
X8200000Y-21750000D02*
X8250000Y-21750000D01*
X23700000Y-10950000D02*
X23700000Y-11700000D01*
D33*
X31776600Y-20000000D02*
X31225000Y-19448400D01*
X15000000Y-25775000D02*
X12000000Y-25775000D01*
D31*
X11775000Y-26000000D02*
X9050000Y-26000000D01*
%TO.N,POWER_GOOD*%
X8000000Y-29000000D02*
X8000000Y-31000000D01*
X5910900Y-25910900D02*
X6950000Y-26950000D01*
X8825000Y-22500000D02*
X7043900Y-24281100D01*
X5910900Y-24673600D02*
X5910900Y-25910900D01*
X20100000Y-39050000D02*
X20100000Y-38323100D01*
X18928300Y-27549400D02*
X12625600Y-27549400D01*
X6950000Y-26950000D02*
X8000000Y-28000000D01*
X8000000Y-28000000D02*
X8000000Y-29000000D01*
X12625600Y-27549400D02*
X11175000Y-29000000D01*
X20755400Y-25722300D02*
X18928300Y-27549400D01*
X20755400Y-25722300D02*
X20755400Y-25419600D01*
X7043900Y-24281100D02*
X6303400Y-24281100D01*
X6303400Y-24281100D02*
X5910900Y-24673600D01*
X8000000Y-29000000D02*
X11175000Y-29000000D01*
X20755400Y-25419600D02*
X21200000Y-24975000D01*
%TO.N,/PAY full-duplex RS-422/PAY_RX_BUF*%
X32300000Y-43875000D02*
X32300000Y-40950000D01*
X31175000Y-45000000D02*
X32300000Y-43875000D01*
%TO.N,PAY_RX*%
X44262000Y-45000000D02*
X32825000Y-45000000D01*
%TO.N,/CTRL full-duplex RS-422/CTRL_TX+*%
X55800000Y-24000000D02*
X51096800Y-24000000D01*
X50742700Y-22272200D02*
X51096800Y-22626300D01*
X51096800Y-24153200D02*
X50300000Y-24950000D01*
X51096800Y-22626300D02*
X51096800Y-24000000D01*
X47552800Y-22272200D02*
X50742700Y-22272200D01*
X51096800Y-24000000D02*
X51096800Y-24153200D01*
X47225000Y-22600000D02*
X47552800Y-22272200D01*
%TO.N,/Battery sensing and I2C isolation/BAT_DIV*%
X15263600Y-43825000D02*
X15000000Y-43825000D01*
X18901800Y-39873200D02*
X18901800Y-39799600D01*
D32*
X18901800Y-39799600D02*
X20000400Y-39799600D01*
D31*
X18000000Y-40775000D02*
X18000000Y-41088600D01*
X15000000Y-50000000D02*
X16000000Y-51000000D01*
X18000000Y-40775000D02*
X18901800Y-39873200D01*
X18000000Y-40775000D02*
X16600000Y-40775000D01*
X15000000Y-43825000D02*
X15000000Y-50000000D01*
D32*
X20000400Y-39799600D02*
X20100000Y-39700000D01*
D31*
X16600000Y-40775000D02*
X15825000Y-40000000D01*
X18000000Y-41088600D02*
X15263600Y-43825000D01*
%TO.N,/Battery sensing and I2C isolation/ADC_SDA*%
X22274200Y-25998800D02*
X22274200Y-24325000D01*
D32*
X21200000Y-24325000D02*
X22274200Y-24325000D01*
X22274200Y-24325000D02*
X22522100Y-24325000D01*
D31*
X20800000Y-31500000D02*
X18971700Y-31500000D01*
X22522100Y-24255400D02*
X22522100Y-24325000D01*
X18800000Y-31328300D02*
X18800000Y-28528300D01*
D32*
X25325000Y-23000000D02*
X25325000Y-24236200D01*
D31*
X18971700Y-31500000D02*
X18800000Y-31328300D01*
D32*
X25325000Y-24236200D02*
X25305800Y-24255400D01*
X22522100Y-24255400D02*
X25305800Y-24255400D01*
D31*
X18800000Y-28528300D02*
X22274200Y-25998800D01*
%TO.N,/ANA_STATUS_UNUSED*%
X20000000Y-20425000D02*
X20994600Y-20425000D01*
X25076100Y-15200400D02*
X24875700Y-15000000D01*
X24875700Y-15000000D02*
X24100000Y-15000000D01*
%TO.N,/CTRL full-duplex RS-422/CTRL_VCC*%
D33*
X41000000Y-15000000D02*
X36825000Y-15000000D01*
X35244100Y-16580900D02*
X35244100Y-17819100D01*
X35244100Y-17819100D02*
X36200000Y-18775000D01*
X36825000Y-15000000D02*
X35244100Y-16580900D01*
D31*
X36200000Y-18775000D02*
X36880000Y-18095000D01*
X36880000Y-18095000D02*
X38300000Y-18095000D01*
%TO.N,/CTRL full-duplex RS-422/CTRL_RO*%
X29700000Y-20950000D02*
X30484700Y-21734700D01*
X38300000Y-19365000D02*
X37797100Y-19867900D01*
X30484700Y-21734700D02*
X30585000Y-21734700D01*
X37797100Y-19867900D02*
X36284200Y-19867900D01*
%TO.N,/CTRL full-duplex RS-422/CTRL_DI*%
X35825000Y-21000000D02*
X37935000Y-21000000D01*
X37935000Y-21000000D02*
X38300000Y-20635000D01*
%TO.N,/CTRL full-duplex RS-422/CTRL_Y*%
X44395000Y-22600000D02*
X43700000Y-21905000D01*
X45575000Y-22600000D02*
X44395000Y-22600000D01*
%TO.N,/CTRL full-duplex RS-422/CTRL_B*%
X45575000Y-19200000D02*
X43865000Y-19200000D01*
X43865000Y-19200000D02*
X43700000Y-19365000D01*
%TO.N,/CTRL full-duplex RS-422/CTRL_A*%
X45575000Y-17500000D02*
X44295000Y-17500000D01*
X44295000Y-17500000D02*
X43700000Y-18095000D01*
%TO.N,/PAY full-duplex RS-422/PAY_B*%
X43865000Y-39200000D02*
X43700000Y-39365000D01*
X45575000Y-39200000D02*
X43865000Y-39200000D01*
%TO.N,+3V3_RS*%
D32*
X30800000Y-13300000D02*
X30800000Y-14350000D01*
X30650000Y-11250000D02*
X31000000Y-11250000D01*
X30350000Y-10950000D02*
X30650000Y-11250000D01*
X31600000Y-11900000D02*
X31600000Y-12450000D01*
D34*
X30873900Y-11324000D02*
X30349000Y-11324000D01*
D32*
X30750000Y-14450000D02*
X30700000Y-14500000D01*
D33*
X35175000Y-15037500D02*
X35175000Y-15000000D01*
X32500000Y-12325000D02*
X34000000Y-10825000D01*
D32*
X29400000Y-14550000D02*
X29350000Y-14500000D01*
D33*
X31499000Y-11324000D02*
X30873900Y-11324000D01*
D32*
X26550000Y-11750000D02*
X26000000Y-11750000D01*
X29400000Y-10350000D02*
X30000000Y-10950000D01*
X30700000Y-14500000D02*
X30650000Y-14500000D01*
X26000000Y-11750000D02*
X25900000Y-11650000D01*
D33*
X35175000Y-34042200D02*
X35098500Y-33965700D01*
D32*
X31550000Y-12550000D02*
X30800000Y-13300000D01*
X29300000Y-14500000D02*
X26550000Y-11750000D01*
D33*
X34402800Y-15809700D02*
X35175000Y-15037500D01*
X35175000Y-15000000D02*
X32500000Y-12325000D01*
D32*
X30600000Y-14550000D02*
X29400000Y-14550000D01*
X30650000Y-14500000D02*
X30600000Y-14550000D01*
X29350000Y-14500000D02*
X29300000Y-14500000D01*
X30750000Y-14400000D02*
X30750000Y-14450000D01*
D33*
X32500000Y-12325000D02*
X31499000Y-11324000D01*
D31*
X30225000Y-9500000D02*
X29375000Y-10350000D01*
D34*
X30349000Y-11324000D02*
X29375000Y-10350000D01*
D33*
X35175000Y-35000000D02*
X35175000Y-34042200D01*
D31*
X29375000Y-10350000D02*
X28100000Y-10350000D01*
D32*
X30000000Y-10950000D02*
X30350000Y-10950000D01*
X29375000Y-10350000D02*
X29400000Y-10350000D01*
X31550000Y-11850000D02*
X31600000Y-11900000D01*
X31550000Y-12500000D02*
X31550000Y-12550000D01*
X31550000Y-11800000D02*
X31550000Y-11850000D01*
X31000000Y-11250000D02*
X31550000Y-11800000D01*
X30800000Y-14350000D02*
X30750000Y-14400000D01*
X31600000Y-12450000D02*
X31550000Y-12500000D01*
%TO.N,/RS_STATUS_UNUSED*%
X29125300Y-11124600D02*
X28224600Y-11124600D01*
X28224600Y-11124600D02*
X28100000Y-11000000D01*
D31*
X29125300Y-12950300D02*
X29125300Y-11124600D01*
X30000000Y-13825000D02*
X29125300Y-12950300D01*
%TO.N,/PAY full-duplex RS-422/PAY_VCC*%
D33*
X36825000Y-35000000D02*
X35244100Y-36580900D01*
X41000000Y-35000000D02*
X36825000Y-35000000D01*
X35244100Y-36580900D02*
X35244100Y-37819100D01*
D31*
X36200000Y-38775000D02*
X36880000Y-38095000D01*
X36880000Y-38095000D02*
X38300000Y-38095000D01*
D33*
X35244100Y-37819100D02*
X36200000Y-38775000D01*
%TO.N,/CTRL full-duplex RS-422/CTRL_RX+*%
D31*
X47225000Y-17500000D02*
X49250000Y-17500000D01*
X46790200Y-20050000D02*
X46476000Y-19735800D01*
X47275400Y-20050000D02*
X46790200Y-20050000D01*
X49250000Y-17500000D02*
X50300000Y-16450000D01*
X55800000Y-19000000D02*
X55800000Y-20176700D01*
X49748300Y-20176700D02*
X49300000Y-20625000D01*
D32*
X47324400Y-20099000D02*
X47275400Y-20050000D01*
D31*
X46476000Y-19735800D02*
X46476000Y-18249000D01*
X49025000Y-20625000D02*
X48499000Y-20099000D01*
D32*
X48499000Y-20099000D02*
X47324400Y-20099000D01*
D31*
X55800000Y-20176700D02*
X49748300Y-20176700D01*
X46476000Y-18249000D02*
X47225000Y-17500000D01*
X49300000Y-20625000D02*
X49025000Y-20625000D01*
%TO.N,/CTRL full-duplex RS-422/CTRL_RX-*%
X51089900Y-15339900D02*
X50300000Y-14550000D01*
X51089900Y-16500000D02*
X51089900Y-15339900D01*
X49300000Y-18975000D02*
X51089900Y-17185100D01*
X55800000Y-16500000D02*
X51089900Y-16500000D01*
X47450000Y-18975000D02*
X49300000Y-18975000D01*
X51089900Y-17185100D02*
X51089900Y-16500000D01*
X47225000Y-19200000D02*
X47450000Y-18975000D01*
%TO.N,CTRL_TX*%
X28535600Y-16636500D02*
X27461500Y-16636500D01*
X29700000Y-19050000D02*
X28556400Y-17906400D01*
X28556400Y-16636500D02*
X28535600Y-16636500D01*
X28556400Y-17906400D02*
X28556400Y-16636500D01*
X27461500Y-16636500D02*
X27000000Y-16175000D01*
%TO.N,/PAY full-duplex RS-422/PAY_A*%
X45575000Y-37500000D02*
X44295000Y-37500000D01*
X44295000Y-37500000D02*
X43700000Y-38095000D01*
%TO.N,PI_SCL*%
X16091900Y-23675000D02*
X16800000Y-23675000D01*
X13236700Y-22882000D02*
X15298900Y-22882000D01*
X15298900Y-22882000D02*
X16091900Y-23675000D01*
%TO.N,PI_SDA*%
X18005900Y-24155000D02*
X17835900Y-24325000D01*
X17835900Y-24325000D02*
X16800000Y-24325000D01*
%TO.N,/PAY full-duplex RS-422/PAY_TX_BUF*%
D32*
X32624600Y-39374600D02*
X32300000Y-39050000D01*
X34175000Y-39374600D02*
X32624600Y-39374600D01*
D31*
X34175000Y-41000000D02*
X34175000Y-39374600D01*
%TO.N,/PAY full-duplex RS-422/PAY_DI*%
X35825000Y-41000000D02*
X37935000Y-41000000D01*
X37935000Y-41000000D02*
X38300000Y-40635000D01*
%TO.N,/PAY full-duplex RS-422/PAY_RO*%
X38097100Y-39567900D02*
X38300000Y-39365000D01*
X34988600Y-39567900D02*
X38097100Y-39567900D01*
X29700000Y-40950000D02*
X31235700Y-40950000D01*
%TO.N,/PAY full-duplex RS-422/PAY_Y*%
X44395000Y-42600000D02*
X43700000Y-41905000D01*
X45575000Y-42600000D02*
X44395000Y-42600000D01*
%TO.N,/PAY full-duplex RS-422/PAY_Z*%
X45575000Y-40900000D02*
X43965000Y-40900000D01*
X43965000Y-40900000D02*
X43700000Y-40635000D01*
%TO.N,/CTRL full-duplex RS-422/CTRL_RX_BUF*%
X29175000Y-24075000D02*
X32300000Y-20950000D01*
X29175000Y-24500000D02*
X29175000Y-24075000D01*
%TO.N,/CTRL full-duplex RS-422/CTRL_TX_BUF*%
D32*
X32624600Y-19374600D02*
X32300000Y-19050000D01*
X34175000Y-19374600D02*
X32624600Y-19374600D01*
D31*
X34175000Y-21000000D02*
X34175000Y-19374600D01*
%TO.N,/Battery sensing and I2C isolation/BAT_RAW*%
X14175000Y-45975000D02*
X14175000Y-48800000D01*
X9200000Y-41000000D02*
X14175000Y-45975000D01*
%TO.N,/Battery sensing and I2C isolation/BAT_MID*%
X15171000Y-40996000D02*
X15233800Y-40996000D01*
X15825000Y-47815200D02*
X15825000Y-48800000D01*
X14175000Y-40000000D02*
X15171000Y-40996000D01*
%TO.N,PAY_TX*%
X29700000Y-39050000D02*
X28150500Y-37500500D01*
X45200000Y-13579600D02*
X41236900Y-17542700D01*
X41236900Y-21545900D02*
X29107800Y-33675000D01*
X28150500Y-34524500D02*
X29000000Y-33675000D01*
X41236900Y-17542700D02*
X41236900Y-21545900D01*
X29107800Y-33675000D02*
X29000000Y-33675000D01*
X45200000Y-3500000D02*
X45200000Y-13579600D01*
X46470000Y-2230000D02*
X45200000Y-3500000D01*
X28150500Y-37500500D02*
X28150500Y-34524500D01*
%TO.N,/ANA_FEED*%
X20000000Y-14775000D02*
X20425000Y-14350000D01*
D33*
X18825000Y-11000000D02*
X18825000Y-13600000D01*
D31*
X20425000Y-14350000D02*
X21900000Y-14350000D01*
D33*
X18825000Y-13600000D02*
X20000000Y-14775000D01*
%TO.N,CTRL_RX*%
D31*
X39958300Y-17966100D02*
X39958300Y-22140300D01*
X43930000Y-4770000D02*
X43930000Y-13994400D01*
X43930000Y-13994400D02*
X39958300Y-17966100D01*
X39958300Y-22140300D02*
X37598600Y-24500000D01*
X37598600Y-24500000D02*
X30825000Y-24500000D01*
%TD*%
M02*
