%TF.GenerationSoftware,KiCad,Pcbnew,10.0.4-10.0.4~ubuntu26.04.1*%
%TF.CreationDate,2026-09-11T16:46:02+09:00*%
%TF.ProjectId,rbphat,72627068-6174-42e6-9b69-6361645f7063,rev?*%
%TF.SameCoordinates,Original*%
%TF.FileFunction,Copper,L4,Bot*%
%TF.FilePolarity,Positive*%
%FSLAX46Y46*%
G04 Gerber Fmt 4.6, Leading zero omitted, Abs format (unit mm)*
G04 Created by KiCad (PCBNEW 10.0.4-10.0.4~ubuntu26.04.1) date 2026-09-11 16:46:02*
%MOMM*%
%LPD*%
G01*
G04 APERTURE LIST*
G04 Aperture macros list*
%AMRoundRect*
0 Rectangle with rounded corners*
0 $1 Rounding radius*
0 $2 $3 $4 $5 $6 $7 $8 $9 X,Y pos of 4 corners*
0 Add a 4 corners polygon primitive as box body*
4,1,4,$2,$3,$4,$5,$6,$7,$8,$9,$2,$3,0*
0 Add four circle primitives for the rounded corners*
1,1,$1+$1,$2,$3*
1,1,$1+$1,$4,$5*
1,1,$1+$1,$6,$7*
1,1,$1+$1,$8,$9*
0 Add four rect primitives between the rounded corners*
20,1,$1+$1,$2,$3,$4,$5,0*
20,1,$1+$1,$4,$5,$6,$7,0*
20,1,$1+$1,$6,$7,$8,$9,0*
20,1,$1+$1,$8,$9,$2,$3,0*%
G04 Aperture macros list end*
%TA.AperFunction,ComponentPad*%
%ADD10RoundRect,0.250000X0.725000X-0.600000X0.725000X0.600000X-0.725000X0.600000X-0.725000X-0.600000X0*%
%TD*%
%TA.AperFunction,ComponentPad*%
%ADD11O,1.950000X1.700000*%
%TD*%
%TA.AperFunction,ComponentPad*%
%ADD12C,6.400000*%
%TD*%
%TA.AperFunction,ComponentPad*%
%ADD13RoundRect,0.250000X-0.725000X0.600000X-0.725000X-0.600000X0.725000X-0.600000X0.725000X0.600000X0*%
%TD*%
%TA.AperFunction,ComponentPad*%
%ADD14R,1.700000X1.700000*%
%TD*%
%TA.AperFunction,ComponentPad*%
%ADD15C,1.700000*%
%TD*%
%TA.AperFunction,ViaPad*%
%ADD16C,0.600000*%
%TD*%
%TA.AperFunction,Conductor*%
%ADD17C,0.250000*%
%TD*%
%TA.AperFunction,Conductor*%
%ADD18C,0.200000*%
%TD*%
%TA.AperFunction,Conductor*%
%ADD19C,0.500000*%
%TD*%
G04 APERTURE END LIST*
D10*
%TO.P,J3,1*%
%TO.N,/PAY full-duplex RS-422/PAY_TX+*%
X55800000Y-45000000D03*
D11*
%TO.P,J3,2*%
%TO.N,/PAY full-duplex RS-422/PAY_TX-*%
X55800000Y-42500000D03*
%TO.P,J3,3*%
%TO.N,/PAY full-duplex RS-422/PAY_RX+*%
X55800000Y-40000000D03*
%TO.P,J3,4*%
%TO.N,/PAY full-duplex RS-422/PAY_RX-*%
X55800000Y-37500000D03*
%TO.P,J3,5*%
%TO.N,GND*%
X55800000Y-35000000D03*
%TO.P,J3,6*%
%TO.N,CHASSIS*%
X55800000Y-32500000D03*
%TD*%
D12*
%TO.P,SH1,1*%
%TO.N,CHASSIS*%
X32000000Y-51000000D03*
%TD*%
D13*
%TO.P,J4,1*%
%TO.N,/Battery sensing and I2C isolation/BAT_RAW*%
X9200000Y-41000000D03*
D11*
%TO.P,J4,2*%
%TO.N,GND*%
X9200000Y-43500000D03*
%TD*%
D10*
%TO.P,J2,1*%
%TO.N,/CTRL full-duplex RS-422/CTRL_TX+*%
X55800000Y-24000000D03*
D11*
%TO.P,J2,2*%
%TO.N,/CTRL full-duplex RS-422/CTRL_TX-*%
X55800000Y-21500000D03*
%TO.P,J2,3*%
%TO.N,/CTRL full-duplex RS-422/CTRL_RX+*%
X55800000Y-19000000D03*
%TO.P,J2,4*%
%TO.N,/CTRL full-duplex RS-422/CTRL_RX-*%
X55800000Y-16500000D03*
%TO.P,J2,5*%
%TO.N,GND*%
X55800000Y-14000000D03*
%TO.P,J2,6*%
%TO.N,CHASSIS*%
X55800000Y-11500000D03*
%TD*%
D14*
%TO.P,J1,1*%
%TO.N,+3V3_PI*%
X8370000Y-4770000D03*
D15*
%TO.P,J1,2*%
%TO.N,unconnected-(J1-Pad2)*%
X8370000Y-2230000D03*
%TO.P,J1,3*%
%TO.N,PI_SDA*%
X10910000Y-4770000D03*
%TO.P,J1,4*%
%TO.N,unconnected-(J1-Pad4)*%
X10910000Y-2230000D03*
%TO.P,J1,5*%
%TO.N,PI_SCL*%
X13450000Y-4770000D03*
%TO.P,J1,6*%
%TO.N,GND*%
X13450000Y-2230000D03*
%TO.P,J1,7*%
%TO.N,CTRL_TX*%
X15990000Y-4770000D03*
%TO.P,J1,8*%
%TO.N,unconnected-(J1-Pad8)*%
X15990000Y-2230000D03*
%TO.P,J1,9*%
%TO.N,GND*%
X18530000Y-4770000D03*
%TO.P,J1,10*%
%TO.N,unconnected-(J1-Pad10)*%
X18530000Y-2230000D03*
%TO.P,J1,11*%
%TO.N,unconnected-(J1-Pad11)*%
X21070000Y-4770000D03*
%TO.P,J1,12*%
%TO.N,unconnected-(J1-Pad12)*%
X21070000Y-2230000D03*
%TO.P,J1,13*%
%TO.N,unconnected-(J1-Pad13)*%
X23610000Y-4770000D03*
%TO.P,J1,14*%
%TO.N,GND*%
X23610000Y-2230000D03*
%TO.P,J1,15*%
%TO.N,unconnected-(J1-Pad15)*%
X26150000Y-4770000D03*
%TO.P,J1,16*%
%TO.N,unconnected-(J1-Pad16)*%
X26150000Y-2230000D03*
%TO.P,J1,17*%
%TO.N,+3V3_PI*%
X28690000Y-4770000D03*
%TO.P,J1,18*%
%TO.N,unconnected-(J1-Pad18)*%
X28690000Y-2230000D03*
%TO.P,J1,19*%
%TO.N,unconnected-(J1-Pad19)*%
X31230000Y-4770000D03*
%TO.P,J1,20*%
%TO.N,GND*%
X31230000Y-2230000D03*
%TO.P,J1,21*%
%TO.N,unconnected-(J1-Pad21)*%
X33770000Y-4770000D03*
%TO.P,J1,22*%
%TO.N,unconnected-(J1-Pad22)*%
X33770000Y-2230000D03*
%TO.P,J1,23*%
%TO.N,unconnected-(J1-Pad23)*%
X36310000Y-4770000D03*
%TO.P,J1,24*%
%TO.N,unconnected-(J1-Pad24)*%
X36310000Y-2230000D03*
%TO.P,J1,25*%
%TO.N,GND*%
X38850000Y-4770000D03*
%TO.P,J1,26*%
%TO.N,unconnected-(J1-Pad26)*%
X38850000Y-2230000D03*
%TO.P,J1,27*%
%TO.N,unconnected-(J1-Pad27)*%
X41390000Y-4770000D03*
%TO.P,J1,28*%
%TO.N,unconnected-(J1-Pad28)*%
X41390000Y-2230000D03*
%TO.P,J1,29*%
%TO.N,CTRL_RX*%
X43930000Y-4770000D03*
%TO.P,J1,30*%
%TO.N,GND*%
X43930000Y-2230000D03*
%TO.P,J1,31*%
%TO.N,unconnected-(J1-Pad31)*%
X46470000Y-4770000D03*
%TO.P,J1,32*%
%TO.N,PAY_TX*%
X46470000Y-2230000D03*
%TO.P,J1,33*%
%TO.N,PAY_RX*%
X49010000Y-4770000D03*
%TO.P,J1,34*%
%TO.N,GND*%
X49010000Y-2230000D03*
%TO.P,J1,35*%
%TO.N,unconnected-(J1-Pad35)*%
X51550000Y-4770000D03*
%TO.P,J1,36*%
%TO.N,unconnected-(J1-Pad36)*%
X51550000Y-2230000D03*
%TO.P,J1,37*%
%TO.N,unconnected-(J1-Pad37)*%
X54090000Y-4770000D03*
%TO.P,J1,38*%
%TO.N,unconnected-(J1-Pad38)*%
X54090000Y-2230000D03*
%TO.P,J1,39*%
%TO.N,GND*%
X56630000Y-4770000D03*
%TO.P,J1,40*%
%TO.N,unconnected-(J1-Pad40)*%
X56630000Y-2230000D03*
%TD*%
D16*
%TO.N,GND*%
X49300000Y-15500000D03*
X17800000Y-24975000D03*
X7950000Y-25050000D03*
X30700000Y-40000000D03*
X56800000Y-14000000D03*
X49300000Y-24000000D03*
X20100000Y-43950000D03*
X21000000Y-13225000D03*
X25200000Y-29000000D03*
X33775000Y-16400000D03*
X24775000Y-9500000D03*
X28000000Y-44925000D03*
X49300000Y-44000000D03*
X26400000Y-31000000D03*
X25200000Y-33000000D03*
X17000000Y-39225000D03*
X27100000Y-39700000D03*
X26900000Y-11000000D03*
X10200000Y-43500000D03*
X32775000Y-9500000D03*
X14000000Y-24225000D03*
X39300000Y-41905000D03*
X37200000Y-37225000D03*
X56800000Y-35000000D03*
X33775000Y-36400000D03*
X9000000Y-49000000D03*
X19000000Y-18175000D03*
X35000000Y-9175000D03*
X49300000Y-35500000D03*
X21300000Y-41000000D03*
X30700000Y-20000000D03*
X16000000Y-42175000D03*
X25775000Y-27000000D03*
X20825000Y-34000000D03*
X27100000Y-41650000D03*
X6000000Y-17175000D03*
X37200000Y-17225000D03*
X13825000Y-29000000D03*
X31000000Y-12175000D03*
X14000000Y-15500000D03*
X13000000Y-24225000D03*
X28000000Y-31225000D03*
X20775000Y-36000000D03*
X39300000Y-21905000D03*
X22900000Y-15000000D03*
X21800000Y-30000000D03*
%TO.N,/CTRL full-duplex RS-422/CTRL_TX-*%
X49359600Y-22987500D03*
X51458100Y-21500000D03*
%TO.N,+3V3_ANA*%
X21750000Y-28350000D03*
X22500000Y-15950000D03*
X24000000Y-14250000D03*
X22587200Y-23115600D03*
X24292700Y-28175800D03*
%TO.N,+3V3_PI*%
X32037100Y-35587900D03*
X33312200Y-22399000D03*
%TO.N,POWER_GOOD*%
X20755400Y-25722300D03*
X20100000Y-38323100D03*
%TO.N,PAY_RX*%
X44262000Y-45000000D03*
%TO.N,/ANA_STATUS_UNUSED*%
X25076100Y-15200400D03*
X20994600Y-20425000D03*
%TO.N,/CTRL full-duplex RS-422/CTRL_RO*%
X36284200Y-19867900D03*
X30585000Y-21734700D03*
%TO.N,+3V3_RS*%
X35098500Y-33965700D03*
X34402800Y-15809700D03*
%TO.N,CTRL_TX*%
X28535600Y-16636500D03*
%TO.N,PI_SCL*%
X13236700Y-22882000D03*
%TO.N,PI_SDA*%
X18005900Y-24155000D03*
%TO.N,/PAY full-duplex RS-422/PAY_RO*%
X31235700Y-40950000D03*
X34988600Y-39567900D03*
%TO.N,/Battery sensing and I2C isolation/BAT_MID*%
X15825000Y-47815200D03*
X15233800Y-40996000D03*
%TD*%
%TO.N,/CTRL full-duplex RS-422/CTRL_TX-*%
D17*
X50847100Y-21500000D02*
X51458100Y-21500000D01*
X49359600Y-22987500D02*
X50847100Y-21500000D01*
%TO.N,+3V3_ANA*%
D18*
X23200000Y-15600000D02*
X23250000Y-15550000D01*
X24000000Y-14450000D02*
X24000000Y-14250000D01*
X23050000Y-15650000D02*
X23100000Y-15600000D01*
X23100000Y-15600000D02*
X23200000Y-15600000D01*
X23250000Y-15550000D02*
X23300000Y-15550000D01*
X23300000Y-15550000D02*
X23950000Y-14900000D01*
X23950000Y-14900000D02*
X23950000Y-14500000D01*
X23950000Y-14500000D02*
X24000000Y-14450000D01*
D19*
X24292700Y-28175800D02*
X24292700Y-24821100D01*
D18*
X22800000Y-15650000D02*
X23050000Y-15650000D01*
X23750000Y-28200000D02*
X23600000Y-28350000D01*
X22500000Y-15950000D02*
X22800000Y-15650000D01*
X24292700Y-28175800D02*
X24300000Y-28200000D01*
D19*
X24292700Y-24821100D02*
X22587200Y-23115600D01*
D18*
X23600000Y-28350000D02*
X21750000Y-28350000D01*
X24300000Y-28200000D02*
X23750000Y-28200000D01*
%TO.N,+3V3_PI*%
D19*
X33312200Y-22399000D02*
X33312200Y-34312800D01*
X33312200Y-34312800D02*
X32037100Y-35587900D01*
%TO.N,POWER_GOOD*%
D17*
X20755400Y-25722300D02*
X20100000Y-26377700D01*
X20100000Y-26377700D02*
X20100000Y-38323100D01*
%TO.N,PAY_RX*%
X44262000Y-9518000D02*
X44262000Y-45000000D01*
X49010000Y-4770000D02*
X44262000Y-9518000D01*
%TO.N,/ANA_STATUS_UNUSED*%
X20994600Y-19281900D02*
X25076100Y-15200400D01*
X20994600Y-20425000D02*
X20994600Y-19281900D01*
%TO.N,/CTRL full-duplex RS-422/CTRL_RO*%
X30585000Y-21734700D02*
X34417400Y-21734700D01*
X34417400Y-21734700D02*
X36284200Y-19867900D01*
%TO.N,+3V3_RS*%
D19*
X34402800Y-15809700D02*
X37062600Y-18469500D01*
X37062600Y-32001600D02*
X35098500Y-33965700D01*
X37062600Y-18469500D02*
X37062600Y-32001600D01*
%TO.N,CHASSIS*%
D17*
X54446400Y-29969700D02*
X55800000Y-31323300D01*
X55800000Y-11500000D02*
X55800000Y-12676700D01*
X32000000Y-51000000D02*
X39154100Y-51000000D01*
X55800000Y-32500000D02*
X55800000Y-31323300D01*
X55285200Y-12676700D02*
X54446400Y-13515500D01*
X39154100Y-51000000D02*
X54475200Y-35678900D01*
X54475200Y-35678900D02*
X54475200Y-34486700D01*
X55285200Y-33676700D02*
X55800000Y-33676700D01*
X55800000Y-12676700D02*
X55285200Y-12676700D01*
X54446400Y-13515500D02*
X54446400Y-29969700D01*
X55800000Y-32500000D02*
X55800000Y-33676700D01*
X54475200Y-34486700D02*
X55285200Y-33676700D01*
%TO.N,CTRL_TX*%
X16669100Y-4770000D02*
X28535600Y-16636500D01*
X15990000Y-4770000D02*
X16669100Y-4770000D01*
%TO.N,PI_SCL*%
X13450000Y-4770000D02*
X13236700Y-4983300D01*
X13236700Y-4983300D02*
X13236700Y-22882000D01*
%TO.N,PI_SDA*%
X14720000Y-4339100D02*
X14720000Y-20869100D01*
X10910000Y-4770000D02*
X12127600Y-3552400D01*
X13933300Y-3552400D02*
X14720000Y-4339100D01*
X12127600Y-3552400D02*
X13933300Y-3552400D01*
X14720000Y-20869100D02*
X18005900Y-24155000D01*
%TO.N,/PAY full-duplex RS-422/PAY_RO*%
X34988600Y-39567900D02*
X33606500Y-40950000D01*
X33606500Y-40950000D02*
X31235700Y-40950000D01*
%TO.N,/Battery sensing and I2C isolation/BAT_MID*%
X15233800Y-47224000D02*
X15233800Y-40996000D01*
X15825000Y-47815200D02*
X15233800Y-47224000D01*
%TD*%
M02*
