%TF.GenerationSoftware,KiCad,Pcbnew,10.0.4-10.0.4~ubuntu26.04.1*%
%TF.CreationDate,2026-09-11T16:46:02+09:00*%
%TF.ProjectId,rbphat,72627068-6174-42e6-9b69-6361645f7063,rev?*%
%TF.SameCoordinates,Original*%
%TF.FileFunction,Legend,Top*%
%TF.FilePolarity,Positive*%
%FSLAX46Y46*%
G04 Gerber Fmt 4.6, Leading zero omitted, Abs format (unit mm)*
G04 Created by KiCad (PCBNEW 10.0.4-10.0.4~ubuntu26.04.1) date 2026-09-11 16:46:02*
%MOMM*%
%LPD*%
G01*
G04 APERTURE LIST*
%ADD10C,0.130000*%
%ADD11C,0.120000*%
G04 APERTURE END LIST*
D10*
X8598571Y-8263335D02*
X8141428Y-8263335D01*
X8370000Y-8263335D02*
X8370000Y-7463335D01*
X8370000Y-7463335D02*
X8293809Y-7577620D01*
X8293809Y-7577620D02*
X8217619Y-7653811D01*
X8217619Y-7653811D02*
X8141428Y-7691906D01*
X7121428Y-33938168D02*
X7250000Y-33981025D01*
X7250000Y-33981025D02*
X7292857Y-34023882D01*
X7292857Y-34023882D02*
X7335714Y-34109597D01*
X7335714Y-34109597D02*
X7335714Y-34238168D01*
X7335714Y-34238168D02*
X7292857Y-34323882D01*
X7292857Y-34323882D02*
X7250000Y-34366740D01*
X7250000Y-34366740D02*
X7164285Y-34409597D01*
X7164285Y-34409597D02*
X6821428Y-34409597D01*
X6821428Y-34409597D02*
X6821428Y-33509597D01*
X6821428Y-33509597D02*
X7121428Y-33509597D01*
X7121428Y-33509597D02*
X7207143Y-33552454D01*
X7207143Y-33552454D02*
X7250000Y-33595311D01*
X7250000Y-33595311D02*
X7292857Y-33681025D01*
X7292857Y-33681025D02*
X7292857Y-33766740D01*
X7292857Y-33766740D02*
X7250000Y-33852454D01*
X7250000Y-33852454D02*
X7207143Y-33895311D01*
X7207143Y-33895311D02*
X7121428Y-33938168D01*
X7121428Y-33938168D02*
X6821428Y-33938168D01*
X7678571Y-34152454D02*
X8107143Y-34152454D01*
X7592857Y-34409597D02*
X7892857Y-33509597D01*
X7892857Y-33509597D02*
X8192857Y-34409597D01*
X8364286Y-33509597D02*
X8878572Y-33509597D01*
X8621429Y-34409597D02*
X8621429Y-33509597D01*
X10035714Y-33509597D02*
X10121428Y-33509597D01*
X10121428Y-33509597D02*
X10207142Y-33552454D01*
X10207142Y-33552454D02*
X10250000Y-33595311D01*
X10250000Y-33595311D02*
X10292857Y-33681025D01*
X10292857Y-33681025D02*
X10335714Y-33852454D01*
X10335714Y-33852454D02*
X10335714Y-34066740D01*
X10335714Y-34066740D02*
X10292857Y-34238168D01*
X10292857Y-34238168D02*
X10250000Y-34323882D01*
X10250000Y-34323882D02*
X10207142Y-34366740D01*
X10207142Y-34366740D02*
X10121428Y-34409597D01*
X10121428Y-34409597D02*
X10035714Y-34409597D01*
X10035714Y-34409597D02*
X9950000Y-34366740D01*
X9950000Y-34366740D02*
X9907142Y-34323882D01*
X9907142Y-34323882D02*
X9864285Y-34238168D01*
X9864285Y-34238168D02*
X9821428Y-34066740D01*
X9821428Y-34066740D02*
X9821428Y-33852454D01*
X9821428Y-33852454D02*
X9864285Y-33681025D01*
X9864285Y-33681025D02*
X9907142Y-33595311D01*
X9907142Y-33595311D02*
X9950000Y-33552454D01*
X9950000Y-33552454D02*
X10035714Y-33509597D01*
X10721428Y-34066740D02*
X11407143Y-34066740D01*
X12307143Y-34409597D02*
X11792857Y-34409597D01*
X12050000Y-34409597D02*
X12050000Y-33509597D01*
X12050000Y-33509597D02*
X11964286Y-33638168D01*
X11964286Y-33638168D02*
X11878571Y-33723882D01*
X11878571Y-33723882D02*
X11792857Y-33766740D01*
X12650000Y-33595311D02*
X12692857Y-33552454D01*
X12692857Y-33552454D02*
X12778572Y-33509597D01*
X12778572Y-33509597D02*
X12992857Y-33509597D01*
X12992857Y-33509597D02*
X13078572Y-33552454D01*
X13078572Y-33552454D02*
X13121429Y-33595311D01*
X13121429Y-33595311D02*
X13164286Y-33681025D01*
X13164286Y-33681025D02*
X13164286Y-33766740D01*
X13164286Y-33766740D02*
X13121429Y-33895311D01*
X13121429Y-33895311D02*
X12607143Y-34409597D01*
X12607143Y-34409597D02*
X13164286Y-34409597D01*
X13550000Y-34323882D02*
X13592857Y-34366740D01*
X13592857Y-34366740D02*
X13550000Y-34409597D01*
X13550000Y-34409597D02*
X13507143Y-34366740D01*
X13507143Y-34366740D02*
X13550000Y-34323882D01*
X13550000Y-34323882D02*
X13550000Y-34409597D01*
X14364286Y-33509597D02*
X14192857Y-33509597D01*
X14192857Y-33509597D02*
X14107143Y-33552454D01*
X14107143Y-33552454D02*
X14064286Y-33595311D01*
X14064286Y-33595311D02*
X13978571Y-33723882D01*
X13978571Y-33723882D02*
X13935714Y-33895311D01*
X13935714Y-33895311D02*
X13935714Y-34238168D01*
X13935714Y-34238168D02*
X13978571Y-34323882D01*
X13978571Y-34323882D02*
X14021428Y-34366740D01*
X14021428Y-34366740D02*
X14107143Y-34409597D01*
X14107143Y-34409597D02*
X14278571Y-34409597D01*
X14278571Y-34409597D02*
X14364286Y-34366740D01*
X14364286Y-34366740D02*
X14407143Y-34323882D01*
X14407143Y-34323882D02*
X14450000Y-34238168D01*
X14450000Y-34238168D02*
X14450000Y-34023882D01*
X14450000Y-34023882D02*
X14407143Y-33938168D01*
X14407143Y-33938168D02*
X14364286Y-33895311D01*
X14364286Y-33895311D02*
X14278571Y-33852454D01*
X14278571Y-33852454D02*
X14107143Y-33852454D01*
X14107143Y-33852454D02*
X14021428Y-33895311D01*
X14021428Y-33895311D02*
X13978571Y-33938168D01*
X13978571Y-33938168D02*
X13935714Y-34023882D01*
X14707143Y-33509597D02*
X15007143Y-34409597D01*
X15007143Y-34409597D02*
X15307143Y-33509597D01*
X9800000Y-9609597D02*
X9500000Y-9181025D01*
X9285714Y-9609597D02*
X9285714Y-8709597D01*
X9285714Y-8709597D02*
X9628571Y-8709597D01*
X9628571Y-8709597D02*
X9714286Y-8752454D01*
X9714286Y-8752454D02*
X9757143Y-8795311D01*
X9757143Y-8795311D02*
X9800000Y-8881025D01*
X9800000Y-8881025D02*
X9800000Y-9009597D01*
X9800000Y-9009597D02*
X9757143Y-9095311D01*
X9757143Y-9095311D02*
X9714286Y-9138168D01*
X9714286Y-9138168D02*
X9628571Y-9181025D01*
X9628571Y-9181025D02*
X9285714Y-9181025D01*
X10485714Y-9138168D02*
X10614286Y-9181025D01*
X10614286Y-9181025D02*
X10657143Y-9223882D01*
X10657143Y-9223882D02*
X10700000Y-9309597D01*
X10700000Y-9309597D02*
X10700000Y-9438168D01*
X10700000Y-9438168D02*
X10657143Y-9523882D01*
X10657143Y-9523882D02*
X10614286Y-9566740D01*
X10614286Y-9566740D02*
X10528571Y-9609597D01*
X10528571Y-9609597D02*
X10185714Y-9609597D01*
X10185714Y-9609597D02*
X10185714Y-8709597D01*
X10185714Y-8709597D02*
X10485714Y-8709597D01*
X10485714Y-8709597D02*
X10571429Y-8752454D01*
X10571429Y-8752454D02*
X10614286Y-8795311D01*
X10614286Y-8795311D02*
X10657143Y-8881025D01*
X10657143Y-8881025D02*
X10657143Y-8966740D01*
X10657143Y-8966740D02*
X10614286Y-9052454D01*
X10614286Y-9052454D02*
X10571429Y-9095311D01*
X10571429Y-9095311D02*
X10485714Y-9138168D01*
X10485714Y-9138168D02*
X10185714Y-9138168D01*
X11085714Y-9609597D02*
X11085714Y-8709597D01*
X11085714Y-8709597D02*
X11428571Y-8709597D01*
X11428571Y-8709597D02*
X11514286Y-8752454D01*
X11514286Y-8752454D02*
X11557143Y-8795311D01*
X11557143Y-8795311D02*
X11600000Y-8881025D01*
X11600000Y-8881025D02*
X11600000Y-9009597D01*
X11600000Y-9009597D02*
X11557143Y-9095311D01*
X11557143Y-9095311D02*
X11514286Y-9138168D01*
X11514286Y-9138168D02*
X11428571Y-9181025D01*
X11428571Y-9181025D02*
X11085714Y-9181025D01*
X11985714Y-9609597D02*
X11985714Y-8709597D01*
X11985714Y-9138168D02*
X12500000Y-9138168D01*
X12500000Y-9609597D02*
X12500000Y-8709597D01*
X12885714Y-9352454D02*
X13314286Y-9352454D01*
X12800000Y-9609597D02*
X13100000Y-8709597D01*
X13100000Y-8709597D02*
X13400000Y-9609597D01*
X13571429Y-8709597D02*
X14085715Y-8709597D01*
X13828572Y-9609597D02*
X13828572Y-8709597D01*
X14985714Y-8709597D02*
X15585714Y-9609597D01*
X15585714Y-8709597D02*
X14985714Y-9609597D01*
X15885714Y-9352454D02*
X16314286Y-9352454D01*
X15800000Y-9609597D02*
X16100000Y-8709597D01*
X16100000Y-8709597D02*
X16400000Y-9609597D01*
X17685714Y-9138168D02*
X17814286Y-9181025D01*
X17814286Y-9181025D02*
X17857143Y-9223882D01*
X17857143Y-9223882D02*
X17900000Y-9309597D01*
X17900000Y-9309597D02*
X17900000Y-9438168D01*
X17900000Y-9438168D02*
X17857143Y-9523882D01*
X17857143Y-9523882D02*
X17814286Y-9566740D01*
X17814286Y-9566740D02*
X17728571Y-9609597D01*
X17728571Y-9609597D02*
X17385714Y-9609597D01*
X17385714Y-9609597D02*
X17385714Y-8709597D01*
X17385714Y-8709597D02*
X17685714Y-8709597D01*
X17685714Y-8709597D02*
X17771429Y-8752454D01*
X17771429Y-8752454D02*
X17814286Y-8795311D01*
X17814286Y-8795311D02*
X17857143Y-8881025D01*
X17857143Y-8881025D02*
X17857143Y-8966740D01*
X17857143Y-8966740D02*
X17814286Y-9052454D01*
X17814286Y-9052454D02*
X17771429Y-9095311D01*
X17771429Y-9095311D02*
X17685714Y-9138168D01*
X17685714Y-9138168D02*
X17385714Y-9138168D01*
X18671429Y-9009597D02*
X18671429Y-9609597D01*
X18457143Y-8666740D02*
X18242857Y-9309597D01*
X18242857Y-9309597D02*
X18800000Y-9309597D01*
X39585714Y-51409597D02*
X39585714Y-50509597D01*
X39585714Y-50938168D02*
X40100000Y-50938168D01*
X40100000Y-51409597D02*
X40100000Y-50509597D01*
X41000000Y-51409597D02*
X40485714Y-51409597D01*
X40742857Y-51409597D02*
X40742857Y-50509597D01*
X40742857Y-50509597D02*
X40657143Y-50638168D01*
X40657143Y-50638168D02*
X40571428Y-50723882D01*
X40571428Y-50723882D02*
X40485714Y-50766740D01*
X41771429Y-50509597D02*
X41600000Y-50509597D01*
X41600000Y-50509597D02*
X41514286Y-50552454D01*
X41514286Y-50552454D02*
X41471429Y-50595311D01*
X41471429Y-50595311D02*
X41385714Y-50723882D01*
X41385714Y-50723882D02*
X41342857Y-50895311D01*
X41342857Y-50895311D02*
X41342857Y-51238168D01*
X41342857Y-51238168D02*
X41385714Y-51323882D01*
X41385714Y-51323882D02*
X41428571Y-51366740D01*
X41428571Y-51366740D02*
X41514286Y-51409597D01*
X41514286Y-51409597D02*
X41685714Y-51409597D01*
X41685714Y-51409597D02*
X41771429Y-51366740D01*
X41771429Y-51366740D02*
X41814286Y-51323882D01*
X41814286Y-51323882D02*
X41857143Y-51238168D01*
X41857143Y-51238168D02*
X41857143Y-51023882D01*
X41857143Y-51023882D02*
X41814286Y-50938168D01*
X41814286Y-50938168D02*
X41771429Y-50895311D01*
X41771429Y-50895311D02*
X41685714Y-50852454D01*
X41685714Y-50852454D02*
X41514286Y-50852454D01*
X41514286Y-50852454D02*
X41428571Y-50895311D01*
X41428571Y-50895311D02*
X41385714Y-50938168D01*
X41385714Y-50938168D02*
X41342857Y-51023882D01*
X43571428Y-50466740D02*
X42800000Y-51623882D01*
X45028571Y-50552454D02*
X44942857Y-50509597D01*
X44942857Y-50509597D02*
X44814285Y-50509597D01*
X44814285Y-50509597D02*
X44685714Y-50552454D01*
X44685714Y-50552454D02*
X44599999Y-50638168D01*
X44599999Y-50638168D02*
X44557142Y-50723882D01*
X44557142Y-50723882D02*
X44514285Y-50895311D01*
X44514285Y-50895311D02*
X44514285Y-51023882D01*
X44514285Y-51023882D02*
X44557142Y-51195311D01*
X44557142Y-51195311D02*
X44599999Y-51281025D01*
X44599999Y-51281025D02*
X44685714Y-51366740D01*
X44685714Y-51366740D02*
X44814285Y-51409597D01*
X44814285Y-51409597D02*
X44899999Y-51409597D01*
X44899999Y-51409597D02*
X45028571Y-51366740D01*
X45028571Y-51366740D02*
X45071428Y-51323882D01*
X45071428Y-51323882D02*
X45071428Y-51023882D01*
X45071428Y-51023882D02*
X44899999Y-51023882D01*
X45414285Y-51152454D02*
X45842857Y-51152454D01*
X45328571Y-51409597D02*
X45628571Y-50509597D01*
X45628571Y-50509597D02*
X45928571Y-51409597D01*
X46228571Y-51409597D02*
X46228571Y-50509597D01*
X46228571Y-50509597D02*
X46571428Y-50509597D01*
X46571428Y-50509597D02*
X46657143Y-50552454D01*
X46657143Y-50552454D02*
X46700000Y-50595311D01*
X46700000Y-50595311D02*
X46742857Y-50681025D01*
X46742857Y-50681025D02*
X46742857Y-50809597D01*
X46742857Y-50809597D02*
X46700000Y-50895311D01*
X46700000Y-50895311D02*
X46657143Y-50938168D01*
X46657143Y-50938168D02*
X46571428Y-50981025D01*
X46571428Y-50981025D02*
X46228571Y-50981025D01*
X47600000Y-51409597D02*
X47085714Y-51409597D01*
X47342857Y-51409597D02*
X47342857Y-50509597D01*
X47342857Y-50509597D02*
X47257143Y-50638168D01*
X47257143Y-50638168D02*
X47171428Y-50723882D01*
X47171428Y-50723882D02*
X47085714Y-50766740D01*
X48028571Y-51409597D02*
X48200000Y-51409597D01*
X48200000Y-51409597D02*
X48285714Y-51366740D01*
X48285714Y-51366740D02*
X48328571Y-51323882D01*
X48328571Y-51323882D02*
X48414286Y-51195311D01*
X48414286Y-51195311D02*
X48457143Y-51023882D01*
X48457143Y-51023882D02*
X48457143Y-50681025D01*
X48457143Y-50681025D02*
X48414286Y-50595311D01*
X48414286Y-50595311D02*
X48371429Y-50552454D01*
X48371429Y-50552454D02*
X48285714Y-50509597D01*
X48285714Y-50509597D02*
X48114286Y-50509597D01*
X48114286Y-50509597D02*
X48028571Y-50552454D01*
X48028571Y-50552454D02*
X47985714Y-50595311D01*
X47985714Y-50595311D02*
X47942857Y-50681025D01*
X47942857Y-50681025D02*
X47942857Y-50895311D01*
X47942857Y-50895311D02*
X47985714Y-50981025D01*
X47985714Y-50981025D02*
X48028571Y-51023882D01*
X48028571Y-51023882D02*
X48114286Y-51066740D01*
X48114286Y-51066740D02*
X48285714Y-51066740D01*
X48285714Y-51066740D02*
X48371429Y-51023882D01*
X48371429Y-51023882D02*
X48414286Y-50981025D01*
X48414286Y-50981025D02*
X48457143Y-50895311D01*
X41921428Y-53823882D02*
X41878571Y-53866740D01*
X41878571Y-53866740D02*
X41749999Y-53909597D01*
X41749999Y-53909597D02*
X41664285Y-53909597D01*
X41664285Y-53909597D02*
X41535714Y-53866740D01*
X41535714Y-53866740D02*
X41449999Y-53781025D01*
X41449999Y-53781025D02*
X41407142Y-53695311D01*
X41407142Y-53695311D02*
X41364285Y-53523882D01*
X41364285Y-53523882D02*
X41364285Y-53395311D01*
X41364285Y-53395311D02*
X41407142Y-53223882D01*
X41407142Y-53223882D02*
X41449999Y-53138168D01*
X41449999Y-53138168D02*
X41535714Y-53052454D01*
X41535714Y-53052454D02*
X41664285Y-53009597D01*
X41664285Y-53009597D02*
X41749999Y-53009597D01*
X41749999Y-53009597D02*
X41878571Y-53052454D01*
X41878571Y-53052454D02*
X41921428Y-53095311D01*
X42307142Y-53909597D02*
X42307142Y-53009597D01*
X42307142Y-53438168D02*
X42821428Y-53438168D01*
X42821428Y-53909597D02*
X42821428Y-53009597D01*
X43207142Y-53652454D02*
X43635714Y-53652454D01*
X43121428Y-53909597D02*
X43421428Y-53009597D01*
X43421428Y-53009597D02*
X43721428Y-53909597D01*
X43978571Y-53866740D02*
X44107143Y-53909597D01*
X44107143Y-53909597D02*
X44321428Y-53909597D01*
X44321428Y-53909597D02*
X44407143Y-53866740D01*
X44407143Y-53866740D02*
X44450000Y-53823882D01*
X44450000Y-53823882D02*
X44492857Y-53738168D01*
X44492857Y-53738168D02*
X44492857Y-53652454D01*
X44492857Y-53652454D02*
X44450000Y-53566740D01*
X44450000Y-53566740D02*
X44407143Y-53523882D01*
X44407143Y-53523882D02*
X44321428Y-53481025D01*
X44321428Y-53481025D02*
X44150000Y-53438168D01*
X44150000Y-53438168D02*
X44064285Y-53395311D01*
X44064285Y-53395311D02*
X44021428Y-53352454D01*
X44021428Y-53352454D02*
X43978571Y-53266740D01*
X43978571Y-53266740D02*
X43978571Y-53181025D01*
X43978571Y-53181025D02*
X44021428Y-53095311D01*
X44021428Y-53095311D02*
X44064285Y-53052454D01*
X44064285Y-53052454D02*
X44150000Y-53009597D01*
X44150000Y-53009597D02*
X44364285Y-53009597D01*
X44364285Y-53009597D02*
X44492857Y-53052454D01*
X44835714Y-53866740D02*
X44964286Y-53909597D01*
X44964286Y-53909597D02*
X45178571Y-53909597D01*
X45178571Y-53909597D02*
X45264286Y-53866740D01*
X45264286Y-53866740D02*
X45307143Y-53823882D01*
X45307143Y-53823882D02*
X45350000Y-53738168D01*
X45350000Y-53738168D02*
X45350000Y-53652454D01*
X45350000Y-53652454D02*
X45307143Y-53566740D01*
X45307143Y-53566740D02*
X45264286Y-53523882D01*
X45264286Y-53523882D02*
X45178571Y-53481025D01*
X45178571Y-53481025D02*
X45007143Y-53438168D01*
X45007143Y-53438168D02*
X44921428Y-53395311D01*
X44921428Y-53395311D02*
X44878571Y-53352454D01*
X44878571Y-53352454D02*
X44835714Y-53266740D01*
X44835714Y-53266740D02*
X44835714Y-53181025D01*
X44835714Y-53181025D02*
X44878571Y-53095311D01*
X44878571Y-53095311D02*
X44921428Y-53052454D01*
X44921428Y-53052454D02*
X45007143Y-53009597D01*
X45007143Y-53009597D02*
X45221428Y-53009597D01*
X45221428Y-53009597D02*
X45350000Y-53052454D01*
X45735714Y-53909597D02*
X45735714Y-53009597D01*
X46121428Y-53866740D02*
X46250000Y-53909597D01*
X46250000Y-53909597D02*
X46464285Y-53909597D01*
X46464285Y-53909597D02*
X46550000Y-53866740D01*
X46550000Y-53866740D02*
X46592857Y-53823882D01*
X46592857Y-53823882D02*
X46635714Y-53738168D01*
X46635714Y-53738168D02*
X46635714Y-53652454D01*
X46635714Y-53652454D02*
X46592857Y-53566740D01*
X46592857Y-53566740D02*
X46550000Y-53523882D01*
X46550000Y-53523882D02*
X46464285Y-53481025D01*
X46464285Y-53481025D02*
X46292857Y-53438168D01*
X46292857Y-53438168D02*
X46207142Y-53395311D01*
X46207142Y-53395311D02*
X46164285Y-53352454D01*
X46164285Y-53352454D02*
X46121428Y-53266740D01*
X46121428Y-53266740D02*
X46121428Y-53181025D01*
X46121428Y-53181025D02*
X46164285Y-53095311D01*
X46164285Y-53095311D02*
X46207142Y-53052454D01*
X46207142Y-53052454D02*
X46292857Y-53009597D01*
X46292857Y-53009597D02*
X46507142Y-53009597D01*
X46507142Y-53009597D02*
X46635714Y-53052454D01*
X44023809Y-9860620D02*
X43976190Y-9908240D01*
X43976190Y-9908240D02*
X43833333Y-9955859D01*
X43833333Y-9955859D02*
X43738095Y-9955859D01*
X43738095Y-9955859D02*
X43595238Y-9908240D01*
X43595238Y-9908240D02*
X43500000Y-9813001D01*
X43500000Y-9813001D02*
X43452381Y-9717763D01*
X43452381Y-9717763D02*
X43404762Y-9527287D01*
X43404762Y-9527287D02*
X43404762Y-9384430D01*
X43404762Y-9384430D02*
X43452381Y-9193954D01*
X43452381Y-9193954D02*
X43500000Y-9098716D01*
X43500000Y-9098716D02*
X43595238Y-9003478D01*
X43595238Y-9003478D02*
X43738095Y-8955859D01*
X43738095Y-8955859D02*
X43833333Y-8955859D01*
X43833333Y-8955859D02*
X43976190Y-9003478D01*
X43976190Y-9003478D02*
X44023809Y-9051097D01*
X44309524Y-8955859D02*
X44880952Y-8955859D01*
X44595238Y-9955859D02*
X44595238Y-8955859D01*
X45785714Y-9955859D02*
X45452381Y-9479668D01*
X45214286Y-9955859D02*
X45214286Y-8955859D01*
X45214286Y-8955859D02*
X45595238Y-8955859D01*
X45595238Y-8955859D02*
X45690476Y-9003478D01*
X45690476Y-9003478D02*
X45738095Y-9051097D01*
X45738095Y-9051097D02*
X45785714Y-9146335D01*
X45785714Y-9146335D02*
X45785714Y-9289192D01*
X45785714Y-9289192D02*
X45738095Y-9384430D01*
X45738095Y-9384430D02*
X45690476Y-9432049D01*
X45690476Y-9432049D02*
X45595238Y-9479668D01*
X45595238Y-9479668D02*
X45214286Y-9479668D01*
X46690476Y-9955859D02*
X46214286Y-9955859D01*
X46214286Y-9955859D02*
X46214286Y-8955859D01*
X42023809Y-30455859D02*
X42023809Y-29455859D01*
X42023809Y-29455859D02*
X42404761Y-29455859D01*
X42404761Y-29455859D02*
X42499999Y-29503478D01*
X42499999Y-29503478D02*
X42547618Y-29551097D01*
X42547618Y-29551097D02*
X42595237Y-29646335D01*
X42595237Y-29646335D02*
X42595237Y-29789192D01*
X42595237Y-29789192D02*
X42547618Y-29884430D01*
X42547618Y-29884430D02*
X42499999Y-29932049D01*
X42499999Y-29932049D02*
X42404761Y-29979668D01*
X42404761Y-29979668D02*
X42023809Y-29979668D01*
X42976190Y-30170144D02*
X43452380Y-30170144D01*
X42880952Y-30455859D02*
X43214285Y-29455859D01*
X43214285Y-29455859D02*
X43547618Y-30455859D01*
X44071428Y-29979668D02*
X44071428Y-30455859D01*
X43738095Y-29455859D02*
X44071428Y-29979668D01*
X44071428Y-29979668D02*
X44404761Y-29455859D01*
X45214285Y-30455859D02*
X44738095Y-30455859D01*
X44738095Y-30455859D02*
X44738095Y-29455859D01*
X45738095Y-29455859D02*
X45928571Y-29455859D01*
X45928571Y-29455859D02*
X46023809Y-29503478D01*
X46023809Y-29503478D02*
X46119047Y-29598716D01*
X46119047Y-29598716D02*
X46166666Y-29789192D01*
X46166666Y-29789192D02*
X46166666Y-30122525D01*
X46166666Y-30122525D02*
X46119047Y-30313001D01*
X46119047Y-30313001D02*
X46023809Y-30408240D01*
X46023809Y-30408240D02*
X45928571Y-30455859D01*
X45928571Y-30455859D02*
X45738095Y-30455859D01*
X45738095Y-30455859D02*
X45642857Y-30408240D01*
X45642857Y-30408240D02*
X45547619Y-30313001D01*
X45547619Y-30313001D02*
X45500000Y-30122525D01*
X45500000Y-30122525D02*
X45500000Y-29789192D01*
X45500000Y-29789192D02*
X45547619Y-29598716D01*
X45547619Y-29598716D02*
X45642857Y-29503478D01*
X45642857Y-29503478D02*
X45738095Y-29455859D01*
X46547619Y-30170144D02*
X47023809Y-30170144D01*
X46452381Y-30455859D02*
X46785714Y-29455859D01*
X46785714Y-29455859D02*
X47119047Y-30455859D01*
X47452381Y-30455859D02*
X47452381Y-29455859D01*
X47452381Y-29455859D02*
X47690476Y-29455859D01*
X47690476Y-29455859D02*
X47833333Y-29503478D01*
X47833333Y-29503478D02*
X47928571Y-29598716D01*
X47928571Y-29598716D02*
X47976190Y-29693954D01*
X47976190Y-29693954D02*
X48023809Y-29884430D01*
X48023809Y-29884430D02*
X48023809Y-30027287D01*
X48023809Y-30027287D02*
X47976190Y-30217763D01*
X47976190Y-30217763D02*
X47928571Y-30313001D01*
X47928571Y-30313001D02*
X47833333Y-30408240D01*
X47833333Y-30408240D02*
X47690476Y-30455859D01*
X47690476Y-30455859D02*
X47452381Y-30455859D01*
D11*
X44404762Y-48668855D02*
X44138095Y-48287902D01*
X43947619Y-48668855D02*
X43947619Y-47868855D01*
X43947619Y-47868855D02*
X44252381Y-47868855D01*
X44252381Y-47868855D02*
X44328571Y-47906950D01*
X44328571Y-47906950D02*
X44366666Y-47945045D01*
X44366666Y-47945045D02*
X44404762Y-48021236D01*
X44404762Y-48021236D02*
X44404762Y-48135521D01*
X44404762Y-48135521D02*
X44366666Y-48211712D01*
X44366666Y-48211712D02*
X44328571Y-48249807D01*
X44328571Y-48249807D02*
X44252381Y-48287902D01*
X44252381Y-48287902D02*
X43947619Y-48287902D01*
X44709523Y-47945045D02*
X44747619Y-47906950D01*
X44747619Y-47906950D02*
X44823809Y-47868855D01*
X44823809Y-47868855D02*
X45014285Y-47868855D01*
X45014285Y-47868855D02*
X45090476Y-47906950D01*
X45090476Y-47906950D02*
X45128571Y-47945045D01*
X45128571Y-47945045D02*
X45166666Y-48021236D01*
X45166666Y-48021236D02*
X45166666Y-48097426D01*
X45166666Y-48097426D02*
X45128571Y-48211712D01*
X45128571Y-48211712D02*
X44671428Y-48668855D01*
X44671428Y-48668855D02*
X45166666Y-48668855D01*
X45661905Y-47868855D02*
X45738095Y-47868855D01*
X45738095Y-47868855D02*
X45814286Y-47906950D01*
X45814286Y-47906950D02*
X45852381Y-47945045D01*
X45852381Y-47945045D02*
X45890476Y-48021236D01*
X45890476Y-48021236D02*
X45928571Y-48173617D01*
X45928571Y-48173617D02*
X45928571Y-48364093D01*
X45928571Y-48364093D02*
X45890476Y-48516474D01*
X45890476Y-48516474D02*
X45852381Y-48592664D01*
X45852381Y-48592664D02*
X45814286Y-48630760D01*
X45814286Y-48630760D02*
X45738095Y-48668855D01*
X45738095Y-48668855D02*
X45661905Y-48668855D01*
X45661905Y-48668855D02*
X45585714Y-48630760D01*
X45585714Y-48630760D02*
X45547619Y-48592664D01*
X45547619Y-48592664D02*
X45509524Y-48516474D01*
X45509524Y-48516474D02*
X45471428Y-48364093D01*
X45471428Y-48364093D02*
X45471428Y-48173617D01*
X45471428Y-48173617D02*
X45509524Y-48021236D01*
X45509524Y-48021236D02*
X45547619Y-47945045D01*
X45547619Y-47945045D02*
X45585714Y-47906950D01*
X45585714Y-47906950D02*
X45661905Y-47868855D01*
X46195238Y-47868855D02*
X46728572Y-47868855D01*
X46728572Y-47868855D02*
X46385714Y-48668855D01*
X47947619Y-47288854D02*
X47947619Y-46488854D01*
X47947619Y-46488854D02*
X48138095Y-46488854D01*
X48138095Y-46488854D02*
X48252381Y-46526949D01*
X48252381Y-46526949D02*
X48328571Y-46603139D01*
X48328571Y-46603139D02*
X48366666Y-46679330D01*
X48366666Y-46679330D02*
X48404762Y-46831711D01*
X48404762Y-46831711D02*
X48404762Y-46945997D01*
X48404762Y-46945997D02*
X48366666Y-47098378D01*
X48366666Y-47098378D02*
X48328571Y-47174568D01*
X48328571Y-47174568D02*
X48252381Y-47250759D01*
X48252381Y-47250759D02*
X48138095Y-47288854D01*
X48138095Y-47288854D02*
X47947619Y-47288854D01*
X48709523Y-46565044D02*
X48747619Y-46526949D01*
X48747619Y-46526949D02*
X48823809Y-46488854D01*
X48823809Y-46488854D02*
X49014285Y-46488854D01*
X49014285Y-46488854D02*
X49090476Y-46526949D01*
X49090476Y-46526949D02*
X49128571Y-46565044D01*
X49128571Y-46565044D02*
X49166666Y-46641235D01*
X49166666Y-46641235D02*
X49166666Y-46717425D01*
X49166666Y-46717425D02*
X49128571Y-46831711D01*
X49128571Y-46831711D02*
X48671428Y-47288854D01*
X48671428Y-47288854D02*
X49166666Y-47288854D01*
X49661905Y-46488854D02*
X49738095Y-46488854D01*
X49738095Y-46488854D02*
X49814286Y-46526949D01*
X49814286Y-46526949D02*
X49852381Y-46565044D01*
X49852381Y-46565044D02*
X49890476Y-46641235D01*
X49890476Y-46641235D02*
X49928571Y-46793616D01*
X49928571Y-46793616D02*
X49928571Y-46984092D01*
X49928571Y-46984092D02*
X49890476Y-47136473D01*
X49890476Y-47136473D02*
X49852381Y-47212663D01*
X49852381Y-47212663D02*
X49814286Y-47250759D01*
X49814286Y-47250759D02*
X49738095Y-47288854D01*
X49738095Y-47288854D02*
X49661905Y-47288854D01*
X49661905Y-47288854D02*
X49585714Y-47250759D01*
X49585714Y-47250759D02*
X49547619Y-47212663D01*
X49547619Y-47212663D02*
X49509524Y-47136473D01*
X49509524Y-47136473D02*
X49471428Y-46984092D01*
X49471428Y-46984092D02*
X49471428Y-46793616D01*
X49471428Y-46793616D02*
X49509524Y-46641235D01*
X49509524Y-46641235D02*
X49547619Y-46565044D01*
X49547619Y-46565044D02*
X49585714Y-46526949D01*
X49585714Y-46526949D02*
X49661905Y-46488854D01*
X50423810Y-46488854D02*
X50500000Y-46488854D01*
X50500000Y-46488854D02*
X50576191Y-46526949D01*
X50576191Y-46526949D02*
X50614286Y-46565044D01*
X50614286Y-46565044D02*
X50652381Y-46641235D01*
X50652381Y-46641235D02*
X50690476Y-46793616D01*
X50690476Y-46793616D02*
X50690476Y-46984092D01*
X50690476Y-46984092D02*
X50652381Y-47136473D01*
X50652381Y-47136473D02*
X50614286Y-47212663D01*
X50614286Y-47212663D02*
X50576191Y-47250759D01*
X50576191Y-47250759D02*
X50500000Y-47288854D01*
X50500000Y-47288854D02*
X50423810Y-47288854D01*
X50423810Y-47288854D02*
X50347619Y-47250759D01*
X50347619Y-47250759D02*
X50309524Y-47212663D01*
X50309524Y-47212663D02*
X50271429Y-47136473D01*
X50271429Y-47136473D02*
X50233333Y-46984092D01*
X50233333Y-46984092D02*
X50233333Y-46793616D01*
X50233333Y-46793616D02*
X50271429Y-46641235D01*
X50271429Y-46641235D02*
X50309524Y-46565044D01*
X50309524Y-46565044D02*
X50347619Y-46526949D01*
X50347619Y-46526949D02*
X50423810Y-46488854D01*
X13228571Y-31688855D02*
X13685714Y-31688855D01*
X13457142Y-32488855D02*
X13457142Y-31688855D01*
X13952381Y-32488855D02*
X13952381Y-31688855D01*
X13952381Y-31688855D02*
X14257143Y-31688855D01*
X14257143Y-31688855D02*
X14333333Y-31726950D01*
X14333333Y-31726950D02*
X14371428Y-31765045D01*
X14371428Y-31765045D02*
X14409524Y-31841236D01*
X14409524Y-31841236D02*
X14409524Y-31955521D01*
X14409524Y-31955521D02*
X14371428Y-32031712D01*
X14371428Y-32031712D02*
X14333333Y-32069807D01*
X14333333Y-32069807D02*
X14257143Y-32107902D01*
X14257143Y-32107902D02*
X13952381Y-32107902D01*
X14676190Y-31688855D02*
X15171428Y-31688855D01*
X15171428Y-31688855D02*
X14904762Y-31993617D01*
X14904762Y-31993617D02*
X15019047Y-31993617D01*
X15019047Y-31993617D02*
X15095238Y-32031712D01*
X15095238Y-32031712D02*
X15133333Y-32069807D01*
X15133333Y-32069807D02*
X15171428Y-32145998D01*
X15171428Y-32145998D02*
X15171428Y-32336474D01*
X15171428Y-32336474D02*
X15133333Y-32412664D01*
X15133333Y-32412664D02*
X15095238Y-32450760D01*
X15095238Y-32450760D02*
X15019047Y-32488855D01*
X15019047Y-32488855D02*
X14790476Y-32488855D01*
X14790476Y-32488855D02*
X14714285Y-32450760D01*
X14714285Y-32450760D02*
X14676190Y-32412664D01*
X15666667Y-31688855D02*
X15742857Y-31688855D01*
X15742857Y-31688855D02*
X15819048Y-31726950D01*
X15819048Y-31726950D02*
X15857143Y-31765045D01*
X15857143Y-31765045D02*
X15895238Y-31841236D01*
X15895238Y-31841236D02*
X15933333Y-31993617D01*
X15933333Y-31993617D02*
X15933333Y-32184093D01*
X15933333Y-32184093D02*
X15895238Y-32336474D01*
X15895238Y-32336474D02*
X15857143Y-32412664D01*
X15857143Y-32412664D02*
X15819048Y-32450760D01*
X15819048Y-32450760D02*
X15742857Y-32488855D01*
X15742857Y-32488855D02*
X15666667Y-32488855D01*
X15666667Y-32488855D02*
X15590476Y-32450760D01*
X15590476Y-32450760D02*
X15552381Y-32412664D01*
X15552381Y-32412664D02*
X15514286Y-32336474D01*
X15514286Y-32336474D02*
X15476190Y-32184093D01*
X15476190Y-32184093D02*
X15476190Y-31993617D01*
X15476190Y-31993617D02*
X15514286Y-31841236D01*
X15514286Y-31841236D02*
X15552381Y-31765045D01*
X15552381Y-31765045D02*
X15590476Y-31726950D01*
X15590476Y-31726950D02*
X15666667Y-31688855D01*
X16695238Y-32488855D02*
X16238095Y-32488855D01*
X16466667Y-32488855D02*
X16466667Y-31688855D01*
X16466667Y-31688855D02*
X16390476Y-31803140D01*
X16390476Y-31803140D02*
X16314286Y-31879331D01*
X16314286Y-31879331D02*
X16238095Y-31917426D01*
X44704762Y-27018855D02*
X44438095Y-26637902D01*
X44247619Y-27018855D02*
X44247619Y-26218855D01*
X44247619Y-26218855D02*
X44552381Y-26218855D01*
X44552381Y-26218855D02*
X44628571Y-26256950D01*
X44628571Y-26256950D02*
X44666666Y-26295045D01*
X44666666Y-26295045D02*
X44704762Y-26371236D01*
X44704762Y-26371236D02*
X44704762Y-26485521D01*
X44704762Y-26485521D02*
X44666666Y-26561712D01*
X44666666Y-26561712D02*
X44628571Y-26599807D01*
X44628571Y-26599807D02*
X44552381Y-26637902D01*
X44552381Y-26637902D02*
X44247619Y-26637902D01*
X45466666Y-27018855D02*
X45009523Y-27018855D01*
X45238095Y-27018855D02*
X45238095Y-26218855D01*
X45238095Y-26218855D02*
X45161904Y-26333140D01*
X45161904Y-26333140D02*
X45085714Y-26409331D01*
X45085714Y-26409331D02*
X45009523Y-26447426D01*
X45961905Y-26218855D02*
X46038095Y-26218855D01*
X46038095Y-26218855D02*
X46114286Y-26256950D01*
X46114286Y-26256950D02*
X46152381Y-26295045D01*
X46152381Y-26295045D02*
X46190476Y-26371236D01*
X46190476Y-26371236D02*
X46228571Y-26523617D01*
X46228571Y-26523617D02*
X46228571Y-26714093D01*
X46228571Y-26714093D02*
X46190476Y-26866474D01*
X46190476Y-26866474D02*
X46152381Y-26942664D01*
X46152381Y-26942664D02*
X46114286Y-26980760D01*
X46114286Y-26980760D02*
X46038095Y-27018855D01*
X46038095Y-27018855D02*
X45961905Y-27018855D01*
X45961905Y-27018855D02*
X45885714Y-26980760D01*
X45885714Y-26980760D02*
X45847619Y-26942664D01*
X45847619Y-26942664D02*
X45809524Y-26866474D01*
X45809524Y-26866474D02*
X45771428Y-26714093D01*
X45771428Y-26714093D02*
X45771428Y-26523617D01*
X45771428Y-26523617D02*
X45809524Y-26371236D01*
X45809524Y-26371236D02*
X45847619Y-26295045D01*
X45847619Y-26295045D02*
X45885714Y-26256950D01*
X45885714Y-26256950D02*
X45961905Y-26218855D01*
X46914286Y-26485521D02*
X46914286Y-27018855D01*
X46723810Y-26180760D02*
X46533333Y-26752188D01*
X46533333Y-26752188D02*
X47028572Y-26752188D01*
X17866667Y-16658855D02*
X17600000Y-16277902D01*
X17409524Y-16658855D02*
X17409524Y-15858855D01*
X17409524Y-15858855D02*
X17714286Y-15858855D01*
X17714286Y-15858855D02*
X17790476Y-15896950D01*
X17790476Y-15896950D02*
X17828571Y-15935045D01*
X17828571Y-15935045D02*
X17866667Y-16011236D01*
X17866667Y-16011236D02*
X17866667Y-16125521D01*
X17866667Y-16125521D02*
X17828571Y-16201712D01*
X17828571Y-16201712D02*
X17790476Y-16239807D01*
X17790476Y-16239807D02*
X17714286Y-16277902D01*
X17714286Y-16277902D02*
X17409524Y-16277902D01*
X18133333Y-15858855D02*
X18628571Y-15858855D01*
X18628571Y-15858855D02*
X18361905Y-16163617D01*
X18361905Y-16163617D02*
X18476190Y-16163617D01*
X18476190Y-16163617D02*
X18552381Y-16201712D01*
X18552381Y-16201712D02*
X18590476Y-16239807D01*
X18590476Y-16239807D02*
X18628571Y-16315998D01*
X18628571Y-16315998D02*
X18628571Y-16506474D01*
X18628571Y-16506474D02*
X18590476Y-16582664D01*
X18590476Y-16582664D02*
X18552381Y-16620760D01*
X18552381Y-16620760D02*
X18476190Y-16658855D01*
X18476190Y-16658855D02*
X18247619Y-16658855D01*
X18247619Y-16658855D02*
X18171428Y-16620760D01*
X18171428Y-16620760D02*
X18133333Y-16582664D01*
X27604762Y-23118855D02*
X27338095Y-22737902D01*
X27147619Y-23118855D02*
X27147619Y-22318855D01*
X27147619Y-22318855D02*
X27452381Y-22318855D01*
X27452381Y-22318855D02*
X27528571Y-22356950D01*
X27528571Y-22356950D02*
X27566666Y-22395045D01*
X27566666Y-22395045D02*
X27604762Y-22471236D01*
X27604762Y-22471236D02*
X27604762Y-22585521D01*
X27604762Y-22585521D02*
X27566666Y-22661712D01*
X27566666Y-22661712D02*
X27528571Y-22699807D01*
X27528571Y-22699807D02*
X27452381Y-22737902D01*
X27452381Y-22737902D02*
X27147619Y-22737902D01*
X27871428Y-22318855D02*
X28366666Y-22318855D01*
X28366666Y-22318855D02*
X28100000Y-22623617D01*
X28100000Y-22623617D02*
X28214285Y-22623617D01*
X28214285Y-22623617D02*
X28290476Y-22661712D01*
X28290476Y-22661712D02*
X28328571Y-22699807D01*
X28328571Y-22699807D02*
X28366666Y-22775998D01*
X28366666Y-22775998D02*
X28366666Y-22966474D01*
X28366666Y-22966474D02*
X28328571Y-23042664D01*
X28328571Y-23042664D02*
X28290476Y-23080760D01*
X28290476Y-23080760D02*
X28214285Y-23118855D01*
X28214285Y-23118855D02*
X27985714Y-23118855D01*
X27985714Y-23118855D02*
X27909523Y-23080760D01*
X27909523Y-23080760D02*
X27871428Y-23042664D01*
X28861905Y-22318855D02*
X28938095Y-22318855D01*
X28938095Y-22318855D02*
X29014286Y-22356950D01*
X29014286Y-22356950D02*
X29052381Y-22395045D01*
X29052381Y-22395045D02*
X29090476Y-22471236D01*
X29090476Y-22471236D02*
X29128571Y-22623617D01*
X29128571Y-22623617D02*
X29128571Y-22814093D01*
X29128571Y-22814093D02*
X29090476Y-22966474D01*
X29090476Y-22966474D02*
X29052381Y-23042664D01*
X29052381Y-23042664D02*
X29014286Y-23080760D01*
X29014286Y-23080760D02*
X28938095Y-23118855D01*
X28938095Y-23118855D02*
X28861905Y-23118855D01*
X28861905Y-23118855D02*
X28785714Y-23080760D01*
X28785714Y-23080760D02*
X28747619Y-23042664D01*
X28747619Y-23042664D02*
X28709524Y-22966474D01*
X28709524Y-22966474D02*
X28671428Y-22814093D01*
X28671428Y-22814093D02*
X28671428Y-22623617D01*
X28671428Y-22623617D02*
X28709524Y-22471236D01*
X28709524Y-22471236D02*
X28747619Y-22395045D01*
X28747619Y-22395045D02*
X28785714Y-22356950D01*
X28785714Y-22356950D02*
X28861905Y-22318855D01*
X29814286Y-22585521D02*
X29814286Y-23118855D01*
X29623810Y-22280760D02*
X29433333Y-22852188D01*
X29433333Y-22852188D02*
X29928572Y-22852188D01*
X31104762Y-34732664D02*
X31066666Y-34770760D01*
X31066666Y-34770760D02*
X30952381Y-34808855D01*
X30952381Y-34808855D02*
X30876190Y-34808855D01*
X30876190Y-34808855D02*
X30761904Y-34770760D01*
X30761904Y-34770760D02*
X30685714Y-34694569D01*
X30685714Y-34694569D02*
X30647619Y-34618379D01*
X30647619Y-34618379D02*
X30609523Y-34465998D01*
X30609523Y-34465998D02*
X30609523Y-34351712D01*
X30609523Y-34351712D02*
X30647619Y-34199331D01*
X30647619Y-34199331D02*
X30685714Y-34123140D01*
X30685714Y-34123140D02*
X30761904Y-34046950D01*
X30761904Y-34046950D02*
X30876190Y-34008855D01*
X30876190Y-34008855D02*
X30952381Y-34008855D01*
X30952381Y-34008855D02*
X31066666Y-34046950D01*
X31066666Y-34046950D02*
X31104762Y-34085045D01*
X31409523Y-34085045D02*
X31447619Y-34046950D01*
X31447619Y-34046950D02*
X31523809Y-34008855D01*
X31523809Y-34008855D02*
X31714285Y-34008855D01*
X31714285Y-34008855D02*
X31790476Y-34046950D01*
X31790476Y-34046950D02*
X31828571Y-34085045D01*
X31828571Y-34085045D02*
X31866666Y-34161236D01*
X31866666Y-34161236D02*
X31866666Y-34237426D01*
X31866666Y-34237426D02*
X31828571Y-34351712D01*
X31828571Y-34351712D02*
X31371428Y-34808855D01*
X31371428Y-34808855D02*
X31866666Y-34808855D01*
X32361905Y-34008855D02*
X32438095Y-34008855D01*
X32438095Y-34008855D02*
X32514286Y-34046950D01*
X32514286Y-34046950D02*
X32552381Y-34085045D01*
X32552381Y-34085045D02*
X32590476Y-34161236D01*
X32590476Y-34161236D02*
X32628571Y-34313617D01*
X32628571Y-34313617D02*
X32628571Y-34504093D01*
X32628571Y-34504093D02*
X32590476Y-34656474D01*
X32590476Y-34656474D02*
X32552381Y-34732664D01*
X32552381Y-34732664D02*
X32514286Y-34770760D01*
X32514286Y-34770760D02*
X32438095Y-34808855D01*
X32438095Y-34808855D02*
X32361905Y-34808855D01*
X32361905Y-34808855D02*
X32285714Y-34770760D01*
X32285714Y-34770760D02*
X32247619Y-34732664D01*
X32247619Y-34732664D02*
X32209524Y-34656474D01*
X32209524Y-34656474D02*
X32171428Y-34504093D01*
X32171428Y-34504093D02*
X32171428Y-34313617D01*
X32171428Y-34313617D02*
X32209524Y-34161236D01*
X32209524Y-34161236D02*
X32247619Y-34085045D01*
X32247619Y-34085045D02*
X32285714Y-34046950D01*
X32285714Y-34046950D02*
X32361905Y-34008855D01*
X33123810Y-34008855D02*
X33200000Y-34008855D01*
X33200000Y-34008855D02*
X33276191Y-34046950D01*
X33276191Y-34046950D02*
X33314286Y-34085045D01*
X33314286Y-34085045D02*
X33352381Y-34161236D01*
X33352381Y-34161236D02*
X33390476Y-34313617D01*
X33390476Y-34313617D02*
X33390476Y-34504093D01*
X33390476Y-34504093D02*
X33352381Y-34656474D01*
X33352381Y-34656474D02*
X33314286Y-34732664D01*
X33314286Y-34732664D02*
X33276191Y-34770760D01*
X33276191Y-34770760D02*
X33200000Y-34808855D01*
X33200000Y-34808855D02*
X33123810Y-34808855D01*
X33123810Y-34808855D02*
X33047619Y-34770760D01*
X33047619Y-34770760D02*
X33009524Y-34732664D01*
X33009524Y-34732664D02*
X32971429Y-34656474D01*
X32971429Y-34656474D02*
X32933333Y-34504093D01*
X32933333Y-34504093D02*
X32933333Y-34313617D01*
X32933333Y-34313617D02*
X32971429Y-34161236D01*
X32971429Y-34161236D02*
X33009524Y-34085045D01*
X33009524Y-34085045D02*
X33047619Y-34046950D01*
X33047619Y-34046950D02*
X33123810Y-34008855D01*
X11066667Y-31318854D02*
X10800000Y-30937901D01*
X10609524Y-31318854D02*
X10609524Y-30518854D01*
X10609524Y-30518854D02*
X10914286Y-30518854D01*
X10914286Y-30518854D02*
X10990476Y-30556949D01*
X10990476Y-30556949D02*
X11028571Y-30595044D01*
X11028571Y-30595044D02*
X11066667Y-30671235D01*
X11066667Y-30671235D02*
X11066667Y-30785520D01*
X11066667Y-30785520D02*
X11028571Y-30861711D01*
X11028571Y-30861711D02*
X10990476Y-30899806D01*
X10990476Y-30899806D02*
X10914286Y-30937901D01*
X10914286Y-30937901D02*
X10609524Y-30937901D01*
X11790476Y-30518854D02*
X11409524Y-30518854D01*
X11409524Y-30518854D02*
X11371428Y-30899806D01*
X11371428Y-30899806D02*
X11409524Y-30861711D01*
X11409524Y-30861711D02*
X11485714Y-30823616D01*
X11485714Y-30823616D02*
X11676190Y-30823616D01*
X11676190Y-30823616D02*
X11752381Y-30861711D01*
X11752381Y-30861711D02*
X11790476Y-30899806D01*
X11790476Y-30899806D02*
X11828571Y-30975997D01*
X11828571Y-30975997D02*
X11828571Y-31166473D01*
X11828571Y-31166473D02*
X11790476Y-31242663D01*
X11790476Y-31242663D02*
X11752381Y-31280759D01*
X11752381Y-31280759D02*
X11676190Y-31318854D01*
X11676190Y-31318854D02*
X11485714Y-31318854D01*
X11485714Y-31318854D02*
X11409524Y-31280759D01*
X11409524Y-31280759D02*
X11371428Y-31242663D01*
X34609762Y-45363855D02*
X34343095Y-44982902D01*
X34152619Y-45363855D02*
X34152619Y-44563855D01*
X34152619Y-44563855D02*
X34457381Y-44563855D01*
X34457381Y-44563855D02*
X34533571Y-44601950D01*
X34533571Y-44601950D02*
X34571666Y-44640045D01*
X34571666Y-44640045D02*
X34609762Y-44716236D01*
X34609762Y-44716236D02*
X34609762Y-44830521D01*
X34609762Y-44830521D02*
X34571666Y-44906712D01*
X34571666Y-44906712D02*
X34533571Y-44944807D01*
X34533571Y-44944807D02*
X34457381Y-44982902D01*
X34457381Y-44982902D02*
X34152619Y-44982902D01*
X34914523Y-44640045D02*
X34952619Y-44601950D01*
X34952619Y-44601950D02*
X35028809Y-44563855D01*
X35028809Y-44563855D02*
X35219285Y-44563855D01*
X35219285Y-44563855D02*
X35295476Y-44601950D01*
X35295476Y-44601950D02*
X35333571Y-44640045D01*
X35333571Y-44640045D02*
X35371666Y-44716236D01*
X35371666Y-44716236D02*
X35371666Y-44792426D01*
X35371666Y-44792426D02*
X35333571Y-44906712D01*
X35333571Y-44906712D02*
X34876428Y-45363855D01*
X34876428Y-45363855D02*
X35371666Y-45363855D01*
X35866905Y-44563855D02*
X35943095Y-44563855D01*
X35943095Y-44563855D02*
X36019286Y-44601950D01*
X36019286Y-44601950D02*
X36057381Y-44640045D01*
X36057381Y-44640045D02*
X36095476Y-44716236D01*
X36095476Y-44716236D02*
X36133571Y-44868617D01*
X36133571Y-44868617D02*
X36133571Y-45059093D01*
X36133571Y-45059093D02*
X36095476Y-45211474D01*
X36095476Y-45211474D02*
X36057381Y-45287664D01*
X36057381Y-45287664D02*
X36019286Y-45325760D01*
X36019286Y-45325760D02*
X35943095Y-45363855D01*
X35943095Y-45363855D02*
X35866905Y-45363855D01*
X35866905Y-45363855D02*
X35790714Y-45325760D01*
X35790714Y-45325760D02*
X35752619Y-45287664D01*
X35752619Y-45287664D02*
X35714524Y-45211474D01*
X35714524Y-45211474D02*
X35676428Y-45059093D01*
X35676428Y-45059093D02*
X35676428Y-44868617D01*
X35676428Y-44868617D02*
X35714524Y-44716236D01*
X35714524Y-44716236D02*
X35752619Y-44640045D01*
X35752619Y-44640045D02*
X35790714Y-44601950D01*
X35790714Y-44601950D02*
X35866905Y-44563855D01*
X36438333Y-44640045D02*
X36476429Y-44601950D01*
X36476429Y-44601950D02*
X36552619Y-44563855D01*
X36552619Y-44563855D02*
X36743095Y-44563855D01*
X36743095Y-44563855D02*
X36819286Y-44601950D01*
X36819286Y-44601950D02*
X36857381Y-44640045D01*
X36857381Y-44640045D02*
X36895476Y-44716236D01*
X36895476Y-44716236D02*
X36895476Y-44792426D01*
X36895476Y-44792426D02*
X36857381Y-44906712D01*
X36857381Y-44906712D02*
X36400238Y-45363855D01*
X36400238Y-45363855D02*
X36895476Y-45363855D01*
X47947619Y-27288855D02*
X47947619Y-26488855D01*
X47947619Y-26488855D02*
X48138095Y-26488855D01*
X48138095Y-26488855D02*
X48252381Y-26526950D01*
X48252381Y-26526950D02*
X48328571Y-26603140D01*
X48328571Y-26603140D02*
X48366666Y-26679331D01*
X48366666Y-26679331D02*
X48404762Y-26831712D01*
X48404762Y-26831712D02*
X48404762Y-26945998D01*
X48404762Y-26945998D02*
X48366666Y-27098379D01*
X48366666Y-27098379D02*
X48328571Y-27174569D01*
X48328571Y-27174569D02*
X48252381Y-27250760D01*
X48252381Y-27250760D02*
X48138095Y-27288855D01*
X48138095Y-27288855D02*
X47947619Y-27288855D01*
X49166666Y-27288855D02*
X48709523Y-27288855D01*
X48938095Y-27288855D02*
X48938095Y-26488855D01*
X48938095Y-26488855D02*
X48861904Y-26603140D01*
X48861904Y-26603140D02*
X48785714Y-26679331D01*
X48785714Y-26679331D02*
X48709523Y-26717426D01*
X49661905Y-26488855D02*
X49738095Y-26488855D01*
X49738095Y-26488855D02*
X49814286Y-26526950D01*
X49814286Y-26526950D02*
X49852381Y-26565045D01*
X49852381Y-26565045D02*
X49890476Y-26641236D01*
X49890476Y-26641236D02*
X49928571Y-26793617D01*
X49928571Y-26793617D02*
X49928571Y-26984093D01*
X49928571Y-26984093D02*
X49890476Y-27136474D01*
X49890476Y-27136474D02*
X49852381Y-27212664D01*
X49852381Y-27212664D02*
X49814286Y-27250760D01*
X49814286Y-27250760D02*
X49738095Y-27288855D01*
X49738095Y-27288855D02*
X49661905Y-27288855D01*
X49661905Y-27288855D02*
X49585714Y-27250760D01*
X49585714Y-27250760D02*
X49547619Y-27212664D01*
X49547619Y-27212664D02*
X49509524Y-27136474D01*
X49509524Y-27136474D02*
X49471428Y-26984093D01*
X49471428Y-26984093D02*
X49471428Y-26793617D01*
X49471428Y-26793617D02*
X49509524Y-26641236D01*
X49509524Y-26641236D02*
X49547619Y-26565045D01*
X49547619Y-26565045D02*
X49585714Y-26526950D01*
X49585714Y-26526950D02*
X49661905Y-26488855D01*
X50423810Y-26488855D02*
X50500000Y-26488855D01*
X50500000Y-26488855D02*
X50576191Y-26526950D01*
X50576191Y-26526950D02*
X50614286Y-26565045D01*
X50614286Y-26565045D02*
X50652381Y-26641236D01*
X50652381Y-26641236D02*
X50690476Y-26793617D01*
X50690476Y-26793617D02*
X50690476Y-26984093D01*
X50690476Y-26984093D02*
X50652381Y-27136474D01*
X50652381Y-27136474D02*
X50614286Y-27212664D01*
X50614286Y-27212664D02*
X50576191Y-27250760D01*
X50576191Y-27250760D02*
X50500000Y-27288855D01*
X50500000Y-27288855D02*
X50423810Y-27288855D01*
X50423810Y-27288855D02*
X50347619Y-27250760D01*
X50347619Y-27250760D02*
X50309524Y-27212664D01*
X50309524Y-27212664D02*
X50271429Y-27136474D01*
X50271429Y-27136474D02*
X50233333Y-26984093D01*
X50233333Y-26984093D02*
X50233333Y-26793617D01*
X50233333Y-26793617D02*
X50271429Y-26641236D01*
X50271429Y-26641236D02*
X50309524Y-26565045D01*
X50309524Y-26565045D02*
X50347619Y-26526950D01*
X50347619Y-26526950D02*
X50423810Y-26488855D01*
X17104762Y-44992663D02*
X17066666Y-45030759D01*
X17066666Y-45030759D02*
X16952381Y-45068854D01*
X16952381Y-45068854D02*
X16876190Y-45068854D01*
X16876190Y-45068854D02*
X16761904Y-45030759D01*
X16761904Y-45030759D02*
X16685714Y-44954568D01*
X16685714Y-44954568D02*
X16647619Y-44878378D01*
X16647619Y-44878378D02*
X16609523Y-44725997D01*
X16609523Y-44725997D02*
X16609523Y-44611711D01*
X16609523Y-44611711D02*
X16647619Y-44459330D01*
X16647619Y-44459330D02*
X16685714Y-44383139D01*
X16685714Y-44383139D02*
X16761904Y-44306949D01*
X16761904Y-44306949D02*
X16876190Y-44268854D01*
X16876190Y-44268854D02*
X16952381Y-44268854D01*
X16952381Y-44268854D02*
X17066666Y-44306949D01*
X17066666Y-44306949D02*
X17104762Y-44345044D01*
X17371428Y-44268854D02*
X17866666Y-44268854D01*
X17866666Y-44268854D02*
X17600000Y-44573616D01*
X17600000Y-44573616D02*
X17714285Y-44573616D01*
X17714285Y-44573616D02*
X17790476Y-44611711D01*
X17790476Y-44611711D02*
X17828571Y-44649806D01*
X17828571Y-44649806D02*
X17866666Y-44725997D01*
X17866666Y-44725997D02*
X17866666Y-44916473D01*
X17866666Y-44916473D02*
X17828571Y-44992663D01*
X17828571Y-44992663D02*
X17790476Y-45030759D01*
X17790476Y-45030759D02*
X17714285Y-45068854D01*
X17714285Y-45068854D02*
X17485714Y-45068854D01*
X17485714Y-45068854D02*
X17409523Y-45030759D01*
X17409523Y-45030759D02*
X17371428Y-44992663D01*
X18361905Y-44268854D02*
X18438095Y-44268854D01*
X18438095Y-44268854D02*
X18514286Y-44306949D01*
X18514286Y-44306949D02*
X18552381Y-44345044D01*
X18552381Y-44345044D02*
X18590476Y-44421235D01*
X18590476Y-44421235D02*
X18628571Y-44573616D01*
X18628571Y-44573616D02*
X18628571Y-44764092D01*
X18628571Y-44764092D02*
X18590476Y-44916473D01*
X18590476Y-44916473D02*
X18552381Y-44992663D01*
X18552381Y-44992663D02*
X18514286Y-45030759D01*
X18514286Y-45030759D02*
X18438095Y-45068854D01*
X18438095Y-45068854D02*
X18361905Y-45068854D01*
X18361905Y-45068854D02*
X18285714Y-45030759D01*
X18285714Y-45030759D02*
X18247619Y-44992663D01*
X18247619Y-44992663D02*
X18209524Y-44916473D01*
X18209524Y-44916473D02*
X18171428Y-44764092D01*
X18171428Y-44764092D02*
X18171428Y-44573616D01*
X18171428Y-44573616D02*
X18209524Y-44421235D01*
X18209524Y-44421235D02*
X18247619Y-44345044D01*
X18247619Y-44345044D02*
X18285714Y-44306949D01*
X18285714Y-44306949D02*
X18361905Y-44268854D01*
X19123810Y-44268854D02*
X19200000Y-44268854D01*
X19200000Y-44268854D02*
X19276191Y-44306949D01*
X19276191Y-44306949D02*
X19314286Y-44345044D01*
X19314286Y-44345044D02*
X19352381Y-44421235D01*
X19352381Y-44421235D02*
X19390476Y-44573616D01*
X19390476Y-44573616D02*
X19390476Y-44764092D01*
X19390476Y-44764092D02*
X19352381Y-44916473D01*
X19352381Y-44916473D02*
X19314286Y-44992663D01*
X19314286Y-44992663D02*
X19276191Y-45030759D01*
X19276191Y-45030759D02*
X19200000Y-45068854D01*
X19200000Y-45068854D02*
X19123810Y-45068854D01*
X19123810Y-45068854D02*
X19047619Y-45030759D01*
X19047619Y-45030759D02*
X19009524Y-44992663D01*
X19009524Y-44992663D02*
X18971429Y-44916473D01*
X18971429Y-44916473D02*
X18933333Y-44764092D01*
X18933333Y-44764092D02*
X18933333Y-44573616D01*
X18933333Y-44573616D02*
X18971429Y-44421235D01*
X18971429Y-44421235D02*
X19009524Y-44345044D01*
X19009524Y-44345044D02*
X19047619Y-44306949D01*
X19047619Y-44306949D02*
X19123810Y-44268854D01*
X26609762Y-28363855D02*
X26343095Y-27982902D01*
X26152619Y-28363855D02*
X26152619Y-27563855D01*
X26152619Y-27563855D02*
X26457381Y-27563855D01*
X26457381Y-27563855D02*
X26533571Y-27601950D01*
X26533571Y-27601950D02*
X26571666Y-27640045D01*
X26571666Y-27640045D02*
X26609762Y-27716236D01*
X26609762Y-27716236D02*
X26609762Y-27830521D01*
X26609762Y-27830521D02*
X26571666Y-27906712D01*
X26571666Y-27906712D02*
X26533571Y-27944807D01*
X26533571Y-27944807D02*
X26457381Y-27982902D01*
X26457381Y-27982902D02*
X26152619Y-27982902D01*
X26876428Y-27563855D02*
X27371666Y-27563855D01*
X27371666Y-27563855D02*
X27105000Y-27868617D01*
X27105000Y-27868617D02*
X27219285Y-27868617D01*
X27219285Y-27868617D02*
X27295476Y-27906712D01*
X27295476Y-27906712D02*
X27333571Y-27944807D01*
X27333571Y-27944807D02*
X27371666Y-28020998D01*
X27371666Y-28020998D02*
X27371666Y-28211474D01*
X27371666Y-28211474D02*
X27333571Y-28287664D01*
X27333571Y-28287664D02*
X27295476Y-28325760D01*
X27295476Y-28325760D02*
X27219285Y-28363855D01*
X27219285Y-28363855D02*
X26990714Y-28363855D01*
X26990714Y-28363855D02*
X26914523Y-28325760D01*
X26914523Y-28325760D02*
X26876428Y-28287664D01*
X27866905Y-27563855D02*
X27943095Y-27563855D01*
X27943095Y-27563855D02*
X28019286Y-27601950D01*
X28019286Y-27601950D02*
X28057381Y-27640045D01*
X28057381Y-27640045D02*
X28095476Y-27716236D01*
X28095476Y-27716236D02*
X28133571Y-27868617D01*
X28133571Y-27868617D02*
X28133571Y-28059093D01*
X28133571Y-28059093D02*
X28095476Y-28211474D01*
X28095476Y-28211474D02*
X28057381Y-28287664D01*
X28057381Y-28287664D02*
X28019286Y-28325760D01*
X28019286Y-28325760D02*
X27943095Y-28363855D01*
X27943095Y-28363855D02*
X27866905Y-28363855D01*
X27866905Y-28363855D02*
X27790714Y-28325760D01*
X27790714Y-28325760D02*
X27752619Y-28287664D01*
X27752619Y-28287664D02*
X27714524Y-28211474D01*
X27714524Y-28211474D02*
X27676428Y-28059093D01*
X27676428Y-28059093D02*
X27676428Y-27868617D01*
X27676428Y-27868617D02*
X27714524Y-27716236D01*
X27714524Y-27716236D02*
X27752619Y-27640045D01*
X27752619Y-27640045D02*
X27790714Y-27601950D01*
X27790714Y-27601950D02*
X27866905Y-27563855D01*
X28400238Y-27563855D02*
X28895476Y-27563855D01*
X28895476Y-27563855D02*
X28628810Y-27868617D01*
X28628810Y-27868617D02*
X28743095Y-27868617D01*
X28743095Y-27868617D02*
X28819286Y-27906712D01*
X28819286Y-27906712D02*
X28857381Y-27944807D01*
X28857381Y-27944807D02*
X28895476Y-28020998D01*
X28895476Y-28020998D02*
X28895476Y-28211474D01*
X28895476Y-28211474D02*
X28857381Y-28287664D01*
X28857381Y-28287664D02*
X28819286Y-28325760D01*
X28819286Y-28325760D02*
X28743095Y-28363855D01*
X28743095Y-28363855D02*
X28514524Y-28363855D01*
X28514524Y-28363855D02*
X28438333Y-28325760D01*
X28438333Y-28325760D02*
X28400238Y-28287664D01*
X30109762Y-28363855D02*
X29843095Y-27982902D01*
X29652619Y-28363855D02*
X29652619Y-27563855D01*
X29652619Y-27563855D02*
X29957381Y-27563855D01*
X29957381Y-27563855D02*
X30033571Y-27601950D01*
X30033571Y-27601950D02*
X30071666Y-27640045D01*
X30071666Y-27640045D02*
X30109762Y-27716236D01*
X30109762Y-27716236D02*
X30109762Y-27830521D01*
X30109762Y-27830521D02*
X30071666Y-27906712D01*
X30071666Y-27906712D02*
X30033571Y-27944807D01*
X30033571Y-27944807D02*
X29957381Y-27982902D01*
X29957381Y-27982902D02*
X29652619Y-27982902D01*
X30376428Y-27563855D02*
X30871666Y-27563855D01*
X30871666Y-27563855D02*
X30605000Y-27868617D01*
X30605000Y-27868617D02*
X30719285Y-27868617D01*
X30719285Y-27868617D02*
X30795476Y-27906712D01*
X30795476Y-27906712D02*
X30833571Y-27944807D01*
X30833571Y-27944807D02*
X30871666Y-28020998D01*
X30871666Y-28020998D02*
X30871666Y-28211474D01*
X30871666Y-28211474D02*
X30833571Y-28287664D01*
X30833571Y-28287664D02*
X30795476Y-28325760D01*
X30795476Y-28325760D02*
X30719285Y-28363855D01*
X30719285Y-28363855D02*
X30490714Y-28363855D01*
X30490714Y-28363855D02*
X30414523Y-28325760D01*
X30414523Y-28325760D02*
X30376428Y-28287664D01*
X31366905Y-27563855D02*
X31443095Y-27563855D01*
X31443095Y-27563855D02*
X31519286Y-27601950D01*
X31519286Y-27601950D02*
X31557381Y-27640045D01*
X31557381Y-27640045D02*
X31595476Y-27716236D01*
X31595476Y-27716236D02*
X31633571Y-27868617D01*
X31633571Y-27868617D02*
X31633571Y-28059093D01*
X31633571Y-28059093D02*
X31595476Y-28211474D01*
X31595476Y-28211474D02*
X31557381Y-28287664D01*
X31557381Y-28287664D02*
X31519286Y-28325760D01*
X31519286Y-28325760D02*
X31443095Y-28363855D01*
X31443095Y-28363855D02*
X31366905Y-28363855D01*
X31366905Y-28363855D02*
X31290714Y-28325760D01*
X31290714Y-28325760D02*
X31252619Y-28287664D01*
X31252619Y-28287664D02*
X31214524Y-28211474D01*
X31214524Y-28211474D02*
X31176428Y-28059093D01*
X31176428Y-28059093D02*
X31176428Y-27868617D01*
X31176428Y-27868617D02*
X31214524Y-27716236D01*
X31214524Y-27716236D02*
X31252619Y-27640045D01*
X31252619Y-27640045D02*
X31290714Y-27601950D01*
X31290714Y-27601950D02*
X31366905Y-27563855D01*
X32357381Y-27563855D02*
X31976429Y-27563855D01*
X31976429Y-27563855D02*
X31938333Y-27944807D01*
X31938333Y-27944807D02*
X31976429Y-27906712D01*
X31976429Y-27906712D02*
X32052619Y-27868617D01*
X32052619Y-27868617D02*
X32243095Y-27868617D01*
X32243095Y-27868617D02*
X32319286Y-27906712D01*
X32319286Y-27906712D02*
X32357381Y-27944807D01*
X32357381Y-27944807D02*
X32395476Y-28020998D01*
X32395476Y-28020998D02*
X32395476Y-28211474D01*
X32395476Y-28211474D02*
X32357381Y-28287664D01*
X32357381Y-28287664D02*
X32319286Y-28325760D01*
X32319286Y-28325760D02*
X32243095Y-28363855D01*
X32243095Y-28363855D02*
X32052619Y-28363855D01*
X32052619Y-28363855D02*
X31976429Y-28325760D01*
X31976429Y-28325760D02*
X31938333Y-28287664D01*
X47947619Y-32938855D02*
X47947619Y-32138855D01*
X47947619Y-32138855D02*
X48138095Y-32138855D01*
X48138095Y-32138855D02*
X48252381Y-32176950D01*
X48252381Y-32176950D02*
X48328571Y-32253140D01*
X48328571Y-32253140D02*
X48366666Y-32329331D01*
X48366666Y-32329331D02*
X48404762Y-32481712D01*
X48404762Y-32481712D02*
X48404762Y-32595998D01*
X48404762Y-32595998D02*
X48366666Y-32748379D01*
X48366666Y-32748379D02*
X48328571Y-32824569D01*
X48328571Y-32824569D02*
X48252381Y-32900760D01*
X48252381Y-32900760D02*
X48138095Y-32938855D01*
X48138095Y-32938855D02*
X47947619Y-32938855D01*
X48709523Y-32215045D02*
X48747619Y-32176950D01*
X48747619Y-32176950D02*
X48823809Y-32138855D01*
X48823809Y-32138855D02*
X49014285Y-32138855D01*
X49014285Y-32138855D02*
X49090476Y-32176950D01*
X49090476Y-32176950D02*
X49128571Y-32215045D01*
X49128571Y-32215045D02*
X49166666Y-32291236D01*
X49166666Y-32291236D02*
X49166666Y-32367426D01*
X49166666Y-32367426D02*
X49128571Y-32481712D01*
X49128571Y-32481712D02*
X48671428Y-32938855D01*
X48671428Y-32938855D02*
X49166666Y-32938855D01*
X49661905Y-32138855D02*
X49738095Y-32138855D01*
X49738095Y-32138855D02*
X49814286Y-32176950D01*
X49814286Y-32176950D02*
X49852381Y-32215045D01*
X49852381Y-32215045D02*
X49890476Y-32291236D01*
X49890476Y-32291236D02*
X49928571Y-32443617D01*
X49928571Y-32443617D02*
X49928571Y-32634093D01*
X49928571Y-32634093D02*
X49890476Y-32786474D01*
X49890476Y-32786474D02*
X49852381Y-32862664D01*
X49852381Y-32862664D02*
X49814286Y-32900760D01*
X49814286Y-32900760D02*
X49738095Y-32938855D01*
X49738095Y-32938855D02*
X49661905Y-32938855D01*
X49661905Y-32938855D02*
X49585714Y-32900760D01*
X49585714Y-32900760D02*
X49547619Y-32862664D01*
X49547619Y-32862664D02*
X49509524Y-32786474D01*
X49509524Y-32786474D02*
X49471428Y-32634093D01*
X49471428Y-32634093D02*
X49471428Y-32443617D01*
X49471428Y-32443617D02*
X49509524Y-32291236D01*
X49509524Y-32291236D02*
X49547619Y-32215045D01*
X49547619Y-32215045D02*
X49585714Y-32176950D01*
X49585714Y-32176950D02*
X49661905Y-32138855D01*
X50690476Y-32938855D02*
X50233333Y-32938855D01*
X50461905Y-32938855D02*
X50461905Y-32138855D01*
X50461905Y-32138855D02*
X50385714Y-32253140D01*
X50385714Y-32253140D02*
X50309524Y-32329331D01*
X50309524Y-32329331D02*
X50233333Y-32367426D01*
X19866667Y-17258855D02*
X19600000Y-16877902D01*
X19409524Y-17258855D02*
X19409524Y-16458855D01*
X19409524Y-16458855D02*
X19714286Y-16458855D01*
X19714286Y-16458855D02*
X19790476Y-16496950D01*
X19790476Y-16496950D02*
X19828571Y-16535045D01*
X19828571Y-16535045D02*
X19866667Y-16611236D01*
X19866667Y-16611236D02*
X19866667Y-16725521D01*
X19866667Y-16725521D02*
X19828571Y-16801712D01*
X19828571Y-16801712D02*
X19790476Y-16839807D01*
X19790476Y-16839807D02*
X19714286Y-16877902D01*
X19714286Y-16877902D02*
X19409524Y-16877902D01*
X20323809Y-16801712D02*
X20247619Y-16763617D01*
X20247619Y-16763617D02*
X20209524Y-16725521D01*
X20209524Y-16725521D02*
X20171428Y-16649331D01*
X20171428Y-16649331D02*
X20171428Y-16611236D01*
X20171428Y-16611236D02*
X20209524Y-16535045D01*
X20209524Y-16535045D02*
X20247619Y-16496950D01*
X20247619Y-16496950D02*
X20323809Y-16458855D01*
X20323809Y-16458855D02*
X20476190Y-16458855D01*
X20476190Y-16458855D02*
X20552381Y-16496950D01*
X20552381Y-16496950D02*
X20590476Y-16535045D01*
X20590476Y-16535045D02*
X20628571Y-16611236D01*
X20628571Y-16611236D02*
X20628571Y-16649331D01*
X20628571Y-16649331D02*
X20590476Y-16725521D01*
X20590476Y-16725521D02*
X20552381Y-16763617D01*
X20552381Y-16763617D02*
X20476190Y-16801712D01*
X20476190Y-16801712D02*
X20323809Y-16801712D01*
X20323809Y-16801712D02*
X20247619Y-16839807D01*
X20247619Y-16839807D02*
X20209524Y-16877902D01*
X20209524Y-16877902D02*
X20171428Y-16954093D01*
X20171428Y-16954093D02*
X20171428Y-17106474D01*
X20171428Y-17106474D02*
X20209524Y-17182664D01*
X20209524Y-17182664D02*
X20247619Y-17220760D01*
X20247619Y-17220760D02*
X20323809Y-17258855D01*
X20323809Y-17258855D02*
X20476190Y-17258855D01*
X20476190Y-17258855D02*
X20552381Y-17220760D01*
X20552381Y-17220760D02*
X20590476Y-17182664D01*
X20590476Y-17182664D02*
X20628571Y-17106474D01*
X20628571Y-17106474D02*
X20628571Y-16954093D01*
X20628571Y-16954093D02*
X20590476Y-16877902D01*
X20590476Y-16877902D02*
X20552381Y-16839807D01*
X20552381Y-16839807D02*
X20476190Y-16801712D01*
X39628571Y-23488855D02*
X39628571Y-24136474D01*
X39628571Y-24136474D02*
X39666666Y-24212664D01*
X39666666Y-24212664D02*
X39704761Y-24250760D01*
X39704761Y-24250760D02*
X39780952Y-24288855D01*
X39780952Y-24288855D02*
X39933333Y-24288855D01*
X39933333Y-24288855D02*
X40009523Y-24250760D01*
X40009523Y-24250760D02*
X40047618Y-24212664D01*
X40047618Y-24212664D02*
X40085714Y-24136474D01*
X40085714Y-24136474D02*
X40085714Y-23488855D01*
X40885713Y-24288855D02*
X40428570Y-24288855D01*
X40657142Y-24288855D02*
X40657142Y-23488855D01*
X40657142Y-23488855D02*
X40580951Y-23603140D01*
X40580951Y-23603140D02*
X40504761Y-23679331D01*
X40504761Y-23679331D02*
X40428570Y-23717426D01*
X41380952Y-23488855D02*
X41457142Y-23488855D01*
X41457142Y-23488855D02*
X41533333Y-23526950D01*
X41533333Y-23526950D02*
X41571428Y-23565045D01*
X41571428Y-23565045D02*
X41609523Y-23641236D01*
X41609523Y-23641236D02*
X41647618Y-23793617D01*
X41647618Y-23793617D02*
X41647618Y-23984093D01*
X41647618Y-23984093D02*
X41609523Y-24136474D01*
X41609523Y-24136474D02*
X41571428Y-24212664D01*
X41571428Y-24212664D02*
X41533333Y-24250760D01*
X41533333Y-24250760D02*
X41457142Y-24288855D01*
X41457142Y-24288855D02*
X41380952Y-24288855D01*
X41380952Y-24288855D02*
X41304761Y-24250760D01*
X41304761Y-24250760D02*
X41266666Y-24212664D01*
X41266666Y-24212664D02*
X41228571Y-24136474D01*
X41228571Y-24136474D02*
X41190475Y-23984093D01*
X41190475Y-23984093D02*
X41190475Y-23793617D01*
X41190475Y-23793617D02*
X41228571Y-23641236D01*
X41228571Y-23641236D02*
X41266666Y-23565045D01*
X41266666Y-23565045D02*
X41304761Y-23526950D01*
X41304761Y-23526950D02*
X41380952Y-23488855D01*
X42409523Y-24288855D02*
X41952380Y-24288855D01*
X42180952Y-24288855D02*
X42180952Y-23488855D01*
X42180952Y-23488855D02*
X42104761Y-23603140D01*
X42104761Y-23603140D02*
X42028571Y-23679331D01*
X42028571Y-23679331D02*
X41952380Y-23717426D01*
X43904762Y-33808855D02*
X43638095Y-33427902D01*
X43447619Y-33808855D02*
X43447619Y-33008855D01*
X43447619Y-33008855D02*
X43752381Y-33008855D01*
X43752381Y-33008855D02*
X43828571Y-33046950D01*
X43828571Y-33046950D02*
X43866666Y-33085045D01*
X43866666Y-33085045D02*
X43904762Y-33161236D01*
X43904762Y-33161236D02*
X43904762Y-33275521D01*
X43904762Y-33275521D02*
X43866666Y-33351712D01*
X43866666Y-33351712D02*
X43828571Y-33389807D01*
X43828571Y-33389807D02*
X43752381Y-33427902D01*
X43752381Y-33427902D02*
X43447619Y-33427902D01*
X44209523Y-33085045D02*
X44247619Y-33046950D01*
X44247619Y-33046950D02*
X44323809Y-33008855D01*
X44323809Y-33008855D02*
X44514285Y-33008855D01*
X44514285Y-33008855D02*
X44590476Y-33046950D01*
X44590476Y-33046950D02*
X44628571Y-33085045D01*
X44628571Y-33085045D02*
X44666666Y-33161236D01*
X44666666Y-33161236D02*
X44666666Y-33237426D01*
X44666666Y-33237426D02*
X44628571Y-33351712D01*
X44628571Y-33351712D02*
X44171428Y-33808855D01*
X44171428Y-33808855D02*
X44666666Y-33808855D01*
X45161905Y-33008855D02*
X45238095Y-33008855D01*
X45238095Y-33008855D02*
X45314286Y-33046950D01*
X45314286Y-33046950D02*
X45352381Y-33085045D01*
X45352381Y-33085045D02*
X45390476Y-33161236D01*
X45390476Y-33161236D02*
X45428571Y-33313617D01*
X45428571Y-33313617D02*
X45428571Y-33504093D01*
X45428571Y-33504093D02*
X45390476Y-33656474D01*
X45390476Y-33656474D02*
X45352381Y-33732664D01*
X45352381Y-33732664D02*
X45314286Y-33770760D01*
X45314286Y-33770760D02*
X45238095Y-33808855D01*
X45238095Y-33808855D02*
X45161905Y-33808855D01*
X45161905Y-33808855D02*
X45085714Y-33770760D01*
X45085714Y-33770760D02*
X45047619Y-33732664D01*
X45047619Y-33732664D02*
X45009524Y-33656474D01*
X45009524Y-33656474D02*
X44971428Y-33504093D01*
X44971428Y-33504093D02*
X44971428Y-33313617D01*
X44971428Y-33313617D02*
X45009524Y-33161236D01*
X45009524Y-33161236D02*
X45047619Y-33085045D01*
X45047619Y-33085045D02*
X45085714Y-33046950D01*
X45085714Y-33046950D02*
X45161905Y-33008855D01*
X46114286Y-33008855D02*
X45961905Y-33008855D01*
X45961905Y-33008855D02*
X45885714Y-33046950D01*
X45885714Y-33046950D02*
X45847619Y-33085045D01*
X45847619Y-33085045D02*
X45771429Y-33199331D01*
X45771429Y-33199331D02*
X45733333Y-33351712D01*
X45733333Y-33351712D02*
X45733333Y-33656474D01*
X45733333Y-33656474D02*
X45771429Y-33732664D01*
X45771429Y-33732664D02*
X45809524Y-33770760D01*
X45809524Y-33770760D02*
X45885714Y-33808855D01*
X45885714Y-33808855D02*
X46038095Y-33808855D01*
X46038095Y-33808855D02*
X46114286Y-33770760D01*
X46114286Y-33770760D02*
X46152381Y-33732664D01*
X46152381Y-33732664D02*
X46190476Y-33656474D01*
X46190476Y-33656474D02*
X46190476Y-33465998D01*
X46190476Y-33465998D02*
X46152381Y-33389807D01*
X46152381Y-33389807D02*
X46114286Y-33351712D01*
X46114286Y-33351712D02*
X46038095Y-33313617D01*
X46038095Y-33313617D02*
X45885714Y-33313617D01*
X45885714Y-33313617D02*
X45809524Y-33351712D01*
X45809524Y-33351712D02*
X45771429Y-33389807D01*
X45771429Y-33389807D02*
X45733333Y-33465998D01*
X4215476Y-25563855D02*
X4215476Y-26211474D01*
X4215476Y-26211474D02*
X4253571Y-26287664D01*
X4253571Y-26287664D02*
X4291666Y-26325760D01*
X4291666Y-26325760D02*
X4367857Y-26363855D01*
X4367857Y-26363855D02*
X4520238Y-26363855D01*
X4520238Y-26363855D02*
X4596428Y-26325760D01*
X4596428Y-26325760D02*
X4634523Y-26287664D01*
X4634523Y-26287664D02*
X4672619Y-26211474D01*
X4672619Y-26211474D02*
X4672619Y-25563855D01*
X4977380Y-25563855D02*
X5472618Y-25563855D01*
X5472618Y-25563855D02*
X5205952Y-25868617D01*
X5205952Y-25868617D02*
X5320237Y-25868617D01*
X5320237Y-25868617D02*
X5396428Y-25906712D01*
X5396428Y-25906712D02*
X5434523Y-25944807D01*
X5434523Y-25944807D02*
X5472618Y-26020998D01*
X5472618Y-26020998D02*
X5472618Y-26211474D01*
X5472618Y-26211474D02*
X5434523Y-26287664D01*
X5434523Y-26287664D02*
X5396428Y-26325760D01*
X5396428Y-26325760D02*
X5320237Y-26363855D01*
X5320237Y-26363855D02*
X5091666Y-26363855D01*
X5091666Y-26363855D02*
X5015475Y-26325760D01*
X5015475Y-26325760D02*
X4977380Y-26287664D01*
X26390476Y-13038855D02*
X26390476Y-13686474D01*
X26390476Y-13686474D02*
X26428571Y-13762664D01*
X26428571Y-13762664D02*
X26466666Y-13800760D01*
X26466666Y-13800760D02*
X26542857Y-13838855D01*
X26542857Y-13838855D02*
X26695238Y-13838855D01*
X26695238Y-13838855D02*
X26771428Y-13800760D01*
X26771428Y-13800760D02*
X26809523Y-13762664D01*
X26809523Y-13762664D02*
X26847619Y-13686474D01*
X26847619Y-13686474D02*
X26847619Y-13038855D01*
X27647618Y-13838855D02*
X27190475Y-13838855D01*
X27419047Y-13838855D02*
X27419047Y-13038855D01*
X27419047Y-13038855D02*
X27342856Y-13153140D01*
X27342856Y-13153140D02*
X27266666Y-13229331D01*
X27266666Y-13229331D02*
X27190475Y-13267426D01*
X55533333Y-48788855D02*
X55533333Y-49360283D01*
X55533333Y-49360283D02*
X55495238Y-49474569D01*
X55495238Y-49474569D02*
X55419047Y-49550760D01*
X55419047Y-49550760D02*
X55304762Y-49588855D01*
X55304762Y-49588855D02*
X55228571Y-49588855D01*
X55838095Y-48788855D02*
X56333333Y-48788855D01*
X56333333Y-48788855D02*
X56066667Y-49093617D01*
X56066667Y-49093617D02*
X56180952Y-49093617D01*
X56180952Y-49093617D02*
X56257143Y-49131712D01*
X56257143Y-49131712D02*
X56295238Y-49169807D01*
X56295238Y-49169807D02*
X56333333Y-49245998D01*
X56333333Y-49245998D02*
X56333333Y-49436474D01*
X56333333Y-49436474D02*
X56295238Y-49512664D01*
X56295238Y-49512664D02*
X56257143Y-49550760D01*
X56257143Y-49550760D02*
X56180952Y-49588855D01*
X56180952Y-49588855D02*
X55952381Y-49588855D01*
X55952381Y-49588855D02*
X55876190Y-49550760D01*
X55876190Y-49550760D02*
X55838095Y-49512664D01*
X39228571Y-32088855D02*
X39685714Y-32088855D01*
X39457142Y-32888855D02*
X39457142Y-32088855D01*
X39952381Y-32888855D02*
X39952381Y-32088855D01*
X39952381Y-32088855D02*
X40257143Y-32088855D01*
X40257143Y-32088855D02*
X40333333Y-32126950D01*
X40333333Y-32126950D02*
X40371428Y-32165045D01*
X40371428Y-32165045D02*
X40409524Y-32241236D01*
X40409524Y-32241236D02*
X40409524Y-32355521D01*
X40409524Y-32355521D02*
X40371428Y-32431712D01*
X40371428Y-32431712D02*
X40333333Y-32469807D01*
X40333333Y-32469807D02*
X40257143Y-32507902D01*
X40257143Y-32507902D02*
X39952381Y-32507902D01*
X40714285Y-32165045D02*
X40752381Y-32126950D01*
X40752381Y-32126950D02*
X40828571Y-32088855D01*
X40828571Y-32088855D02*
X41019047Y-32088855D01*
X41019047Y-32088855D02*
X41095238Y-32126950D01*
X41095238Y-32126950D02*
X41133333Y-32165045D01*
X41133333Y-32165045D02*
X41171428Y-32241236D01*
X41171428Y-32241236D02*
X41171428Y-32317426D01*
X41171428Y-32317426D02*
X41133333Y-32431712D01*
X41133333Y-32431712D02*
X40676190Y-32888855D01*
X40676190Y-32888855D02*
X41171428Y-32888855D01*
X41666667Y-32088855D02*
X41742857Y-32088855D01*
X41742857Y-32088855D02*
X41819048Y-32126950D01*
X41819048Y-32126950D02*
X41857143Y-32165045D01*
X41857143Y-32165045D02*
X41895238Y-32241236D01*
X41895238Y-32241236D02*
X41933333Y-32393617D01*
X41933333Y-32393617D02*
X41933333Y-32584093D01*
X41933333Y-32584093D02*
X41895238Y-32736474D01*
X41895238Y-32736474D02*
X41857143Y-32812664D01*
X41857143Y-32812664D02*
X41819048Y-32850760D01*
X41819048Y-32850760D02*
X41742857Y-32888855D01*
X41742857Y-32888855D02*
X41666667Y-32888855D01*
X41666667Y-32888855D02*
X41590476Y-32850760D01*
X41590476Y-32850760D02*
X41552381Y-32812664D01*
X41552381Y-32812664D02*
X41514286Y-32736474D01*
X41514286Y-32736474D02*
X41476190Y-32584093D01*
X41476190Y-32584093D02*
X41476190Y-32393617D01*
X41476190Y-32393617D02*
X41514286Y-32241236D01*
X41514286Y-32241236D02*
X41552381Y-32165045D01*
X41552381Y-32165045D02*
X41590476Y-32126950D01*
X41590476Y-32126950D02*
X41666667Y-32088855D01*
X42428572Y-32088855D02*
X42504762Y-32088855D01*
X42504762Y-32088855D02*
X42580953Y-32126950D01*
X42580953Y-32126950D02*
X42619048Y-32165045D01*
X42619048Y-32165045D02*
X42657143Y-32241236D01*
X42657143Y-32241236D02*
X42695238Y-32393617D01*
X42695238Y-32393617D02*
X42695238Y-32584093D01*
X42695238Y-32584093D02*
X42657143Y-32736474D01*
X42657143Y-32736474D02*
X42619048Y-32812664D01*
X42619048Y-32812664D02*
X42580953Y-32850760D01*
X42580953Y-32850760D02*
X42504762Y-32888855D01*
X42504762Y-32888855D02*
X42428572Y-32888855D01*
X42428572Y-32888855D02*
X42352381Y-32850760D01*
X42352381Y-32850760D02*
X42314286Y-32812664D01*
X42314286Y-32812664D02*
X42276191Y-32736474D01*
X42276191Y-32736474D02*
X42238095Y-32584093D01*
X42238095Y-32584093D02*
X42238095Y-32393617D01*
X42238095Y-32393617D02*
X42276191Y-32241236D01*
X42276191Y-32241236D02*
X42314286Y-32165045D01*
X42314286Y-32165045D02*
X42352381Y-32126950D01*
X42352381Y-32126950D02*
X42428572Y-32088855D01*
X47947619Y-12938855D02*
X47947619Y-12138855D01*
X47947619Y-12138855D02*
X48138095Y-12138855D01*
X48138095Y-12138855D02*
X48252381Y-12176950D01*
X48252381Y-12176950D02*
X48328571Y-12253140D01*
X48328571Y-12253140D02*
X48366666Y-12329331D01*
X48366666Y-12329331D02*
X48404762Y-12481712D01*
X48404762Y-12481712D02*
X48404762Y-12595998D01*
X48404762Y-12595998D02*
X48366666Y-12748379D01*
X48366666Y-12748379D02*
X48328571Y-12824569D01*
X48328571Y-12824569D02*
X48252381Y-12900760D01*
X48252381Y-12900760D02*
X48138095Y-12938855D01*
X48138095Y-12938855D02*
X47947619Y-12938855D01*
X49166666Y-12938855D02*
X48709523Y-12938855D01*
X48938095Y-12938855D02*
X48938095Y-12138855D01*
X48938095Y-12138855D02*
X48861904Y-12253140D01*
X48861904Y-12253140D02*
X48785714Y-12329331D01*
X48785714Y-12329331D02*
X48709523Y-12367426D01*
X49661905Y-12138855D02*
X49738095Y-12138855D01*
X49738095Y-12138855D02*
X49814286Y-12176950D01*
X49814286Y-12176950D02*
X49852381Y-12215045D01*
X49852381Y-12215045D02*
X49890476Y-12291236D01*
X49890476Y-12291236D02*
X49928571Y-12443617D01*
X49928571Y-12443617D02*
X49928571Y-12634093D01*
X49928571Y-12634093D02*
X49890476Y-12786474D01*
X49890476Y-12786474D02*
X49852381Y-12862664D01*
X49852381Y-12862664D02*
X49814286Y-12900760D01*
X49814286Y-12900760D02*
X49738095Y-12938855D01*
X49738095Y-12938855D02*
X49661905Y-12938855D01*
X49661905Y-12938855D02*
X49585714Y-12900760D01*
X49585714Y-12900760D02*
X49547619Y-12862664D01*
X49547619Y-12862664D02*
X49509524Y-12786474D01*
X49509524Y-12786474D02*
X49471428Y-12634093D01*
X49471428Y-12634093D02*
X49471428Y-12443617D01*
X49471428Y-12443617D02*
X49509524Y-12291236D01*
X49509524Y-12291236D02*
X49547619Y-12215045D01*
X49547619Y-12215045D02*
X49585714Y-12176950D01*
X49585714Y-12176950D02*
X49661905Y-12138855D01*
X50690476Y-12938855D02*
X50233333Y-12938855D01*
X50461905Y-12938855D02*
X50461905Y-12138855D01*
X50461905Y-12138855D02*
X50385714Y-12253140D01*
X50385714Y-12253140D02*
X50309524Y-12329331D01*
X50309524Y-12329331D02*
X50233333Y-12367426D01*
X35821666Y-9563855D02*
X35554999Y-9182902D01*
X35364523Y-9563855D02*
X35364523Y-8763855D01*
X35364523Y-8763855D02*
X35669285Y-8763855D01*
X35669285Y-8763855D02*
X35745475Y-8801950D01*
X35745475Y-8801950D02*
X35783570Y-8840045D01*
X35783570Y-8840045D02*
X35821666Y-8916236D01*
X35821666Y-8916236D02*
X35821666Y-9030521D01*
X35821666Y-9030521D02*
X35783570Y-9106712D01*
X35783570Y-9106712D02*
X35745475Y-9144807D01*
X35745475Y-9144807D02*
X35669285Y-9182902D01*
X35669285Y-9182902D02*
X35364523Y-9182902D01*
X36126427Y-8840045D02*
X36164523Y-8801950D01*
X36164523Y-8801950D02*
X36240713Y-8763855D01*
X36240713Y-8763855D02*
X36431189Y-8763855D01*
X36431189Y-8763855D02*
X36507380Y-8801950D01*
X36507380Y-8801950D02*
X36545475Y-8840045D01*
X36545475Y-8840045D02*
X36583570Y-8916236D01*
X36583570Y-8916236D02*
X36583570Y-8992426D01*
X36583570Y-8992426D02*
X36545475Y-9106712D01*
X36545475Y-9106712D02*
X36088332Y-9563855D01*
X36088332Y-9563855D02*
X36583570Y-9563855D01*
X25146428Y-51325760D02*
X25260714Y-51363855D01*
X25260714Y-51363855D02*
X25451190Y-51363855D01*
X25451190Y-51363855D02*
X25527381Y-51325760D01*
X25527381Y-51325760D02*
X25565476Y-51287664D01*
X25565476Y-51287664D02*
X25603571Y-51211474D01*
X25603571Y-51211474D02*
X25603571Y-51135283D01*
X25603571Y-51135283D02*
X25565476Y-51059093D01*
X25565476Y-51059093D02*
X25527381Y-51020998D01*
X25527381Y-51020998D02*
X25451190Y-50982902D01*
X25451190Y-50982902D02*
X25298809Y-50944807D01*
X25298809Y-50944807D02*
X25222619Y-50906712D01*
X25222619Y-50906712D02*
X25184524Y-50868617D01*
X25184524Y-50868617D02*
X25146428Y-50792426D01*
X25146428Y-50792426D02*
X25146428Y-50716236D01*
X25146428Y-50716236D02*
X25184524Y-50640045D01*
X25184524Y-50640045D02*
X25222619Y-50601950D01*
X25222619Y-50601950D02*
X25298809Y-50563855D01*
X25298809Y-50563855D02*
X25489286Y-50563855D01*
X25489286Y-50563855D02*
X25603571Y-50601950D01*
X25946429Y-51363855D02*
X25946429Y-50563855D01*
X25946429Y-50944807D02*
X26403572Y-50944807D01*
X26403572Y-51363855D02*
X26403572Y-50563855D01*
X27203571Y-51363855D02*
X26746428Y-51363855D01*
X26975000Y-51363855D02*
X26975000Y-50563855D01*
X26975000Y-50563855D02*
X26898809Y-50678140D01*
X26898809Y-50678140D02*
X26822619Y-50754331D01*
X26822619Y-50754331D02*
X26746428Y-50792426D01*
X39228571Y-12088854D02*
X39685714Y-12088854D01*
X39457142Y-12888854D02*
X39457142Y-12088854D01*
X39952381Y-12888854D02*
X39952381Y-12088854D01*
X39952381Y-12088854D02*
X40257143Y-12088854D01*
X40257143Y-12088854D02*
X40333333Y-12126949D01*
X40333333Y-12126949D02*
X40371428Y-12165044D01*
X40371428Y-12165044D02*
X40409524Y-12241235D01*
X40409524Y-12241235D02*
X40409524Y-12355520D01*
X40409524Y-12355520D02*
X40371428Y-12431711D01*
X40371428Y-12431711D02*
X40333333Y-12469806D01*
X40333333Y-12469806D02*
X40257143Y-12507901D01*
X40257143Y-12507901D02*
X39952381Y-12507901D01*
X41171428Y-12888854D02*
X40714285Y-12888854D01*
X40942857Y-12888854D02*
X40942857Y-12088854D01*
X40942857Y-12088854D02*
X40866666Y-12203139D01*
X40866666Y-12203139D02*
X40790476Y-12279330D01*
X40790476Y-12279330D02*
X40714285Y-12317425D01*
X41666667Y-12088854D02*
X41742857Y-12088854D01*
X41742857Y-12088854D02*
X41819048Y-12126949D01*
X41819048Y-12126949D02*
X41857143Y-12165044D01*
X41857143Y-12165044D02*
X41895238Y-12241235D01*
X41895238Y-12241235D02*
X41933333Y-12393616D01*
X41933333Y-12393616D02*
X41933333Y-12584092D01*
X41933333Y-12584092D02*
X41895238Y-12736473D01*
X41895238Y-12736473D02*
X41857143Y-12812663D01*
X41857143Y-12812663D02*
X41819048Y-12850759D01*
X41819048Y-12850759D02*
X41742857Y-12888854D01*
X41742857Y-12888854D02*
X41666667Y-12888854D01*
X41666667Y-12888854D02*
X41590476Y-12850759D01*
X41590476Y-12850759D02*
X41552381Y-12812663D01*
X41552381Y-12812663D02*
X41514286Y-12736473D01*
X41514286Y-12736473D02*
X41476190Y-12584092D01*
X41476190Y-12584092D02*
X41476190Y-12393616D01*
X41476190Y-12393616D02*
X41514286Y-12241235D01*
X41514286Y-12241235D02*
X41552381Y-12165044D01*
X41552381Y-12165044D02*
X41590476Y-12126949D01*
X41590476Y-12126949D02*
X41666667Y-12088854D01*
X42428572Y-12088854D02*
X42504762Y-12088854D01*
X42504762Y-12088854D02*
X42580953Y-12126949D01*
X42580953Y-12126949D02*
X42619048Y-12165044D01*
X42619048Y-12165044D02*
X42657143Y-12241235D01*
X42657143Y-12241235D02*
X42695238Y-12393616D01*
X42695238Y-12393616D02*
X42695238Y-12584092D01*
X42695238Y-12584092D02*
X42657143Y-12736473D01*
X42657143Y-12736473D02*
X42619048Y-12812663D01*
X42619048Y-12812663D02*
X42580953Y-12850759D01*
X42580953Y-12850759D02*
X42504762Y-12888854D01*
X42504762Y-12888854D02*
X42428572Y-12888854D01*
X42428572Y-12888854D02*
X42352381Y-12850759D01*
X42352381Y-12850759D02*
X42314286Y-12812663D01*
X42314286Y-12812663D02*
X42276191Y-12736473D01*
X42276191Y-12736473D02*
X42238095Y-12584092D01*
X42238095Y-12584092D02*
X42238095Y-12393616D01*
X42238095Y-12393616D02*
X42276191Y-12241235D01*
X42276191Y-12241235D02*
X42314286Y-12165044D01*
X42314286Y-12165044D02*
X42352381Y-12126949D01*
X42352381Y-12126949D02*
X42428572Y-12088854D01*
X35866667Y-11342664D02*
X35828571Y-11380760D01*
X35828571Y-11380760D02*
X35714286Y-11418855D01*
X35714286Y-11418855D02*
X35638095Y-11418855D01*
X35638095Y-11418855D02*
X35523809Y-11380760D01*
X35523809Y-11380760D02*
X35447619Y-11304569D01*
X35447619Y-11304569D02*
X35409524Y-11228379D01*
X35409524Y-11228379D02*
X35371428Y-11075998D01*
X35371428Y-11075998D02*
X35371428Y-10961712D01*
X35371428Y-10961712D02*
X35409524Y-10809331D01*
X35409524Y-10809331D02*
X35447619Y-10733140D01*
X35447619Y-10733140D02*
X35523809Y-10656950D01*
X35523809Y-10656950D02*
X35638095Y-10618855D01*
X35638095Y-10618855D02*
X35714286Y-10618855D01*
X35714286Y-10618855D02*
X35828571Y-10656950D01*
X35828571Y-10656950D02*
X35866667Y-10695045D01*
X36171428Y-10695045D02*
X36209524Y-10656950D01*
X36209524Y-10656950D02*
X36285714Y-10618855D01*
X36285714Y-10618855D02*
X36476190Y-10618855D01*
X36476190Y-10618855D02*
X36552381Y-10656950D01*
X36552381Y-10656950D02*
X36590476Y-10695045D01*
X36590476Y-10695045D02*
X36628571Y-10771236D01*
X36628571Y-10771236D02*
X36628571Y-10847426D01*
X36628571Y-10847426D02*
X36590476Y-10961712D01*
X36590476Y-10961712D02*
X36133333Y-11418855D01*
X36133333Y-11418855D02*
X36628571Y-11418855D01*
X23349762Y-18163855D02*
X23083095Y-17782902D01*
X22892619Y-18163855D02*
X22892619Y-17363855D01*
X22892619Y-17363855D02*
X23197381Y-17363855D01*
X23197381Y-17363855D02*
X23273571Y-17401950D01*
X23273571Y-17401950D02*
X23311666Y-17440045D01*
X23311666Y-17440045D02*
X23349762Y-17516236D01*
X23349762Y-17516236D02*
X23349762Y-17630521D01*
X23349762Y-17630521D02*
X23311666Y-17706712D01*
X23311666Y-17706712D02*
X23273571Y-17744807D01*
X23273571Y-17744807D02*
X23197381Y-17782902D01*
X23197381Y-17782902D02*
X22892619Y-17782902D01*
X24111666Y-18163855D02*
X23654523Y-18163855D01*
X23883095Y-18163855D02*
X23883095Y-17363855D01*
X23883095Y-17363855D02*
X23806904Y-17478140D01*
X23806904Y-17478140D02*
X23730714Y-17554331D01*
X23730714Y-17554331D02*
X23654523Y-17592426D01*
X24606905Y-17363855D02*
X24683095Y-17363855D01*
X24683095Y-17363855D02*
X24759286Y-17401950D01*
X24759286Y-17401950D02*
X24797381Y-17440045D01*
X24797381Y-17440045D02*
X24835476Y-17516236D01*
X24835476Y-17516236D02*
X24873571Y-17668617D01*
X24873571Y-17668617D02*
X24873571Y-17859093D01*
X24873571Y-17859093D02*
X24835476Y-18011474D01*
X24835476Y-18011474D02*
X24797381Y-18087664D01*
X24797381Y-18087664D02*
X24759286Y-18125760D01*
X24759286Y-18125760D02*
X24683095Y-18163855D01*
X24683095Y-18163855D02*
X24606905Y-18163855D01*
X24606905Y-18163855D02*
X24530714Y-18125760D01*
X24530714Y-18125760D02*
X24492619Y-18087664D01*
X24492619Y-18087664D02*
X24454524Y-18011474D01*
X24454524Y-18011474D02*
X24416428Y-17859093D01*
X24416428Y-17859093D02*
X24416428Y-17668617D01*
X24416428Y-17668617D02*
X24454524Y-17516236D01*
X24454524Y-17516236D02*
X24492619Y-17440045D01*
X24492619Y-17440045D02*
X24530714Y-17401950D01*
X24530714Y-17401950D02*
X24606905Y-17363855D01*
X25368810Y-17363855D02*
X25445000Y-17363855D01*
X25445000Y-17363855D02*
X25521191Y-17401950D01*
X25521191Y-17401950D02*
X25559286Y-17440045D01*
X25559286Y-17440045D02*
X25597381Y-17516236D01*
X25597381Y-17516236D02*
X25635476Y-17668617D01*
X25635476Y-17668617D02*
X25635476Y-17859093D01*
X25635476Y-17859093D02*
X25597381Y-18011474D01*
X25597381Y-18011474D02*
X25559286Y-18087664D01*
X25559286Y-18087664D02*
X25521191Y-18125760D01*
X25521191Y-18125760D02*
X25445000Y-18163855D01*
X25445000Y-18163855D02*
X25368810Y-18163855D01*
X25368810Y-18163855D02*
X25292619Y-18125760D01*
X25292619Y-18125760D02*
X25254524Y-18087664D01*
X25254524Y-18087664D02*
X25216429Y-18011474D01*
X25216429Y-18011474D02*
X25178333Y-17859093D01*
X25178333Y-17859093D02*
X25178333Y-17668617D01*
X25178333Y-17668617D02*
X25216429Y-17516236D01*
X25216429Y-17516236D02*
X25254524Y-17440045D01*
X25254524Y-17440045D02*
X25292619Y-17401950D01*
X25292619Y-17401950D02*
X25368810Y-17363855D01*
X43904762Y-35908855D02*
X43638095Y-35527902D01*
X43447619Y-35908855D02*
X43447619Y-35108855D01*
X43447619Y-35108855D02*
X43752381Y-35108855D01*
X43752381Y-35108855D02*
X43828571Y-35146950D01*
X43828571Y-35146950D02*
X43866666Y-35185045D01*
X43866666Y-35185045D02*
X43904762Y-35261236D01*
X43904762Y-35261236D02*
X43904762Y-35375521D01*
X43904762Y-35375521D02*
X43866666Y-35451712D01*
X43866666Y-35451712D02*
X43828571Y-35489807D01*
X43828571Y-35489807D02*
X43752381Y-35527902D01*
X43752381Y-35527902D02*
X43447619Y-35527902D01*
X44209523Y-35185045D02*
X44247619Y-35146950D01*
X44247619Y-35146950D02*
X44323809Y-35108855D01*
X44323809Y-35108855D02*
X44514285Y-35108855D01*
X44514285Y-35108855D02*
X44590476Y-35146950D01*
X44590476Y-35146950D02*
X44628571Y-35185045D01*
X44628571Y-35185045D02*
X44666666Y-35261236D01*
X44666666Y-35261236D02*
X44666666Y-35337426D01*
X44666666Y-35337426D02*
X44628571Y-35451712D01*
X44628571Y-35451712D02*
X44171428Y-35908855D01*
X44171428Y-35908855D02*
X44666666Y-35908855D01*
X45161905Y-35108855D02*
X45238095Y-35108855D01*
X45238095Y-35108855D02*
X45314286Y-35146950D01*
X45314286Y-35146950D02*
X45352381Y-35185045D01*
X45352381Y-35185045D02*
X45390476Y-35261236D01*
X45390476Y-35261236D02*
X45428571Y-35413617D01*
X45428571Y-35413617D02*
X45428571Y-35604093D01*
X45428571Y-35604093D02*
X45390476Y-35756474D01*
X45390476Y-35756474D02*
X45352381Y-35832664D01*
X45352381Y-35832664D02*
X45314286Y-35870760D01*
X45314286Y-35870760D02*
X45238095Y-35908855D01*
X45238095Y-35908855D02*
X45161905Y-35908855D01*
X45161905Y-35908855D02*
X45085714Y-35870760D01*
X45085714Y-35870760D02*
X45047619Y-35832664D01*
X45047619Y-35832664D02*
X45009524Y-35756474D01*
X45009524Y-35756474D02*
X44971428Y-35604093D01*
X44971428Y-35604093D02*
X44971428Y-35413617D01*
X44971428Y-35413617D02*
X45009524Y-35261236D01*
X45009524Y-35261236D02*
X45047619Y-35185045D01*
X45047619Y-35185045D02*
X45085714Y-35146950D01*
X45085714Y-35146950D02*
X45161905Y-35108855D01*
X46152381Y-35108855D02*
X45771429Y-35108855D01*
X45771429Y-35108855D02*
X45733333Y-35489807D01*
X45733333Y-35489807D02*
X45771429Y-35451712D01*
X45771429Y-35451712D02*
X45847619Y-35413617D01*
X45847619Y-35413617D02*
X46038095Y-35413617D01*
X46038095Y-35413617D02*
X46114286Y-35451712D01*
X46114286Y-35451712D02*
X46152381Y-35489807D01*
X46152381Y-35489807D02*
X46190476Y-35565998D01*
X46190476Y-35565998D02*
X46190476Y-35756474D01*
X46190476Y-35756474D02*
X46152381Y-35832664D01*
X46152381Y-35832664D02*
X46114286Y-35870760D01*
X46114286Y-35870760D02*
X46038095Y-35908855D01*
X46038095Y-35908855D02*
X45847619Y-35908855D01*
X45847619Y-35908855D02*
X45771429Y-35870760D01*
X45771429Y-35870760D02*
X45733333Y-35832664D01*
X17628571Y-26538855D02*
X17628571Y-27186474D01*
X17628571Y-27186474D02*
X17666666Y-27262664D01*
X17666666Y-27262664D02*
X17704761Y-27300760D01*
X17704761Y-27300760D02*
X17780952Y-27338855D01*
X17780952Y-27338855D02*
X17933333Y-27338855D01*
X17933333Y-27338855D02*
X18009523Y-27300760D01*
X18009523Y-27300760D02*
X18047618Y-27262664D01*
X18047618Y-27262664D02*
X18085714Y-27186474D01*
X18085714Y-27186474D02*
X18085714Y-26538855D01*
X18390475Y-26538855D02*
X18885713Y-26538855D01*
X18885713Y-26538855D02*
X18619047Y-26843617D01*
X18619047Y-26843617D02*
X18733332Y-26843617D01*
X18733332Y-26843617D02*
X18809523Y-26881712D01*
X18809523Y-26881712D02*
X18847618Y-26919807D01*
X18847618Y-26919807D02*
X18885713Y-26995998D01*
X18885713Y-26995998D02*
X18885713Y-27186474D01*
X18885713Y-27186474D02*
X18847618Y-27262664D01*
X18847618Y-27262664D02*
X18809523Y-27300760D01*
X18809523Y-27300760D02*
X18733332Y-27338855D01*
X18733332Y-27338855D02*
X18504761Y-27338855D01*
X18504761Y-27338855D02*
X18428570Y-27300760D01*
X18428570Y-27300760D02*
X18390475Y-27262664D01*
X19380952Y-26538855D02*
X19457142Y-26538855D01*
X19457142Y-26538855D02*
X19533333Y-26576950D01*
X19533333Y-26576950D02*
X19571428Y-26615045D01*
X19571428Y-26615045D02*
X19609523Y-26691236D01*
X19609523Y-26691236D02*
X19647618Y-26843617D01*
X19647618Y-26843617D02*
X19647618Y-27034093D01*
X19647618Y-27034093D02*
X19609523Y-27186474D01*
X19609523Y-27186474D02*
X19571428Y-27262664D01*
X19571428Y-27262664D02*
X19533333Y-27300760D01*
X19533333Y-27300760D02*
X19457142Y-27338855D01*
X19457142Y-27338855D02*
X19380952Y-27338855D01*
X19380952Y-27338855D02*
X19304761Y-27300760D01*
X19304761Y-27300760D02*
X19266666Y-27262664D01*
X19266666Y-27262664D02*
X19228571Y-27186474D01*
X19228571Y-27186474D02*
X19190475Y-27034093D01*
X19190475Y-27034093D02*
X19190475Y-26843617D01*
X19190475Y-26843617D02*
X19228571Y-26691236D01*
X19228571Y-26691236D02*
X19266666Y-26615045D01*
X19266666Y-26615045D02*
X19304761Y-26576950D01*
X19304761Y-26576950D02*
X19380952Y-26538855D01*
X19952380Y-26615045D02*
X19990476Y-26576950D01*
X19990476Y-26576950D02*
X20066666Y-26538855D01*
X20066666Y-26538855D02*
X20257142Y-26538855D01*
X20257142Y-26538855D02*
X20333333Y-26576950D01*
X20333333Y-26576950D02*
X20371428Y-26615045D01*
X20371428Y-26615045D02*
X20409523Y-26691236D01*
X20409523Y-26691236D02*
X20409523Y-26767426D01*
X20409523Y-26767426D02*
X20371428Y-26881712D01*
X20371428Y-26881712D02*
X19914285Y-27338855D01*
X19914285Y-27338855D02*
X20409523Y-27338855D01*
X34104762Y-43318854D02*
X33838095Y-42937901D01*
X33647619Y-43318854D02*
X33647619Y-42518854D01*
X33647619Y-42518854D02*
X33952381Y-42518854D01*
X33952381Y-42518854D02*
X34028571Y-42556949D01*
X34028571Y-42556949D02*
X34066666Y-42595044D01*
X34066666Y-42595044D02*
X34104762Y-42671235D01*
X34104762Y-42671235D02*
X34104762Y-42785520D01*
X34104762Y-42785520D02*
X34066666Y-42861711D01*
X34066666Y-42861711D02*
X34028571Y-42899806D01*
X34028571Y-42899806D02*
X33952381Y-42937901D01*
X33952381Y-42937901D02*
X33647619Y-42937901D01*
X34409523Y-42595044D02*
X34447619Y-42556949D01*
X34447619Y-42556949D02*
X34523809Y-42518854D01*
X34523809Y-42518854D02*
X34714285Y-42518854D01*
X34714285Y-42518854D02*
X34790476Y-42556949D01*
X34790476Y-42556949D02*
X34828571Y-42595044D01*
X34828571Y-42595044D02*
X34866666Y-42671235D01*
X34866666Y-42671235D02*
X34866666Y-42747425D01*
X34866666Y-42747425D02*
X34828571Y-42861711D01*
X34828571Y-42861711D02*
X34371428Y-43318854D01*
X34371428Y-43318854D02*
X34866666Y-43318854D01*
X35361905Y-42518854D02*
X35438095Y-42518854D01*
X35438095Y-42518854D02*
X35514286Y-42556949D01*
X35514286Y-42556949D02*
X35552381Y-42595044D01*
X35552381Y-42595044D02*
X35590476Y-42671235D01*
X35590476Y-42671235D02*
X35628571Y-42823616D01*
X35628571Y-42823616D02*
X35628571Y-43014092D01*
X35628571Y-43014092D02*
X35590476Y-43166473D01*
X35590476Y-43166473D02*
X35552381Y-43242663D01*
X35552381Y-43242663D02*
X35514286Y-43280759D01*
X35514286Y-43280759D02*
X35438095Y-43318854D01*
X35438095Y-43318854D02*
X35361905Y-43318854D01*
X35361905Y-43318854D02*
X35285714Y-43280759D01*
X35285714Y-43280759D02*
X35247619Y-43242663D01*
X35247619Y-43242663D02*
X35209524Y-43166473D01*
X35209524Y-43166473D02*
X35171428Y-43014092D01*
X35171428Y-43014092D02*
X35171428Y-42823616D01*
X35171428Y-42823616D02*
X35209524Y-42671235D01*
X35209524Y-42671235D02*
X35247619Y-42595044D01*
X35247619Y-42595044D02*
X35285714Y-42556949D01*
X35285714Y-42556949D02*
X35361905Y-42518854D01*
X36390476Y-43318854D02*
X35933333Y-43318854D01*
X36161905Y-43318854D02*
X36161905Y-42518854D01*
X36161905Y-42518854D02*
X36085714Y-42633139D01*
X36085714Y-42633139D02*
X36009524Y-42709330D01*
X36009524Y-42709330D02*
X35933333Y-42747425D01*
X8091667Y-18287664D02*
X8053571Y-18325760D01*
X8053571Y-18325760D02*
X7939286Y-18363855D01*
X7939286Y-18363855D02*
X7863095Y-18363855D01*
X7863095Y-18363855D02*
X7748809Y-18325760D01*
X7748809Y-18325760D02*
X7672619Y-18249569D01*
X7672619Y-18249569D02*
X7634524Y-18173379D01*
X7634524Y-18173379D02*
X7596428Y-18020998D01*
X7596428Y-18020998D02*
X7596428Y-17906712D01*
X7596428Y-17906712D02*
X7634524Y-17754331D01*
X7634524Y-17754331D02*
X7672619Y-17678140D01*
X7672619Y-17678140D02*
X7748809Y-17601950D01*
X7748809Y-17601950D02*
X7863095Y-17563855D01*
X7863095Y-17563855D02*
X7939286Y-17563855D01*
X7939286Y-17563855D02*
X8053571Y-17601950D01*
X8053571Y-17601950D02*
X8091667Y-17640045D01*
X8358333Y-17563855D02*
X8853571Y-17563855D01*
X8853571Y-17563855D02*
X8586905Y-17868617D01*
X8586905Y-17868617D02*
X8701190Y-17868617D01*
X8701190Y-17868617D02*
X8777381Y-17906712D01*
X8777381Y-17906712D02*
X8815476Y-17944807D01*
X8815476Y-17944807D02*
X8853571Y-18020998D01*
X8853571Y-18020998D02*
X8853571Y-18211474D01*
X8853571Y-18211474D02*
X8815476Y-18287664D01*
X8815476Y-18287664D02*
X8777381Y-18325760D01*
X8777381Y-18325760D02*
X8701190Y-18363855D01*
X8701190Y-18363855D02*
X8472619Y-18363855D01*
X8472619Y-18363855D02*
X8396428Y-18325760D01*
X8396428Y-18325760D02*
X8358333Y-18287664D01*
X39628571Y-43488854D02*
X39628571Y-44136473D01*
X39628571Y-44136473D02*
X39666666Y-44212663D01*
X39666666Y-44212663D02*
X39704761Y-44250759D01*
X39704761Y-44250759D02*
X39780952Y-44288854D01*
X39780952Y-44288854D02*
X39933333Y-44288854D01*
X39933333Y-44288854D02*
X40009523Y-44250759D01*
X40009523Y-44250759D02*
X40047618Y-44212663D01*
X40047618Y-44212663D02*
X40085714Y-44136473D01*
X40085714Y-44136473D02*
X40085714Y-43488854D01*
X40428570Y-43565044D02*
X40466666Y-43526949D01*
X40466666Y-43526949D02*
X40542856Y-43488854D01*
X40542856Y-43488854D02*
X40733332Y-43488854D01*
X40733332Y-43488854D02*
X40809523Y-43526949D01*
X40809523Y-43526949D02*
X40847618Y-43565044D01*
X40847618Y-43565044D02*
X40885713Y-43641235D01*
X40885713Y-43641235D02*
X40885713Y-43717425D01*
X40885713Y-43717425D02*
X40847618Y-43831711D01*
X40847618Y-43831711D02*
X40390475Y-44288854D01*
X40390475Y-44288854D02*
X40885713Y-44288854D01*
X41380952Y-43488854D02*
X41457142Y-43488854D01*
X41457142Y-43488854D02*
X41533333Y-43526949D01*
X41533333Y-43526949D02*
X41571428Y-43565044D01*
X41571428Y-43565044D02*
X41609523Y-43641235D01*
X41609523Y-43641235D02*
X41647618Y-43793616D01*
X41647618Y-43793616D02*
X41647618Y-43984092D01*
X41647618Y-43984092D02*
X41609523Y-44136473D01*
X41609523Y-44136473D02*
X41571428Y-44212663D01*
X41571428Y-44212663D02*
X41533333Y-44250759D01*
X41533333Y-44250759D02*
X41457142Y-44288854D01*
X41457142Y-44288854D02*
X41380952Y-44288854D01*
X41380952Y-44288854D02*
X41304761Y-44250759D01*
X41304761Y-44250759D02*
X41266666Y-44212663D01*
X41266666Y-44212663D02*
X41228571Y-44136473D01*
X41228571Y-44136473D02*
X41190475Y-43984092D01*
X41190475Y-43984092D02*
X41190475Y-43793616D01*
X41190475Y-43793616D02*
X41228571Y-43641235D01*
X41228571Y-43641235D02*
X41266666Y-43565044D01*
X41266666Y-43565044D02*
X41304761Y-43526949D01*
X41304761Y-43526949D02*
X41380952Y-43488854D01*
X42409523Y-44288854D02*
X41952380Y-44288854D01*
X42180952Y-44288854D02*
X42180952Y-43488854D01*
X42180952Y-43488854D02*
X42104761Y-43603139D01*
X42104761Y-43603139D02*
X42028571Y-43679330D01*
X42028571Y-43679330D02*
X41952380Y-43717425D01*
X32028571Y-22488855D02*
X32028571Y-23136474D01*
X32028571Y-23136474D02*
X32066666Y-23212664D01*
X32066666Y-23212664D02*
X32104761Y-23250760D01*
X32104761Y-23250760D02*
X32180952Y-23288855D01*
X32180952Y-23288855D02*
X32333333Y-23288855D01*
X32333333Y-23288855D02*
X32409523Y-23250760D01*
X32409523Y-23250760D02*
X32447618Y-23212664D01*
X32447618Y-23212664D02*
X32485714Y-23136474D01*
X32485714Y-23136474D02*
X32485714Y-22488855D01*
X33285713Y-23288855D02*
X32828570Y-23288855D01*
X33057142Y-23288855D02*
X33057142Y-22488855D01*
X33057142Y-22488855D02*
X32980951Y-22603140D01*
X32980951Y-22603140D02*
X32904761Y-22679331D01*
X32904761Y-22679331D02*
X32828570Y-22717426D01*
X33780952Y-22488855D02*
X33857142Y-22488855D01*
X33857142Y-22488855D02*
X33933333Y-22526950D01*
X33933333Y-22526950D02*
X33971428Y-22565045D01*
X33971428Y-22565045D02*
X34009523Y-22641236D01*
X34009523Y-22641236D02*
X34047618Y-22793617D01*
X34047618Y-22793617D02*
X34047618Y-22984093D01*
X34047618Y-22984093D02*
X34009523Y-23136474D01*
X34009523Y-23136474D02*
X33971428Y-23212664D01*
X33971428Y-23212664D02*
X33933333Y-23250760D01*
X33933333Y-23250760D02*
X33857142Y-23288855D01*
X33857142Y-23288855D02*
X33780952Y-23288855D01*
X33780952Y-23288855D02*
X33704761Y-23250760D01*
X33704761Y-23250760D02*
X33666666Y-23212664D01*
X33666666Y-23212664D02*
X33628571Y-23136474D01*
X33628571Y-23136474D02*
X33590475Y-22984093D01*
X33590475Y-22984093D02*
X33590475Y-22793617D01*
X33590475Y-22793617D02*
X33628571Y-22641236D01*
X33628571Y-22641236D02*
X33666666Y-22565045D01*
X33666666Y-22565045D02*
X33704761Y-22526950D01*
X33704761Y-22526950D02*
X33780952Y-22488855D01*
X34542857Y-22488855D02*
X34619047Y-22488855D01*
X34619047Y-22488855D02*
X34695238Y-22526950D01*
X34695238Y-22526950D02*
X34733333Y-22565045D01*
X34733333Y-22565045D02*
X34771428Y-22641236D01*
X34771428Y-22641236D02*
X34809523Y-22793617D01*
X34809523Y-22793617D02*
X34809523Y-22984093D01*
X34809523Y-22984093D02*
X34771428Y-23136474D01*
X34771428Y-23136474D02*
X34733333Y-23212664D01*
X34733333Y-23212664D02*
X34695238Y-23250760D01*
X34695238Y-23250760D02*
X34619047Y-23288855D01*
X34619047Y-23288855D02*
X34542857Y-23288855D01*
X34542857Y-23288855D02*
X34466666Y-23250760D01*
X34466666Y-23250760D02*
X34428571Y-23212664D01*
X34428571Y-23212664D02*
X34390476Y-23136474D01*
X34390476Y-23136474D02*
X34352380Y-22984093D01*
X34352380Y-22984093D02*
X34352380Y-22793617D01*
X34352380Y-22793617D02*
X34390476Y-22641236D01*
X34390476Y-22641236D02*
X34428571Y-22565045D01*
X34428571Y-22565045D02*
X34466666Y-22526950D01*
X34466666Y-22526950D02*
X34542857Y-22488855D01*
X14904762Y-29392663D02*
X14866666Y-29430759D01*
X14866666Y-29430759D02*
X14752381Y-29468854D01*
X14752381Y-29468854D02*
X14676190Y-29468854D01*
X14676190Y-29468854D02*
X14561904Y-29430759D01*
X14561904Y-29430759D02*
X14485714Y-29354568D01*
X14485714Y-29354568D02*
X14447619Y-29278378D01*
X14447619Y-29278378D02*
X14409523Y-29125997D01*
X14409523Y-29125997D02*
X14409523Y-29011711D01*
X14409523Y-29011711D02*
X14447619Y-28859330D01*
X14447619Y-28859330D02*
X14485714Y-28783139D01*
X14485714Y-28783139D02*
X14561904Y-28706949D01*
X14561904Y-28706949D02*
X14676190Y-28668854D01*
X14676190Y-28668854D02*
X14752381Y-28668854D01*
X14752381Y-28668854D02*
X14866666Y-28706949D01*
X14866666Y-28706949D02*
X14904762Y-28745044D01*
X15171428Y-28668854D02*
X15666666Y-28668854D01*
X15666666Y-28668854D02*
X15400000Y-28973616D01*
X15400000Y-28973616D02*
X15514285Y-28973616D01*
X15514285Y-28973616D02*
X15590476Y-29011711D01*
X15590476Y-29011711D02*
X15628571Y-29049806D01*
X15628571Y-29049806D02*
X15666666Y-29125997D01*
X15666666Y-29125997D02*
X15666666Y-29316473D01*
X15666666Y-29316473D02*
X15628571Y-29392663D01*
X15628571Y-29392663D02*
X15590476Y-29430759D01*
X15590476Y-29430759D02*
X15514285Y-29468854D01*
X15514285Y-29468854D02*
X15285714Y-29468854D01*
X15285714Y-29468854D02*
X15209523Y-29430759D01*
X15209523Y-29430759D02*
X15171428Y-29392663D01*
X16161905Y-28668854D02*
X16238095Y-28668854D01*
X16238095Y-28668854D02*
X16314286Y-28706949D01*
X16314286Y-28706949D02*
X16352381Y-28745044D01*
X16352381Y-28745044D02*
X16390476Y-28821235D01*
X16390476Y-28821235D02*
X16428571Y-28973616D01*
X16428571Y-28973616D02*
X16428571Y-29164092D01*
X16428571Y-29164092D02*
X16390476Y-29316473D01*
X16390476Y-29316473D02*
X16352381Y-29392663D01*
X16352381Y-29392663D02*
X16314286Y-29430759D01*
X16314286Y-29430759D02*
X16238095Y-29468854D01*
X16238095Y-29468854D02*
X16161905Y-29468854D01*
X16161905Y-29468854D02*
X16085714Y-29430759D01*
X16085714Y-29430759D02*
X16047619Y-29392663D01*
X16047619Y-29392663D02*
X16009524Y-29316473D01*
X16009524Y-29316473D02*
X15971428Y-29164092D01*
X15971428Y-29164092D02*
X15971428Y-28973616D01*
X15971428Y-28973616D02*
X16009524Y-28821235D01*
X16009524Y-28821235D02*
X16047619Y-28745044D01*
X16047619Y-28745044D02*
X16085714Y-28706949D01*
X16085714Y-28706949D02*
X16161905Y-28668854D01*
X17114286Y-28935520D02*
X17114286Y-29468854D01*
X16923810Y-28630759D02*
X16733333Y-29202187D01*
X16733333Y-29202187D02*
X17228572Y-29202187D01*
X23104762Y-25332664D02*
X23066666Y-25370760D01*
X23066666Y-25370760D02*
X22952381Y-25408855D01*
X22952381Y-25408855D02*
X22876190Y-25408855D01*
X22876190Y-25408855D02*
X22761904Y-25370760D01*
X22761904Y-25370760D02*
X22685714Y-25294569D01*
X22685714Y-25294569D02*
X22647619Y-25218379D01*
X22647619Y-25218379D02*
X22609523Y-25065998D01*
X22609523Y-25065998D02*
X22609523Y-24951712D01*
X22609523Y-24951712D02*
X22647619Y-24799331D01*
X22647619Y-24799331D02*
X22685714Y-24723140D01*
X22685714Y-24723140D02*
X22761904Y-24646950D01*
X22761904Y-24646950D02*
X22876190Y-24608855D01*
X22876190Y-24608855D02*
X22952381Y-24608855D01*
X22952381Y-24608855D02*
X23066666Y-24646950D01*
X23066666Y-24646950D02*
X23104762Y-24685045D01*
X23371428Y-24608855D02*
X23866666Y-24608855D01*
X23866666Y-24608855D02*
X23600000Y-24913617D01*
X23600000Y-24913617D02*
X23714285Y-24913617D01*
X23714285Y-24913617D02*
X23790476Y-24951712D01*
X23790476Y-24951712D02*
X23828571Y-24989807D01*
X23828571Y-24989807D02*
X23866666Y-25065998D01*
X23866666Y-25065998D02*
X23866666Y-25256474D01*
X23866666Y-25256474D02*
X23828571Y-25332664D01*
X23828571Y-25332664D02*
X23790476Y-25370760D01*
X23790476Y-25370760D02*
X23714285Y-25408855D01*
X23714285Y-25408855D02*
X23485714Y-25408855D01*
X23485714Y-25408855D02*
X23409523Y-25370760D01*
X23409523Y-25370760D02*
X23371428Y-25332664D01*
X24361905Y-24608855D02*
X24438095Y-24608855D01*
X24438095Y-24608855D02*
X24514286Y-24646950D01*
X24514286Y-24646950D02*
X24552381Y-24685045D01*
X24552381Y-24685045D02*
X24590476Y-24761236D01*
X24590476Y-24761236D02*
X24628571Y-24913617D01*
X24628571Y-24913617D02*
X24628571Y-25104093D01*
X24628571Y-25104093D02*
X24590476Y-25256474D01*
X24590476Y-25256474D02*
X24552381Y-25332664D01*
X24552381Y-25332664D02*
X24514286Y-25370760D01*
X24514286Y-25370760D02*
X24438095Y-25408855D01*
X24438095Y-25408855D02*
X24361905Y-25408855D01*
X24361905Y-25408855D02*
X24285714Y-25370760D01*
X24285714Y-25370760D02*
X24247619Y-25332664D01*
X24247619Y-25332664D02*
X24209524Y-25256474D01*
X24209524Y-25256474D02*
X24171428Y-25104093D01*
X24171428Y-25104093D02*
X24171428Y-24913617D01*
X24171428Y-24913617D02*
X24209524Y-24761236D01*
X24209524Y-24761236D02*
X24247619Y-24685045D01*
X24247619Y-24685045D02*
X24285714Y-24646950D01*
X24285714Y-24646950D02*
X24361905Y-24608855D01*
X25352381Y-24608855D02*
X24971429Y-24608855D01*
X24971429Y-24608855D02*
X24933333Y-24989807D01*
X24933333Y-24989807D02*
X24971429Y-24951712D01*
X24971429Y-24951712D02*
X25047619Y-24913617D01*
X25047619Y-24913617D02*
X25238095Y-24913617D01*
X25238095Y-24913617D02*
X25314286Y-24951712D01*
X25314286Y-24951712D02*
X25352381Y-24989807D01*
X25352381Y-24989807D02*
X25390476Y-25065998D01*
X25390476Y-25065998D02*
X25390476Y-25256474D01*
X25390476Y-25256474D02*
X25352381Y-25332664D01*
X25352381Y-25332664D02*
X25314286Y-25370760D01*
X25314286Y-25370760D02*
X25238095Y-25408855D01*
X25238095Y-25408855D02*
X25047619Y-25408855D01*
X25047619Y-25408855D02*
X24971429Y-25370760D01*
X24971429Y-25370760D02*
X24933333Y-25332664D01*
X35104762Y-32008855D02*
X34838095Y-31627902D01*
X34647619Y-32008855D02*
X34647619Y-31208855D01*
X34647619Y-31208855D02*
X34952381Y-31208855D01*
X34952381Y-31208855D02*
X35028571Y-31246950D01*
X35028571Y-31246950D02*
X35066666Y-31285045D01*
X35066666Y-31285045D02*
X35104762Y-31361236D01*
X35104762Y-31361236D02*
X35104762Y-31475521D01*
X35104762Y-31475521D02*
X35066666Y-31551712D01*
X35066666Y-31551712D02*
X35028571Y-31589807D01*
X35028571Y-31589807D02*
X34952381Y-31627902D01*
X34952381Y-31627902D02*
X34647619Y-31627902D01*
X35409523Y-31285045D02*
X35447619Y-31246950D01*
X35447619Y-31246950D02*
X35523809Y-31208855D01*
X35523809Y-31208855D02*
X35714285Y-31208855D01*
X35714285Y-31208855D02*
X35790476Y-31246950D01*
X35790476Y-31246950D02*
X35828571Y-31285045D01*
X35828571Y-31285045D02*
X35866666Y-31361236D01*
X35866666Y-31361236D02*
X35866666Y-31437426D01*
X35866666Y-31437426D02*
X35828571Y-31551712D01*
X35828571Y-31551712D02*
X35371428Y-32008855D01*
X35371428Y-32008855D02*
X35866666Y-32008855D01*
X36361905Y-31208855D02*
X36438095Y-31208855D01*
X36438095Y-31208855D02*
X36514286Y-31246950D01*
X36514286Y-31246950D02*
X36552381Y-31285045D01*
X36552381Y-31285045D02*
X36590476Y-31361236D01*
X36590476Y-31361236D02*
X36628571Y-31513617D01*
X36628571Y-31513617D02*
X36628571Y-31704093D01*
X36628571Y-31704093D02*
X36590476Y-31856474D01*
X36590476Y-31856474D02*
X36552381Y-31932664D01*
X36552381Y-31932664D02*
X36514286Y-31970760D01*
X36514286Y-31970760D02*
X36438095Y-32008855D01*
X36438095Y-32008855D02*
X36361905Y-32008855D01*
X36361905Y-32008855D02*
X36285714Y-31970760D01*
X36285714Y-31970760D02*
X36247619Y-31932664D01*
X36247619Y-31932664D02*
X36209524Y-31856474D01*
X36209524Y-31856474D02*
X36171428Y-31704093D01*
X36171428Y-31704093D02*
X36171428Y-31513617D01*
X36171428Y-31513617D02*
X36209524Y-31361236D01*
X36209524Y-31361236D02*
X36247619Y-31285045D01*
X36247619Y-31285045D02*
X36285714Y-31246950D01*
X36285714Y-31246950D02*
X36361905Y-31208855D01*
X37085714Y-31551712D02*
X37009524Y-31513617D01*
X37009524Y-31513617D02*
X36971429Y-31475521D01*
X36971429Y-31475521D02*
X36933333Y-31399331D01*
X36933333Y-31399331D02*
X36933333Y-31361236D01*
X36933333Y-31361236D02*
X36971429Y-31285045D01*
X36971429Y-31285045D02*
X37009524Y-31246950D01*
X37009524Y-31246950D02*
X37085714Y-31208855D01*
X37085714Y-31208855D02*
X37238095Y-31208855D01*
X37238095Y-31208855D02*
X37314286Y-31246950D01*
X37314286Y-31246950D02*
X37352381Y-31285045D01*
X37352381Y-31285045D02*
X37390476Y-31361236D01*
X37390476Y-31361236D02*
X37390476Y-31399331D01*
X37390476Y-31399331D02*
X37352381Y-31475521D01*
X37352381Y-31475521D02*
X37314286Y-31513617D01*
X37314286Y-31513617D02*
X37238095Y-31551712D01*
X37238095Y-31551712D02*
X37085714Y-31551712D01*
X37085714Y-31551712D02*
X37009524Y-31589807D01*
X37009524Y-31589807D02*
X36971429Y-31627902D01*
X36971429Y-31627902D02*
X36933333Y-31704093D01*
X36933333Y-31704093D02*
X36933333Y-31856474D01*
X36933333Y-31856474D02*
X36971429Y-31932664D01*
X36971429Y-31932664D02*
X37009524Y-31970760D01*
X37009524Y-31970760D02*
X37085714Y-32008855D01*
X37085714Y-32008855D02*
X37238095Y-32008855D01*
X37238095Y-32008855D02*
X37314286Y-31970760D01*
X37314286Y-31970760D02*
X37352381Y-31932664D01*
X37352381Y-31932664D02*
X37390476Y-31856474D01*
X37390476Y-31856474D02*
X37390476Y-31704093D01*
X37390476Y-31704093D02*
X37352381Y-31627902D01*
X37352381Y-31627902D02*
X37314286Y-31589807D01*
X37314286Y-31589807D02*
X37238095Y-31551712D01*
X31821666Y-11763855D02*
X31554999Y-11382902D01*
X31364523Y-11763855D02*
X31364523Y-10963855D01*
X31364523Y-10963855D02*
X31669285Y-10963855D01*
X31669285Y-10963855D02*
X31745475Y-11001950D01*
X31745475Y-11001950D02*
X31783570Y-11040045D01*
X31783570Y-11040045D02*
X31821666Y-11116236D01*
X31821666Y-11116236D02*
X31821666Y-11230521D01*
X31821666Y-11230521D02*
X31783570Y-11306712D01*
X31783570Y-11306712D02*
X31745475Y-11344807D01*
X31745475Y-11344807D02*
X31669285Y-11382902D01*
X31669285Y-11382902D02*
X31364523Y-11382902D01*
X32088332Y-10963855D02*
X32621666Y-10963855D01*
X32621666Y-10963855D02*
X32278808Y-11763855D01*
X37809761Y-10363855D02*
X37543094Y-9982902D01*
X37352618Y-10363855D02*
X37352618Y-9563855D01*
X37352618Y-9563855D02*
X37657380Y-9563855D01*
X37657380Y-9563855D02*
X37733570Y-9601950D01*
X37733570Y-9601950D02*
X37771665Y-9640045D01*
X37771665Y-9640045D02*
X37809761Y-9716236D01*
X37809761Y-9716236D02*
X37809761Y-9830521D01*
X37809761Y-9830521D02*
X37771665Y-9906712D01*
X37771665Y-9906712D02*
X37733570Y-9944807D01*
X37733570Y-9944807D02*
X37657380Y-9982902D01*
X37657380Y-9982902D02*
X37352618Y-9982902D01*
X38571665Y-10363855D02*
X38114522Y-10363855D01*
X38343094Y-10363855D02*
X38343094Y-9563855D01*
X38343094Y-9563855D02*
X38266903Y-9678140D01*
X38266903Y-9678140D02*
X38190713Y-9754331D01*
X38190713Y-9754331D02*
X38114522Y-9792426D01*
X39066904Y-9563855D02*
X39143094Y-9563855D01*
X39143094Y-9563855D02*
X39219285Y-9601950D01*
X39219285Y-9601950D02*
X39257380Y-9640045D01*
X39257380Y-9640045D02*
X39295475Y-9716236D01*
X39295475Y-9716236D02*
X39333570Y-9868617D01*
X39333570Y-9868617D02*
X39333570Y-10059093D01*
X39333570Y-10059093D02*
X39295475Y-10211474D01*
X39295475Y-10211474D02*
X39257380Y-10287664D01*
X39257380Y-10287664D02*
X39219285Y-10325760D01*
X39219285Y-10325760D02*
X39143094Y-10363855D01*
X39143094Y-10363855D02*
X39066904Y-10363855D01*
X39066904Y-10363855D02*
X38990713Y-10325760D01*
X38990713Y-10325760D02*
X38952618Y-10287664D01*
X38952618Y-10287664D02*
X38914523Y-10211474D01*
X38914523Y-10211474D02*
X38876427Y-10059093D01*
X38876427Y-10059093D02*
X38876427Y-9868617D01*
X38876427Y-9868617D02*
X38914523Y-9716236D01*
X38914523Y-9716236D02*
X38952618Y-9640045D01*
X38952618Y-9640045D02*
X38990713Y-9601950D01*
X38990713Y-9601950D02*
X39066904Y-9563855D01*
X39790713Y-9906712D02*
X39714523Y-9868617D01*
X39714523Y-9868617D02*
X39676428Y-9830521D01*
X39676428Y-9830521D02*
X39638332Y-9754331D01*
X39638332Y-9754331D02*
X39638332Y-9716236D01*
X39638332Y-9716236D02*
X39676428Y-9640045D01*
X39676428Y-9640045D02*
X39714523Y-9601950D01*
X39714523Y-9601950D02*
X39790713Y-9563855D01*
X39790713Y-9563855D02*
X39943094Y-9563855D01*
X39943094Y-9563855D02*
X40019285Y-9601950D01*
X40019285Y-9601950D02*
X40057380Y-9640045D01*
X40057380Y-9640045D02*
X40095475Y-9716236D01*
X40095475Y-9716236D02*
X40095475Y-9754331D01*
X40095475Y-9754331D02*
X40057380Y-9830521D01*
X40057380Y-9830521D02*
X40019285Y-9868617D01*
X40019285Y-9868617D02*
X39943094Y-9906712D01*
X39943094Y-9906712D02*
X39790713Y-9906712D01*
X39790713Y-9906712D02*
X39714523Y-9944807D01*
X39714523Y-9944807D02*
X39676428Y-9982902D01*
X39676428Y-9982902D02*
X39638332Y-10059093D01*
X39638332Y-10059093D02*
X39638332Y-10211474D01*
X39638332Y-10211474D02*
X39676428Y-10287664D01*
X39676428Y-10287664D02*
X39714523Y-10325760D01*
X39714523Y-10325760D02*
X39790713Y-10363855D01*
X39790713Y-10363855D02*
X39943094Y-10363855D01*
X39943094Y-10363855D02*
X40019285Y-10325760D01*
X40019285Y-10325760D02*
X40057380Y-10287664D01*
X40057380Y-10287664D02*
X40095475Y-10211474D01*
X40095475Y-10211474D02*
X40095475Y-10059093D01*
X40095475Y-10059093D02*
X40057380Y-9982902D01*
X40057380Y-9982902D02*
X40019285Y-9944807D01*
X40019285Y-9944807D02*
X39943094Y-9906712D01*
X14104762Y-47208855D02*
X13838095Y-46827902D01*
X13647619Y-47208855D02*
X13647619Y-46408855D01*
X13647619Y-46408855D02*
X13952381Y-46408855D01*
X13952381Y-46408855D02*
X14028571Y-46446950D01*
X14028571Y-46446950D02*
X14066666Y-46485045D01*
X14066666Y-46485045D02*
X14104762Y-46561236D01*
X14104762Y-46561236D02*
X14104762Y-46675521D01*
X14104762Y-46675521D02*
X14066666Y-46751712D01*
X14066666Y-46751712D02*
X14028571Y-46789807D01*
X14028571Y-46789807D02*
X13952381Y-46827902D01*
X13952381Y-46827902D02*
X13647619Y-46827902D01*
X14371428Y-46408855D02*
X14866666Y-46408855D01*
X14866666Y-46408855D02*
X14600000Y-46713617D01*
X14600000Y-46713617D02*
X14714285Y-46713617D01*
X14714285Y-46713617D02*
X14790476Y-46751712D01*
X14790476Y-46751712D02*
X14828571Y-46789807D01*
X14828571Y-46789807D02*
X14866666Y-46865998D01*
X14866666Y-46865998D02*
X14866666Y-47056474D01*
X14866666Y-47056474D02*
X14828571Y-47132664D01*
X14828571Y-47132664D02*
X14790476Y-47170760D01*
X14790476Y-47170760D02*
X14714285Y-47208855D01*
X14714285Y-47208855D02*
X14485714Y-47208855D01*
X14485714Y-47208855D02*
X14409523Y-47170760D01*
X14409523Y-47170760D02*
X14371428Y-47132664D01*
X15361905Y-46408855D02*
X15438095Y-46408855D01*
X15438095Y-46408855D02*
X15514286Y-46446950D01*
X15514286Y-46446950D02*
X15552381Y-46485045D01*
X15552381Y-46485045D02*
X15590476Y-46561236D01*
X15590476Y-46561236D02*
X15628571Y-46713617D01*
X15628571Y-46713617D02*
X15628571Y-46904093D01*
X15628571Y-46904093D02*
X15590476Y-47056474D01*
X15590476Y-47056474D02*
X15552381Y-47132664D01*
X15552381Y-47132664D02*
X15514286Y-47170760D01*
X15514286Y-47170760D02*
X15438095Y-47208855D01*
X15438095Y-47208855D02*
X15361905Y-47208855D01*
X15361905Y-47208855D02*
X15285714Y-47170760D01*
X15285714Y-47170760D02*
X15247619Y-47132664D01*
X15247619Y-47132664D02*
X15209524Y-47056474D01*
X15209524Y-47056474D02*
X15171428Y-46904093D01*
X15171428Y-46904093D02*
X15171428Y-46713617D01*
X15171428Y-46713617D02*
X15209524Y-46561236D01*
X15209524Y-46561236D02*
X15247619Y-46485045D01*
X15247619Y-46485045D02*
X15285714Y-46446950D01*
X15285714Y-46446950D02*
X15361905Y-46408855D01*
X16123810Y-46408855D02*
X16200000Y-46408855D01*
X16200000Y-46408855D02*
X16276191Y-46446950D01*
X16276191Y-46446950D02*
X16314286Y-46485045D01*
X16314286Y-46485045D02*
X16352381Y-46561236D01*
X16352381Y-46561236D02*
X16390476Y-46713617D01*
X16390476Y-46713617D02*
X16390476Y-46904093D01*
X16390476Y-46904093D02*
X16352381Y-47056474D01*
X16352381Y-47056474D02*
X16314286Y-47132664D01*
X16314286Y-47132664D02*
X16276191Y-47170760D01*
X16276191Y-47170760D02*
X16200000Y-47208855D01*
X16200000Y-47208855D02*
X16123810Y-47208855D01*
X16123810Y-47208855D02*
X16047619Y-47170760D01*
X16047619Y-47170760D02*
X16009524Y-47132664D01*
X16009524Y-47132664D02*
X15971429Y-47056474D01*
X15971429Y-47056474D02*
X15933333Y-46904093D01*
X15933333Y-46904093D02*
X15933333Y-46713617D01*
X15933333Y-46713617D02*
X15971429Y-46561236D01*
X15971429Y-46561236D02*
X16009524Y-46485045D01*
X16009524Y-46485045D02*
X16047619Y-46446950D01*
X16047619Y-46446950D02*
X16123810Y-46408855D01*
X8933333Y-36338855D02*
X8933333Y-36910283D01*
X8933333Y-36910283D02*
X8895238Y-37024569D01*
X8895238Y-37024569D02*
X8819047Y-37100760D01*
X8819047Y-37100760D02*
X8704762Y-37138855D01*
X8704762Y-37138855D02*
X8628571Y-37138855D01*
X9657143Y-36605521D02*
X9657143Y-37138855D01*
X9466667Y-36300760D02*
X9276190Y-36872188D01*
X9276190Y-36872188D02*
X9771429Y-36872188D01*
X27304761Y-37568854D02*
X27038094Y-37187901D01*
X26847618Y-37568854D02*
X26847618Y-36768854D01*
X26847618Y-36768854D02*
X27152380Y-36768854D01*
X27152380Y-36768854D02*
X27228570Y-36806949D01*
X27228570Y-36806949D02*
X27266665Y-36845044D01*
X27266665Y-36845044D02*
X27304761Y-36921235D01*
X27304761Y-36921235D02*
X27304761Y-37035520D01*
X27304761Y-37035520D02*
X27266665Y-37111711D01*
X27266665Y-37111711D02*
X27228570Y-37149806D01*
X27228570Y-37149806D02*
X27152380Y-37187901D01*
X27152380Y-37187901D02*
X26847618Y-37187901D01*
X27609522Y-36845044D02*
X27647618Y-36806949D01*
X27647618Y-36806949D02*
X27723808Y-36768854D01*
X27723808Y-36768854D02*
X27914284Y-36768854D01*
X27914284Y-36768854D02*
X27990475Y-36806949D01*
X27990475Y-36806949D02*
X28028570Y-36845044D01*
X28028570Y-36845044D02*
X28066665Y-36921235D01*
X28066665Y-36921235D02*
X28066665Y-36997425D01*
X28066665Y-36997425D02*
X28028570Y-37111711D01*
X28028570Y-37111711D02*
X27571427Y-37568854D01*
X27571427Y-37568854D02*
X28066665Y-37568854D01*
X28561904Y-36768854D02*
X28638094Y-36768854D01*
X28638094Y-36768854D02*
X28714285Y-36806949D01*
X28714285Y-36806949D02*
X28752380Y-36845044D01*
X28752380Y-36845044D02*
X28790475Y-36921235D01*
X28790475Y-36921235D02*
X28828570Y-37073616D01*
X28828570Y-37073616D02*
X28828570Y-37264092D01*
X28828570Y-37264092D02*
X28790475Y-37416473D01*
X28790475Y-37416473D02*
X28752380Y-37492663D01*
X28752380Y-37492663D02*
X28714285Y-37530759D01*
X28714285Y-37530759D02*
X28638094Y-37568854D01*
X28638094Y-37568854D02*
X28561904Y-37568854D01*
X28561904Y-37568854D02*
X28485713Y-37530759D01*
X28485713Y-37530759D02*
X28447618Y-37492663D01*
X28447618Y-37492663D02*
X28409523Y-37416473D01*
X28409523Y-37416473D02*
X28371427Y-37264092D01*
X28371427Y-37264092D02*
X28371427Y-37073616D01*
X28371427Y-37073616D02*
X28409523Y-36921235D01*
X28409523Y-36921235D02*
X28447618Y-36845044D01*
X28447618Y-36845044D02*
X28485713Y-36806949D01*
X28485713Y-36806949D02*
X28561904Y-36768854D01*
X29323809Y-36768854D02*
X29399999Y-36768854D01*
X29399999Y-36768854D02*
X29476190Y-36806949D01*
X29476190Y-36806949D02*
X29514285Y-36845044D01*
X29514285Y-36845044D02*
X29552380Y-36921235D01*
X29552380Y-36921235D02*
X29590475Y-37073616D01*
X29590475Y-37073616D02*
X29590475Y-37264092D01*
X29590475Y-37264092D02*
X29552380Y-37416473D01*
X29552380Y-37416473D02*
X29514285Y-37492663D01*
X29514285Y-37492663D02*
X29476190Y-37530759D01*
X29476190Y-37530759D02*
X29399999Y-37568854D01*
X29399999Y-37568854D02*
X29323809Y-37568854D01*
X29323809Y-37568854D02*
X29247618Y-37530759D01*
X29247618Y-37530759D02*
X29209523Y-37492663D01*
X29209523Y-37492663D02*
X29171428Y-37416473D01*
X29171428Y-37416473D02*
X29133332Y-37264092D01*
X29133332Y-37264092D02*
X29133332Y-37073616D01*
X29133332Y-37073616D02*
X29171428Y-36921235D01*
X29171428Y-36921235D02*
X29209523Y-36845044D01*
X29209523Y-36845044D02*
X29247618Y-36806949D01*
X29247618Y-36806949D02*
X29323809Y-36768854D01*
X28859762Y-32287664D02*
X28821666Y-32325760D01*
X28821666Y-32325760D02*
X28707381Y-32363855D01*
X28707381Y-32363855D02*
X28631190Y-32363855D01*
X28631190Y-32363855D02*
X28516904Y-32325760D01*
X28516904Y-32325760D02*
X28440714Y-32249569D01*
X28440714Y-32249569D02*
X28402619Y-32173379D01*
X28402619Y-32173379D02*
X28364523Y-32020998D01*
X28364523Y-32020998D02*
X28364523Y-31906712D01*
X28364523Y-31906712D02*
X28402619Y-31754331D01*
X28402619Y-31754331D02*
X28440714Y-31678140D01*
X28440714Y-31678140D02*
X28516904Y-31601950D01*
X28516904Y-31601950D02*
X28631190Y-31563855D01*
X28631190Y-31563855D02*
X28707381Y-31563855D01*
X28707381Y-31563855D02*
X28821666Y-31601950D01*
X28821666Y-31601950D02*
X28859762Y-31640045D01*
X29126428Y-31563855D02*
X29621666Y-31563855D01*
X29621666Y-31563855D02*
X29355000Y-31868617D01*
X29355000Y-31868617D02*
X29469285Y-31868617D01*
X29469285Y-31868617D02*
X29545476Y-31906712D01*
X29545476Y-31906712D02*
X29583571Y-31944807D01*
X29583571Y-31944807D02*
X29621666Y-32020998D01*
X29621666Y-32020998D02*
X29621666Y-32211474D01*
X29621666Y-32211474D02*
X29583571Y-32287664D01*
X29583571Y-32287664D02*
X29545476Y-32325760D01*
X29545476Y-32325760D02*
X29469285Y-32363855D01*
X29469285Y-32363855D02*
X29240714Y-32363855D01*
X29240714Y-32363855D02*
X29164523Y-32325760D01*
X29164523Y-32325760D02*
X29126428Y-32287664D01*
X30116905Y-31563855D02*
X30193095Y-31563855D01*
X30193095Y-31563855D02*
X30269286Y-31601950D01*
X30269286Y-31601950D02*
X30307381Y-31640045D01*
X30307381Y-31640045D02*
X30345476Y-31716236D01*
X30345476Y-31716236D02*
X30383571Y-31868617D01*
X30383571Y-31868617D02*
X30383571Y-32059093D01*
X30383571Y-32059093D02*
X30345476Y-32211474D01*
X30345476Y-32211474D02*
X30307381Y-32287664D01*
X30307381Y-32287664D02*
X30269286Y-32325760D01*
X30269286Y-32325760D02*
X30193095Y-32363855D01*
X30193095Y-32363855D02*
X30116905Y-32363855D01*
X30116905Y-32363855D02*
X30040714Y-32325760D01*
X30040714Y-32325760D02*
X30002619Y-32287664D01*
X30002619Y-32287664D02*
X29964524Y-32211474D01*
X29964524Y-32211474D02*
X29926428Y-32059093D01*
X29926428Y-32059093D02*
X29926428Y-31868617D01*
X29926428Y-31868617D02*
X29964524Y-31716236D01*
X29964524Y-31716236D02*
X30002619Y-31640045D01*
X30002619Y-31640045D02*
X30040714Y-31601950D01*
X30040714Y-31601950D02*
X30116905Y-31563855D01*
X30650238Y-31563855D02*
X31145476Y-31563855D01*
X31145476Y-31563855D02*
X30878810Y-31868617D01*
X30878810Y-31868617D02*
X30993095Y-31868617D01*
X30993095Y-31868617D02*
X31069286Y-31906712D01*
X31069286Y-31906712D02*
X31107381Y-31944807D01*
X31107381Y-31944807D02*
X31145476Y-32020998D01*
X31145476Y-32020998D02*
X31145476Y-32211474D01*
X31145476Y-32211474D02*
X31107381Y-32287664D01*
X31107381Y-32287664D02*
X31069286Y-32325760D01*
X31069286Y-32325760D02*
X30993095Y-32363855D01*
X30993095Y-32363855D02*
X30764524Y-32363855D01*
X30764524Y-32363855D02*
X30688333Y-32325760D01*
X30688333Y-32325760D02*
X30650238Y-32287664D01*
X44704762Y-47018855D02*
X44438095Y-46637902D01*
X44247619Y-47018855D02*
X44247619Y-46218855D01*
X44247619Y-46218855D02*
X44552381Y-46218855D01*
X44552381Y-46218855D02*
X44628571Y-46256950D01*
X44628571Y-46256950D02*
X44666666Y-46295045D01*
X44666666Y-46295045D02*
X44704762Y-46371236D01*
X44704762Y-46371236D02*
X44704762Y-46485521D01*
X44704762Y-46485521D02*
X44666666Y-46561712D01*
X44666666Y-46561712D02*
X44628571Y-46599807D01*
X44628571Y-46599807D02*
X44552381Y-46637902D01*
X44552381Y-46637902D02*
X44247619Y-46637902D01*
X45009523Y-46295045D02*
X45047619Y-46256950D01*
X45047619Y-46256950D02*
X45123809Y-46218855D01*
X45123809Y-46218855D02*
X45314285Y-46218855D01*
X45314285Y-46218855D02*
X45390476Y-46256950D01*
X45390476Y-46256950D02*
X45428571Y-46295045D01*
X45428571Y-46295045D02*
X45466666Y-46371236D01*
X45466666Y-46371236D02*
X45466666Y-46447426D01*
X45466666Y-46447426D02*
X45428571Y-46561712D01*
X45428571Y-46561712D02*
X44971428Y-47018855D01*
X44971428Y-47018855D02*
X45466666Y-47018855D01*
X45961905Y-46218855D02*
X46038095Y-46218855D01*
X46038095Y-46218855D02*
X46114286Y-46256950D01*
X46114286Y-46256950D02*
X46152381Y-46295045D01*
X46152381Y-46295045D02*
X46190476Y-46371236D01*
X46190476Y-46371236D02*
X46228571Y-46523617D01*
X46228571Y-46523617D02*
X46228571Y-46714093D01*
X46228571Y-46714093D02*
X46190476Y-46866474D01*
X46190476Y-46866474D02*
X46152381Y-46942664D01*
X46152381Y-46942664D02*
X46114286Y-46980760D01*
X46114286Y-46980760D02*
X46038095Y-47018855D01*
X46038095Y-47018855D02*
X45961905Y-47018855D01*
X45961905Y-47018855D02*
X45885714Y-46980760D01*
X45885714Y-46980760D02*
X45847619Y-46942664D01*
X45847619Y-46942664D02*
X45809524Y-46866474D01*
X45809524Y-46866474D02*
X45771428Y-46714093D01*
X45771428Y-46714093D02*
X45771428Y-46523617D01*
X45771428Y-46523617D02*
X45809524Y-46371236D01*
X45809524Y-46371236D02*
X45847619Y-46295045D01*
X45847619Y-46295045D02*
X45885714Y-46256950D01*
X45885714Y-46256950D02*
X45961905Y-46218855D01*
X46914286Y-46485521D02*
X46914286Y-47018855D01*
X46723810Y-46180760D02*
X46533333Y-46752188D01*
X46533333Y-46752188D02*
X47028572Y-46752188D01*
X15161667Y-11363855D02*
X14895000Y-10982902D01*
X14704524Y-11363855D02*
X14704524Y-10563855D01*
X14704524Y-10563855D02*
X15009286Y-10563855D01*
X15009286Y-10563855D02*
X15085476Y-10601950D01*
X15085476Y-10601950D02*
X15123571Y-10640045D01*
X15123571Y-10640045D02*
X15161667Y-10716236D01*
X15161667Y-10716236D02*
X15161667Y-10830521D01*
X15161667Y-10830521D02*
X15123571Y-10906712D01*
X15123571Y-10906712D02*
X15085476Y-10944807D01*
X15085476Y-10944807D02*
X15009286Y-10982902D01*
X15009286Y-10982902D02*
X14704524Y-10982902D01*
X15923571Y-11363855D02*
X15466428Y-11363855D01*
X15695000Y-11363855D02*
X15695000Y-10563855D01*
X15695000Y-10563855D02*
X15618809Y-10678140D01*
X15618809Y-10678140D02*
X15542619Y-10754331D01*
X15542619Y-10754331D02*
X15466428Y-10792426D01*
X18104762Y-46868855D02*
X17838095Y-46487902D01*
X17647619Y-46868855D02*
X17647619Y-46068855D01*
X17647619Y-46068855D02*
X17952381Y-46068855D01*
X17952381Y-46068855D02*
X18028571Y-46106950D01*
X18028571Y-46106950D02*
X18066666Y-46145045D01*
X18066666Y-46145045D02*
X18104762Y-46221236D01*
X18104762Y-46221236D02*
X18104762Y-46335521D01*
X18104762Y-46335521D02*
X18066666Y-46411712D01*
X18066666Y-46411712D02*
X18028571Y-46449807D01*
X18028571Y-46449807D02*
X17952381Y-46487902D01*
X17952381Y-46487902D02*
X17647619Y-46487902D01*
X18371428Y-46068855D02*
X18866666Y-46068855D01*
X18866666Y-46068855D02*
X18600000Y-46373617D01*
X18600000Y-46373617D02*
X18714285Y-46373617D01*
X18714285Y-46373617D02*
X18790476Y-46411712D01*
X18790476Y-46411712D02*
X18828571Y-46449807D01*
X18828571Y-46449807D02*
X18866666Y-46525998D01*
X18866666Y-46525998D02*
X18866666Y-46716474D01*
X18866666Y-46716474D02*
X18828571Y-46792664D01*
X18828571Y-46792664D02*
X18790476Y-46830760D01*
X18790476Y-46830760D02*
X18714285Y-46868855D01*
X18714285Y-46868855D02*
X18485714Y-46868855D01*
X18485714Y-46868855D02*
X18409523Y-46830760D01*
X18409523Y-46830760D02*
X18371428Y-46792664D01*
X19361905Y-46068855D02*
X19438095Y-46068855D01*
X19438095Y-46068855D02*
X19514286Y-46106950D01*
X19514286Y-46106950D02*
X19552381Y-46145045D01*
X19552381Y-46145045D02*
X19590476Y-46221236D01*
X19590476Y-46221236D02*
X19628571Y-46373617D01*
X19628571Y-46373617D02*
X19628571Y-46564093D01*
X19628571Y-46564093D02*
X19590476Y-46716474D01*
X19590476Y-46716474D02*
X19552381Y-46792664D01*
X19552381Y-46792664D02*
X19514286Y-46830760D01*
X19514286Y-46830760D02*
X19438095Y-46868855D01*
X19438095Y-46868855D02*
X19361905Y-46868855D01*
X19361905Y-46868855D02*
X19285714Y-46830760D01*
X19285714Y-46830760D02*
X19247619Y-46792664D01*
X19247619Y-46792664D02*
X19209524Y-46716474D01*
X19209524Y-46716474D02*
X19171428Y-46564093D01*
X19171428Y-46564093D02*
X19171428Y-46373617D01*
X19171428Y-46373617D02*
X19209524Y-46221236D01*
X19209524Y-46221236D02*
X19247619Y-46145045D01*
X19247619Y-46145045D02*
X19285714Y-46106950D01*
X19285714Y-46106950D02*
X19361905Y-46068855D01*
X19933333Y-46145045D02*
X19971429Y-46106950D01*
X19971429Y-46106950D02*
X20047619Y-46068855D01*
X20047619Y-46068855D02*
X20238095Y-46068855D01*
X20238095Y-46068855D02*
X20314286Y-46106950D01*
X20314286Y-46106950D02*
X20352381Y-46145045D01*
X20352381Y-46145045D02*
X20390476Y-46221236D01*
X20390476Y-46221236D02*
X20390476Y-46297426D01*
X20390476Y-46297426D02*
X20352381Y-46411712D01*
X20352381Y-46411712D02*
X19895238Y-46868855D01*
X19895238Y-46868855D02*
X20390476Y-46868855D01*
X7028571Y-51038855D02*
X7485714Y-51038855D01*
X7257142Y-51838855D02*
X7257142Y-51038855D01*
X7752381Y-51838855D02*
X7752381Y-51038855D01*
X7752381Y-51038855D02*
X8057143Y-51038855D01*
X8057143Y-51038855D02*
X8133333Y-51076950D01*
X8133333Y-51076950D02*
X8171428Y-51115045D01*
X8171428Y-51115045D02*
X8209524Y-51191236D01*
X8209524Y-51191236D02*
X8209524Y-51305521D01*
X8209524Y-51305521D02*
X8171428Y-51381712D01*
X8171428Y-51381712D02*
X8133333Y-51419807D01*
X8133333Y-51419807D02*
X8057143Y-51457902D01*
X8057143Y-51457902D02*
X7752381Y-51457902D01*
X8476190Y-51038855D02*
X8971428Y-51038855D01*
X8971428Y-51038855D02*
X8704762Y-51343617D01*
X8704762Y-51343617D02*
X8819047Y-51343617D01*
X8819047Y-51343617D02*
X8895238Y-51381712D01*
X8895238Y-51381712D02*
X8933333Y-51419807D01*
X8933333Y-51419807D02*
X8971428Y-51495998D01*
X8971428Y-51495998D02*
X8971428Y-51686474D01*
X8971428Y-51686474D02*
X8933333Y-51762664D01*
X8933333Y-51762664D02*
X8895238Y-51800760D01*
X8895238Y-51800760D02*
X8819047Y-51838855D01*
X8819047Y-51838855D02*
X8590476Y-51838855D01*
X8590476Y-51838855D02*
X8514285Y-51800760D01*
X8514285Y-51800760D02*
X8476190Y-51762664D01*
X9466667Y-51038855D02*
X9542857Y-51038855D01*
X9542857Y-51038855D02*
X9619048Y-51076950D01*
X9619048Y-51076950D02*
X9657143Y-51115045D01*
X9657143Y-51115045D02*
X9695238Y-51191236D01*
X9695238Y-51191236D02*
X9733333Y-51343617D01*
X9733333Y-51343617D02*
X9733333Y-51534093D01*
X9733333Y-51534093D02*
X9695238Y-51686474D01*
X9695238Y-51686474D02*
X9657143Y-51762664D01*
X9657143Y-51762664D02*
X9619048Y-51800760D01*
X9619048Y-51800760D02*
X9542857Y-51838855D01*
X9542857Y-51838855D02*
X9466667Y-51838855D01*
X9466667Y-51838855D02*
X9390476Y-51800760D01*
X9390476Y-51800760D02*
X9352381Y-51762664D01*
X9352381Y-51762664D02*
X9314286Y-51686474D01*
X9314286Y-51686474D02*
X9276190Y-51534093D01*
X9276190Y-51534093D02*
X9276190Y-51343617D01*
X9276190Y-51343617D02*
X9314286Y-51191236D01*
X9314286Y-51191236D02*
X9352381Y-51115045D01*
X9352381Y-51115045D02*
X9390476Y-51076950D01*
X9390476Y-51076950D02*
X9466667Y-51038855D01*
X10000000Y-51038855D02*
X10495238Y-51038855D01*
X10495238Y-51038855D02*
X10228572Y-51343617D01*
X10228572Y-51343617D02*
X10342857Y-51343617D01*
X10342857Y-51343617D02*
X10419048Y-51381712D01*
X10419048Y-51381712D02*
X10457143Y-51419807D01*
X10457143Y-51419807D02*
X10495238Y-51495998D01*
X10495238Y-51495998D02*
X10495238Y-51686474D01*
X10495238Y-51686474D02*
X10457143Y-51762664D01*
X10457143Y-51762664D02*
X10419048Y-51800760D01*
X10419048Y-51800760D02*
X10342857Y-51838855D01*
X10342857Y-51838855D02*
X10114286Y-51838855D01*
X10114286Y-51838855D02*
X10038095Y-51800760D01*
X10038095Y-51800760D02*
X10000000Y-51762664D01*
X22390476Y-12088854D02*
X22390476Y-12736473D01*
X22390476Y-12736473D02*
X22428571Y-12812663D01*
X22428571Y-12812663D02*
X22466666Y-12850759D01*
X22466666Y-12850759D02*
X22542857Y-12888854D01*
X22542857Y-12888854D02*
X22695238Y-12888854D01*
X22695238Y-12888854D02*
X22771428Y-12850759D01*
X22771428Y-12850759D02*
X22809523Y-12812663D01*
X22809523Y-12812663D02*
X22847619Y-12736473D01*
X22847619Y-12736473D02*
X22847619Y-12088854D01*
X23190475Y-12165044D02*
X23228571Y-12126949D01*
X23228571Y-12126949D02*
X23304761Y-12088854D01*
X23304761Y-12088854D02*
X23495237Y-12088854D01*
X23495237Y-12088854D02*
X23571428Y-12126949D01*
X23571428Y-12126949D02*
X23609523Y-12165044D01*
X23609523Y-12165044D02*
X23647618Y-12241235D01*
X23647618Y-12241235D02*
X23647618Y-12317425D01*
X23647618Y-12317425D02*
X23609523Y-12431711D01*
X23609523Y-12431711D02*
X23152380Y-12888854D01*
X23152380Y-12888854D02*
X23647618Y-12888854D01*
X29104762Y-26818855D02*
X28838095Y-26437902D01*
X28647619Y-26818855D02*
X28647619Y-26018855D01*
X28647619Y-26018855D02*
X28952381Y-26018855D01*
X28952381Y-26018855D02*
X29028571Y-26056950D01*
X29028571Y-26056950D02*
X29066666Y-26095045D01*
X29066666Y-26095045D02*
X29104762Y-26171236D01*
X29104762Y-26171236D02*
X29104762Y-26285521D01*
X29104762Y-26285521D02*
X29066666Y-26361712D01*
X29066666Y-26361712D02*
X29028571Y-26399807D01*
X29028571Y-26399807D02*
X28952381Y-26437902D01*
X28952381Y-26437902D02*
X28647619Y-26437902D01*
X29866666Y-26818855D02*
X29409523Y-26818855D01*
X29638095Y-26818855D02*
X29638095Y-26018855D01*
X29638095Y-26018855D02*
X29561904Y-26133140D01*
X29561904Y-26133140D02*
X29485714Y-26209331D01*
X29485714Y-26209331D02*
X29409523Y-26247426D01*
X30361905Y-26018855D02*
X30438095Y-26018855D01*
X30438095Y-26018855D02*
X30514286Y-26056950D01*
X30514286Y-26056950D02*
X30552381Y-26095045D01*
X30552381Y-26095045D02*
X30590476Y-26171236D01*
X30590476Y-26171236D02*
X30628571Y-26323617D01*
X30628571Y-26323617D02*
X30628571Y-26514093D01*
X30628571Y-26514093D02*
X30590476Y-26666474D01*
X30590476Y-26666474D02*
X30552381Y-26742664D01*
X30552381Y-26742664D02*
X30514286Y-26780760D01*
X30514286Y-26780760D02*
X30438095Y-26818855D01*
X30438095Y-26818855D02*
X30361905Y-26818855D01*
X30361905Y-26818855D02*
X30285714Y-26780760D01*
X30285714Y-26780760D02*
X30247619Y-26742664D01*
X30247619Y-26742664D02*
X30209524Y-26666474D01*
X30209524Y-26666474D02*
X30171428Y-26514093D01*
X30171428Y-26514093D02*
X30171428Y-26323617D01*
X30171428Y-26323617D02*
X30209524Y-26171236D01*
X30209524Y-26171236D02*
X30247619Y-26095045D01*
X30247619Y-26095045D02*
X30285714Y-26056950D01*
X30285714Y-26056950D02*
X30361905Y-26018855D01*
X30933333Y-26095045D02*
X30971429Y-26056950D01*
X30971429Y-26056950D02*
X31047619Y-26018855D01*
X31047619Y-26018855D02*
X31238095Y-26018855D01*
X31238095Y-26018855D02*
X31314286Y-26056950D01*
X31314286Y-26056950D02*
X31352381Y-26095045D01*
X31352381Y-26095045D02*
X31390476Y-26171236D01*
X31390476Y-26171236D02*
X31390476Y-26247426D01*
X31390476Y-26247426D02*
X31352381Y-26361712D01*
X31352381Y-26361712D02*
X30895238Y-26818855D01*
X30895238Y-26818855D02*
X31390476Y-26818855D01*
X17911667Y-14287664D02*
X17873571Y-14325760D01*
X17873571Y-14325760D02*
X17759286Y-14363855D01*
X17759286Y-14363855D02*
X17683095Y-14363855D01*
X17683095Y-14363855D02*
X17568809Y-14325760D01*
X17568809Y-14325760D02*
X17492619Y-14249569D01*
X17492619Y-14249569D02*
X17454524Y-14173379D01*
X17454524Y-14173379D02*
X17416428Y-14020998D01*
X17416428Y-14020998D02*
X17416428Y-13906712D01*
X17416428Y-13906712D02*
X17454524Y-13754331D01*
X17454524Y-13754331D02*
X17492619Y-13678140D01*
X17492619Y-13678140D02*
X17568809Y-13601950D01*
X17568809Y-13601950D02*
X17683095Y-13563855D01*
X17683095Y-13563855D02*
X17759286Y-13563855D01*
X17759286Y-13563855D02*
X17873571Y-13601950D01*
X17873571Y-13601950D02*
X17911667Y-13640045D01*
X18635476Y-13563855D02*
X18254524Y-13563855D01*
X18254524Y-13563855D02*
X18216428Y-13944807D01*
X18216428Y-13944807D02*
X18254524Y-13906712D01*
X18254524Y-13906712D02*
X18330714Y-13868617D01*
X18330714Y-13868617D02*
X18521190Y-13868617D01*
X18521190Y-13868617D02*
X18597381Y-13906712D01*
X18597381Y-13906712D02*
X18635476Y-13944807D01*
X18635476Y-13944807D02*
X18673571Y-14020998D01*
X18673571Y-14020998D02*
X18673571Y-14211474D01*
X18673571Y-14211474D02*
X18635476Y-14287664D01*
X18635476Y-14287664D02*
X18597381Y-14325760D01*
X18597381Y-14325760D02*
X18521190Y-14363855D01*
X18521190Y-14363855D02*
X18330714Y-14363855D01*
X18330714Y-14363855D02*
X18254524Y-14325760D01*
X18254524Y-14325760D02*
X18216428Y-14287664D01*
X43904762Y-15908855D02*
X43638095Y-15527902D01*
X43447619Y-15908855D02*
X43447619Y-15108855D01*
X43447619Y-15108855D02*
X43752381Y-15108855D01*
X43752381Y-15108855D02*
X43828571Y-15146950D01*
X43828571Y-15146950D02*
X43866666Y-15185045D01*
X43866666Y-15185045D02*
X43904762Y-15261236D01*
X43904762Y-15261236D02*
X43904762Y-15375521D01*
X43904762Y-15375521D02*
X43866666Y-15451712D01*
X43866666Y-15451712D02*
X43828571Y-15489807D01*
X43828571Y-15489807D02*
X43752381Y-15527902D01*
X43752381Y-15527902D02*
X43447619Y-15527902D01*
X44666666Y-15908855D02*
X44209523Y-15908855D01*
X44438095Y-15908855D02*
X44438095Y-15108855D01*
X44438095Y-15108855D02*
X44361904Y-15223140D01*
X44361904Y-15223140D02*
X44285714Y-15299331D01*
X44285714Y-15299331D02*
X44209523Y-15337426D01*
X45161905Y-15108855D02*
X45238095Y-15108855D01*
X45238095Y-15108855D02*
X45314286Y-15146950D01*
X45314286Y-15146950D02*
X45352381Y-15185045D01*
X45352381Y-15185045D02*
X45390476Y-15261236D01*
X45390476Y-15261236D02*
X45428571Y-15413617D01*
X45428571Y-15413617D02*
X45428571Y-15604093D01*
X45428571Y-15604093D02*
X45390476Y-15756474D01*
X45390476Y-15756474D02*
X45352381Y-15832664D01*
X45352381Y-15832664D02*
X45314286Y-15870760D01*
X45314286Y-15870760D02*
X45238095Y-15908855D01*
X45238095Y-15908855D02*
X45161905Y-15908855D01*
X45161905Y-15908855D02*
X45085714Y-15870760D01*
X45085714Y-15870760D02*
X45047619Y-15832664D01*
X45047619Y-15832664D02*
X45009524Y-15756474D01*
X45009524Y-15756474D02*
X44971428Y-15604093D01*
X44971428Y-15604093D02*
X44971428Y-15413617D01*
X44971428Y-15413617D02*
X45009524Y-15261236D01*
X45009524Y-15261236D02*
X45047619Y-15185045D01*
X45047619Y-15185045D02*
X45085714Y-15146950D01*
X45085714Y-15146950D02*
X45161905Y-15108855D01*
X46152381Y-15108855D02*
X45771429Y-15108855D01*
X45771429Y-15108855D02*
X45733333Y-15489807D01*
X45733333Y-15489807D02*
X45771429Y-15451712D01*
X45771429Y-15451712D02*
X45847619Y-15413617D01*
X45847619Y-15413617D02*
X46038095Y-15413617D01*
X46038095Y-15413617D02*
X46114286Y-15451712D01*
X46114286Y-15451712D02*
X46152381Y-15489807D01*
X46152381Y-15489807D02*
X46190476Y-15565998D01*
X46190476Y-15565998D02*
X46190476Y-15756474D01*
X46190476Y-15756474D02*
X46152381Y-15832664D01*
X46152381Y-15832664D02*
X46114286Y-15870760D01*
X46114286Y-15870760D02*
X46038095Y-15908855D01*
X46038095Y-15908855D02*
X45847619Y-15908855D01*
X45847619Y-15908855D02*
X45771429Y-15870760D01*
X45771429Y-15870760D02*
X45733333Y-15832664D01*
X43904762Y-24918855D02*
X43638095Y-24537902D01*
X43447619Y-24918855D02*
X43447619Y-24118855D01*
X43447619Y-24118855D02*
X43752381Y-24118855D01*
X43752381Y-24118855D02*
X43828571Y-24156950D01*
X43828571Y-24156950D02*
X43866666Y-24195045D01*
X43866666Y-24195045D02*
X43904762Y-24271236D01*
X43904762Y-24271236D02*
X43904762Y-24385521D01*
X43904762Y-24385521D02*
X43866666Y-24461712D01*
X43866666Y-24461712D02*
X43828571Y-24499807D01*
X43828571Y-24499807D02*
X43752381Y-24537902D01*
X43752381Y-24537902D02*
X43447619Y-24537902D01*
X44666666Y-24918855D02*
X44209523Y-24918855D01*
X44438095Y-24918855D02*
X44438095Y-24118855D01*
X44438095Y-24118855D02*
X44361904Y-24233140D01*
X44361904Y-24233140D02*
X44285714Y-24309331D01*
X44285714Y-24309331D02*
X44209523Y-24347426D01*
X45161905Y-24118855D02*
X45238095Y-24118855D01*
X45238095Y-24118855D02*
X45314286Y-24156950D01*
X45314286Y-24156950D02*
X45352381Y-24195045D01*
X45352381Y-24195045D02*
X45390476Y-24271236D01*
X45390476Y-24271236D02*
X45428571Y-24423617D01*
X45428571Y-24423617D02*
X45428571Y-24614093D01*
X45428571Y-24614093D02*
X45390476Y-24766474D01*
X45390476Y-24766474D02*
X45352381Y-24842664D01*
X45352381Y-24842664D02*
X45314286Y-24880760D01*
X45314286Y-24880760D02*
X45238095Y-24918855D01*
X45238095Y-24918855D02*
X45161905Y-24918855D01*
X45161905Y-24918855D02*
X45085714Y-24880760D01*
X45085714Y-24880760D02*
X45047619Y-24842664D01*
X45047619Y-24842664D02*
X45009524Y-24766474D01*
X45009524Y-24766474D02*
X44971428Y-24614093D01*
X44971428Y-24614093D02*
X44971428Y-24423617D01*
X44971428Y-24423617D02*
X45009524Y-24271236D01*
X45009524Y-24271236D02*
X45047619Y-24195045D01*
X45047619Y-24195045D02*
X45085714Y-24156950D01*
X45085714Y-24156950D02*
X45161905Y-24118855D01*
X45695238Y-24118855D02*
X46190476Y-24118855D01*
X46190476Y-24118855D02*
X45923810Y-24423617D01*
X45923810Y-24423617D02*
X46038095Y-24423617D01*
X46038095Y-24423617D02*
X46114286Y-24461712D01*
X46114286Y-24461712D02*
X46152381Y-24499807D01*
X46152381Y-24499807D02*
X46190476Y-24575998D01*
X46190476Y-24575998D02*
X46190476Y-24766474D01*
X46190476Y-24766474D02*
X46152381Y-24842664D01*
X46152381Y-24842664D02*
X46114286Y-24880760D01*
X46114286Y-24880760D02*
X46038095Y-24918855D01*
X46038095Y-24918855D02*
X45809524Y-24918855D01*
X45809524Y-24918855D02*
X45733333Y-24880760D01*
X45733333Y-24880760D02*
X45695238Y-24842664D01*
X43904762Y-13808855D02*
X43638095Y-13427902D01*
X43447619Y-13808855D02*
X43447619Y-13008855D01*
X43447619Y-13008855D02*
X43752381Y-13008855D01*
X43752381Y-13008855D02*
X43828571Y-13046950D01*
X43828571Y-13046950D02*
X43866666Y-13085045D01*
X43866666Y-13085045D02*
X43904762Y-13161236D01*
X43904762Y-13161236D02*
X43904762Y-13275521D01*
X43904762Y-13275521D02*
X43866666Y-13351712D01*
X43866666Y-13351712D02*
X43828571Y-13389807D01*
X43828571Y-13389807D02*
X43752381Y-13427902D01*
X43752381Y-13427902D02*
X43447619Y-13427902D01*
X44666666Y-13808855D02*
X44209523Y-13808855D01*
X44438095Y-13808855D02*
X44438095Y-13008855D01*
X44438095Y-13008855D02*
X44361904Y-13123140D01*
X44361904Y-13123140D02*
X44285714Y-13199331D01*
X44285714Y-13199331D02*
X44209523Y-13237426D01*
X45161905Y-13008855D02*
X45238095Y-13008855D01*
X45238095Y-13008855D02*
X45314286Y-13046950D01*
X45314286Y-13046950D02*
X45352381Y-13085045D01*
X45352381Y-13085045D02*
X45390476Y-13161236D01*
X45390476Y-13161236D02*
X45428571Y-13313617D01*
X45428571Y-13313617D02*
X45428571Y-13504093D01*
X45428571Y-13504093D02*
X45390476Y-13656474D01*
X45390476Y-13656474D02*
X45352381Y-13732664D01*
X45352381Y-13732664D02*
X45314286Y-13770760D01*
X45314286Y-13770760D02*
X45238095Y-13808855D01*
X45238095Y-13808855D02*
X45161905Y-13808855D01*
X45161905Y-13808855D02*
X45085714Y-13770760D01*
X45085714Y-13770760D02*
X45047619Y-13732664D01*
X45047619Y-13732664D02*
X45009524Y-13656474D01*
X45009524Y-13656474D02*
X44971428Y-13504093D01*
X44971428Y-13504093D02*
X44971428Y-13313617D01*
X44971428Y-13313617D02*
X45009524Y-13161236D01*
X45009524Y-13161236D02*
X45047619Y-13085045D01*
X45047619Y-13085045D02*
X45085714Y-13046950D01*
X45085714Y-13046950D02*
X45161905Y-13008855D01*
X46114286Y-13008855D02*
X45961905Y-13008855D01*
X45961905Y-13008855D02*
X45885714Y-13046950D01*
X45885714Y-13046950D02*
X45847619Y-13085045D01*
X45847619Y-13085045D02*
X45771429Y-13199331D01*
X45771429Y-13199331D02*
X45733333Y-13351712D01*
X45733333Y-13351712D02*
X45733333Y-13656474D01*
X45733333Y-13656474D02*
X45771429Y-13732664D01*
X45771429Y-13732664D02*
X45809524Y-13770760D01*
X45809524Y-13770760D02*
X45885714Y-13808855D01*
X45885714Y-13808855D02*
X46038095Y-13808855D01*
X46038095Y-13808855D02*
X46114286Y-13770760D01*
X46114286Y-13770760D02*
X46152381Y-13732664D01*
X46152381Y-13732664D02*
X46190476Y-13656474D01*
X46190476Y-13656474D02*
X46190476Y-13465998D01*
X46190476Y-13465998D02*
X46152381Y-13389807D01*
X46152381Y-13389807D02*
X46114286Y-13351712D01*
X46114286Y-13351712D02*
X46038095Y-13313617D01*
X46038095Y-13313617D02*
X45885714Y-13313617D01*
X45885714Y-13313617D02*
X45809524Y-13351712D01*
X45809524Y-13351712D02*
X45771429Y-13389807D01*
X45771429Y-13389807D02*
X45733333Y-13465998D01*
X35304762Y-33582664D02*
X35266666Y-33620760D01*
X35266666Y-33620760D02*
X35152381Y-33658855D01*
X35152381Y-33658855D02*
X35076190Y-33658855D01*
X35076190Y-33658855D02*
X34961904Y-33620760D01*
X34961904Y-33620760D02*
X34885714Y-33544569D01*
X34885714Y-33544569D02*
X34847619Y-33468379D01*
X34847619Y-33468379D02*
X34809523Y-33315998D01*
X34809523Y-33315998D02*
X34809523Y-33201712D01*
X34809523Y-33201712D02*
X34847619Y-33049331D01*
X34847619Y-33049331D02*
X34885714Y-32973140D01*
X34885714Y-32973140D02*
X34961904Y-32896950D01*
X34961904Y-32896950D02*
X35076190Y-32858855D01*
X35076190Y-32858855D02*
X35152381Y-32858855D01*
X35152381Y-32858855D02*
X35266666Y-32896950D01*
X35266666Y-32896950D02*
X35304762Y-32935045D01*
X35609523Y-32935045D02*
X35647619Y-32896950D01*
X35647619Y-32896950D02*
X35723809Y-32858855D01*
X35723809Y-32858855D02*
X35914285Y-32858855D01*
X35914285Y-32858855D02*
X35990476Y-32896950D01*
X35990476Y-32896950D02*
X36028571Y-32935045D01*
X36028571Y-32935045D02*
X36066666Y-33011236D01*
X36066666Y-33011236D02*
X36066666Y-33087426D01*
X36066666Y-33087426D02*
X36028571Y-33201712D01*
X36028571Y-33201712D02*
X35571428Y-33658855D01*
X35571428Y-33658855D02*
X36066666Y-33658855D01*
X36561905Y-32858855D02*
X36638095Y-32858855D01*
X36638095Y-32858855D02*
X36714286Y-32896950D01*
X36714286Y-32896950D02*
X36752381Y-32935045D01*
X36752381Y-32935045D02*
X36790476Y-33011236D01*
X36790476Y-33011236D02*
X36828571Y-33163617D01*
X36828571Y-33163617D02*
X36828571Y-33354093D01*
X36828571Y-33354093D02*
X36790476Y-33506474D01*
X36790476Y-33506474D02*
X36752381Y-33582664D01*
X36752381Y-33582664D02*
X36714286Y-33620760D01*
X36714286Y-33620760D02*
X36638095Y-33658855D01*
X36638095Y-33658855D02*
X36561905Y-33658855D01*
X36561905Y-33658855D02*
X36485714Y-33620760D01*
X36485714Y-33620760D02*
X36447619Y-33582664D01*
X36447619Y-33582664D02*
X36409524Y-33506474D01*
X36409524Y-33506474D02*
X36371428Y-33354093D01*
X36371428Y-33354093D02*
X36371428Y-33163617D01*
X36371428Y-33163617D02*
X36409524Y-33011236D01*
X36409524Y-33011236D02*
X36447619Y-32935045D01*
X36447619Y-32935045D02*
X36485714Y-32896950D01*
X36485714Y-32896950D02*
X36561905Y-32858855D01*
X37590476Y-33658855D02*
X37133333Y-33658855D01*
X37361905Y-33658855D02*
X37361905Y-32858855D01*
X37361905Y-32858855D02*
X37285714Y-32973140D01*
X37285714Y-32973140D02*
X37209524Y-33049331D01*
X37209524Y-33049331D02*
X37133333Y-33087426D01*
X21628571Y-36588855D02*
X21628571Y-37236474D01*
X21628571Y-37236474D02*
X21666666Y-37312664D01*
X21666666Y-37312664D02*
X21704761Y-37350760D01*
X21704761Y-37350760D02*
X21780952Y-37388855D01*
X21780952Y-37388855D02*
X21933333Y-37388855D01*
X21933333Y-37388855D02*
X22009523Y-37350760D01*
X22009523Y-37350760D02*
X22047618Y-37312664D01*
X22047618Y-37312664D02*
X22085714Y-37236474D01*
X22085714Y-37236474D02*
X22085714Y-36588855D01*
X22390475Y-36588855D02*
X22885713Y-36588855D01*
X22885713Y-36588855D02*
X22619047Y-36893617D01*
X22619047Y-36893617D02*
X22733332Y-36893617D01*
X22733332Y-36893617D02*
X22809523Y-36931712D01*
X22809523Y-36931712D02*
X22847618Y-36969807D01*
X22847618Y-36969807D02*
X22885713Y-37045998D01*
X22885713Y-37045998D02*
X22885713Y-37236474D01*
X22885713Y-37236474D02*
X22847618Y-37312664D01*
X22847618Y-37312664D02*
X22809523Y-37350760D01*
X22809523Y-37350760D02*
X22733332Y-37388855D01*
X22733332Y-37388855D02*
X22504761Y-37388855D01*
X22504761Y-37388855D02*
X22428570Y-37350760D01*
X22428570Y-37350760D02*
X22390475Y-37312664D01*
X23380952Y-36588855D02*
X23457142Y-36588855D01*
X23457142Y-36588855D02*
X23533333Y-36626950D01*
X23533333Y-36626950D02*
X23571428Y-36665045D01*
X23571428Y-36665045D02*
X23609523Y-36741236D01*
X23609523Y-36741236D02*
X23647618Y-36893617D01*
X23647618Y-36893617D02*
X23647618Y-37084093D01*
X23647618Y-37084093D02*
X23609523Y-37236474D01*
X23609523Y-37236474D02*
X23571428Y-37312664D01*
X23571428Y-37312664D02*
X23533333Y-37350760D01*
X23533333Y-37350760D02*
X23457142Y-37388855D01*
X23457142Y-37388855D02*
X23380952Y-37388855D01*
X23380952Y-37388855D02*
X23304761Y-37350760D01*
X23304761Y-37350760D02*
X23266666Y-37312664D01*
X23266666Y-37312664D02*
X23228571Y-37236474D01*
X23228571Y-37236474D02*
X23190475Y-37084093D01*
X23190475Y-37084093D02*
X23190475Y-36893617D01*
X23190475Y-36893617D02*
X23228571Y-36741236D01*
X23228571Y-36741236D02*
X23266666Y-36665045D01*
X23266666Y-36665045D02*
X23304761Y-36626950D01*
X23304761Y-36626950D02*
X23380952Y-36588855D01*
X24142857Y-36588855D02*
X24219047Y-36588855D01*
X24219047Y-36588855D02*
X24295238Y-36626950D01*
X24295238Y-36626950D02*
X24333333Y-36665045D01*
X24333333Y-36665045D02*
X24371428Y-36741236D01*
X24371428Y-36741236D02*
X24409523Y-36893617D01*
X24409523Y-36893617D02*
X24409523Y-37084093D01*
X24409523Y-37084093D02*
X24371428Y-37236474D01*
X24371428Y-37236474D02*
X24333333Y-37312664D01*
X24333333Y-37312664D02*
X24295238Y-37350760D01*
X24295238Y-37350760D02*
X24219047Y-37388855D01*
X24219047Y-37388855D02*
X24142857Y-37388855D01*
X24142857Y-37388855D02*
X24066666Y-37350760D01*
X24066666Y-37350760D02*
X24028571Y-37312664D01*
X24028571Y-37312664D02*
X23990476Y-37236474D01*
X23990476Y-37236474D02*
X23952380Y-37084093D01*
X23952380Y-37084093D02*
X23952380Y-36893617D01*
X23952380Y-36893617D02*
X23990476Y-36741236D01*
X23990476Y-36741236D02*
X24028571Y-36665045D01*
X24028571Y-36665045D02*
X24066666Y-36626950D01*
X24066666Y-36626950D02*
X24142857Y-36588855D01*
X4153571Y-28163855D02*
X4610714Y-28163855D01*
X4382142Y-28963855D02*
X4382142Y-28163855D01*
X4877381Y-28963855D02*
X4877381Y-28163855D01*
X4877381Y-28163855D02*
X5182143Y-28163855D01*
X5182143Y-28163855D02*
X5258333Y-28201950D01*
X5258333Y-28201950D02*
X5296428Y-28240045D01*
X5296428Y-28240045D02*
X5334524Y-28316236D01*
X5334524Y-28316236D02*
X5334524Y-28430521D01*
X5334524Y-28430521D02*
X5296428Y-28506712D01*
X5296428Y-28506712D02*
X5258333Y-28544807D01*
X5258333Y-28544807D02*
X5182143Y-28582902D01*
X5182143Y-28582902D02*
X4877381Y-28582902D01*
X5601190Y-28163855D02*
X6096428Y-28163855D01*
X6096428Y-28163855D02*
X5829762Y-28468617D01*
X5829762Y-28468617D02*
X5944047Y-28468617D01*
X5944047Y-28468617D02*
X6020238Y-28506712D01*
X6020238Y-28506712D02*
X6058333Y-28544807D01*
X6058333Y-28544807D02*
X6096428Y-28620998D01*
X6096428Y-28620998D02*
X6096428Y-28811474D01*
X6096428Y-28811474D02*
X6058333Y-28887664D01*
X6058333Y-28887664D02*
X6020238Y-28925760D01*
X6020238Y-28925760D02*
X5944047Y-28963855D01*
X5944047Y-28963855D02*
X5715476Y-28963855D01*
X5715476Y-28963855D02*
X5639285Y-28925760D01*
X5639285Y-28925760D02*
X5601190Y-28887664D01*
X6591667Y-28163855D02*
X6667857Y-28163855D01*
X6667857Y-28163855D02*
X6744048Y-28201950D01*
X6744048Y-28201950D02*
X6782143Y-28240045D01*
X6782143Y-28240045D02*
X6820238Y-28316236D01*
X6820238Y-28316236D02*
X6858333Y-28468617D01*
X6858333Y-28468617D02*
X6858333Y-28659093D01*
X6858333Y-28659093D02*
X6820238Y-28811474D01*
X6820238Y-28811474D02*
X6782143Y-28887664D01*
X6782143Y-28887664D02*
X6744048Y-28925760D01*
X6744048Y-28925760D02*
X6667857Y-28963855D01*
X6667857Y-28963855D02*
X6591667Y-28963855D01*
X6591667Y-28963855D02*
X6515476Y-28925760D01*
X6515476Y-28925760D02*
X6477381Y-28887664D01*
X6477381Y-28887664D02*
X6439286Y-28811474D01*
X6439286Y-28811474D02*
X6401190Y-28659093D01*
X6401190Y-28659093D02*
X6401190Y-28468617D01*
X6401190Y-28468617D02*
X6439286Y-28316236D01*
X6439286Y-28316236D02*
X6477381Y-28240045D01*
X6477381Y-28240045D02*
X6515476Y-28201950D01*
X6515476Y-28201950D02*
X6591667Y-28163855D01*
X7163095Y-28240045D02*
X7201191Y-28201950D01*
X7201191Y-28201950D02*
X7277381Y-28163855D01*
X7277381Y-28163855D02*
X7467857Y-28163855D01*
X7467857Y-28163855D02*
X7544048Y-28201950D01*
X7544048Y-28201950D02*
X7582143Y-28240045D01*
X7582143Y-28240045D02*
X7620238Y-28316236D01*
X7620238Y-28316236D02*
X7620238Y-28392426D01*
X7620238Y-28392426D02*
X7582143Y-28506712D01*
X7582143Y-28506712D02*
X7125000Y-28963855D01*
X7125000Y-28963855D02*
X7620238Y-28963855D01*
X10999762Y-37163855D02*
X10733095Y-36782902D01*
X10542619Y-37163855D02*
X10542619Y-36363855D01*
X10542619Y-36363855D02*
X10847381Y-36363855D01*
X10847381Y-36363855D02*
X10923571Y-36401950D01*
X10923571Y-36401950D02*
X10961666Y-36440045D01*
X10961666Y-36440045D02*
X10999762Y-36516236D01*
X10999762Y-36516236D02*
X10999762Y-36630521D01*
X10999762Y-36630521D02*
X10961666Y-36706712D01*
X10961666Y-36706712D02*
X10923571Y-36744807D01*
X10923571Y-36744807D02*
X10847381Y-36782902D01*
X10847381Y-36782902D02*
X10542619Y-36782902D01*
X11266428Y-36363855D02*
X11761666Y-36363855D01*
X11761666Y-36363855D02*
X11495000Y-36668617D01*
X11495000Y-36668617D02*
X11609285Y-36668617D01*
X11609285Y-36668617D02*
X11685476Y-36706712D01*
X11685476Y-36706712D02*
X11723571Y-36744807D01*
X11723571Y-36744807D02*
X11761666Y-36820998D01*
X11761666Y-36820998D02*
X11761666Y-37011474D01*
X11761666Y-37011474D02*
X11723571Y-37087664D01*
X11723571Y-37087664D02*
X11685476Y-37125760D01*
X11685476Y-37125760D02*
X11609285Y-37163855D01*
X11609285Y-37163855D02*
X11380714Y-37163855D01*
X11380714Y-37163855D02*
X11304523Y-37125760D01*
X11304523Y-37125760D02*
X11266428Y-37087664D01*
X12256905Y-36363855D02*
X12333095Y-36363855D01*
X12333095Y-36363855D02*
X12409286Y-36401950D01*
X12409286Y-36401950D02*
X12447381Y-36440045D01*
X12447381Y-36440045D02*
X12485476Y-36516236D01*
X12485476Y-36516236D02*
X12523571Y-36668617D01*
X12523571Y-36668617D02*
X12523571Y-36859093D01*
X12523571Y-36859093D02*
X12485476Y-37011474D01*
X12485476Y-37011474D02*
X12447381Y-37087664D01*
X12447381Y-37087664D02*
X12409286Y-37125760D01*
X12409286Y-37125760D02*
X12333095Y-37163855D01*
X12333095Y-37163855D02*
X12256905Y-37163855D01*
X12256905Y-37163855D02*
X12180714Y-37125760D01*
X12180714Y-37125760D02*
X12142619Y-37087664D01*
X12142619Y-37087664D02*
X12104524Y-37011474D01*
X12104524Y-37011474D02*
X12066428Y-36859093D01*
X12066428Y-36859093D02*
X12066428Y-36668617D01*
X12066428Y-36668617D02*
X12104524Y-36516236D01*
X12104524Y-36516236D02*
X12142619Y-36440045D01*
X12142619Y-36440045D02*
X12180714Y-36401950D01*
X12180714Y-36401950D02*
X12256905Y-36363855D01*
X13285476Y-37163855D02*
X12828333Y-37163855D01*
X13056905Y-37163855D02*
X13056905Y-36363855D01*
X13056905Y-36363855D02*
X12980714Y-36478140D01*
X12980714Y-36478140D02*
X12904524Y-36554331D01*
X12904524Y-36554331D02*
X12828333Y-36592426D01*
X21628571Y-33538855D02*
X21628571Y-34186474D01*
X21628571Y-34186474D02*
X21666666Y-34262664D01*
X21666666Y-34262664D02*
X21704761Y-34300760D01*
X21704761Y-34300760D02*
X21780952Y-34338855D01*
X21780952Y-34338855D02*
X21933333Y-34338855D01*
X21933333Y-34338855D02*
X22009523Y-34300760D01*
X22009523Y-34300760D02*
X22047618Y-34262664D01*
X22047618Y-34262664D02*
X22085714Y-34186474D01*
X22085714Y-34186474D02*
X22085714Y-33538855D01*
X22390475Y-33538855D02*
X22885713Y-33538855D01*
X22885713Y-33538855D02*
X22619047Y-33843617D01*
X22619047Y-33843617D02*
X22733332Y-33843617D01*
X22733332Y-33843617D02*
X22809523Y-33881712D01*
X22809523Y-33881712D02*
X22847618Y-33919807D01*
X22847618Y-33919807D02*
X22885713Y-33995998D01*
X22885713Y-33995998D02*
X22885713Y-34186474D01*
X22885713Y-34186474D02*
X22847618Y-34262664D01*
X22847618Y-34262664D02*
X22809523Y-34300760D01*
X22809523Y-34300760D02*
X22733332Y-34338855D01*
X22733332Y-34338855D02*
X22504761Y-34338855D01*
X22504761Y-34338855D02*
X22428570Y-34300760D01*
X22428570Y-34300760D02*
X22390475Y-34262664D01*
X23380952Y-33538855D02*
X23457142Y-33538855D01*
X23457142Y-33538855D02*
X23533333Y-33576950D01*
X23533333Y-33576950D02*
X23571428Y-33615045D01*
X23571428Y-33615045D02*
X23609523Y-33691236D01*
X23609523Y-33691236D02*
X23647618Y-33843617D01*
X23647618Y-33843617D02*
X23647618Y-34034093D01*
X23647618Y-34034093D02*
X23609523Y-34186474D01*
X23609523Y-34186474D02*
X23571428Y-34262664D01*
X23571428Y-34262664D02*
X23533333Y-34300760D01*
X23533333Y-34300760D02*
X23457142Y-34338855D01*
X23457142Y-34338855D02*
X23380952Y-34338855D01*
X23380952Y-34338855D02*
X23304761Y-34300760D01*
X23304761Y-34300760D02*
X23266666Y-34262664D01*
X23266666Y-34262664D02*
X23228571Y-34186474D01*
X23228571Y-34186474D02*
X23190475Y-34034093D01*
X23190475Y-34034093D02*
X23190475Y-33843617D01*
X23190475Y-33843617D02*
X23228571Y-33691236D01*
X23228571Y-33691236D02*
X23266666Y-33615045D01*
X23266666Y-33615045D02*
X23304761Y-33576950D01*
X23304761Y-33576950D02*
X23380952Y-33538855D01*
X24409523Y-34338855D02*
X23952380Y-34338855D01*
X24180952Y-34338855D02*
X24180952Y-33538855D01*
X24180952Y-33538855D02*
X24104761Y-33653140D01*
X24104761Y-33653140D02*
X24028571Y-33729331D01*
X24028571Y-33729331D02*
X23952380Y-33767426D01*
X29628571Y-42488854D02*
X29628571Y-43136473D01*
X29628571Y-43136473D02*
X29666666Y-43212663D01*
X29666666Y-43212663D02*
X29704761Y-43250759D01*
X29704761Y-43250759D02*
X29780952Y-43288854D01*
X29780952Y-43288854D02*
X29933333Y-43288854D01*
X29933333Y-43288854D02*
X30009523Y-43250759D01*
X30009523Y-43250759D02*
X30047618Y-43212663D01*
X30047618Y-43212663D02*
X30085714Y-43136473D01*
X30085714Y-43136473D02*
X30085714Y-42488854D01*
X30428570Y-42565044D02*
X30466666Y-42526949D01*
X30466666Y-42526949D02*
X30542856Y-42488854D01*
X30542856Y-42488854D02*
X30733332Y-42488854D01*
X30733332Y-42488854D02*
X30809523Y-42526949D01*
X30809523Y-42526949D02*
X30847618Y-42565044D01*
X30847618Y-42565044D02*
X30885713Y-42641235D01*
X30885713Y-42641235D02*
X30885713Y-42717425D01*
X30885713Y-42717425D02*
X30847618Y-42831711D01*
X30847618Y-42831711D02*
X30390475Y-43288854D01*
X30390475Y-43288854D02*
X30885713Y-43288854D01*
X31380952Y-42488854D02*
X31457142Y-42488854D01*
X31457142Y-42488854D02*
X31533333Y-42526949D01*
X31533333Y-42526949D02*
X31571428Y-42565044D01*
X31571428Y-42565044D02*
X31609523Y-42641235D01*
X31609523Y-42641235D02*
X31647618Y-42793616D01*
X31647618Y-42793616D02*
X31647618Y-42984092D01*
X31647618Y-42984092D02*
X31609523Y-43136473D01*
X31609523Y-43136473D02*
X31571428Y-43212663D01*
X31571428Y-43212663D02*
X31533333Y-43250759D01*
X31533333Y-43250759D02*
X31457142Y-43288854D01*
X31457142Y-43288854D02*
X31380952Y-43288854D01*
X31380952Y-43288854D02*
X31304761Y-43250759D01*
X31304761Y-43250759D02*
X31266666Y-43212663D01*
X31266666Y-43212663D02*
X31228571Y-43136473D01*
X31228571Y-43136473D02*
X31190475Y-42984092D01*
X31190475Y-42984092D02*
X31190475Y-42793616D01*
X31190475Y-42793616D02*
X31228571Y-42641235D01*
X31228571Y-42641235D02*
X31266666Y-42565044D01*
X31266666Y-42565044D02*
X31304761Y-42526949D01*
X31304761Y-42526949D02*
X31380952Y-42488854D01*
X32142857Y-42488854D02*
X32219047Y-42488854D01*
X32219047Y-42488854D02*
X32295238Y-42526949D01*
X32295238Y-42526949D02*
X32333333Y-42565044D01*
X32333333Y-42565044D02*
X32371428Y-42641235D01*
X32371428Y-42641235D02*
X32409523Y-42793616D01*
X32409523Y-42793616D02*
X32409523Y-42984092D01*
X32409523Y-42984092D02*
X32371428Y-43136473D01*
X32371428Y-43136473D02*
X32333333Y-43212663D01*
X32333333Y-43212663D02*
X32295238Y-43250759D01*
X32295238Y-43250759D02*
X32219047Y-43288854D01*
X32219047Y-43288854D02*
X32142857Y-43288854D01*
X32142857Y-43288854D02*
X32066666Y-43250759D01*
X32066666Y-43250759D02*
X32028571Y-43212663D01*
X32028571Y-43212663D02*
X31990476Y-43136473D01*
X31990476Y-43136473D02*
X31952380Y-42984092D01*
X31952380Y-42984092D02*
X31952380Y-42793616D01*
X31952380Y-42793616D02*
X31990476Y-42641235D01*
X31990476Y-42641235D02*
X32028571Y-42565044D01*
X32028571Y-42565044D02*
X32066666Y-42526949D01*
X32066666Y-42526949D02*
X32142857Y-42488854D01*
X36104762Y-13582664D02*
X36066666Y-13620760D01*
X36066666Y-13620760D02*
X35952381Y-13658855D01*
X35952381Y-13658855D02*
X35876190Y-13658855D01*
X35876190Y-13658855D02*
X35761904Y-13620760D01*
X35761904Y-13620760D02*
X35685714Y-13544569D01*
X35685714Y-13544569D02*
X35647619Y-13468379D01*
X35647619Y-13468379D02*
X35609523Y-13315998D01*
X35609523Y-13315998D02*
X35609523Y-13201712D01*
X35609523Y-13201712D02*
X35647619Y-13049331D01*
X35647619Y-13049331D02*
X35685714Y-12973140D01*
X35685714Y-12973140D02*
X35761904Y-12896950D01*
X35761904Y-12896950D02*
X35876190Y-12858855D01*
X35876190Y-12858855D02*
X35952381Y-12858855D01*
X35952381Y-12858855D02*
X36066666Y-12896950D01*
X36066666Y-12896950D02*
X36104762Y-12935045D01*
X36866666Y-13658855D02*
X36409523Y-13658855D01*
X36638095Y-13658855D02*
X36638095Y-12858855D01*
X36638095Y-12858855D02*
X36561904Y-12973140D01*
X36561904Y-12973140D02*
X36485714Y-13049331D01*
X36485714Y-13049331D02*
X36409523Y-13087426D01*
X37361905Y-12858855D02*
X37438095Y-12858855D01*
X37438095Y-12858855D02*
X37514286Y-12896950D01*
X37514286Y-12896950D02*
X37552381Y-12935045D01*
X37552381Y-12935045D02*
X37590476Y-13011236D01*
X37590476Y-13011236D02*
X37628571Y-13163617D01*
X37628571Y-13163617D02*
X37628571Y-13354093D01*
X37628571Y-13354093D02*
X37590476Y-13506474D01*
X37590476Y-13506474D02*
X37552381Y-13582664D01*
X37552381Y-13582664D02*
X37514286Y-13620760D01*
X37514286Y-13620760D02*
X37438095Y-13658855D01*
X37438095Y-13658855D02*
X37361905Y-13658855D01*
X37361905Y-13658855D02*
X37285714Y-13620760D01*
X37285714Y-13620760D02*
X37247619Y-13582664D01*
X37247619Y-13582664D02*
X37209524Y-13506474D01*
X37209524Y-13506474D02*
X37171428Y-13354093D01*
X37171428Y-13354093D02*
X37171428Y-13163617D01*
X37171428Y-13163617D02*
X37209524Y-13011236D01*
X37209524Y-13011236D02*
X37247619Y-12935045D01*
X37247619Y-12935045D02*
X37285714Y-12896950D01*
X37285714Y-12896950D02*
X37361905Y-12858855D01*
X38390476Y-13658855D02*
X37933333Y-13658855D01*
X38161905Y-13658855D02*
X38161905Y-12858855D01*
X38161905Y-12858855D02*
X38085714Y-12973140D01*
X38085714Y-12973140D02*
X38009524Y-13049331D01*
X38009524Y-13049331D02*
X37933333Y-13087426D01*
X14228571Y-53038855D02*
X14685714Y-53038855D01*
X14457142Y-53838855D02*
X14457142Y-53038855D01*
X14952381Y-53838855D02*
X14952381Y-53038855D01*
X14952381Y-53038855D02*
X15257143Y-53038855D01*
X15257143Y-53038855D02*
X15333333Y-53076950D01*
X15333333Y-53076950D02*
X15371428Y-53115045D01*
X15371428Y-53115045D02*
X15409524Y-53191236D01*
X15409524Y-53191236D02*
X15409524Y-53305521D01*
X15409524Y-53305521D02*
X15371428Y-53381712D01*
X15371428Y-53381712D02*
X15333333Y-53419807D01*
X15333333Y-53419807D02*
X15257143Y-53457902D01*
X15257143Y-53457902D02*
X14952381Y-53457902D01*
X15676190Y-53038855D02*
X16171428Y-53038855D01*
X16171428Y-53038855D02*
X15904762Y-53343617D01*
X15904762Y-53343617D02*
X16019047Y-53343617D01*
X16019047Y-53343617D02*
X16095238Y-53381712D01*
X16095238Y-53381712D02*
X16133333Y-53419807D01*
X16133333Y-53419807D02*
X16171428Y-53495998D01*
X16171428Y-53495998D02*
X16171428Y-53686474D01*
X16171428Y-53686474D02*
X16133333Y-53762664D01*
X16133333Y-53762664D02*
X16095238Y-53800760D01*
X16095238Y-53800760D02*
X16019047Y-53838855D01*
X16019047Y-53838855D02*
X15790476Y-53838855D01*
X15790476Y-53838855D02*
X15714285Y-53800760D01*
X15714285Y-53800760D02*
X15676190Y-53762664D01*
X16666667Y-53038855D02*
X16742857Y-53038855D01*
X16742857Y-53038855D02*
X16819048Y-53076950D01*
X16819048Y-53076950D02*
X16857143Y-53115045D01*
X16857143Y-53115045D02*
X16895238Y-53191236D01*
X16895238Y-53191236D02*
X16933333Y-53343617D01*
X16933333Y-53343617D02*
X16933333Y-53534093D01*
X16933333Y-53534093D02*
X16895238Y-53686474D01*
X16895238Y-53686474D02*
X16857143Y-53762664D01*
X16857143Y-53762664D02*
X16819048Y-53800760D01*
X16819048Y-53800760D02*
X16742857Y-53838855D01*
X16742857Y-53838855D02*
X16666667Y-53838855D01*
X16666667Y-53838855D02*
X16590476Y-53800760D01*
X16590476Y-53800760D02*
X16552381Y-53762664D01*
X16552381Y-53762664D02*
X16514286Y-53686474D01*
X16514286Y-53686474D02*
X16476190Y-53534093D01*
X16476190Y-53534093D02*
X16476190Y-53343617D01*
X16476190Y-53343617D02*
X16514286Y-53191236D01*
X16514286Y-53191236D02*
X16552381Y-53115045D01*
X16552381Y-53115045D02*
X16590476Y-53076950D01*
X16590476Y-53076950D02*
X16666667Y-53038855D01*
X17428572Y-53038855D02*
X17504762Y-53038855D01*
X17504762Y-53038855D02*
X17580953Y-53076950D01*
X17580953Y-53076950D02*
X17619048Y-53115045D01*
X17619048Y-53115045D02*
X17657143Y-53191236D01*
X17657143Y-53191236D02*
X17695238Y-53343617D01*
X17695238Y-53343617D02*
X17695238Y-53534093D01*
X17695238Y-53534093D02*
X17657143Y-53686474D01*
X17657143Y-53686474D02*
X17619048Y-53762664D01*
X17619048Y-53762664D02*
X17580953Y-53800760D01*
X17580953Y-53800760D02*
X17504762Y-53838855D01*
X17504762Y-53838855D02*
X17428572Y-53838855D01*
X17428572Y-53838855D02*
X17352381Y-53800760D01*
X17352381Y-53800760D02*
X17314286Y-53762664D01*
X17314286Y-53762664D02*
X17276191Y-53686474D01*
X17276191Y-53686474D02*
X17238095Y-53534093D01*
X17238095Y-53534093D02*
X17238095Y-53343617D01*
X17238095Y-53343617D02*
X17276191Y-53191236D01*
X17276191Y-53191236D02*
X17314286Y-53115045D01*
X17314286Y-53115045D02*
X17352381Y-53076950D01*
X17352381Y-53076950D02*
X17428572Y-53038855D01*
X7866667Y-20908855D02*
X7600000Y-20527902D01*
X7409524Y-20908855D02*
X7409524Y-20108855D01*
X7409524Y-20108855D02*
X7714286Y-20108855D01*
X7714286Y-20108855D02*
X7790476Y-20146950D01*
X7790476Y-20146950D02*
X7828571Y-20185045D01*
X7828571Y-20185045D02*
X7866667Y-20261236D01*
X7866667Y-20261236D02*
X7866667Y-20375521D01*
X7866667Y-20375521D02*
X7828571Y-20451712D01*
X7828571Y-20451712D02*
X7790476Y-20489807D01*
X7790476Y-20489807D02*
X7714286Y-20527902D01*
X7714286Y-20527902D02*
X7409524Y-20527902D01*
X8552381Y-20375521D02*
X8552381Y-20908855D01*
X8361905Y-20070760D02*
X8171428Y-20642188D01*
X8171428Y-20642188D02*
X8666667Y-20642188D01*
X44404762Y-11658855D02*
X44138095Y-11277902D01*
X43947619Y-11658855D02*
X43947619Y-10858855D01*
X43947619Y-10858855D02*
X44252381Y-10858855D01*
X44252381Y-10858855D02*
X44328571Y-10896950D01*
X44328571Y-10896950D02*
X44366666Y-10935045D01*
X44366666Y-10935045D02*
X44404762Y-11011236D01*
X44404762Y-11011236D02*
X44404762Y-11125521D01*
X44404762Y-11125521D02*
X44366666Y-11201712D01*
X44366666Y-11201712D02*
X44328571Y-11239807D01*
X44328571Y-11239807D02*
X44252381Y-11277902D01*
X44252381Y-11277902D02*
X43947619Y-11277902D01*
X45166666Y-11658855D02*
X44709523Y-11658855D01*
X44938095Y-11658855D02*
X44938095Y-10858855D01*
X44938095Y-10858855D02*
X44861904Y-10973140D01*
X44861904Y-10973140D02*
X44785714Y-11049331D01*
X44785714Y-11049331D02*
X44709523Y-11087426D01*
X45661905Y-10858855D02*
X45738095Y-10858855D01*
X45738095Y-10858855D02*
X45814286Y-10896950D01*
X45814286Y-10896950D02*
X45852381Y-10935045D01*
X45852381Y-10935045D02*
X45890476Y-11011236D01*
X45890476Y-11011236D02*
X45928571Y-11163617D01*
X45928571Y-11163617D02*
X45928571Y-11354093D01*
X45928571Y-11354093D02*
X45890476Y-11506474D01*
X45890476Y-11506474D02*
X45852381Y-11582664D01*
X45852381Y-11582664D02*
X45814286Y-11620760D01*
X45814286Y-11620760D02*
X45738095Y-11658855D01*
X45738095Y-11658855D02*
X45661905Y-11658855D01*
X45661905Y-11658855D02*
X45585714Y-11620760D01*
X45585714Y-11620760D02*
X45547619Y-11582664D01*
X45547619Y-11582664D02*
X45509524Y-11506474D01*
X45509524Y-11506474D02*
X45471428Y-11354093D01*
X45471428Y-11354093D02*
X45471428Y-11163617D01*
X45471428Y-11163617D02*
X45509524Y-11011236D01*
X45509524Y-11011236D02*
X45547619Y-10935045D01*
X45547619Y-10935045D02*
X45585714Y-10896950D01*
X45585714Y-10896950D02*
X45661905Y-10858855D01*
X46195238Y-10858855D02*
X46728572Y-10858855D01*
X46728572Y-10858855D02*
X46385714Y-11658855D01*
X55533333Y-27788855D02*
X55533333Y-28360283D01*
X55533333Y-28360283D02*
X55495238Y-28474569D01*
X55495238Y-28474569D02*
X55419047Y-28550760D01*
X55419047Y-28550760D02*
X55304762Y-28588855D01*
X55304762Y-28588855D02*
X55228571Y-28588855D01*
X55876190Y-27865045D02*
X55914286Y-27826950D01*
X55914286Y-27826950D02*
X55990476Y-27788855D01*
X55990476Y-27788855D02*
X56180952Y-27788855D01*
X56180952Y-27788855D02*
X56257143Y-27826950D01*
X56257143Y-27826950D02*
X56295238Y-27865045D01*
X56295238Y-27865045D02*
X56333333Y-27941236D01*
X56333333Y-27941236D02*
X56333333Y-28017426D01*
X56333333Y-28017426D02*
X56295238Y-28131712D01*
X56295238Y-28131712D02*
X55838095Y-28588855D01*
X55838095Y-28588855D02*
X56333333Y-28588855D01*
X14621667Y-27687664D02*
X14583571Y-27725760D01*
X14583571Y-27725760D02*
X14469286Y-27763855D01*
X14469286Y-27763855D02*
X14393095Y-27763855D01*
X14393095Y-27763855D02*
X14278809Y-27725760D01*
X14278809Y-27725760D02*
X14202619Y-27649569D01*
X14202619Y-27649569D02*
X14164524Y-27573379D01*
X14164524Y-27573379D02*
X14126428Y-27420998D01*
X14126428Y-27420998D02*
X14126428Y-27306712D01*
X14126428Y-27306712D02*
X14164524Y-27154331D01*
X14164524Y-27154331D02*
X14202619Y-27078140D01*
X14202619Y-27078140D02*
X14278809Y-27001950D01*
X14278809Y-27001950D02*
X14393095Y-26963855D01*
X14393095Y-26963855D02*
X14469286Y-26963855D01*
X14469286Y-26963855D02*
X14583571Y-27001950D01*
X14583571Y-27001950D02*
X14621667Y-27040045D01*
X15307381Y-27230521D02*
X15307381Y-27763855D01*
X15116905Y-26925760D02*
X14926428Y-27497188D01*
X14926428Y-27497188D02*
X15421667Y-27497188D01*
X23349762Y-45987664D02*
X23311666Y-46025760D01*
X23311666Y-46025760D02*
X23197381Y-46063855D01*
X23197381Y-46063855D02*
X23121190Y-46063855D01*
X23121190Y-46063855D02*
X23006904Y-46025760D01*
X23006904Y-46025760D02*
X22930714Y-45949569D01*
X22930714Y-45949569D02*
X22892619Y-45873379D01*
X22892619Y-45873379D02*
X22854523Y-45720998D01*
X22854523Y-45720998D02*
X22854523Y-45606712D01*
X22854523Y-45606712D02*
X22892619Y-45454331D01*
X22892619Y-45454331D02*
X22930714Y-45378140D01*
X22930714Y-45378140D02*
X23006904Y-45301950D01*
X23006904Y-45301950D02*
X23121190Y-45263855D01*
X23121190Y-45263855D02*
X23197381Y-45263855D01*
X23197381Y-45263855D02*
X23311666Y-45301950D01*
X23311666Y-45301950D02*
X23349762Y-45340045D01*
X23616428Y-45263855D02*
X24111666Y-45263855D01*
X24111666Y-45263855D02*
X23845000Y-45568617D01*
X23845000Y-45568617D02*
X23959285Y-45568617D01*
X23959285Y-45568617D02*
X24035476Y-45606712D01*
X24035476Y-45606712D02*
X24073571Y-45644807D01*
X24073571Y-45644807D02*
X24111666Y-45720998D01*
X24111666Y-45720998D02*
X24111666Y-45911474D01*
X24111666Y-45911474D02*
X24073571Y-45987664D01*
X24073571Y-45987664D02*
X24035476Y-46025760D01*
X24035476Y-46025760D02*
X23959285Y-46063855D01*
X23959285Y-46063855D02*
X23730714Y-46063855D01*
X23730714Y-46063855D02*
X23654523Y-46025760D01*
X23654523Y-46025760D02*
X23616428Y-45987664D01*
X24606905Y-45263855D02*
X24683095Y-45263855D01*
X24683095Y-45263855D02*
X24759286Y-45301950D01*
X24759286Y-45301950D02*
X24797381Y-45340045D01*
X24797381Y-45340045D02*
X24835476Y-45416236D01*
X24835476Y-45416236D02*
X24873571Y-45568617D01*
X24873571Y-45568617D02*
X24873571Y-45759093D01*
X24873571Y-45759093D02*
X24835476Y-45911474D01*
X24835476Y-45911474D02*
X24797381Y-45987664D01*
X24797381Y-45987664D02*
X24759286Y-46025760D01*
X24759286Y-46025760D02*
X24683095Y-46063855D01*
X24683095Y-46063855D02*
X24606905Y-46063855D01*
X24606905Y-46063855D02*
X24530714Y-46025760D01*
X24530714Y-46025760D02*
X24492619Y-45987664D01*
X24492619Y-45987664D02*
X24454524Y-45911474D01*
X24454524Y-45911474D02*
X24416428Y-45759093D01*
X24416428Y-45759093D02*
X24416428Y-45568617D01*
X24416428Y-45568617D02*
X24454524Y-45416236D01*
X24454524Y-45416236D02*
X24492619Y-45340045D01*
X24492619Y-45340045D02*
X24530714Y-45301950D01*
X24530714Y-45301950D02*
X24606905Y-45263855D01*
X25178333Y-45340045D02*
X25216429Y-45301950D01*
X25216429Y-45301950D02*
X25292619Y-45263855D01*
X25292619Y-45263855D02*
X25483095Y-45263855D01*
X25483095Y-45263855D02*
X25559286Y-45301950D01*
X25559286Y-45301950D02*
X25597381Y-45340045D01*
X25597381Y-45340045D02*
X25635476Y-45416236D01*
X25635476Y-45416236D02*
X25635476Y-45492426D01*
X25635476Y-45492426D02*
X25597381Y-45606712D01*
X25597381Y-45606712D02*
X25140238Y-46063855D01*
X25140238Y-46063855D02*
X25635476Y-46063855D01*
X6990476Y-15038855D02*
X7447619Y-15038855D01*
X7219047Y-15838855D02*
X7219047Y-15038855D01*
X7714286Y-15838855D02*
X7714286Y-15038855D01*
X7714286Y-15038855D02*
X8019048Y-15038855D01*
X8019048Y-15038855D02*
X8095238Y-15076950D01*
X8095238Y-15076950D02*
X8133333Y-15115045D01*
X8133333Y-15115045D02*
X8171429Y-15191236D01*
X8171429Y-15191236D02*
X8171429Y-15305521D01*
X8171429Y-15305521D02*
X8133333Y-15381712D01*
X8133333Y-15381712D02*
X8095238Y-15419807D01*
X8095238Y-15419807D02*
X8019048Y-15457902D01*
X8019048Y-15457902D02*
X7714286Y-15457902D01*
X8933333Y-15838855D02*
X8476190Y-15838855D01*
X8704762Y-15838855D02*
X8704762Y-15038855D01*
X8704762Y-15038855D02*
X8628571Y-15153140D01*
X8628571Y-15153140D02*
X8552381Y-15229331D01*
X8552381Y-15229331D02*
X8476190Y-15267426D01*
X14104762Y-38642664D02*
X14066666Y-38680760D01*
X14066666Y-38680760D02*
X13952381Y-38718855D01*
X13952381Y-38718855D02*
X13876190Y-38718855D01*
X13876190Y-38718855D02*
X13761904Y-38680760D01*
X13761904Y-38680760D02*
X13685714Y-38604569D01*
X13685714Y-38604569D02*
X13647619Y-38528379D01*
X13647619Y-38528379D02*
X13609523Y-38375998D01*
X13609523Y-38375998D02*
X13609523Y-38261712D01*
X13609523Y-38261712D02*
X13647619Y-38109331D01*
X13647619Y-38109331D02*
X13685714Y-38033140D01*
X13685714Y-38033140D02*
X13761904Y-37956950D01*
X13761904Y-37956950D02*
X13876190Y-37918855D01*
X13876190Y-37918855D02*
X13952381Y-37918855D01*
X13952381Y-37918855D02*
X14066666Y-37956950D01*
X14066666Y-37956950D02*
X14104762Y-37995045D01*
X14371428Y-37918855D02*
X14866666Y-37918855D01*
X14866666Y-37918855D02*
X14600000Y-38223617D01*
X14600000Y-38223617D02*
X14714285Y-38223617D01*
X14714285Y-38223617D02*
X14790476Y-38261712D01*
X14790476Y-38261712D02*
X14828571Y-38299807D01*
X14828571Y-38299807D02*
X14866666Y-38375998D01*
X14866666Y-38375998D02*
X14866666Y-38566474D01*
X14866666Y-38566474D02*
X14828571Y-38642664D01*
X14828571Y-38642664D02*
X14790476Y-38680760D01*
X14790476Y-38680760D02*
X14714285Y-38718855D01*
X14714285Y-38718855D02*
X14485714Y-38718855D01*
X14485714Y-38718855D02*
X14409523Y-38680760D01*
X14409523Y-38680760D02*
X14371428Y-38642664D01*
X15361905Y-37918855D02*
X15438095Y-37918855D01*
X15438095Y-37918855D02*
X15514286Y-37956950D01*
X15514286Y-37956950D02*
X15552381Y-37995045D01*
X15552381Y-37995045D02*
X15590476Y-38071236D01*
X15590476Y-38071236D02*
X15628571Y-38223617D01*
X15628571Y-38223617D02*
X15628571Y-38414093D01*
X15628571Y-38414093D02*
X15590476Y-38566474D01*
X15590476Y-38566474D02*
X15552381Y-38642664D01*
X15552381Y-38642664D02*
X15514286Y-38680760D01*
X15514286Y-38680760D02*
X15438095Y-38718855D01*
X15438095Y-38718855D02*
X15361905Y-38718855D01*
X15361905Y-38718855D02*
X15285714Y-38680760D01*
X15285714Y-38680760D02*
X15247619Y-38642664D01*
X15247619Y-38642664D02*
X15209524Y-38566474D01*
X15209524Y-38566474D02*
X15171428Y-38414093D01*
X15171428Y-38414093D02*
X15171428Y-38223617D01*
X15171428Y-38223617D02*
X15209524Y-38071236D01*
X15209524Y-38071236D02*
X15247619Y-37995045D01*
X15247619Y-37995045D02*
X15285714Y-37956950D01*
X15285714Y-37956950D02*
X15361905Y-37918855D01*
X16390476Y-38718855D02*
X15933333Y-38718855D01*
X16161905Y-38718855D02*
X16161905Y-37918855D01*
X16161905Y-37918855D02*
X16085714Y-38033140D01*
X16085714Y-38033140D02*
X16009524Y-38109331D01*
X16009524Y-38109331D02*
X15933333Y-38147426D01*
X31904762Y-13332664D02*
X31866666Y-13370760D01*
X31866666Y-13370760D02*
X31752381Y-13408855D01*
X31752381Y-13408855D02*
X31676190Y-13408855D01*
X31676190Y-13408855D02*
X31561904Y-13370760D01*
X31561904Y-13370760D02*
X31485714Y-13294569D01*
X31485714Y-13294569D02*
X31447619Y-13218379D01*
X31447619Y-13218379D02*
X31409523Y-13065998D01*
X31409523Y-13065998D02*
X31409523Y-12951712D01*
X31409523Y-12951712D02*
X31447619Y-12799331D01*
X31447619Y-12799331D02*
X31485714Y-12723140D01*
X31485714Y-12723140D02*
X31561904Y-12646950D01*
X31561904Y-12646950D02*
X31676190Y-12608855D01*
X31676190Y-12608855D02*
X31752381Y-12608855D01*
X31752381Y-12608855D02*
X31866666Y-12646950D01*
X31866666Y-12646950D02*
X31904762Y-12685045D01*
X32666666Y-13408855D02*
X32209523Y-13408855D01*
X32438095Y-13408855D02*
X32438095Y-12608855D01*
X32438095Y-12608855D02*
X32361904Y-12723140D01*
X32361904Y-12723140D02*
X32285714Y-12799331D01*
X32285714Y-12799331D02*
X32209523Y-12837426D01*
X33161905Y-12608855D02*
X33238095Y-12608855D01*
X33238095Y-12608855D02*
X33314286Y-12646950D01*
X33314286Y-12646950D02*
X33352381Y-12685045D01*
X33352381Y-12685045D02*
X33390476Y-12761236D01*
X33390476Y-12761236D02*
X33428571Y-12913617D01*
X33428571Y-12913617D02*
X33428571Y-13104093D01*
X33428571Y-13104093D02*
X33390476Y-13256474D01*
X33390476Y-13256474D02*
X33352381Y-13332664D01*
X33352381Y-13332664D02*
X33314286Y-13370760D01*
X33314286Y-13370760D02*
X33238095Y-13408855D01*
X33238095Y-13408855D02*
X33161905Y-13408855D01*
X33161905Y-13408855D02*
X33085714Y-13370760D01*
X33085714Y-13370760D02*
X33047619Y-13332664D01*
X33047619Y-13332664D02*
X33009524Y-13256474D01*
X33009524Y-13256474D02*
X32971428Y-13104093D01*
X32971428Y-13104093D02*
X32971428Y-12913617D01*
X32971428Y-12913617D02*
X33009524Y-12761236D01*
X33009524Y-12761236D02*
X33047619Y-12685045D01*
X33047619Y-12685045D02*
X33085714Y-12646950D01*
X33085714Y-12646950D02*
X33161905Y-12608855D01*
X33923810Y-12608855D02*
X34000000Y-12608855D01*
X34000000Y-12608855D02*
X34076191Y-12646950D01*
X34076191Y-12646950D02*
X34114286Y-12685045D01*
X34114286Y-12685045D02*
X34152381Y-12761236D01*
X34152381Y-12761236D02*
X34190476Y-12913617D01*
X34190476Y-12913617D02*
X34190476Y-13104093D01*
X34190476Y-13104093D02*
X34152381Y-13256474D01*
X34152381Y-13256474D02*
X34114286Y-13332664D01*
X34114286Y-13332664D02*
X34076191Y-13370760D01*
X34076191Y-13370760D02*
X34000000Y-13408855D01*
X34000000Y-13408855D02*
X33923810Y-13408855D01*
X33923810Y-13408855D02*
X33847619Y-13370760D01*
X33847619Y-13370760D02*
X33809524Y-13332664D01*
X33809524Y-13332664D02*
X33771429Y-13256474D01*
X33771429Y-13256474D02*
X33733333Y-13104093D01*
X33733333Y-13104093D02*
X33733333Y-12913617D01*
X33733333Y-12913617D02*
X33771429Y-12761236D01*
X33771429Y-12761236D02*
X33809524Y-12685045D01*
X33809524Y-12685045D02*
X33847619Y-12646950D01*
X33847619Y-12646950D02*
X33923810Y-12608855D01*
X20466667Y-11742664D02*
X20428571Y-11780760D01*
X20428571Y-11780760D02*
X20314286Y-11818855D01*
X20314286Y-11818855D02*
X20238095Y-11818855D01*
X20238095Y-11818855D02*
X20123809Y-11780760D01*
X20123809Y-11780760D02*
X20047619Y-11704569D01*
X20047619Y-11704569D02*
X20009524Y-11628379D01*
X20009524Y-11628379D02*
X19971428Y-11475998D01*
X19971428Y-11475998D02*
X19971428Y-11361712D01*
X19971428Y-11361712D02*
X20009524Y-11209331D01*
X20009524Y-11209331D02*
X20047619Y-11133140D01*
X20047619Y-11133140D02*
X20123809Y-11056950D01*
X20123809Y-11056950D02*
X20238095Y-11018855D01*
X20238095Y-11018855D02*
X20314286Y-11018855D01*
X20314286Y-11018855D02*
X20428571Y-11056950D01*
X20428571Y-11056950D02*
X20466667Y-11095045D01*
X21228571Y-11818855D02*
X20771428Y-11818855D01*
X21000000Y-11818855D02*
X21000000Y-11018855D01*
X21000000Y-11018855D02*
X20923809Y-11133140D01*
X20923809Y-11133140D02*
X20847619Y-11209331D01*
X20847619Y-11209331D02*
X20771428Y-11247426D01*
X43904762Y-44918854D02*
X43638095Y-44537901D01*
X43447619Y-44918854D02*
X43447619Y-44118854D01*
X43447619Y-44118854D02*
X43752381Y-44118854D01*
X43752381Y-44118854D02*
X43828571Y-44156949D01*
X43828571Y-44156949D02*
X43866666Y-44195044D01*
X43866666Y-44195044D02*
X43904762Y-44271235D01*
X43904762Y-44271235D02*
X43904762Y-44385520D01*
X43904762Y-44385520D02*
X43866666Y-44461711D01*
X43866666Y-44461711D02*
X43828571Y-44499806D01*
X43828571Y-44499806D02*
X43752381Y-44537901D01*
X43752381Y-44537901D02*
X43447619Y-44537901D01*
X44209523Y-44195044D02*
X44247619Y-44156949D01*
X44247619Y-44156949D02*
X44323809Y-44118854D01*
X44323809Y-44118854D02*
X44514285Y-44118854D01*
X44514285Y-44118854D02*
X44590476Y-44156949D01*
X44590476Y-44156949D02*
X44628571Y-44195044D01*
X44628571Y-44195044D02*
X44666666Y-44271235D01*
X44666666Y-44271235D02*
X44666666Y-44347425D01*
X44666666Y-44347425D02*
X44628571Y-44461711D01*
X44628571Y-44461711D02*
X44171428Y-44918854D01*
X44171428Y-44918854D02*
X44666666Y-44918854D01*
X45161905Y-44118854D02*
X45238095Y-44118854D01*
X45238095Y-44118854D02*
X45314286Y-44156949D01*
X45314286Y-44156949D02*
X45352381Y-44195044D01*
X45352381Y-44195044D02*
X45390476Y-44271235D01*
X45390476Y-44271235D02*
X45428571Y-44423616D01*
X45428571Y-44423616D02*
X45428571Y-44614092D01*
X45428571Y-44614092D02*
X45390476Y-44766473D01*
X45390476Y-44766473D02*
X45352381Y-44842663D01*
X45352381Y-44842663D02*
X45314286Y-44880759D01*
X45314286Y-44880759D02*
X45238095Y-44918854D01*
X45238095Y-44918854D02*
X45161905Y-44918854D01*
X45161905Y-44918854D02*
X45085714Y-44880759D01*
X45085714Y-44880759D02*
X45047619Y-44842663D01*
X45047619Y-44842663D02*
X45009524Y-44766473D01*
X45009524Y-44766473D02*
X44971428Y-44614092D01*
X44971428Y-44614092D02*
X44971428Y-44423616D01*
X44971428Y-44423616D02*
X45009524Y-44271235D01*
X45009524Y-44271235D02*
X45047619Y-44195044D01*
X45047619Y-44195044D02*
X45085714Y-44156949D01*
X45085714Y-44156949D02*
X45161905Y-44118854D01*
X45695238Y-44118854D02*
X46190476Y-44118854D01*
X46190476Y-44118854D02*
X45923810Y-44423616D01*
X45923810Y-44423616D02*
X46038095Y-44423616D01*
X46038095Y-44423616D02*
X46114286Y-44461711D01*
X46114286Y-44461711D02*
X46152381Y-44499806D01*
X46152381Y-44499806D02*
X46190476Y-44575997D01*
X46190476Y-44575997D02*
X46190476Y-44766473D01*
X46190476Y-44766473D02*
X46152381Y-44842663D01*
X46152381Y-44842663D02*
X46114286Y-44880759D01*
X46114286Y-44880759D02*
X46038095Y-44918854D01*
X46038095Y-44918854D02*
X45809524Y-44918854D01*
X45809524Y-44918854D02*
X45733333Y-44880759D01*
X45733333Y-44880759D02*
X45695238Y-44842663D01*
X2911667Y-18363855D02*
X2645000Y-17982902D01*
X2454524Y-18363855D02*
X2454524Y-17563855D01*
X2454524Y-17563855D02*
X2759286Y-17563855D01*
X2759286Y-17563855D02*
X2835476Y-17601950D01*
X2835476Y-17601950D02*
X2873571Y-17640045D01*
X2873571Y-17640045D02*
X2911667Y-17716236D01*
X2911667Y-17716236D02*
X2911667Y-17830521D01*
X2911667Y-17830521D02*
X2873571Y-17906712D01*
X2873571Y-17906712D02*
X2835476Y-17944807D01*
X2835476Y-17944807D02*
X2759286Y-17982902D01*
X2759286Y-17982902D02*
X2454524Y-17982902D01*
X3597381Y-17563855D02*
X3445000Y-17563855D01*
X3445000Y-17563855D02*
X3368809Y-17601950D01*
X3368809Y-17601950D02*
X3330714Y-17640045D01*
X3330714Y-17640045D02*
X3254524Y-17754331D01*
X3254524Y-17754331D02*
X3216428Y-17906712D01*
X3216428Y-17906712D02*
X3216428Y-18211474D01*
X3216428Y-18211474D02*
X3254524Y-18287664D01*
X3254524Y-18287664D02*
X3292619Y-18325760D01*
X3292619Y-18325760D02*
X3368809Y-18363855D01*
X3368809Y-18363855D02*
X3521190Y-18363855D01*
X3521190Y-18363855D02*
X3597381Y-18325760D01*
X3597381Y-18325760D02*
X3635476Y-18287664D01*
X3635476Y-18287664D02*
X3673571Y-18211474D01*
X3673571Y-18211474D02*
X3673571Y-18020998D01*
X3673571Y-18020998D02*
X3635476Y-17944807D01*
X3635476Y-17944807D02*
X3597381Y-17906712D01*
X3597381Y-17906712D02*
X3521190Y-17868617D01*
X3521190Y-17868617D02*
X3368809Y-17868617D01*
X3368809Y-17868617D02*
X3292619Y-17906712D01*
X3292619Y-17906712D02*
X3254524Y-17944807D01*
X3254524Y-17944807D02*
X3216428Y-18020998D01*
X36504762Y-24118855D02*
X36238095Y-23737902D01*
X36047619Y-24118855D02*
X36047619Y-23318855D01*
X36047619Y-23318855D02*
X36352381Y-23318855D01*
X36352381Y-23318855D02*
X36428571Y-23356950D01*
X36428571Y-23356950D02*
X36466666Y-23395045D01*
X36466666Y-23395045D02*
X36504762Y-23471236D01*
X36504762Y-23471236D02*
X36504762Y-23585521D01*
X36504762Y-23585521D02*
X36466666Y-23661712D01*
X36466666Y-23661712D02*
X36428571Y-23699807D01*
X36428571Y-23699807D02*
X36352381Y-23737902D01*
X36352381Y-23737902D02*
X36047619Y-23737902D01*
X37266666Y-24118855D02*
X36809523Y-24118855D01*
X37038095Y-24118855D02*
X37038095Y-23318855D01*
X37038095Y-23318855D02*
X36961904Y-23433140D01*
X36961904Y-23433140D02*
X36885714Y-23509331D01*
X36885714Y-23509331D02*
X36809523Y-23547426D01*
X37761905Y-23318855D02*
X37838095Y-23318855D01*
X37838095Y-23318855D02*
X37914286Y-23356950D01*
X37914286Y-23356950D02*
X37952381Y-23395045D01*
X37952381Y-23395045D02*
X37990476Y-23471236D01*
X37990476Y-23471236D02*
X38028571Y-23623617D01*
X38028571Y-23623617D02*
X38028571Y-23814093D01*
X38028571Y-23814093D02*
X37990476Y-23966474D01*
X37990476Y-23966474D02*
X37952381Y-24042664D01*
X37952381Y-24042664D02*
X37914286Y-24080760D01*
X37914286Y-24080760D02*
X37838095Y-24118855D01*
X37838095Y-24118855D02*
X37761905Y-24118855D01*
X37761905Y-24118855D02*
X37685714Y-24080760D01*
X37685714Y-24080760D02*
X37647619Y-24042664D01*
X37647619Y-24042664D02*
X37609524Y-23966474D01*
X37609524Y-23966474D02*
X37571428Y-23814093D01*
X37571428Y-23814093D02*
X37571428Y-23623617D01*
X37571428Y-23623617D02*
X37609524Y-23471236D01*
X37609524Y-23471236D02*
X37647619Y-23395045D01*
X37647619Y-23395045D02*
X37685714Y-23356950D01*
X37685714Y-23356950D02*
X37761905Y-23318855D01*
X38790476Y-24118855D02*
X38333333Y-24118855D01*
X38561905Y-24118855D02*
X38561905Y-23318855D01*
X38561905Y-23318855D02*
X38485714Y-23433140D01*
X38485714Y-23433140D02*
X38409524Y-23509331D01*
X38409524Y-23509331D02*
X38333333Y-23547426D01*
%TO.C,R207*%
X48777500Y-40037258D02*
X48777500Y-39562742D01*
X49822500Y-40037258D02*
X49822500Y-39562742D01*
%TO.C,D200*%
X48540000Y-42440000D02*
X50060000Y-42440000D01*
X48540000Y-43440000D02*
X48540000Y-42440000D01*
X48540000Y-45560000D02*
X48540000Y-44560000D01*
X50060000Y-42440000D02*
X50060000Y-42490000D01*
X50060000Y-43610000D02*
X50060000Y-44390000D01*
X50060000Y-45510000D02*
X50060000Y-45560000D01*
X50060000Y-45560000D02*
X48540000Y-45560000D01*
X50600000Y-44380000D02*
X50360000Y-44050000D01*
X50840000Y-44050000D01*
X50600000Y-44380000D01*
G36*
X50600000Y-44380000D02*
G01*
X50360000Y-44050000D01*
X50840000Y-44050000D01*
X50600000Y-44380000D01*
G37*
%TO.C,TP301*%
X15950000Y-36000000D02*
G75*
G02*
X14050000Y-36000000I-950000J0D01*
G01*
X14050000Y-36000000D02*
G75*
G02*
X15950000Y-36000000I950000J0D01*
G01*
%TO.C,R104*%
X46162742Y-20377500D02*
X46637258Y-20377500D01*
X46162742Y-21422500D02*
X46637258Y-21422500D01*
%TO.C,R3*%
X17477500Y-19237258D02*
X17477500Y-18762742D01*
X18522500Y-19237258D02*
X18522500Y-18762742D01*
%TO.C,R304*%
X24262742Y-20277500D02*
X24737258Y-20277500D01*
X24262742Y-21322500D02*
X24737258Y-21322500D01*
%TO.C,C200*%
X31859420Y-35890000D02*
X32140580Y-35890000D01*
X31859420Y-36910000D02*
X32140580Y-36910000D01*
%TO.C,R5*%
X11762742Y-28477500D02*
X12237258Y-28477500D01*
X11762742Y-29522500D02*
X12237258Y-29522500D01*
%TO.C,R202*%
X31762742Y-44477500D02*
X32237258Y-44477500D01*
X31762742Y-45522500D02*
X32237258Y-45522500D01*
%TO.C,D100*%
X48540000Y-22440000D02*
X50060000Y-22440000D01*
X48540000Y-23440000D02*
X48540000Y-22440000D01*
X48540000Y-25560000D02*
X48540000Y-24560000D01*
X50060000Y-22440000D02*
X50060000Y-22490000D01*
X50060000Y-23610000D02*
X50060000Y-24390000D01*
X50060000Y-25510000D02*
X50060000Y-25560000D01*
X50060000Y-25560000D02*
X48540000Y-25560000D01*
X50600000Y-24380000D02*
X50360000Y-24050000D01*
X50840000Y-24050000D01*
X50600000Y-24380000D01*
G36*
X50600000Y-24380000D02*
G01*
X50360000Y-24050000D01*
X50840000Y-24050000D01*
X50600000Y-24380000D01*
G37*
%TO.C,C300*%
X17490000Y-40140580D02*
X17490000Y-39859420D01*
X18510000Y-40140580D02*
X18510000Y-39859420D01*
%TO.C,R303*%
X18762742Y-33477500D02*
X19237258Y-33477500D01*
X18762742Y-34522500D02*
X19237258Y-34522500D01*
%TO.C,R305*%
X24262742Y-22477500D02*
X24737258Y-22477500D01*
X24262742Y-23522500D02*
X24737258Y-23522500D01*
%TO.C,D201*%
X48540000Y-33940000D02*
X50060000Y-33940000D01*
X48540000Y-34940000D02*
X48540000Y-33940000D01*
X48540000Y-37060000D02*
X48540000Y-36060000D01*
X50060000Y-33940000D02*
X50060000Y-33990000D01*
X50060000Y-35110000D02*
X50060000Y-35890000D01*
X50060000Y-37010000D02*
X50060000Y-37060000D01*
X50060000Y-37060000D02*
X48540000Y-37060000D01*
X50600000Y-35880000D02*
X50360000Y-35550000D01*
X50840000Y-35550000D01*
X50600000Y-35880000D01*
G36*
X50600000Y-35880000D02*
G01*
X50360000Y-35550000D01*
X50840000Y-35550000D01*
X50600000Y-35880000D01*
G37*
%TO.C,R8*%
X19477500Y-19837258D02*
X19477500Y-19362742D01*
X20522500Y-19837258D02*
X20522500Y-19362742D01*
%TO.C,U101*%
X39050000Y-17430000D02*
X42950000Y-17430000D01*
X39050000Y-22570000D02*
X42950000Y-22570000D01*
X37225000Y-17550000D02*
G75*
G02*
X37025000Y-17550000I-100000J0D01*
G01*
X37025000Y-17550000D02*
G75*
G02*
X37225000Y-17550000I100000J0D01*
G01*
%TO.C,R206*%
X46162742Y-38677500D02*
X46637258Y-38677500D01*
X46162742Y-39722500D02*
X46637258Y-39722500D01*
%TO.C,U3*%
X7350000Y-24430000D02*
X8650000Y-24430000D01*
X7350000Y-27570000D02*
X8650000Y-27570000D01*
X6000000Y-24550000D02*
G75*
G02*
X5800000Y-24550000I-100000J0D01*
G01*
X5800000Y-24550000D02*
G75*
G02*
X6000000Y-24550000I100000J0D01*
G01*
%TO.C,U1*%
X26375000Y-9880000D02*
X27625000Y-9880000D01*
X26375000Y-12120000D02*
X27625000Y-12120000D01*
X25150000Y-10000000D02*
G75*
G02*
X24950000Y-10000000I-100000J0D01*
G01*
X24950000Y-10000000D02*
G75*
G02*
X25150000Y-10000000I100000J0D01*
G01*
%TO.C,J3*%
X52290000Y-29890000D02*
X52290000Y-31110000D01*
X52290000Y-31110000D02*
X55190000Y-31110000D01*
X52290000Y-46390000D02*
X52290000Y-47610000D01*
X52290000Y-47610000D02*
X64500000Y-47610000D01*
X54200000Y-44600000D02*
X54600000Y-45000000D01*
X54200000Y-45400000D02*
X54200000Y-44600000D01*
X54600000Y-45000000D02*
X54200000Y-45400000D01*
X55190000Y-31110000D02*
X55190000Y-31390000D01*
X55190000Y-46110000D02*
X55190000Y-46390000D01*
X55190000Y-46390000D02*
X52290000Y-46390000D01*
X57800000Y-32300000D02*
X57800000Y-29890000D01*
X57800000Y-33950000D02*
X62810000Y-33950000D01*
X57800000Y-34450000D02*
X57800000Y-33950000D01*
X57800000Y-35550000D02*
X61210000Y-35550000D01*
X57800000Y-36050000D02*
X57800000Y-35550000D01*
X57800000Y-41450000D02*
X57800000Y-41950000D01*
X57800000Y-41950000D02*
X61210000Y-41950000D01*
X57800000Y-43050000D02*
X57800000Y-43550000D01*
X57800000Y-43550000D02*
X62810000Y-43550000D01*
X57800000Y-45200000D02*
X57800000Y-47610000D01*
X61210000Y-34450000D02*
X57800000Y-34450000D01*
X61210000Y-35550000D02*
X61210000Y-34450000D01*
X61210000Y-41950000D02*
X61210000Y-43050000D01*
X61210000Y-43050000D02*
X57800000Y-43050000D01*
X62810000Y-31000000D02*
X64500000Y-31000000D01*
X62810000Y-32300000D02*
X57800000Y-32300000D01*
X62810000Y-36050000D02*
X57800000Y-36050000D01*
X62810000Y-37150000D02*
X62810000Y-31000000D01*
X62810000Y-41450000D02*
X57800000Y-41450000D01*
X62810000Y-45200000D02*
X57800000Y-45200000D01*
X62810000Y-46500000D02*
X62810000Y-40350000D01*
X64500000Y-29890000D02*
X52290000Y-29890000D01*
X64500000Y-46500000D02*
X62810000Y-46500000D01*
X64500000Y-47610000D02*
X64500000Y-29890000D01*
X59200000Y-37950000D02*
X61000000Y-37950000D01*
X61000000Y-39550000D01*
X59200000Y-39550000D01*
X59200000Y-37950000D01*
%TO.C,TP200*%
X41950000Y-35000000D02*
G75*
G02*
X40050000Y-35000000I-950000J0D01*
G01*
X40050000Y-35000000D02*
G75*
G02*
X41950000Y-35000000I950000J0D01*
G01*
%TO.C,D101*%
X48540000Y-13940000D02*
X50060000Y-13940000D01*
X48540000Y-14940000D02*
X48540000Y-13940000D01*
X48540000Y-17060000D02*
X48540000Y-16060000D01*
X50060000Y-13940000D02*
X50060000Y-13990000D01*
X50060000Y-15110000D02*
X50060000Y-15890000D01*
X50060000Y-17010000D02*
X50060000Y-17060000D01*
X50060000Y-17060000D02*
X48540000Y-17060000D01*
X50600000Y-15880000D02*
X50360000Y-15550000D01*
X50840000Y-15550000D01*
X50600000Y-15880000D01*
G36*
X50600000Y-15880000D02*
G01*
X50360000Y-15550000D01*
X50840000Y-15550000D01*
X50600000Y-15880000D01*
G37*
%TO.C,R2*%
X33477500Y-10237258D02*
X33477500Y-9762742D01*
X34522500Y-10237258D02*
X34522500Y-9762742D01*
%TO.C,TP100*%
X41950000Y-15000000D02*
G75*
G02*
X40050000Y-15000000I-950000J0D01*
G01*
X40050000Y-15000000D02*
G75*
G02*
X41950000Y-15000000I950000J0D01*
G01*
%TO.C,C2*%
X30859420Y-8990000D02*
X31140580Y-8990000D01*
X30859420Y-10010000D02*
X31140580Y-10010000D01*
%TO.C,R100*%
X26477500Y-17237258D02*
X26477500Y-16762742D01*
X27522500Y-17237258D02*
X27522500Y-16762742D01*
%TO.C,R205*%
X46162742Y-36977500D02*
X46637258Y-36977500D01*
X46162742Y-38022500D02*
X46637258Y-38022500D01*
%TO.C,U302*%
X17500000Y-22380000D02*
X20500000Y-22380000D01*
X17500000Y-25620000D02*
X20500000Y-25620000D01*
X15800000Y-22500000D02*
G75*
G02*
X15600000Y-22500000I-100000J0D01*
G01*
X15600000Y-22500000D02*
G75*
G02*
X15800000Y-22500000I100000J0D01*
G01*
%TO.C,R201*%
X34762742Y-40477500D02*
X35237258Y-40477500D01*
X34762742Y-41522500D02*
X35237258Y-41522500D01*
%TO.C,C3*%
X9590000Y-14590000D02*
X11940000Y-14590000D01*
X9590000Y-20345563D02*
X9590000Y-14590000D01*
X10654437Y-21410000D02*
X9590000Y-20345563D01*
X10654437Y-21410000D02*
X11940000Y-21410000D01*
X10758750Y-22043750D02*
X11546250Y-22043750D01*
X11152500Y-22437500D02*
X11152500Y-21650000D01*
X15345563Y-21410000D02*
X14060000Y-21410000D01*
X15345563Y-21410000D02*
X16410000Y-20345563D01*
X16410000Y-14590000D02*
X14060000Y-14590000D01*
X16410000Y-20345563D02*
X16410000Y-14590000D01*
%TO.C,U201*%
X39050000Y-37430000D02*
X42950000Y-37430000D01*
X39050000Y-42570000D02*
X42950000Y-42570000D01*
X37225000Y-37550000D02*
G75*
G02*
X37025000Y-37550000I-100000J0D01*
G01*
X37025000Y-37550000D02*
G75*
G02*
X37225000Y-37550000I100000J0D01*
G01*
%TO.C,U100*%
X30200000Y-18430000D02*
X31800000Y-18430000D01*
X30200000Y-21570000D02*
X31800000Y-21570000D01*
X28850000Y-18550000D02*
G75*
G02*
X28650000Y-18550000I-100000J0D01*
G01*
X28650000Y-18550000D02*
G75*
G02*
X28850000Y-18550000I100000J0D01*
G01*
%TO.C,C304*%
X14490000Y-25140580D02*
X14490000Y-24859420D01*
X15510000Y-25140580D02*
X15510000Y-24859420D01*
%TO.C,C305*%
X23859420Y-26490000D02*
X24140580Y-26490000D01*
X23859420Y-27510000D02*
X24140580Y-27510000D01*
%TO.C,R208*%
X35762742Y-34477500D02*
X36237258Y-34477500D01*
X35762742Y-35522500D02*
X36237258Y-35522500D01*
%TO.C,R7*%
X29477500Y-13237258D02*
X29477500Y-12762742D01*
X30522500Y-13237258D02*
X30522500Y-12762742D01*
%TO.C,R108*%
X35762742Y-14477500D02*
X36237258Y-14477500D01*
X35762742Y-15522500D02*
X36237258Y-15522500D01*
%TO.C,R300*%
X14762742Y-48277500D02*
X15237258Y-48277500D01*
X14762742Y-49322500D02*
X15237258Y-49322500D01*
%TO.C,J4*%
X500000Y-38390000D02*
X500000Y-46110000D01*
X500000Y-39500000D02*
X2190000Y-39500000D01*
X500000Y-46110000D02*
X12710000Y-46110000D01*
X2190000Y-39500000D02*
X2190000Y-40650000D01*
X2190000Y-40650000D02*
X7200000Y-40650000D01*
X2190000Y-43850000D02*
X2190000Y-45000000D01*
X2190000Y-43850000D02*
X7200000Y-43850000D01*
X2190000Y-45000000D02*
X500000Y-45000000D01*
X3790000Y-39050000D02*
X7200000Y-39050000D01*
X3790000Y-40150000D02*
X3790000Y-39050000D01*
X3790000Y-44350000D02*
X3790000Y-45450000D01*
X3790000Y-45450000D02*
X7200000Y-45450000D01*
X7200000Y-39050000D02*
X7200000Y-38390000D01*
X7200000Y-40150000D02*
X3790000Y-40150000D01*
X7200000Y-40650000D02*
X7200000Y-40150000D01*
X7200000Y-43850000D02*
X7200000Y-44350000D01*
X7200000Y-44350000D02*
X3790000Y-44350000D01*
X7200000Y-45450000D02*
X7200000Y-46110000D01*
X9810000Y-39610000D02*
X12710000Y-39610000D01*
X9810000Y-39890000D02*
X9810000Y-39610000D01*
X9810000Y-44890000D02*
X9810000Y-44610000D01*
X10400000Y-41000000D02*
X10800000Y-40600000D01*
X10800000Y-40600000D02*
X10800000Y-41400000D01*
X10800000Y-41400000D02*
X10400000Y-41000000D01*
X12710000Y-38390000D02*
X500000Y-38390000D01*
X12710000Y-39610000D02*
X12710000Y-38390000D01*
X12710000Y-44890000D02*
X9810000Y-44890000D01*
X12710000Y-46110000D02*
X12710000Y-44890000D01*
X4000000Y-41850000D02*
X5800000Y-41850000D01*
X5800000Y-42650000D01*
X4000000Y-42650000D01*
X4000000Y-41850000D01*
%TO.C,R200*%
X28477500Y-34737258D02*
X28477500Y-34262742D01*
X29522500Y-34737258D02*
X29522500Y-34262742D01*
%TO.C,C303*%
X26490000Y-32140580D02*
X26490000Y-31859420D01*
X27510000Y-32140580D02*
X27510000Y-31859420D01*
%TO.C,R204*%
X46162742Y-40377500D02*
X46637258Y-40377500D01*
X46162742Y-41422500D02*
X46637258Y-41422500D01*
%TO.C,R1*%
X17762742Y-10477500D02*
X18237258Y-10477500D01*
X17762742Y-11522500D02*
X18237258Y-11522500D01*
%TO.C,R302*%
X14477500Y-43237258D02*
X14477500Y-42762742D01*
X15522500Y-43237258D02*
X15522500Y-42762742D01*
%TO.C,TP303*%
X8950000Y-49000000D02*
G75*
G02*
X7050000Y-49000000I-950000J0D01*
G01*
X7050000Y-49000000D02*
G75*
G02*
X8950000Y-49000000I950000J0D01*
G01*
%TO.C,U2*%
X22375000Y-13880000D02*
X23625000Y-13880000D01*
X22375000Y-16120000D02*
X23625000Y-16120000D01*
X21150000Y-14000000D02*
G75*
G02*
X20950000Y-14000000I-100000J0D01*
G01*
X20950000Y-14000000D02*
G75*
G02*
X21150000Y-14000000I100000J0D01*
G01*
%TO.C,R102*%
X29762742Y-23977500D02*
X30237258Y-23977500D01*
X29762742Y-25022500D02*
X30237258Y-25022500D01*
%TO.C,C5*%
X19490000Y-14140580D02*
X19490000Y-13859420D01*
X20510000Y-14140580D02*
X20510000Y-13859420D01*
%TO.C,R105*%
X46162742Y-16977500D02*
X46637258Y-16977500D01*
X46162742Y-18022500D02*
X46637258Y-18022500D01*
%TO.C,R103*%
X46162742Y-22077500D02*
X46637258Y-22077500D01*
X46162742Y-23122500D02*
X46637258Y-23122500D01*
%TO.C,R106*%
X46162742Y-18677500D02*
X46637258Y-18677500D01*
X46162742Y-19722500D02*
X46637258Y-19722500D01*
%TO.C,C201*%
X35690000Y-38140580D02*
X35690000Y-37859420D01*
X36710000Y-38140580D02*
X36710000Y-37859420D01*
%TO.C,U300*%
X20800000Y-38380000D02*
X25200000Y-38380000D01*
X20800000Y-43620000D02*
X25200000Y-43620000D01*
X19050000Y-38500000D02*
G75*
G02*
X18850000Y-38500000I-100000J0D01*
G01*
X18850000Y-38500000D02*
G75*
G02*
X19050000Y-38500000I100000J0D01*
G01*
%TO.C,TP302*%
X8950000Y-31000000D02*
G75*
G02*
X7050000Y-31000000I-950000J0D01*
G01*
X7050000Y-31000000D02*
G75*
G02*
X8950000Y-31000000I950000J0D01*
G01*
%TO.C,R301*%
X14762742Y-39477500D02*
X15237258Y-39477500D01*
X14762742Y-40522500D02*
X15237258Y-40522500D01*
%TO.C,U301*%
X24500000Y-29380000D02*
X21500000Y-29380000D01*
X24500000Y-32620000D02*
X21500000Y-32620000D01*
X26425000Y-32500000D02*
G75*
G02*
X26225000Y-32500000I-100000J0D01*
G01*
X26225000Y-32500000D02*
G75*
G02*
X26425000Y-32500000I100000J0D01*
G01*
%TO.C,U200*%
X30200000Y-38430000D02*
X31800000Y-38430000D01*
X30200000Y-41570000D02*
X31800000Y-41570000D01*
X28850000Y-38550000D02*
G75*
G02*
X28650000Y-38550000I-100000J0D01*
G01*
X28650000Y-38550000D02*
G75*
G02*
X28850000Y-38550000I100000J0D01*
G01*
%TO.C,C101*%
X35690000Y-18140580D02*
X35690000Y-17859420D01*
X36710000Y-18140580D02*
X36710000Y-17859420D01*
%TO.C,TP300*%
X16950000Y-51000000D02*
G75*
G02*
X15050000Y-51000000I-950000J0D01*
G01*
X15050000Y-51000000D02*
G75*
G02*
X16950000Y-51000000I950000J0D01*
G01*
%TO.C,R4*%
X7762742Y-21977500D02*
X8237258Y-21977500D01*
X7762742Y-23022500D02*
X8237258Y-23022500D01*
%TO.C,R107*%
X48777500Y-20037258D02*
X48777500Y-19562742D01*
X49822500Y-20037258D02*
X49822500Y-19562742D01*
%TO.C,J2*%
X52290000Y-8890000D02*
X52290000Y-10110000D01*
X52290000Y-10110000D02*
X55190000Y-10110000D01*
X52290000Y-25390000D02*
X52290000Y-26610000D01*
X52290000Y-26610000D02*
X64500000Y-26610000D01*
X54200000Y-23600000D02*
X54600000Y-24000000D01*
X54200000Y-24400000D02*
X54200000Y-23600000D01*
X54600000Y-24000000D02*
X54200000Y-24400000D01*
X55190000Y-10110000D02*
X55190000Y-10390000D01*
X55190000Y-25110000D02*
X55190000Y-25390000D01*
X55190000Y-25390000D02*
X52290000Y-25390000D01*
X57800000Y-11300000D02*
X57800000Y-8890000D01*
X57800000Y-12950000D02*
X62810000Y-12950000D01*
X57800000Y-13450000D02*
X57800000Y-12950000D01*
X57800000Y-14550000D02*
X61210000Y-14550000D01*
X57800000Y-15050000D02*
X57800000Y-14550000D01*
X57800000Y-20450000D02*
X57800000Y-20950000D01*
X57800000Y-20950000D02*
X61210000Y-20950000D01*
X57800000Y-22050000D02*
X57800000Y-22550000D01*
X57800000Y-22550000D02*
X62810000Y-22550000D01*
X57800000Y-24200000D02*
X57800000Y-26610000D01*
X61210000Y-13450000D02*
X57800000Y-13450000D01*
X61210000Y-14550000D02*
X61210000Y-13450000D01*
X61210000Y-20950000D02*
X61210000Y-22050000D01*
X61210000Y-22050000D02*
X57800000Y-22050000D01*
X62810000Y-10000000D02*
X64500000Y-10000000D01*
X62810000Y-11300000D02*
X57800000Y-11300000D01*
X62810000Y-15050000D02*
X57800000Y-15050000D01*
X62810000Y-16150000D02*
X62810000Y-10000000D01*
X62810000Y-20450000D02*
X57800000Y-20450000D01*
X62810000Y-24200000D02*
X57800000Y-24200000D01*
X62810000Y-25500000D02*
X62810000Y-19350000D01*
X64500000Y-8890000D02*
X52290000Y-8890000D01*
X64500000Y-25500000D02*
X62810000Y-25500000D01*
X64500000Y-26610000D02*
X64500000Y-8890000D01*
X59200000Y-16950000D02*
X61000000Y-16950000D01*
X61000000Y-18550000D01*
X59200000Y-18550000D01*
X59200000Y-16950000D01*
%TO.C,C4*%
X11490000Y-25140580D02*
X11490000Y-24859420D01*
X12510000Y-25140580D02*
X12510000Y-24859420D01*
%TO.C,C302*%
X26490000Y-45840580D02*
X26490000Y-45559420D01*
X27510000Y-45840580D02*
X27510000Y-45559420D01*
%TO.C,TP1*%
X8950000Y-13000000D02*
G75*
G02*
X7050000Y-13000000I-950000J0D01*
G01*
X7050000Y-13000000D02*
G75*
G02*
X8950000Y-13000000I950000J0D01*
G01*
%TO.C,C301*%
X18859420Y-35490000D02*
X19140580Y-35490000D01*
X18859420Y-36510000D02*
X19140580Y-36510000D01*
%TO.C,C100*%
X31859420Y-15890000D02*
X32140580Y-15890000D01*
X31859420Y-16910000D02*
X32140580Y-16910000D01*
%TO.C,C1*%
X22859420Y-8990000D02*
X23140580Y-8990000D01*
X22859420Y-10010000D02*
X23140580Y-10010000D01*
%TO.C,R203*%
X46162742Y-42077500D02*
X46637258Y-42077500D01*
X46162742Y-43122500D02*
X46637258Y-43122500D01*
%TO.C,R6*%
X4477500Y-18237258D02*
X4477500Y-17762742D01*
X5522500Y-18237258D02*
X5522500Y-17762742D01*
%TO.C,R101*%
X34762742Y-20477500D02*
X35237258Y-20477500D01*
X34762742Y-21522500D02*
X35237258Y-21522500D01*
%TD*%
M02*
