M48
; DRILL file KiCad 10.0.4-10.0.4~ubuntu26.04.1 date 2026-09-11T16:46:03
; FORMAT={-:-/ absolute / metric / decimal}
; #@! TF.CreationDate,2026-09-11T16:46:03+09:00
; #@! TF.GenerationSoftware,Kicad,Pcbnew,10.0.4-10.0.4~ubuntu26.04.1
; #@! TF.FileFunction,Plated,1,4,PTH
FMAT,2
METRIC
; #@! TA.AperFunction,Plated,PTH,ViaDrill
T1C0.300
; #@! TA.AperFunction,Plated,PTH,ComponentDrill
T2C0.950
; #@! TA.AperFunction,Plated,PTH,ComponentDrill
T3C1.020
; #@! TA.AperFunction,Plated,PTH,ComponentDrill
T4C3.200
%
G90
G05
T1
X6.0Y-17.175
X7.95Y-25.05
X9.0Y-49.0
X10.2Y-43.5
X13.0Y-24.225
X13.237Y-22.882
X13.825Y-29.0
X14.0Y-15.5
X14.0Y-24.225
X15.234Y-40.996
X15.825Y-47.815
X16.0Y-42.175
X17.0Y-39.225
X17.8Y-24.975
X18.006Y-24.155
X19.0Y-18.175
X20.1Y-38.323
X20.1Y-43.95
X20.755Y-25.722
X20.775Y-36.0
X20.825Y-34.0
X20.995Y-20.425
X21.0Y-13.225
X21.3Y-41.0
X21.75Y-28.35
X21.8Y-30.0
X22.5Y-15.95
X22.587Y-23.116
X22.9Y-15.0
X24.0Y-14.25
X24.293Y-28.176
X24.775Y-9.5
X25.076Y-15.2
X25.2Y-29.0
X25.2Y-33.0
X25.775Y-27.0
X26.4Y-31.0
X26.9Y-11.0
X27.1Y-39.7
X27.1Y-41.65
X28.0Y-31.225
X28.0Y-44.925
X28.536Y-16.636
X30.585Y-21.735
X30.7Y-20.0
X30.7Y-40.0
X31.0Y-12.175
X31.236Y-40.95
X32.037Y-35.588
X32.775Y-9.5
X33.312Y-22.399
X33.775Y-16.4
X33.775Y-36.4
X34.403Y-15.81
X34.989Y-39.568
X35.0Y-9.175
X35.099Y-33.966
X36.284Y-19.868
X37.2Y-17.225
X37.2Y-37.225
X39.3Y-21.905
X39.3Y-41.905
X44.262Y-45.0
X49.3Y-15.5
X49.3Y-24.0
X49.3Y-35.5
X49.3Y-44.0
X49.36Y-22.988
X51.458Y-21.5
X56.8Y-14.0
X56.8Y-35.0
T2
X9.2Y-41.0
X9.2Y-43.5
X55.8Y-11.5
X55.8Y-14.0
X55.8Y-16.5
X55.8Y-19.0
X55.8Y-21.5
X55.8Y-24.0
X55.8Y-32.5
X55.8Y-35.0
X55.8Y-37.5
X55.8Y-40.0
X55.8Y-42.5
X55.8Y-45.0
T3
X8.37Y-2.23
X8.37Y-4.77
X10.91Y-2.23
X10.91Y-4.77
X13.45Y-2.23
X13.45Y-4.77
X15.99Y-2.23
X15.99Y-4.77
X18.53Y-2.23
X18.53Y-4.77
X21.07Y-2.23
X21.07Y-4.77
X23.61Y-2.23
X23.61Y-4.77
X26.15Y-2.23
X26.15Y-4.77
X28.69Y-2.23
X28.69Y-4.77
X31.23Y-2.23
X31.23Y-4.77
X33.77Y-2.23
X33.77Y-4.77
X36.31Y-2.23
X36.31Y-4.77
X38.85Y-2.23
X38.85Y-4.77
X41.39Y-2.23
X41.39Y-4.77
X43.93Y-2.23
X43.93Y-4.77
X46.47Y-2.23
X46.47Y-4.77
X49.01Y-2.23
X49.01Y-4.77
X51.55Y-2.23
X51.55Y-4.77
X54.09Y-2.23
X54.09Y-4.77
X56.63Y-2.23
X56.63Y-4.77
T4
X32.0Y-51.0
M30
