#VRML V2.0 utf8
# Conservative 16mm header envelope, not contact manufacturing geometry.
Transform { translation -0.5 -9.5 3.149606299212598 children [ Shape { appearance Appearance { material Material { diffuseColor 0.12 0.12 0.12 } } geometry Box { size 2.02755905511811 20.35433070866142 6.299212598425196 } } ] }
Transform { translation 0.0 0.0 -1.437007874015748 children [ Shape { appearance Appearance { material Material { diffuseColor 0.7 0.65 0.3 } } geometry Box { size 0.25196850393700787 0.23622047244094488 2.874015748031496 } } ] }
Transform { translation -1.0 0.0 -1.437007874015748 children [ Shape { appearance Appearance { material Material { diffuseColor 0.7 0.65 0.3 } } geometry Box { size 0.25196850393700787 0.23622047244094488 2.874015748031496 } } ] }
Transform { translation 0.0 -1.0 -1.437007874015748 children [ Shape { appearance Appearance { material Material { diffuseColor 0.7 0.65 0.3 } } geometry Box { size 0.25196850393700787 0.23622047244094488 2.874015748031496 } } ] }
Transform { translation -1.0 -1.0 -1.437007874015748 children [ Shape { appearance Appearance { material Material { diffuseColor 0.7 0.65 0.3 } } geometry Box { size 0.25196850393700787 0.23622047244094488 2.874015748031496 } } ] }
Transform { translation 0.0 -2.0 -1.437007874015748 children [ Shape { appearance Appearance { material Material { diffuseColor 0.7 0.65 0.3 } } geometry Box { size 0.25196850393700787 0.23622047244094488 2.874015748031496 } } ] }
Transform { translation -1.0 -2.0 -1.437007874015748 children [ Shape { appearance Appearance { material Material { diffuseColor 0.7 0.65 0.3 } } geometry Box { size 0.25196850393700787 0.23622047244094488 2.874015748031496 } } ] }
Transform { translation 0.0 -3.0 -1.437007874015748 children [ Shape { appearance Appearance { material Material { diffuseColor 0.7 0.65 0.3 } } geometry Box { size 0.25196850393700787 0.23622047244094488 2.874015748031496 } } ] }
Transform { translation -1.0 -3.0 -1.437007874015748 children [ Shape { appearance Appearance { material Material { diffuseColor 0.7 0.65 0.3 } } geometry Box { size 0.25196850393700787 0.23622047244094488 2.874015748031496 } } ] }
Transform { translation 0.0 -4.0 -1.437007874015748 children [ Shape { appearance Appearance { material Material { diffuseColor 0.7 0.65 0.3 } } geometry Box { size 0.25196850393700787 0.23622047244094488 2.874015748031496 } } ] }
Transform { translation -1.0 -4.0 -1.437007874015748 children [ Shape { appearance Appearance { material Material { diffuseColor 0.7 0.65 0.3 } } geometry Box { size 0.25196850393700787 0.23622047244094488 2.874015748031496 } } ] }
Transform { translation 0.0 -5.0 -1.437007874015748 children [ Shape { appearance Appearance { material Material { diffuseColor 0.7 0.65 0.3 } } geometry Box { size 0.25196850393700787 0.23622047244094488 2.874015748031496 } } ] }
Transform { translation -1.0 -5.0 -1.437007874015748 children [ Shape { appearance Appearance { material Material { diffuseColor 0.7 0.65 0.3 } } geometry Box { size 0.25196850393700787 0.23622047244094488 2.874015748031496 } } ] }
Transform { translation 0.0 -6.0 -1.437007874015748 children [ Shape { appearance Appearance { material Material { diffuseColor 0.7 0.65 0.3 } } geometry Box { size 0.25196850393700787 0.23622047244094488 2.874015748031496 } } ] }
Transform { translation -1.0 -6.0 -1.437007874015748 children [ Shape { appearance Appearance { material Material { diffuseColor 0.7 0.65 0.3 } } geometry Box { size 0.25196850393700787 0.23622047244094488 2.874015748031496 } } ] }
Transform { translation 0.0 -7.0 -1.437007874015748 children [ Shape { appearance Appearance { material Material { diffuseColor 0.7 0.65 0.3 } } geometry Box { size 0.25196850393700787 0.23622047244094488 2.874015748031496 } } ] }
Transform { translation -1.0 -7.0 -1.437007874015748 children [ Shape { appearance Appearance { material Material { diffuseColor 0.7 0.65 0.3 } } geometry Box { size 0.25196850393700787 0.23622047244094488 2.874015748031496 } } ] }
Transform { translation 0.0 -8.0 -1.437007874015748 children [ Shape { appearance Appearance { material Material { diffuseColor 0.7 0.65 0.3 } } geometry Box { size 0.25196850393700787 0.23622047244094488 2.874015748031496 } } ] }
Transform { translation -1.0 -8.0 -1.437007874015748 children [ Shape { appearance Appearance { material Material { diffuseColor 0.7 0.65 0.3 } } geometry Box { size 0.25196850393700787 0.23622047244094488 2.874015748031496 } } ] }
Transform { translation 0.0 -9.0 -1.437007874015748 children [ Shape { appearance Appearance { material Material { diffuseColor 0.7 0.65 0.3 } } geometry Box { size 0.25196850393700787 0.23622047244094488 2.874015748031496 } } ] }
Transform { translation -1.0 -9.0 -1.437007874015748 children [ Shape { appearance Appearance { material Material { diffuseColor 0.7 0.65 0.3 } } geometry Box { size 0.25196850393700787 0.23622047244094488 2.874015748031496 } } ] }
Transform { translation 0.0 -10.0 -1.437007874015748 children [ Shape { appearance Appearance { material Material { diffuseColor 0.7 0.65 0.3 } } geometry Box { size 0.25196850393700787 0.23622047244094488 2.874015748031496 } } ] }
Transform { translation -1.0 -10.0 -1.437007874015748 children [ Shape { appearance Appearance { material Material { diffuseColor 0.7 0.65 0.3 } } geometry Box { size 0.25196850393700787 0.23622047244094488 2.874015748031496 } } ] }
Transform { translation 0.0 -11.0 -1.437007874015748 children [ Shape { appearance Appearance { material Material { diffuseColor 0.7 0.65 0.3 } } geometry Box { size 0.25196850393700787 0.23622047244094488 2.874015748031496 } } ] }
Transform { translation -1.0 -11.0 -1.437007874015748 children [ Shape { appearance Appearance { material Material { diffuseColor 0.7 0.65 0.3 } } geometry Box { size 0.25196850393700787 0.23622047244094488 2.874015748031496 } } ] }
Transform { translation 0.0 -12.0 -1.437007874015748 children [ Shape { appearance Appearance { material Material { diffuseColor 0.7 0.65 0.3 } } geometry Box { size 0.25196850393700787 0.23622047244094488 2.874015748031496 } } ] }
Transform { translation -1.0 -12.0 -1.437007874015748 children [ Shape { appearance Appearance { material Material { diffuseColor 0.7 0.65 0.3 } } geometry Box { size 0.25196850393700787 0.23622047244094488 2.874015748031496 } } ] }
Transform { translation 0.0 -13.000000000000002 -1.437007874015748 children [ Shape { appearance Appearance { material Material { diffuseColor 0.7 0.65 0.3 } } geometry Box { size 0.25196850393700787 0.23622047244094488 2.874015748031496 } } ] }
Transform { translation -1.0 -13.000000000000002 -1.437007874015748 children [ Shape { appearance Appearance { material Material { diffuseColor 0.7 0.65 0.3 } } geometry Box { size 0.25196850393700787 0.23622047244094488 2.874015748031496 } } ] }
Transform { translation 0.0 -14.0 -1.437007874015748 children [ Shape { appearance Appearance { material Material { diffuseColor 0.7 0.65 0.3 } } geometry Box { size 0.25196850393700787 0.23622047244094488 2.874015748031496 } } ] }
Transform { translation -1.0 -14.0 -1.437007874015748 children [ Shape { appearance Appearance { material Material { diffuseColor 0.7 0.65 0.3 } } geometry Box { size 0.25196850393700787 0.23622047244094488 2.874015748031496 } } ] }
Transform { translation 0.0 -15.0 -1.437007874015748 children [ Shape { appearance Appearance { material Material { diffuseColor 0.7 0.65 0.3 } } geometry Box { size 0.25196850393700787 0.23622047244094488 2.874015748031496 } } ] }
Transform { translation -1.0 -15.0 -1.437007874015748 children [ Shape { appearance Appearance { material Material { diffuseColor 0.7 0.65 0.3 } } geometry Box { size 0.25196850393700787 0.23622047244094488 2.874015748031496 } } ] }
Transform { translation 0.0 -16.0 -1.437007874015748 children [ Shape { appearance Appearance { material Material { diffuseColor 0.7 0.65 0.3 } } geometry Box { size 0.25196850393700787 0.23622047244094488 2.874015748031496 } } ] }
Transform { translation -1.0 -16.0 -1.437007874015748 children [ Shape { appearance Appearance { material Material { diffuseColor 0.7 0.65 0.3 } } geometry Box { size 0.25196850393700787 0.23622047244094488 2.874015748031496 } } ] }
Transform { translation 0.0 -17.0 -1.437007874015748 children [ Shape { appearance Appearance { material Material { diffuseColor 0.7 0.65 0.3 } } geometry Box { size 0.25196850393700787 0.23622047244094488 2.874015748031496 } } ] }
Transform { translation -1.0 -17.0 -1.437007874015748 children [ Shape { appearance Appearance { material Material { diffuseColor 0.7 0.65 0.3 } } geometry Box { size 0.25196850393700787 0.23622047244094488 2.874015748031496 } } ] }
Transform { translation 0.0 -18.0 -1.437007874015748 children [ Shape { appearance Appearance { material Material { diffuseColor 0.7 0.65 0.3 } } geometry Box { size 0.25196850393700787 0.23622047244094488 2.874015748031496 } } ] }
Transform { translation -1.0 -18.0 -1.437007874015748 children [ Shape { appearance Appearance { material Material { diffuseColor 0.7 0.65 0.3 } } geometry Box { size 0.25196850393700787 0.23622047244094488 2.874015748031496 } } ] }
Transform { translation 0.0 -19.0 -1.437007874015748 children [ Shape { appearance Appearance { material Material { diffuseColor 0.7 0.65 0.3 } } geometry Box { size 0.25196850393700787 0.23622047244094488 2.874015748031496 } } ] }
Transform { translation -1.0 -19.0 -1.437007874015748 children [ Shape { appearance Appearance { material Material { diffuseColor 0.7 0.65 0.3 } } geometry Box { size 0.25196850393700787 0.23622047244094488 2.874015748031496 } } ] }
